<?xml version="1.0" encoding="utf-8"?>
<!-- Generator: Adobe Illustrator 23.0.0, SVG Export Plug-In . SVG Version: 6.00 Build 0)  -->
<svg version="1.1" id="Capa_1" xmlns="http://www.w3.org/2000/svg" xmlns:xlink="http://www.w3.org/1999/xlink" x="0px" y="0px"
	 viewBox="0 0 480.3 160" style="enable-background:new 0 0 480.3 160;" xml:space="preserve">
<style type="text/css">
	.st0{fill:#4C616F;}
	.st1{fill:#143344;}
	.st2{fill:#4D6373;}
	.st3{fill:#727477;}
	.st4{enable-background:new    ;}
	.st5{fillRule:evenodd;clipRule:evenodd;fill:#FEFEFE;stroke:#9B9B9B;stroke-width:0.5;stroke-miterlimit:10;}
	.st6{clip-path:url(#SVGID_2_);fillRule:evenodd;clipRule:evenodd;fill:#F1F1F1;}
	.st7{fillRule:evenodd;clipRule:evenodd;fill:#E61A36;}
	.st8{clip-path:url(#SVGID_4_);fillRule:evenodd;clipRule:evenodd;fill:#C3152D;}
	.st9{clip-path:url(#SVGID_6_);fillRule:evenodd;clipRule:evenodd;fill:#F1F1F1;}
	.st10{fillRule:evenodd;clipRule:evenodd;fill:#E82A44;}
</style>
<circle class="st0" cx="375.1" cy="125.3" r="2.8"/>
<g>
	<g>
		<path class="st1" d="M6,85.3c2,0.6,3.8-0.5,5.5-0.9c1.8-0.5,3.5-0.4,5.5-0.7c0,6.9,0,13.7,0,20.5c11.1,0,22.1,0,33,0
			c0-18.1,0-36,0-54.2c1.9-0.5,3.6-0.2,5.4-0.2c1.8-0.1,3.6,0,5.7,0c0,1.4,0,2.7,0,3.9c0,16.1-0.1,32.1,0,48.2c0,3-0.9,5.8-2.5,8
			c-1.3,1.9-3.8,2.6-6.4,3.2c-5.1,1-10,0.6-15.1,0.7c-5.8,0.1-11.6,0-17.4,0c-2.3,0-4.6-0.5-6.6-1.1c-4.5-1.4-5.6-3.1-6.5-7.8
			c-0.1-0.6,0.3-1.4-0.7-1.4C6,97.4,6,91.3,6,85.3z"/>
		<path class="st1" d="M429.5,72.6c0-4.8,0-9.4,0-14c-14.4,0-28.7,0-43.2,0c0,15.2,0,30.3,0,45.6c14.3,0,28.6,0,43.2,0
			c0-4.7,0-9.4,0-14.1c0-1.5,0.6-2.1,1.8-1.6c2.3,0.8,4.8,1.3,7.3,1.6c1.4,0.1,2,0.7,2.1,2.2c0,3.2,0.1,6.4,0,9.4
			c-0.1,1.9-0.3,3.8-1,5.5c-1.3,3.2-3.8,5.4-7.4,5.7c-2.2,0.2-4.1,1.2-6.4,0.9s-4.5-0.1-6.7-0.1c-9.7,0-19.5,0-29.2,0
			c-2.9,0-5.6-0.7-8.4-1.5c-2.9-0.7-4.1-3.1-5.5-5.3c0.5-1.9-0.8-3.4-0.8-5.2c0.1-13.3,0.1-26.6,0-39.9c0-2,0.7-3.7,1.1-5.5
			c0.8-3.3,3.6-5,6.8-5.8c2.8-0.7,5.6-0.7,8.4-0.7c12.3,0,24.5,0,36.8,0c2.5,0,4.9,0.8,7.2,1.6c3,0.8,3.8,3.5,4.4,5.9
			c0.3,1.2,1.2,2.2,0.9,3.6c-0.2,1.3,0,2.6,0,3.9c0,1.2,0.1,2.3,0,3.6c-0.1,0.8,0.5,2-0.3,2.6c-0.7,0.5-1.8-0.1-2.3,0.9
			C435.1,71.4,432.5,73,429.5,72.6z"/>
		<path class="st2" d="M369.3,105.2c0,1.6,0,3,0,4.5c-99.5,0-198.7,0-298.3,0c0-1.4,0-2.9,0-4.5
			C170.3,105.2,269.6,105.2,369.3,105.2z"/>
		<path class="st1" d="M98.9,49.8c6.5,0,12.9,0,19.4,0c1.4,0,2.7,0.3,4,0.7c1.3,0.5,2.9,0.7,3.6,1.9c0.7,1.6,2,3.1,2,5.1
			c-0.1,11.7,0,23.4-0.1,35.2c0,3.2-2,6.1-5.8,7c-2.4,0.6-4.8,0.7-7.2,0.7c-11.6,0-23.2,0-34.7,0c-2.1,0-5.2-1.4-7-2.2
			c-2-0.8-1.6-2.9-2.9-3.9c0.4-2.4-0.9-4.7-0.8-7.2c0.2-7.4,0.2-14.8,0-22.1c-0.1-3.3,0.7-6.4,1-9.5c0.1-1.7,1.2-3.4,3.4-4.1
			c2.7-1,3.4-1.5,5.7-1.5C85.7,49.8,92.4,49.8,98.9,49.8z M77.9,56.9c0,11.2,0,22.2,0,33.1c0,2.8,0.3,3.2,3,3.2c5.2,0,10.5,0,15.8,0
			c7.3,0,14.7,0,22.1,0c0-12.2,0-24.2,0-36.3C105.2,56.9,91.7,56.9,77.9,56.9z"/>
		<path class="st1" d="M308.5,49.8c0,16.9,0,33.6,0,50.4c-2.5,0-5,0-7.8,0c0-12.7,0-25.5,0-39.3c-1.9,2.6-3.3,4.3-4.4,6.3
			c-4.8,8-10.9,15.1-15.4,23.2c-0.3,0.6-0.8,1-1.3,1.4c-1.2,1.1-2.3,0.8-3.5-0.7c-2.6-3.5-5.2-6.7-7.8-10.2c-2.4-3.3-4.6-6.8-7.1-10
			c-2.1-2.6-3.9-5.4-5.8-8.2c-0.4-0.6-0.3-1.2-0.7-1.7c-0.2,0.6,0.1-0.3-0.3,0.1c-0.1,0.1-0.2,0.2-0.2,0.3c0,12.9,0,25.8,0,38.8
			c-2.3,0-4.6,0-7,0c0-16.7,0-33.4,0-50.1c0.2-0.4,0.7-0.3,1-0.3c1.9,0,3.7-0.4,5.5,0.1c1.8,0.5,2.3,2.6,3.4,4
			c3.6,4.9,7.2,9.6,10.8,14.4c2.7,3.6,5.2,7.4,8.2,10.9c0.4,0.5,0.7,0.9,1.1,1.5c0.9,1.8,1.1,1.7,2.3,0c2.4-3.7,5-7.4,7.5-11.1
			c3.4-4.9,7.1-9.6,10.1-14.8c0.7-1.3,2.1-2.2,2.8-3.6c0.6-1,1.5-1.6,2.9-1.5C304.5,49.9,306.3,49.8,308.5,49.8z"/>
		<path class="st1" d="M319,49.8c16.3,0,32.5,0,48.7,0c0,2.2,0,4.5,0,6.9c-13,0-26.1,0-39.3,0c0,4.6,0,8.9,0,13.4
			c7.8,0,15.4,0,23.5,0c0.2,2.4,0.1,4.7,0.1,7.1c-7.9,0-15.6,0-23.5,0c0,5.3,0,10.5,0,15.8c13.3,0,26.5,0,40,0c0,2.4,0,4.7,0,7.1
			c-16.5,0-32.9,0-49.5,0C319,83.5,319,66.8,319,49.8z"/>
		<path class="st1" d="M146.6,80.6c0,6.6,0,13.1,0,19.6c-2.8,0-5.6,0-8.5,0c0-16.7,0-33.4,0-50.4c1.2,0,2.5,0,3.8,0
			c12.6,0,25.3,0,37.9,0c6.3,0,9.1,3.6,9.4,9.3c0.3,4,0.2,8.1,0,12.3c-0.1,2.6-0.9,5.1-2.9,7.1c-1.6,1.6-3.6,2.2-5.8,2.2
			c-9.8,0-19.7,0-29.6,0C149.7,80.6,148.4,80.6,146.6,80.6z M146.7,73.5c10.1,0,19.8-0.1,29.5,0.1c2,0,2.9-0.9,3.6-2.3
			c1.2-2.5,1.2-9.4,0-12c-0.7-1.4-1.6-2.4-3.6-2.3c-7.4,0.1-14.7,0-22.1,0c-2.4,0-5,0-7.5,0C146.7,62.5,146.7,67.9,146.7,73.5z"/>
		<path class="st1" d="M181.2,100.3c2.1-3.6,3.8-6.7,5.6-9.9c2.3-4.1,4.1-8.6,6.9-12.5c0.9-1.2,1.2-2.9,2-4.3
			c3.6-6.6,7.5-13.2,10.8-20c0.5-1,1.6-1.5,1.9-2.8c0.1-0.6,0.9-1.1,1.9-1c2.2,0.1,4.5,0.1,6.7,0c1.2,0,1.8,0.6,2.2,1.6
			c1.9,3.7,3.7,7.5,5.9,10.9c3.1,5.1,5.6,10.4,8.8,15.3c1.6,2.5,2.7,5.4,4.3,8c2.7,4.4,4.7,9.3,7.8,13.4c0.3,0.4,0.2,1.2-0.5,1.2
			c-2.6,0.1-5.2,0-7.9,0.1c-0.9,0-1.6-0.7-1.8-1.3c-0.9-2.8-2.6-5.2-4-7.8c-0.7-1.2-0.9-2.9-2-3.5c-1-0.6-2.5-0.2-3.8-0.2
			c-9.2,0-18.4,0-27.6,0c-1.3,0-1.9,0.3-2.5,1.6c-1.5,3.3-3.4,6.5-5.1,9.7c-0.6,1-1.3,1.4-2.5,1.4
			C186.2,100.2,183.9,100.3,181.2,100.3z M200.2,81.3c4.4,0,8.6,0,12.7,0c4,0,8.1,0,12.2,0c1.3,0,1.4-0.3,0.8-1.6
			c-0.7-1.9-2.1-3.3-2.9-5.1c-3-6.3-6.5-12.4-9.7-18.4C209,64.6,204.7,72.8,200.2,81.3z"/>
		<path class="st3" d="M367,107.4c-98,0-195.9,0-293.9,0"/>
		<path class="st2" d="M353.1,40.9c-3.9-3.2-7.9-6.1-12.4-8.2c-1.2-0.6-2.4-1.1-3.9-1c-2.4,0.1-4.9,0.6-7.2-0.7
			c-4.5,0.1-8.2-2.2-12.2-4c-4.1-1.8-8.2-3.6-12.5-5c-2.6-0.8-4.5-0.5-6.2,1.1c-2.5,2.3-5.4,3.9-8.5,5.1c-4,1.6-8.2,2.1-12.4-0.5
			c-1.3-0.7-2.1-1.9-3.2-2.8c-1.4-1.1-2.3-2.7-4-3.6c-3.3-1.7-6.4-3.7-9.6-5.2c-2.2-1-3.3-2.3-2.9-4.7c0.2-1.2-0.3-2.3-1.2-2.6
			c-1-0.3-2.2-0.3-3.2,0.7c-3,2.7-4.8,6.1-6.6,9.5c-1.3,2.3-2.4,4.8-3.9,7.1c-0.8,1.4-2,2.3-3.4,2.8c-0.7,0.2-2.2-0.2-2.5-0.6
			c-0.8-0.8-2-0.7-2.8-0.9c-5.1-1.6-8-4.8-8.7-10.1c-1.5-2.2-0.6-4.5-0.7-6.7c-0.3-2.6-0.7-5.1-2.3-7.3c-1.3,0-2.6,0-3.9,0
			c-1.2,0.7-2.2,1.7-3.3,2.2c-5.3,2.7-10.7,5.4-16.2,7.8c-1.9,0.8-3.7,2-5.7,2.4c-2.7,0.7-4.9,2.2-7.5,3.1c-2.6,0.7-5.1,2.2-7.7,3.4
			c-4,1.9-7.9,3.9-11.7,6.2c-3.6,2.1-7.3,4-10.9,6.2c-2.1,1.3-4.4,1.8-6.7,0.3c-1-0.7-2.2-1-3.3-1.6c-3.8-1.9-7.9-3.4-11.5-5.6
			c-4.3-2.7-8.7-5-13.6-6.5c-1.6-0.5-3.3-0.8-4.5-0.4c-2.1,0.8-4.3,0.9-6.4,2c-3.2,1.5-6.6,2.3-9.9,3.7c-2.7,1.1-5.3,2.4-7.9,3.9
			c-1.3,0.7-1.4,2.7-2.8,3.6c-0.5,0.3-0.8,0.8-0.6,1.3c0.4,0.7,1.3,0.6,1.8,0.4c1.1-0.6,2.2-1.2,3.3-1.5c6-1.7,11.8-4.3,18.2-4.8
			c3.3-2,6.4-0.6,9.3,0.8c8.1,3.9,16.2,8,24.2,12.2c2.6,1.4,4.8,1.5,7.3,0.1c5.2-3,10.5-5.8,15.7-8.7c3.8-2.1,7.7-4.2,11.8-5.9
			c4.9-2,9.6-4.1,14.4-6.1c3-1.3,6-2.9,9-4c4-1.5,7.6-3.5,11-5.7c2.1-1.4,5.1-0.9,5.8,1.3c0.3,1.2,1.2,2.2,0.9,3.6
			c-0.5,3,0.2,5.9,0.8,8.7c0.7,3.5,2.1,6.6,5.6,8.2c1.9,0.8,3.8,1.5,5.7,2.4c2.9,1.4,5.5-0.1,7.2-3c2.4-4.3,4.5-8.9,7.4-12.9
			l2.6-3.1c0.3-0.1,0.6-0.2,0.7-0.4c1.3-0.8,3,0.2,2.8,1.8c-0.2,2.7,1.4,3.8,3.3,5.1c1.9,1.2,3.9,2.1,5.8,3.2
			c3.6,2.1,7.2,4.2,10,7.4c1.7,2,3.6,2.8,6.4,2.8c4.3,0.1,8-1.3,11.7-3.3c1.8-0.9,3.3-2.3,4.9-3.6c1.5-1.1,3.4-1.8,5.1-1.1
			c3.5,1.4,7.2,2.4,10.6,4.1c3.9,2,7.9,4,12.2,5c2.3,0.5,4.8,1.8,7,1c2.4-0.8,4.6,0.7,6.8,0.2c5.2,2.1,10.5,4.1,15.2,7.3
			c0.5,0.3,0.8,0.6,1.4,0.6c1.7,0,3.4,0,5.5,0C357.7,44.9,355.5,42.8,353.1,40.9z"/>
		<path class="st1" d="M296.3,61.2c0,0.5,0.1,0.9-0.4,1.2c-0.9,0.6-1.1,1.6-1.6,2.3"/>
	</g>
	<g class="st4">
		<path class="st1" d="M73.4,137.6v-22.5H77c1.3,0,2.4,0.1,3.2,0.3c0.7,0.2,1.4,0.6,2,1c0.7,0.6,1.2,1.2,1.5,2.2
			c0.4,0.9,0.6,1.9,0.6,3c0,2.1-0.7,3.6-1.8,4.7c-1.2,1.1-3,1.6-5.2,1.6c-0.3,0-0.5,0-0.6,0s-0.3,0-0.4,0v9.9L73.4,137.6L73.4,137.6
			z M76.4,125.1h1.1c1.3,0,2.3-0.3,2.9-0.8c0.6-0.6,0.9-1.5,0.9-2.8c0-1.2-0.3-2.2-0.9-2.7c-0.7-0.6-1.6-0.8-3.1-0.8h-0.9
			C76.4,118,76.4,125.1,76.4,125.1z"/>
		<path class="st1" d="M87.1,137.6v-22.5h3.1v19.6h6.5v2.8L87.1,137.6L87.1,137.6z"/>
		<path class="st1" d="M97.3,137.6l5.2-22.5h2.9l5.2,22.5h-3.1l-1.1-4.4h-5.1l-1.1,4.4H97.3z M104,121l-2.1,9.7h4L104,121z"/>
		<path class="st1" d="M122.2,137.2c-0.6,0.3-1,0.5-1.5,0.7c-0.6,0.1-1.1,0.2-1.6,0.2c-2.3,0-4-0.9-5.1-2.8
			c-1.2-1.9-1.7-4.7-1.7-8.4c0-3.8,0.7-6.7,1.8-8.7c1.2-2,3-3,5.4-3c0.6,0,1,0.1,1.4,0.2c0.5,0.1,0.9,0.3,1.3,0.5v2.9
			c-0.5-0.2-0.8-0.4-1.2-0.5c-0.4-0.1-0.8-0.2-1.1-0.2c-1.6,0-2.8,0.7-3.6,2.2c-0.7,1.4-1.1,3.6-1.1,6.7c0,2.9,0.4,5.1,1.1,6.4
			c0.7,1.3,1.8,2.1,3.3,2.1c0.5,0,0.8-0.1,1.2-0.2c0.5-0.2,0.9-0.4,1.4-0.7L122.2,137.2L122.2,137.2z"/>
		<path class="st1" d="M123.1,137.6l5.2-22.5h2.9l5.2,22.5h-3.1l-1.1-4.4h-5.1l-1.1,4.4H123.1z M129.9,121l-2.1,9.7h4L129.9,121z"/>
		<path class="st1" d="M138.3,133.7c0.7,0.5,1.3,0.8,2,1c0.7,0.2,1.2,0.4,1.7,0.4c0.9,0,1.6-0.3,2.2-0.8s0.8-1.2,0.8-2.2
			c0-1.3-1.1-2.9-3.2-4.5c-0.3-0.2-0.5-0.4-0.6-0.5c-1.3-1.1-2.2-2.2-2.8-3.1c-0.6-0.9-0.8-2-0.8-3.2c0-1.7,0.6-3.1,1.6-4.2
			c1-1.1,2.4-1.7,3.9-1.7c0.7,0,1.3,0.1,2,0.3c0.7,0.2,1.2,0.5,1.9,0.8v3.1c-0.6-0.5-1.2-0.7-1.7-0.9c-0.5-0.2-1.1-0.3-1.6-0.3
			c-1,0-1.7,0.3-2.2,0.8c-0.6,0.6-0.9,1.3-0.9,2.2c0,1.2,1.1,2.8,3.4,4.6c0.2,0.2,0.4,0.3,0.5,0.4c1.2,1.1,2.2,2.1,2.7,3
			c0.6,1,0.8,2.1,0.8,3.3c0,1.7-0.6,3.2-1.6,4.2c-1,1-2.5,1.7-4.2,1.7c-0.7,0-1.2-0.1-1.9-0.3c-0.7-0.2-1.3-0.5-2-0.8L138.3,133.7
			L138.3,133.7z"/>
		<path class="st1" d="M162.6,128.1v9.5h-3.2v-9.5l-4.2-12.9h3.2l1.9,6.3c0.1,0.5,0.3,0.9,0.4,1.5c0.2,0.7,0.3,1.3,0.4,2.1
			c0.1-0.7,0.2-1.2,0.4-1.9c0.1-0.6,0.3-1.2,0.5-1.7l1.9-6.3h3.2L162.6,128.1z"/>
		<path class="st1" d="M178.2,126.7v10.9h-3.1v-22.5h3.6c2.4,0,4.1,0.5,5.2,1.3c1.1,0.9,1.5,2.4,1.5,4.5c0,1.6-0.4,3-1.1,3.8
			c-0.7,0.9-1.8,1.4-3.2,1.6l5.3,11h-3.3L178.2,126.7L178.2,126.7L178.2,126.7z M178.2,125h0.9c1.2,0,2.1-0.3,2.6-0.9
			c0.6-0.6,0.7-1.6,0.7-3.1c0-1.2-0.3-2.1-0.7-2.5c-0.5-0.5-1.4-0.7-2.7-0.7h-0.8L178.2,125L178.2,125z"/>
		<path class="st1" d="M188.9,137.6v-22.5h9v2.7h-6v6.6h5.5v2.7h-5.5v7.6h6v2.8L188.9,137.6L188.9,137.6z"/>
		<path class="st1" d="M210.3,137.2c-0.6,0.3-1,0.5-1.5,0.7c-0.6,0.1-1.1,0.2-1.6,0.2c-2.3,0-4-0.9-5.1-2.8
			c-1.2-1.9-1.7-4.7-1.7-8.4c0-3.8,0.7-6.7,1.8-8.7c1.2-2,3-3,5.4-3c0.6,0,1,0.1,1.4,0.2c0.5,0.1,0.9,0.3,1.3,0.5v2.9
			c-0.5-0.2-0.8-0.4-1.2-0.5c-0.4-0.1-0.8-0.2-1.1-0.2c-1.6,0-2.8,0.7-3.6,2.2c-0.7,1.4-1.1,3.6-1.1,6.7c0,2.9,0.4,5.1,1.1,6.4
			s1.8,2.1,3.3,2.1c0.5,0,0.8-0.1,1.2-0.2c0.5-0.2,0.9-0.4,1.4-0.7L210.3,137.2L210.3,137.2z"/>
		<path class="st1" d="M212.4,126.4c0-4.1,0.6-7,1.5-8.8c0.9-1.8,2.6-2.7,4.9-2.7s3.8,0.9,4.9,2.7s1.5,4.8,1.5,8.9s-0.6,7-1.5,8.8
			c-1,1.8-2.6,2.7-4.9,2.7s-3.8-0.9-4.9-2.7C213,133.5,212.4,130.5,212.4,126.4z M215.4,126.4c0,3.2,0.3,5.4,0.8,6.7
			c0.6,1.3,1.3,2,2.6,2c1.2,0,2.1-0.7,2.5-1.9c0.5-1.2,0.7-3.6,0.7-6.8c0-3.3-0.3-5.5-0.7-6.7c-0.6-1.2-1.3-1.9-2.5-1.9
			c-1.2,0-2.1,0.7-2.6,1.9C215.7,120.9,215.4,123.1,215.4,126.4z"/>
		<path class="st1" d="M228.5,137.6v-22.5h2.8l6,15.5v-15.5h2.9v22.5h-2.9l-6-15.7v15.7H228.5z"/>
		<path class="st1" d="M243.5,126.4c0-4.1,0.6-7,1.5-8.8c0.9-1.8,2.6-2.7,4.9-2.7c2.2,0,3.8,0.9,4.9,2.7s1.5,4.8,1.5,8.9
			s-0.6,7-1.5,8.8c-1,1.8-2.6,2.7-4.9,2.7c-2.2,0-3.8-0.9-4.9-2.7C244,133.5,243.5,130.5,243.5,126.4z M246.4,126.4
			c0,3.2,0.3,5.4,0.8,6.7c0.6,1.3,1.3,2,2.6,2c1.2,0,2.1-0.7,2.5-1.9c0.5-1.2,0.7-3.6,0.7-6.8c0-3.3-0.3-5.5-0.7-6.7
			c-0.6-1.2-1.3-1.9-2.5-1.9c-1.2,0-2.1,0.7-2.6,1.9C246.7,120.9,246.4,123.1,246.4,126.4z"/>
		<path class="st1" d="M268.9,137.2c-0.6,0.3-1,0.5-1.5,0.7s-1.1,0.2-1.6,0.2c-2.3,0-4-0.9-5.1-2.8c-1.2-1.9-1.7-4.7-1.7-8.4
			c0-3.8,0.7-6.7,1.8-8.7c1.2-2,3-3,5.4-3c0.6,0,1,0.1,1.4,0.2c0.5,0.1,0.9,0.3,1.3,0.5v2.9c-0.5-0.2-0.8-0.4-1.2-0.5
			c-0.4-0.1-0.8-0.2-1.1-0.2c-1.6,0-2.8,0.7-3.6,2.2c-0.7,1.4-1.1,3.6-1.1,6.7c0,2.9,0.4,5.1,1.1,6.4c0.7,1.3,1.8,2.1,3.3,2.1
			c0.5,0,0.8-0.1,1.2-0.2c0.5-0.2,0.9-0.4,1.4-0.7L268.9,137.2L268.9,137.2z"/>
		<path class="st1" d="M271.6,137.6v-22.5h3.1v22.5H271.6z"/>
		<path class="st1" d="M277.8,137.6l1.9-22.5h2.7l3.1,15.5l3.2-15.5h2.6l2,22.5h-2.8l-0.9-15.7l-3,15.7h-2.1l-3-15.7l-0.9,15.7
			H277.8z"/>
		<path class="st1" d="M296.4,137.6v-22.5h3.1v22.5H296.4z"/>
		<path class="st1" d="M303.3,137.6v-22.5h9v2.7h-6v6.6h5.5v2.7h-5.5v7.6h6v2.8L303.3,137.6L303.3,137.6z"/>
		<path class="st1" d="M315.5,137.6v-22.5h2.8l6,15.6v-15.4h2.9v22.5h-2.9l-6-15.7v15.7L315.5,137.6L315.5,137.6z"/>
		<path class="st1" d="M333.6,137.6V118h-4.1v-2.8h11.4v2.8h-4.1v19.6H333.6z"/>
		<path class="st1" d="M342,126.4c0-4.1,0.6-7,1.5-8.8c1-1.8,2.6-2.7,4.9-2.7c2.2,0,3.8,0.9,4.9,2.7s1.5,4.8,1.5,8.9s-0.6,7-1.5,8.8
			c-1,1.8-2.6,2.7-4.9,2.7c-2.2,0-3.8-0.9-4.9-2.7S342,130.5,342,126.4z M345,126.4c0,3.2,0.3,5.4,0.8,6.7c0.6,1.3,1.3,2,2.6,2
			c1.2,0,2.1-0.7,2.5-1.9c0.5-1.2,0.7-3.6,0.7-6.8c0-3.3-0.3-5.5-0.7-6.7c-0.6-1.2-1.3-1.9-2.5-1.9s-2.1,0.7-2.6,1.9
			C345.2,120.9,345,123.1,345,126.4z"/>
		<path class="st1" d="M357.5,133.7c0.7,0.5,1.3,0.8,2,1c0.7,0.2,1.2,0.4,1.7,0.4c0.9,0,1.6-0.3,2.2-0.8c0.6-0.6,0.8-1.2,0.8-2.2
			c0-1.3-1.1-2.9-3.2-4.5c-0.3-0.2-0.5-0.4-0.6-0.5c-1.3-1.1-2.2-2.2-2.8-3.1c-0.6-0.9-0.8-2-0.8-3.2c0-1.7,0.6-3.1,1.6-4.2
			c1.1-1.2,2.4-1.7,3.9-1.7c0.7,0,1.3,0.1,2,0.3c0.7,0.2,1.2,0.5,1.9,0.8v3.1c-0.6-0.5-1.2-0.7-1.7-0.9s-1.1-0.3-1.6-0.3
			c-1,0-1.7,0.3-2.2,0.8c-0.6,0.6-0.9,1.3-0.9,2.2c0,1.2,1.1,2.8,3.4,4.6c0.2,0.2,0.4,0.3,0.5,0.4c1.2,1.1,2.2,2.1,2.7,3
			c0.6,1,0.8,2.1,0.8,3.3c0,1.7-0.6,3.2-1.6,4.2c-1,1-2.5,1.7-4.2,1.7c-0.7,0-1.2-0.1-1.9-0.3s-1.3-0.5-2-0.8L357.5,133.7
			L357.5,133.7z"/>
	</g>
</g>
<circle class="st0" cx="64.7" cy="125.5" r="2.8"/>
<g>
	<path class="st5" d="M457.3,51.1c-3.7-0.5-7.1,1.3-7.5,4.1c-0.4,2.8,2.3,5.5,6,6.1c3.7,0.5,7.1-1.3,7.5-4.1
		C463.7,54.3,461,51.6,457.3,51.1z"/>
	<g>
		<defs>
			<path id="SVGID_1_" d="M457.2,51c-3.7-0.5-7,1.3-7.4,4c-0.4,2.7,2.3,5.4,6,5.9c3.7,0.5,7-1.3,7.4-4
				C463.6,54.2,460.9,51.6,457.2,51z"/>
		</defs>
		<clipPath id="SVGID_2_">
			<use xlink:href="#SVGID_1_"  style="overflow:visible;"/>
		</clipPath>
		<path class="st6" d="M451.4,49.3c-0.3,4.1,3.6,10.2,14,9.5c0,0-5.1,4.7-12.4,3.1c-2.4-0.5-3.8-7.6-3.7-8.3
			C449.4,52.8,451.4,49.3,451.4,49.3z"/>
	</g>
	<path class="st7" d="M387.3,39.9c2.6-2.4,8.6-12.1,15.1-14.4c6.5-2.3,21.3-8.5,26.1-6.2c4.8,2.3,15.5,5.8,19.4,16.2
		c3.9,10.4,8.1,15.5,7.9,19.9c-0.1,2.3,0.3,2.8-3.5,2.4c-3.7-0.4-8.3-2.6-9.7-3.7c-1.4-1.1-4.8-2.8-9.9-3.9
		c-5.1-1-28.7-7.9-35.8-7.5C390,43.1,384.8,42.4,387.3,39.9z"/>
	<g>
		<defs>
			<path id="SVGID_3_" d="M387.3,39.9c2.6-2.4,8.6-12.1,15.1-14.4c6.5-2.3,21.3-8.5,26.1-6.2c4.8,2.3,15.5,5.8,19.4,16.2
				c3.9,10.4,8.1,15.5,7.9,19.9c-0.1,2.3,0.3,2.8-3.5,2.4c-3.7-0.4-8.3-2.6-9.7-3.7c-1.4-1.1-4.8-2.8-9.9-3.9
				c-5.1-1-28.7-7.9-35.8-7.5C390,43.1,384.8,42.4,387.3,39.9z"/>
		</defs>
		<clipPath id="SVGID_4_">
			<use xlink:href="#SVGID_3_"  style="overflow:visible;"/>
		</clipPath>
		<path class="st8" d="M459,57.3c-1.4-0.1-8-1.8-9.7-3c-1.7-1.2-3.7-5.8-3.7-5.8s-5.7-19.5-5.5-18.8c0.2,0.7,2.9,12.4,3,15.2
			c0.1,2.8-0.4,2.4-0.4,2.4s-4-0.9-9.7-2.4c-5.7-1.5-9.1-2.4-13.7-2.6c-4.7-0.2-31-3.8-33.2-3.9c-2.2-0.1,2.9,5.5,4.8,6.3
			c1.9,0.9,44.3,4.6,48.2,7.4c3.8,2.8-0.1,5,5.4,6.9c5.5,1.9,12,2.5,13,1.4C458.4,59.1,460.4,57.4,459,57.3z"/>
	</g>
	<path class="st5" d="M386.7,38.8c1.3,0.4,37.4,4.6,44,6.5c6.6,1.8,17.2,2.7,15.7,8.3c-0.8,3,1.2,4.3,0,6.4c-1.1,2-0.6,1.8-5.1,1.5
		c-4.5-0.3-52.9-7-56.6-8.7c-3.7-1.7-3.7-2.8-3.3-4.6c0.5-1.9,3-4.5,2.9-6.6C384.1,39.4,385.4,38.3,386.7,38.8z"/>
	<g>
		<defs>
			<path id="SVGID_5_" d="M386.9,38.8c1.2,0.4,37,4.6,43.6,6.4c6.5,1.8,17,2.6,15.5,8.3c-0.8,3,1.2,4.3,0,6.3s-0.6,1.8-5.1,1.5
				c-4.4-0.3-52.5-7-56.1-8.6c-3.7-1.7-3.7-2.8-3.3-4.6c0.4-1.8,3-4.5,2.9-6.5C384.4,39.5,385.7,38.4,386.9,38.8z"/>
		</defs>
		<clipPath id="SVGID_6_">
			<use xlink:href="#SVGID_5_"  style="overflow:visible;"/>
		</clipPath>
		<path class="st9" d="M449.9,60.5c-0.6-0.5-3.2-4.1-3.2-4.1s-2.4,2.2-6.3,2.4c-3.9,0.2-52.3-7-55.1-9.3c-2.8-2.3-4.9-3.9-4.9-3.9
			s-1.7,1.2-0.8,3.5c0.8,2.2,0.5,2.9,2.9,4.2c2.4,1.3,59.9,9.7,63.3,9.5C449.1,62.5,450.6,61,449.9,60.5z"/>
	</g>
	<path class="st10" d="M429.5,21.1c1.3,0.7,2.6,1.5,3.8,2.3c0.1,0.1,1.1,0.7,1.1,0.8c-0.3,0.8-1.7,1.1-2.6,1.3
		c-1.9,0.5-6.8,0.5-8.3,1.6c-2.2,1.6,1.9,4.6-0.2,6.1c-1.7,1.3-5,0.7-7.2,0.9c-4.7,0.5-9.3,2-13.9,2.9c-1.5,0.3-4.1,1.1-5.7,0.6
		c-1.6-0.6-1.4-2-1-3.1c0.9-2.2,3-4.1,5-5.7c2.5-1.9,5.6-3.1,8.8-4.4c3.5-1.4,7.1-2.5,10.9-3.3c1.6-0.3,3.3-0.3,4.7-0.8
		C427.4,19.5,429.5,21.1,429.5,21.1z"/>
</g>
</svg>
