<svg width="539" height="650" viewBox="0 0 539 650" fill="none" xmlns="http://www.w3.org/2000/svg">
<g clip-path="url(#clip0_204_1780)">
<path d="M97.9053 57.0353H251.148C270.835 57.0353 286.782 72.0258 286.782 90.5038C286.782 108.991 270.835 123.982 251.148 123.982H97.9053V57.0353Z" fill="#EF3F3E"/>
<path d="M535.04 216.184C535.04 186.119 527.352 159.841 515.624 139.582C499.078 110.988 474.168 86.6321 443.025 72.2697C391.472 48.5418 307.004 10.4702 292.173 3.54208C314.541 18.4857 346.079 40.4044 343.051 91.854C339.844 145.629 295.079 181.882 254.626 181.882C251.673 181.882 97.9241 181.91 97.9241 181.91V306.578H35.7964L97.8866 496.626H286.717V373.243H387.113C447.797 373.243 491.915 333.38 515.099 290.678C527.812 268.59 535.04 248.94 535.04 216.184Z" fill="#EF3F3E"/>
<path d="M44.8114 578.628C64.5363 578.628 71.1081 584.76 71.1081 598.344C71.1081 611.75 64.5363 619.072 45.3833 619.072H17.5116V645.931H3.54297V578.628H44.8114ZM17.5304 592.372V605.16H50.427C54.0645 605.16 56.7645 602.338 56.7645 598.794C56.7645 595.007 53.5676 592.372 49.6864 592.372H17.5304Z" fill="#231F20"/>
<path d="M92.9254 606.178H139.116V619.003H92.9254C92.9254 630.309 93.1129 632.156 101.691 632.156H139.116V645.946H99.3097C80.738 645.946 78.9849 636.224 78.9849 612.131C78.9849 590.747 81.6567 578.503 99.666 578.503H139.116V591.965H101.691C93.2723 591.965 92.9254 595.809 92.9254 606.178Z" fill="#231F20"/>
<path d="M376.379 606.178H422.579V619.003H376.379C376.379 630.309 376.567 632.156 385.145 632.156H422.579V645.946H382.782C364.211 645.946 362.448 636.224 362.448 612.131C362.448 590.747 365.139 578.503 383.129 578.503H422.579V591.965H385.145C376.745 591.965 376.379 595.809 376.379 606.178Z" fill="#231F20"/>
<path d="M302.104 618.484V578.2H315.726V618.484C315.726 630.962 318.295 631.797 324.998 631.797H355.213V645.944H324.848C306.838 645.944 302.104 637.056 302.104 618.484Z" fill="#231F20"/>
<path d="M456.307 592.439C450.813 592.439 448.442 594.83 448.442 599.62C448.442 603.248 451.085 606.483 455.923 606.483H477.935C493.863 606.483 498.851 615.857 498.851 627.229C498.851 639.792 489.738 645.942 477.935 645.942H431.96V633.135H478.451C483.532 633.135 486.148 629.273 486.148 626.207C486.148 623.395 484.723 619.064 478.254 619.064H456.035C443.36 619.064 435.364 611.395 435.364 598.786C435.364 584.123 446.004 578.498 459.42 578.498H495.382V592.439H456.307Z" fill="#231F20"/>
<path d="M274.61 578.488H245.67C233.004 578.488 226.526 589.119 226.526 602.253V622.194C226.526 635.3 233.004 645.931 245.67 645.931H274.61C287.257 645.931 293.407 635.3 293.407 622.194V602.253C293.407 589.119 287.257 578.488 274.61 578.488ZM280.076 622.803C280.076 630.134 277.348 632.047 270.307 632.047H249.795C242.745 632.047 239.539 630.134 239.539 622.803V601.466C239.539 594.135 242.745 592.316 249.795 592.316H270.307C277.348 592.316 280.076 594.135 280.076 601.466V622.803Z" fill="#231F20"/>
<path d="M190.201 578.421H149.486L149.326 645.929H161.992V630.376V611.973V592.099H189.648C199.126 592.099 203.663 591.536 203.663 605.055C203.663 605.964 203.635 613.745 203.616 614.533V645.929H216.123V610.239C216.123 586.295 213.141 578.421 190.201 578.421Z" fill="#231F20"/>
<path d="M149.328 571.207H201.987V565.188H149.328V571.207Z" fill="#231F20"/>
<path d="M488.838 489.791C484.46 494.141 479.21 496.344 473.023 496.344C466.845 496.344 461.585 494.141 457.245 489.791C452.941 485.432 450.776 480.154 450.776 473.957C450.776 467.826 452.951 462.604 457.31 458.226C461.66 453.904 466.873 451.748 473.023 451.748C479.21 451.748 484.46 453.904 488.838 458.226C493.179 462.576 495.372 467.807 495.372 473.957C495.372 480.135 493.179 485.404 488.838 489.791ZM459.42 460.429C455.679 464.16 453.823 468.698 453.823 473.994C453.823 479.329 455.679 483.885 459.391 487.654C463.132 491.404 467.679 493.288 473.013 493.288C478.366 493.288 482.894 491.404 486.644 487.654C490.376 483.885 492.241 479.329 492.241 473.994C492.241 468.698 490.376 464.16 486.644 460.429C482.876 456.651 478.348 454.785 473.013 454.785C467.707 454.785 463.17 456.651 459.42 460.429ZM472.638 461.648C475.676 461.648 478.732 461.563 480.157 462.144C482.679 463.185 484.019 465.294 483.954 468.744C483.916 470.938 483.344 472.71 481.751 473.741C480.907 474.285 480.579 474.51 479.06 474.763C480.982 475.054 481.91 475.682 482.801 476.976C483.673 478.269 483.551 479.704 483.551 480.932V482.713C483.551 483.285 483.579 484.71 483.616 485.357C483.635 485.994 483.701 486.416 483.823 486.622L483.954 486.932H479.932C479.913 486.847 479.885 486.763 479.876 486.669C479.848 486.604 479.829 486.519 479.81 486.407L479.735 485.629V482.872C479.735 480.069 478.948 478.588 477.401 477.688C476.501 477.163 474.063 476.901 471.776 476.901H468.354V486.932H464.032V461.648H472.638ZM478.151 465.791C477.063 465.201 474.476 464.938 472.057 464.938H468.354V473.001H472.291C474.138 473.001 476.341 472.991 477.26 472.626C478.948 471.96 479.801 471.023 479.801 469.138C479.801 467.376 479.257 466.401 478.151 465.791Z" fill="#231F20"/>
</g>
<defs>
<clipPath id="clip0_204_1780">
<rect width="538.583" height="649.488" fill="white"/>
</clipPath>
</defs>
</svg>
