<?xml version="1.0" encoding="utf-8"?>
<!-- Generator: Adobe Illustrator 23.0.0, SVG Export Plug-In . SVG Version: 6.00 Build 0)  -->
<svg version="1.1" id="Capa_1" xmlns="http://www.w3.org/2000/svg" xmlns:xlink="http://www.w3.org/1999/xlink" x="0px" y="0px"
	 viewBox="0 0 293.1 284.6" style="enable-background:new 0 0 293.1 284.6;" xml:space="preserve">
<style type="text/css">
	.st0{fill-rule:evenodd;clip-rule:evenodd;fill:#253789;}
</style>
<g id="Page-1">
	<g id="header-left" transform="translate(-70.000000, -71.000000)">
		<g id="Menu-principal" transform="translate(0.000000, 50.000000)">
			<g id="logo" transform="translate(70.000000, 21.000000)">
				<path id="imagotipo" class="st0" d="M188.5,70.5c-5.5,5.5-16.4,15.8-25.1,24.4c-20.6,18.7-21,30.9-19.8,36.4
					c-15.2-17.7-3.2-31,4.6-38.5c3.6-3.4,25.3-24.9,30.3-29.7c17.7-16.9,17.7-21.9,17.7-21.9C203,57.2,193.9,64.9,188.5,70.5
					L188.5,70.5z M187.9,96.7c-5.4,5.3-3.2,3.2-12,11.6c-14.2,13.8-14.2,22.9-14.2,22.9c-7.9-8.7-3-23.1,5.4-31.3
					c3.6-3.4,10.2-9.6,14.8-14.1c9.6-9.1,12.5-11.7,14-15.2C199.5,85.9,191.5,92.9,187.9,96.7L187.9,96.7z M129.3,85.8
					c4-3.8,28.9-28.2,33.8-32.8c15.6-15,14.8-19.8,14.8-19.8c6.7,15.8-2.5,24.4-8,29.9c-6.1,5.9-21.2,20.8-29.9,29.4
					c-22,21.5-14.1,38.9-14.1,38.9C111.7,121,114.9,99.7,129.3,85.8L129.3,85.8z M120.2,68.9c4-3.8,25.2-24.7,32.4-31.5
					c15.2-14.6,14.2-20.4,14.9-23.5c10.5,10.8,4.1,21.8-1.7,27.4c-5,5-28.6,28.7-38.2,37.5C125,81,109.2,95.5,110.3,109
					C101.4,97.6,103.8,83.5,120.2,68.9L120.2,68.9z M100.6,63c3.6-3.7,30.6-29.9,35.2-34.5c11.2-11.2,9-20.2,9-20.2
					c12.9,9.8,8.2,20.3,1.2,27.2c-5.8,5.5-25.8,25.7-35.2,34.5C96,84.1,97.7,95.8,100.6,105.7C89.7,94.7,84.8,79.3,100.6,63
					L100.6,63z M145.4,4.8c-44.7,0-80.8,36-80.8,80.4c0,41,30.9,74.9,70.8,79.8v-11.3c-13.3-2-26.6-6.5-35.5-18.6H191
					c-8.8,12.1-22.2,16.6-35.5,18.6V165c39.8-4.9,70.8-38.8,70.8-79.8C226.2,40.8,189.9,4.8,145.4,4.8L145.4,4.8z"/>
				<g id="texto" transform="translate(55.000000, 4.000000)">
					<path id="Fill-2" class="st0" d="M0.8,203.3c2.3,0,4.6-0.1,7-0.2c0.8,0,1.1-0.2,1.1-1c0-2.5-1.3-5.1-3.6-5.1
						C3.2,197.1,1.3,199.4,0.8,203.3L0.8,203.3z M14.2,213.2c-3.1,4.3-6.9,5.3-8.8,5.3c-6.6,0-10.2-5-10.2-10.8c0-3.7,1.5-6.9,3.6-9
						c2.2-2.3,5-3.6,7.6-3.6h0.1c4.5,0,8,3.9,8,7.9c0,1-0.3,1.6-1.3,1.7c-0.9,0.1-7.1,0.6-12.5,0.8c0.2,5.9,3.5,8.7,7.1,8.7
						c2,0,3.9-0.7,5.7-2.3L14.2,213.2L14.2,213.2z"/>
					<path id="Fill-3" class="st0" d="M36.4,213.2c-2.3,3.1-5.6,5.3-8.6,5.3c-6.7,0-10.7-5.2-10.7-10.6c0-3.8,1.8-7.3,5.1-9.7
						c3-2.3,6.3-3,8.2-3h0.1c1.9,0,3.6,0.6,4.4,1.3c0.7,0.6,1,1,1,1.7c-0.1,1.3-1.3,2.5-2.1,2.5c-0.3,0-0.6-0.2-1-0.6
						c-1.9-1.7-3.6-2.5-5.1-2.5c-2.5,0-5,2.3-5,7.6c0,6.8,4.8,9,7.3,9c2.1,0,3.6-0.6,5.7-2.3L36.4,213.2"/>
					<path id="Fill-4" class="st0" d="M52.3,217.9v-1.5c2.5-0.3,2.8-0.6,2.8-4.1v-8.6c0-3.6-1.5-5.1-3.9-5.1c-1.6,0-3,0.8-4.4,1.9
						v12c0,3.2,0.3,3.4,2.7,3.7v1.5H37.7v-1.5c3.2-0.4,3.5-0.6,3.5-3.9V202c0-3.1-0.2-3.2-2.9-3.8v-1.3c2.7-0.4,5.7-1,8.4-2v3.8
						c1-0.7,2.1-1.5,3.2-2.3c1.5-1,2.6-1.4,4-1.4c4,0,6.6,2.9,6.6,7.9v9.7c0,3.2,0.3,3.4,3,3.7v1.5H52.3"/>
					<path id="Fill-5" class="st0" d="M72,205.5c0,6.3,2.3,11.1,5.9,11.1c2.4,0,4.6-1.6,4.6-8.9c0-6.6-2.1-10.8-5.7-10.8
						C74.3,197,72,199.8,72,205.5L72,205.5z M88.8,206.4c0,8.2-5.9,12.1-11.5,12.1c-7.6,0-11.6-5.6-11.6-11.2
						c0-8.2,6.4-12.2,11.8-12.2C84.2,195.2,88.8,200.3,88.8,206.4L88.8,206.4z"/>
					<path id="Fill-6" class="st0" d="M90.3,217.9v-1.5c3.1-0.4,3.5-0.6,3.5-4v-23.4c0-3.2-0.2-3.3-3.2-3.6v-1.3
						c2.9-0.3,6.4-1,8.8-1.7v30.2c0,3.4,0.3,3.6,3.5,4v1.5L90.3,217.9"/>
					<path id="Fill-7" class="st0" d="M114.4,192.5c0.8-2.1,2.5-7.2,2.9-8.2c0.5-0.3,4.3-0.7,5-0.6l0.2,0.5l-6.6,8.9L114.4,192.5
						L114.4,192.5z M110.9,205.5c0,6.3,2.3,11.1,5.9,11.1c2.4,0,4.6-1.6,4.6-8.9c0-6.6-2.1-10.8-5.7-10.8
						C113.2,197,110.9,199.8,110.9,205.5L110.9,205.5z M127.7,206.4c0,8.2-5.9,12.1-11.5,12.1c-7.6,0-11.6-5.6-11.6-11.2
						c0-8.2,6.4-12.2,11.8-12.2C123.1,195.2,127.7,200.3,127.7,206.4L127.7,206.4z"/>
					<path id="Fill-8" class="st0" d="M137,202.6c0,3.6,1.4,6.5,4,6.5c2.1,0,3.5-2,3.5-5.9c0-3.6-1.3-6.4-4-6.4
						C138.7,196.9,137,198.9,137,202.6L137,202.6z M136.8,219.9c-1,0.9-1.6,1.9-1.6,3.1c0,2.5,2.6,4.8,6.6,4.8
						c4.2,0,6.5-2.2,6.5-5.1c0-1.8-1.1-2.9-2.6-3.4c-1.3-0.4-2.5-0.5-4.6-0.5C138.6,218.8,137.5,219.1,136.8,219.9L136.8,219.9z
						 M153.5,196.1c-0.3,0.9-1.3,2.4-2.2,2.9l-2.9-0.2c0.9,1,1.4,2.4,1.4,4.1c0,5.4-4.7,8-9.3,8c-0.9,0-1.7-0.2-2.5-0.2
						c-0.5,0.4-1,1-1,1.7c0,0.9,0.9,1.9,3.2,1.9c1.7,0,3.3-0.1,4.9-0.1c3.2,0,7.6,0.9,7.6,6c0,5.6-6.4,10.3-13.2,10.3
						c-6.2,0-9.2-3.3-9.3-6.2c0-1.2,0.6-2,1.5-2.9c1.2-1,2.7-2,3.9-2.9c-2-0.6-3.1-1.7-3.7-2.8c-0.5-0.8-0.8-1.9-0.7-2.5
						c2.5-0.9,4-2.3,4.9-3.2c-2.8-1-4.8-3.5-4.8-6.7c0-5.7,5.2-8.3,9.5-8.3h0.1c1.9,0,3.5,0.5,5.2,1.3c2.5-0.1,5.1-0.4,7.1-0.6
						L153.5,196.1L153.5,196.1z"/>
					<path id="Fill-9" class="st0" d="M157.1,188.3c0-1.8,1.5-3.2,3.2-3.2c1.7,0,3.2,1.4,3.2,3.2c0,1.7-1.4,3.2-3.2,3.2
						C158.6,191.5,157.1,190,157.1,188.3L157.1,188.3z M154.5,217.9v-1.5c3-0.3,3.3-0.6,3.3-4.1v-10.1c0-3.2-0.2-3.4-2.9-3.8v-1.4
						c2.9-0.3,5.9-1,8.6-1.9v17.3c0,3.4,0.2,3.7,3.4,4.1v1.5H154.5L154.5,217.9z"/>
					<path id="Fill-10" class="st0" d="M188.1,213.2c-2.3,3.1-5.6,5.3-8.6,5.3c-6.7,0-10.7-5.2-10.7-10.6c0-3.8,1.8-7.3,5.1-9.7
						c3-2.3,6.3-3,8.2-3h0.1c1.9,0,3.6,0.6,4.4,1.3c0.7,0.6,1,1,1,1.7c-0.1,1.3-1.3,2.5-2.1,2.5c-0.3,0-0.6-0.2-1-0.6
						c-1.9-1.7-3.6-2.5-5.1-2.5c-2.5,0-5,2.3-5,7.6c0,6.8,4.8,9,7.3,9c2.1,0,3.6-0.6,5.7-2.3L188.1,213.2"/>
					<path id="Fill-11" class="st0" d="M196,205.5c0,6.3,2.3,11.1,5.9,11.1c2.4,0,4.6-1.6,4.6-8.9c0-6.6-2.1-10.8-5.7-10.8
						C198.3,197,196,199.8,196,205.5L196,205.5z M212.8,206.4c0,8.2-5.9,12.1-11.5,12.1c-7.6,0-11.6-5.6-11.6-11.2
						c0-8.2,6.4-12.2,11.8-12.2C208.2,195.2,212.8,200.3,212.8,206.4L212.8,206.4z"/>
					<path id="Fill-12" class="st0" d="M-30,245.1c-1-1.7-2.6-2.5-4.3-2.5c-1.6,0-5.6,1.5-5.6,9.1c0,6.1,3.6,8.7,6.3,8.7
						c1.3,0,2.4-0.4,3.6-1.2V245.1L-30,245.1z M-20.8,262c-1.2,0.2-5.5,0.8-9.3,2v-3.1l-3.1,1.9c-1.5,0.9-2.5,1.1-3,1.1
						c-4.3,0-10.1-3.6-10.1-10.9c0-6.9,6.1-12.4,13.6-12.4c0.5,0,1.3,0.1,2.5,0.3v-6.4c0-2.9-0.3-3.2-3.6-3.5v-1.4
						c3-0.3,6.8-1,9.2-1.7v29.5c0,2.8,0.3,3,2.3,3.2l1.3,0.2V262L-20.8,262z"/>
					<path id="Fill-13" class="st0" d="M-13,248.7c2.3,0,4.6-0.1,7-0.2c0.8,0,1.1-0.2,1.1-1c0-2.5-1.3-5.1-3.6-5.1
						C-10.6,242.5-12.5,244.7-13,248.7L-13,248.7z M0.4,258.5c-3.1,4.3-6.9,5.3-8.8,5.3c-6.6,0-10.2-5-10.2-10.8
						c0-3.7,1.5-6.9,3.6-9c2.2-2.3,5-3.6,7.6-3.6h0.1c4.5,0,8,3.9,8,7.9c0,1-0.3,1.6-1.3,1.7c-0.9,0.1-7.1,0.6-12.5,0.8
						c0.2,5.9,3.5,8.7,7.1,8.7c2,0,3.9-0.7,5.7-2.3L0.4,258.5L0.4,258.5z"/>
					<path id="Fill-14" class="st0" d="M42.1,263.3v-1.6c3.9-0.4,4.2-0.8,4.1-5.6l-0.1-19.8h-0.2l-11.6,26.6h-1.3l-10.7-26.1H22
						l-0.6,13.6c-0.2,4.2-0.2,6.5-0.1,8.2c0.2,2.3,1.2,2.7,4.6,3v1.7h-12v-1.7c2.9-0.2,3.9-1,4.2-2.9c0.3-1.7,0.6-4.1,1-9.4
						l0.8-10.1c0.5-6,0.1-6.6-4.3-7.1v-1.6h9.7l10.4,23.2l10.6-23.2h9.7v1.6c-4.2,0.4-4.4,0.7-4.3,5.2l0.5,18.7
						c0.2,4.9,0.3,5.2,4.4,5.6v1.6L42.1,263.3"/>
					<path id="Fill-15" class="st0" d="M64.5,250.9c0,6.3,2.3,11.1,5.9,11.1c2.4,0,4.6-1.6,4.6-8.9c0-6.6-2.1-10.8-5.7-10.8
						C66.8,242.3,64.5,245.2,64.5,250.9L64.5,250.9z M81.3,251.7c0,8.2-5.9,12.1-11.5,12.1c-7.6,0-11.6-5.6-11.6-11.2
						c0-8.2,6.4-12.2,11.8-12.2C76.8,240.5,81.3,245.6,81.3,251.7L81.3,251.7z"/>
					<path id="Fill-16" class="st0" d="M97.6,263.3v-1.5c2.5-0.3,2.8-0.6,2.8-4.1v-8.6c0-3.6-1.5-5.1-3.9-5.1c-1.6,0-3,0.8-4.4,1.9
						v12c0,3.2,0.3,3.4,2.7,3.7v1.5H82.9v-1.5c3.2-0.4,3.5-0.6,3.5-3.9v-10.5c0-3.1-0.2-3.2-2.9-3.8v-1.3c2.7-0.4,5.7-1,8.4-2v3.8
						c1-0.7,2.1-1.5,3.2-2.3c1.5-1,2.6-1.4,4-1.4c4,0,6.6,2.9,6.6,7.9v9.7c0,3.2,0.3,3.4,3,3.7v1.5L97.6,263.3"/>
					<path id="Fill-17" class="st0" d="M120.3,263.3c-1,0.4-1.7,0.6-2.1,0.6c-3.6,0-5.8-1.9-5.8-6.3v-14.3h-3.3l-0.2-0.6l1.4-1.7
						h2.1v-3.6l4.8-3.7l0.7,0.2v7.1h5.2c0.6,0.6,0.5,1.9-0.3,2.3H118V256c0,4,1.7,4.5,2.9,4.5c1,0,2-0.3,2.8-0.6l0.5,1.6
						L120.3,263.3"/>
					<path id="Fill-18" class="st0" d="M130.9,248.7c2.3,0,4.6-0.1,7-0.2c0.8,0,1.1-0.2,1.1-1c0-2.5-1.3-5.1-3.6-5.1
						C133.3,242.5,131.4,244.7,130.9,248.7L130.9,248.7z M144.3,258.5c-3.1,4.3-6.9,5.3-8.8,5.3c-6.6,0-10.2-5-10.2-10.8
						c0-3.7,1.5-6.9,3.6-9c2.2-2.3,5-3.6,7.6-3.6h0.1c4.5,0,8,3.9,8,7.9c0,1-0.3,1.6-1.3,1.7c-0.9,0.1-7.1,0.6-12.5,0.8
						c0.2,5.9,3.5,8.7,7.1,8.7c2,0,3.9-0.7,5.7-2.3L144.3,258.5L144.3,258.5z"/>
					<path id="Fill-19" class="st0" d="M155.1,245.8c1.7-3,3.8-5.4,5.9-5.4c1.9,0,3.2,1.4,3.2,2.9c0,1.5-1,2.8-2.2,3.2
						c-0.6,0.3-1.2,0.2-1.5-0.2c-0.9-0.7-1.5-1-2.3-1c-1.1,0-2.3,0.9-3.3,3.2v9.3c0,3.2,0.2,3.4,4.1,3.7v1.5h-13.1v-1.5
						c2.9-0.3,3.3-0.6,3.3-3.7v-10.8c0-2.9-0.3-3.1-2.9-3.6v-1.3c2.9-0.3,5.5-1,8.5-2v5.5H155.1"/>
					<path id="Fill-20" class="st0" d="M175.1,245.8c1.7-3,3.8-5.4,5.9-5.4c1.9,0,3.2,1.4,3.2,2.9c0,1.5-1,2.8-2.2,3.2
						c-0.6,0.3-1.2,0.2-1.5-0.2c-0.9-0.7-1.5-1-2.3-1c-1.1,0-2.3,0.9-3.3,3.2v9.3c0,3.2,0.2,3.4,4.2,3.7v1.5H166v-1.5
						c2.9-0.3,3.3-0.6,3.3-3.7v-10.8c0-2.9-0.3-3.1-2.9-3.6v-1.3c2.9-0.3,5.5-1,8.5-2v5.5H175.1"/>
					<path id="Fill-21" class="st0" d="M190.6,248.7c2.3,0,4.6-0.1,7-0.2c0.8,0,1.1-0.2,1.1-1c0-2.5-1.3-5.1-3.6-5.1
						C193,242.5,191.1,244.7,190.6,248.7L190.6,248.7z M204,258.5c-3.1,4.3-6.9,5.3-8.8,5.3c-6.6,0-10.2-5-10.2-10.8
						c0-3.7,1.5-6.9,3.6-9c2.2-2.3,5-3.6,7.6-3.6h0.1c4.5,0,8,3.9,8,7.9c0,1-0.3,1.6-1.3,1.7c-0.9,0.1-7.1,0.6-12.4,0.8
						c0.2,5.9,3.5,8.7,7.1,8.7c2,0,3.9-0.7,5.7-2.3L204,258.5L204,258.5z"/>
					<path id="Fill-23" class="st0" d="M229.3,242.5c-2.5,0.5-3,0.9-4.3,3.6c-1.3,2.7-2.9,6.9-6.1,14.3c-3.4,8.1-4.4,11.2-5.3,13.9
						c-0.3,1-1,1.3-1.7,1.3c-1.4,0-3.3-1.3-3.3-2.9c0-0.8,0.3-1.3,1.3-1.9c1.9-1,3-2.1,4-4c0.7-1.2,1-2,1.2-2.5
						c0.2-0.8,0.2-1.5-0.2-2.4c-2.5-6.7-5-13.5-6.2-16.2c-1-2.4-1.5-3-4-3.4V241h11.7v1.4c-2.2,0.5-2.6,0.8-2,2.5l4.1,11.7
						c1.3-3.1,3.2-8.5,4.1-11.5c0.6-1.7,0.2-2.4-2.5-2.9V241h9.1L229.3,242.5"/>
					<path id="Fill-25" class="st0" d="M-29.9,184.5c-0.2,3-0.4,5.7-0.6,8.6h1.7c0.6-2.5,1.2-4.1,1.9-5c0.7-1,1.7-1.4,5.8-1.4h2.3
						v24.6c0,4.3-0.5,4.7-4.8,5v1.7h15.7v-1.7c-4.6-0.4-5-0.8-5-5v-24.6h2.7c3.2,0,4.4,0.3,5.3,1.3c0.8,0.9,1.3,2.5,2,5l1.7-0.1
						c-0.2-2.6-0.4-5.7-0.5-8.5H-29.9"/>
				</g>
			</g>
		</g>
	</g>
</g>
</svg>
