<svg width="65" height="64" viewBox="0 0 65 64" fill="none" xmlns="http://www.w3.org/2000/svg">
<path d="M9.08025 1.14559C9.0225 1.15609 8.96474 1.17183 8.91224 1.18757C8.28742 1.32922 7.84637 1.89059 7.86213 2.53066V14.6185H19.9594C20.4424 14.6238 20.894 14.372 21.1408 13.9522C21.3823 13.5325 21.3823 13.0184 21.1408 12.5986C20.894 12.1789 20.4424 11.9271 19.9594 11.9323H12.3146C17.4076 6.95344 24.3646 3.87376 32.0567 3.87376C47.6613 3.87376 60.2836 16.4863 60.2836 32.0788C60.2836 47.6713 47.6613 60.2838 32.0567 60.2838C16.452 60.2838 3.8297 47.6713 3.8297 32.0788C3.8297 27.4147 4.97957 23.0234 6.98003 19.1515L4.58578 17.9343C2.39105 22.1735 1.14142 26.9845 1.14142 32.0788C1.14142 49.1246 14.9976 62.97 32.0567 62.97C49.1157 62.97 62.9719 49.1246 62.9719 32.0788C62.9719 15.033 49.1157 1.18757 32.0567 1.18757C23.6873 1.18757 16.116 4.55055 10.5504 9.95967V2.53066C10.5662 2.14242 10.4086 1.76992 10.1304 1.5076C9.84684 1.24003 9.46354 1.10887 9.08025 1.14559ZM32.0567 5.21686C31.3163 5.21686 30.7125 5.8202 30.7125 6.55995C30.7125 7.29971 31.3163 7.90305 32.0567 7.90305C32.797 7.90305 33.4008 7.29971 33.4008 6.55995C33.4008 5.8202 32.797 5.21686 32.0567 5.21686ZM44.826 8.61657C44.0857 8.61657 43.4819 9.21992 43.4819 9.95967C43.4819 10.6994 44.0857 11.3028 44.826 11.3028C45.5663 11.3028 46.1702 10.6994 46.1702 9.95967C46.1702 9.21992 45.5663 8.61657 44.826 8.61657ZM54.193 17.9763C53.4527 17.9763 52.8489 18.5796 52.8489 19.3194C52.8489 20.0591 53.4527 20.6625 54.193 20.6625C54.9333 20.6625 55.5371 20.0591 55.5371 19.3194C55.5371 18.5796 54.9333 17.9763 54.193 17.9763ZM23.1517 21.2081C19.4238 21.2081 16.7671 23.6372 16.7671 27.1261V27.1681H19.5394V27.1261C19.5394 25.1062 20.936 23.7684 23.0257 23.7684C24.9789 23.7684 26.4701 25.059 26.4701 26.7904C26.4701 28.1807 25.8558 29.188 23.3198 31.827L16.9351 38.4585V40.5991H29.7044V37.9548H21.0095V37.745L25.252 33.4639C28.4285 30.253 29.3684 28.6266 29.3684 26.6225C29.3684 23.5008 26.7484 21.2081 23.1517 21.2081ZM40.9196 21.6698C37.5435 26.7222 34.7187 31.1239 33.0228 34.2194V36.9475H42.2637V40.5991H45.078V36.9475H47.7243V34.3033H45.078V21.6698H40.9196ZM42.1377 24.272H42.3058V34.3872H35.8371V34.1774C38.0686 30.3055 40.2633 26.9845 42.1377 24.272ZM6.51798 30.7357C5.77766 30.7357 5.17384 31.339 5.17384 32.0788C5.17384 32.8186 5.77766 33.4219 6.51798 33.4219C7.25831 33.4219 7.86213 32.8186 7.86213 32.0788C7.86213 31.339 7.25831 30.7357 6.51798 30.7357ZM57.5954 30.7357C56.855 30.7357 56.2512 31.339 56.2512 32.0788C56.2512 32.8186 56.855 33.4219 57.5954 33.4219C58.3357 33.4219 58.9395 32.8186 58.9395 32.0788C58.9395 31.339 58.3357 30.7357 57.5954 30.7357ZM9.92034 43.4951C9.18001 43.4951 8.5762 44.0985 8.5762 44.8382C8.5762 45.578 9.18001 46.1813 9.92034 46.1813C10.6607 46.1813 11.2645 45.578 11.2645 44.8382C11.2645 44.0985 10.6607 43.4951 9.92034 43.4951ZM54.193 43.4951C53.4527 43.4951 52.8489 44.0985 52.8489 44.8382C52.8489 45.578 53.4527 46.1813 54.193 46.1813C54.9333 46.1813 55.5371 45.578 55.5371 44.8382C55.5371 44.0985 54.9333 43.4951 54.193 43.4951ZM19.2873 52.8548C18.547 52.8548 17.9432 53.4582 17.9432 54.1979C17.9432 54.9377 18.547 55.541 19.2873 55.541C20.0277 55.541 20.6315 54.9377 20.6315 54.1979C20.6315 53.4582 20.0277 52.8548 19.2873 52.8548ZM44.826 52.8548C44.0857 52.8548 43.4819 53.4582 43.4819 54.1979C43.4819 54.9377 44.0857 55.541 44.826 55.541C45.5663 55.541 46.1702 54.9377 46.1702 54.1979C46.1702 53.4582 45.5663 52.8548 44.826 52.8548ZM32.0567 56.2546C31.3163 56.2546 30.7125 56.8579 30.7125 57.5976C30.7125 58.3374 31.3163 58.9407 32.0567 58.9407C32.797 58.9407 33.4008 58.3374 33.4008 57.5976C33.4008 56.8579 32.797 56.2546 32.0567 56.2546Z" fill="#C89210" stroke="#C89210" stroke-width="0.008"/>
</svg>
