<?xml version="1.0" encoding="utf-8"?>
<!-- Generator: Adobe Illustrator 23.0.0, SVG Export Plug-In . SVG Version: 6.00 Build 0)  -->
<svg version="1.1" id="bluesvg" xmlns="http://www.w3.org/2000/svg" xmlns:xlink="http://www.w3.org/1999/xlink" x="0px" y="0px" viewBox="0 0 512 210" style="enable-background:new 0 0 512 210;" xml:space="preserve" className="fill-[#FFFFFF] hover:fill-[#FFFFFF]">
<style type="text/css">
	.st0{fill:none;stroke:#000000;stroke-width:1.6029;stroke-miterlimit:22.9256;}
	.st1{fill:none;stroke:#000000;stroke-width:1.1445;stroke-miterlimit:22.9256;}
	.st2{fillRule:evenodd;clipRule:evenodd;stroke:#000000;stroke-width:1.1445;stroke-miterlimit:22.9256;}
	.st3{fill:none;stroke:#000000;stroke-width:3.2054;stroke-miterlimit:22.9256;}
	.st4{fill:none;stroke:#000000;stroke-width:2.2894;stroke-miterlimit:22.9256;}
	.st5{enable-background:new    ;}
</style>
<g id="bluesvg">
	<path class="st0" d="M502.7,135.9c-137.9-106.4-366.5-97.1-495,0C94.1-28.2,402.6-48.2,502.7,135.9L502.7,135.9z"/>
	<path class="st1" d="M52.9,78.1v28.7c37.9-32.6,78.3-62.7,123.3-91.2l79.4,16.6l81.2-18.5c43.3,29.6,84.1,59.7,121.2,92.4V78"/>
	<path class="st2" d="M458.4,106.7V78.4c19.5,18.5,33.8,36.9,43,55.4C489.6,125.4,475.7,116.6,458.4,106.7L458.4,106.7z"/>
	<path class="st2" d="M52.3,106.7V78.4c-19.5,18.5-33.8,36.9-43,55.4C21.1,125.4,35,116.6,52.3,106.7L52.3,106.7z"/>
	<path class="st0" d="M70.4,92.3l9.3,1.7l3.4-11.6l20.1,2.4l7.5-22.9l25.4,12.6l14.5-40.6L179.9,65l22.2-42.5l27,36.9L255.8,33
		l25.6,26.2l28.4-37.9l22.2,43l29.3-31.8l14.5,41.4l25.5-12.6l7.3,22.6l20.1-2l3.4,11.2l9.3-1.7 M52.9,78.1v28.7
		c37.9-32.6,78.3-62.7,123.3-91.2l79.4,16.6l81.2-17.4C380.1,44.4,420.9,73.3,458,106V77.9 M34.8,115.8h443.1 M420.1,89.2H263.7
		H93.4 M39.9,142v-29.6 M73.8,142V97 M107.3,142V83.5 M140.8,142V73.5 M174.7,142.3V66.1 M207.9,142V61.4 M240.7,142V59.2
		 M272.7,142V59.2 M306.5,142V61.1 M340,142V66.1 M374,142V73.5 M407.4,141.5V83.7 M440.9,142V97.8 M474.5,142v-27"/>
	<line class="st3" x1="2.5" y1="152" x2="508" y2="152"/>
	<line class="st4" x1="2.5" y1="202.8" x2="508.8" y2="202.8"/>
	<g class="st5">
		<path d="M25.4,187.3H14.2l-1.6,5.3H2.5l12-32h10.8l12,32H27L25.4,187.3z M23.4,180.4l-3.5-11.5l-3.5,11.5H23.4z"/>
		<path d="M40.7,192.6v-32h16.5c3.1,0,5.4,0.3,7,0.8c1.6,0.5,2.9,1.5,3.9,2.9s1.5,3.2,1.5,5.2c0,1.8-0.4,3.3-1.1,4.6
			c-0.8,1.3-1.8,2.3-3.1,3.1c-0.8,0.5-2,0.9-3.5,1.3c1.2,0.4,2,0.8,2.6,1.2c0.4,0.3,0.9,0.8,1.6,1.7c0.7,0.9,1.2,1.5,1.4,2l4.8,9.3
			H61l-5.3-9.8c-0.7-1.3-1.3-2.1-1.8-2.5c-0.7-0.5-1.5-0.7-2.4-0.7h-0.9v13h-9.9V192.6z M50.6,173.6h4.2c0.5,0,1.3-0.1,2.6-0.4
			c0.7-0.1,1.2-0.5,1.6-1c0.4-0.5,0.6-1.2,0.6-1.9c0-1-0.3-1.8-1-2.4s-1.9-0.8-3.7-0.8h-4.4v6.5H50.6z"/>
		<path d="M75.3,160.6h26.5v6.8H85.3v5.1h15.4v6.5H85.3v6.3h17.1v7.3h-27L75.3,160.6L75.3,160.6z"/>
		<path d="M107.8,160.6h9.2l12.1,17.7v-17.7h9.3v32h-9.3l-12-17.6v17.6h-9.3V160.6z"/>
		<path d="M164.2,187.3H153l-1.6,5.3h-10.1l12-32h10.8l12,32h-10.4L164.2,187.3z M162.2,180.4l-3.5-11.5l-3.5,11.5H162.2z"/>
	</g>
	<g class="st5">
		<path d="M194.3,160.6h13l5,19.5l5-19.5h13v32h-8.1v-24.4l-6.2,24.4h-7.3l-6.2-24.4v24.4h-8.1L194.3,160.6L194.3,160.6z"/>
		<path d="M235.4,176.6c0-5.2,1.5-9.3,4.4-12.2c2.9-2.9,7-4.4,12.2-4.4c5.3,0,9.4,1.4,12.3,4.3s4.3,6.9,4.3,12
			c0,3.7-0.6,6.8-1.9,9.2c-1.3,2.4-3.1,4.3-5.5,5.6c-2.4,1.3-5.4,2-8.9,2c-3.6,0-6.6-0.6-9-1.7c-2.4-1.2-4.3-3-5.8-5.5
			C236.1,183.5,235.4,180.4,235.4,176.6z M245.3,176.7c0,3.2,0.6,5.6,1.8,7s2.8,2.1,4.9,2.1c2.1,0,3.8-0.7,4.9-2.1
			c1.2-1.4,1.7-3.9,1.7-7.5c0-3-0.6-5.2-1.8-6.6c-1.2-1.4-2.9-2.1-5-2.1c-2,0-3.6,0.7-4.8,2.1C245.9,171.1,245.3,173.4,245.3,176.7z
			"/>
		<path d="M274,160.6h9.2l12.1,17.7v-17.7h9.3v32h-9.3l-12-17.6v17.6H274V160.6z"/>
		<path d="M309,160.6h30.1v7.9H329v24.1h-9.9v-24.1H309V160.6z"/>
		<path d="M343.5,160.6H370v6.8h-16.6v5.1h15.4v6.5h-15.4v6.3h17.1v7.3h-27V160.6z"/>
		<path d="M376,192.6v-32h16.5c3.1,0,5.4,0.3,7,0.8s2.9,1.5,3.9,2.9s1.5,3.2,1.5,5.2c0,1.8-0.4,3.3-1.1,4.6
			c-0.8,1.3-1.8,2.3-3.1,3.1c-0.8,0.5-2,0.9-3.5,1.3c1.2,0.4,2,0.8,2.6,1.2c0.4,0.3,0.9,0.8,1.6,1.7c0.7,0.9,1.2,1.5,1.4,2l4.8,9.3
			h-11.2l-5.3-9.8c-0.7-1.3-1.3-2.1-1.8-2.5c-0.7-0.5-1.5-0.7-2.4-0.7H386v13h-10V192.6z M386,173.6h4.2c0.5,0,1.3-0.1,2.6-0.4
			c0.7-0.1,1.2-0.5,1.6-1s0.6-1.2,0.6-1.9c0-1-0.3-1.8-1-2.4s-1.9-0.8-3.7-0.8H386V173.6z"/>
		<path d="M410.8,192.6v-32h16.5c3.1,0,5.4,0.3,7,0.8s2.9,1.5,3.9,2.9s1.5,3.2,1.5,5.2c0,1.8-0.4,3.3-1.1,4.6s-1.8,2.3-3.1,3.1
			c-0.8,0.5-2,0.9-3.5,1.3c1.2,0.4,2,0.8,2.6,1.2c0.4,0.3,0.9,0.8,1.6,1.7c0.7,0.9,1.2,1.5,1.4,2l4.8,9.3h-11.2l-5.3-9.8
			c-0.7-1.3-1.3-2.1-1.8-2.5c-0.7-0.5-1.5-0.7-2.4-0.7h-0.9v13h-10V192.6z M420.8,173.6h4.2c0.5,0,1.3-0.1,2.6-0.4
			c0.7-0.1,1.2-0.5,1.6-1s0.6-1.2,0.6-1.9c0-1-0.3-1.8-1-2.4s-1.9-0.8-3.7-0.8h-4.4L420.8,173.6L420.8,173.6z"/>
		<path d="M445.5,160.6H472v6.8h-16.6v5.1h15.4v6.5h-15.4v6.3h17.1v7.3h-27V160.6z"/>
		<path d="M474.6,160.6h11l6.5,10.8l6.5-10.8h10.9L497,179.2v13.4h-9.9v-13.4L474.6,160.6z"/>
	</g>
</g>
</svg>
