<svg version="1" xmlns="http://www.w3.org/2000/svg" viewBox="0 0 645.3 174.5"><path d="M0 130.1h11.9v2.5H3.4v2.7h8v2.4h-8v3h8.5v2.5H0v-13.1zm27 0h3.4v10.5h7.8v2.6H27v-13.1zm49.1 7.5h4.7c1.2 0 1.8.6 1.8 1.6 0 .8-.4 1.5-1.5 1.5H76v-3.1h.1zm-3.4 5.6h9c3.8 0 4.6-2.2 4.6-4 0-1.4-.8-2.9-2.3-3.2 1.2-.4 1.7-1.6 1.7-2.6 0-2.4-1.7-3.3-3.6-3.3h-9.5v13.1h.1zm3.4-10.7h4.3c1.4 0 1.8.6 1.8 1.4 0 1-.5 1.4-1.3 1.4h-4.8v-2.8zm33.7 5.6h-4l2-5.2 2 5.2zm2 5.1h3.7l-5.6-13.1h-4.2l-5.6 13.1h3.7l1-2.7h5.8l1.2 2.7zm28.5-13.1h3.3v13.1h-3.7l-6.9-9.1h-.1v9.1h-3.3v-13.1h4l6.7 9.1v-9.1zm29.6 5c-.3-1.9-1.8-2.8-3.6-2.8-3.3 0-4 2.6-4 4.4 0 1.8.7 4.4 4 4.4 1.7 0 3.3-.8 3.6-2.9h3.8c-.4 3.8-3.5 5.4-7.5 5.4-4.6 0-7.5-2.1-7.5-6.9 0-4.9 2.9-6.9 7.5-6.9 3.1 0 6.9.8 7.5 5.3h-3.8zm21.5 1.6c0-2 1.1-4.4 4.2-4.4s4.2 2.4 4.2 4.4c0 2-1.1 4.4-4.2 4.4s-4.2-2.4-4.2-4.4zm-3.6 0c0 2.7 1.1 6.9 7.9 6.9 6.8 0 7.9-4.2 7.9-6.9s-1.1-6.9-7.9-6.9c-6.9-.1-7.9 4.1-7.9 6.9zm50.3-6.6h11.4v2.5h-7.9v2.9h7.4v2.5h-7.4v5.2h-3.5v-13.1zm25.9 0h3.5v7.5c0 1.3.1 3.4 3.2 3.4 3.2 0 3.2-2.2 3.2-3.4v-7.5h3.5v8.4c0 1.5-.2 5.1-6.7 5.1s-6.7-3.6-6.7-5.1v-8.4zm28.7 0h11.9v2.5h-8.5v2.7h8v2.4h-8v3h8.5v2.5h-11.9v-13.1zm30.4 2.5h4.4c.8 0 1.8.3 1.8 1.6 0 1.2-.9 1.7-1.6 1.7h-4.6v-3.3zm-3.4 10.6h3.4v-4.8h4.3c1.1 0 1.8.5 1.8 2.3 0 1.4 0 1.9.3 2.5h3.8c-.6-.7-.7-2.2-.7-2.8 0-1.3-.2-3.3-1.7-3.5 1.4-.5 2.1-1.6 2.1-3.2 0-1.3-.6-3.6-4.1-3.6h-9.2v13.1zm31.8-10.6h-4.8v-2.5h12.9v2.5h-4.7v10.6h-3.4v-10.6zm22.4-2.5h11.9v2.5h-8.4v2.7h8v2.4h-8v3h8.5v2.5h-12v-13.1zm50.2 2.5h3.5c2.6 0 3.6 1.5 3.6 3.9 0 2.8-1 4.2-3.3 4.2h-3.8v-8.1zm-3.5 10.6h8.2c4 0 5.9-2.6 5.9-6.5s-1.9-6.5-6.2-6.5h-7.9v13zm29.3-13.1h11.9v2.5h-8.4v2.7h7.9v2.4h-7.9v3h8.4v2.5h-11.9v-13.1zm59.3 0h5.1v13.1h-3.4v-10.5l-4 10.5H504l-4-10.5v10.5h-3.4v-13.1h5.1l3.7 9.4 3.8-9.4zm20.6 0h11.9v2.5h-8.4v2.7h8v2.4h-8v3h8.5v2.5h-12v-13.1zm30.9 6.4l-4.9-6.4h4.1l2.8 4.1 2.8-4.1h4.1l-4.9 6.4 5.4 6.7h-4.3l-3.1-4.4-3.1 4.4h-4.3l5.4-6.7zm23.4-6.4h3.5v13.1h-3.5v-13.1zm29.7 5c-.3-1.9-1.8-2.8-3.6-2.8-3.3 0-4 2.6-4 4.4 0 1.8.7 4.4 4 4.4 1.7 0 3.3-.8 3.6-2.9h3.8c-.4 3.8-3.5 5.4-7.5 5.4-4.6 0-7.5-2.1-7.5-6.9 0-4.9 2.9-6.9 7.5-6.9 3.1 0 6.9.8 7.5 5.3h-3.8zM577.5 54v12.2h-22.8v47.1h-13.9V66.5H518V54h59.5zm67.8-.1v12h-47.5v12.5h37.6v10.3h-37.6v11.9h47.5v12.7h-60.4V53.9h60.4zM308.6 76.2v37.1H296V54h12l44.4 38.5V54h11.4v59.3h-11.4c-.2-.3-43.8-37.1-43.8-37.1zm-92.9 20.2v-1.8c0-4.8-3.6-10.4-3.6-10.5 0-.7 3.7-3.7 3.7-9.7V71c0-11.6-11.3-17-15-17h-52.5v59.5h54.5c1.9-.1 2.4-.7 5.2-2.2 2.2-1.2 7.6-6.5 7.6-12.3v-2.6h.1zm-13.5.9c-.1 2-.9 4.3-3 4.4-2.6.1-37.8 0-38.9 0v-12s37.4-.1 39.3 0c1.6.1 2.5 1.8 2.6 4.2v3.4zm.1-24.7l-.1 1.8c0 2.1-.9 4.3-3 4.4-2.6.1-37.8 0-38.9 0v-12s37.4-.1 39.3 0c1.6.1 2.6 1.8 2.6 4.2l.1 1.6zm61.6 15h-19.4l9.8-17.9 9.6 17.9zM258.6 54h-9.5l-32.4 59.3h12.8l8.2-13.9h31.7l8.1 13.9h12.7L258.6 54zm172.6 29.1c0 10.8-10.3 16.3-14.2 16.3h-21.6c-3.1 0-14.5-2.9-14.5-16.9 0-10.8 11.5-16.3 14.8-16.3h20.9c5.1 0 14.6 6.6 14.6 16.9zm13.2-.2v-1.4c-.3-14-13.9-27.6-24-27.6H393c-15.9 0-25.9 17.6-25.9 26.4v8.4c.8 17.2 16.5 24.1 21.9 24.7 3.8.4 32.3 0 32.3 0 2.6-.1 20.4-4 23.1-25.6v-4.9zm57.9-10.8c0 3-1.2 5.6-3.7 6.1h-38.4V66.5h37.3c3.1-.1 4.8 2.7 4.8 5.6zm11.1-2.4C513 60.1 503.8 54 494 54h-46.2v59.3h12.6V88.7h19.1c1 0 18.7 24.6 18.7 24.6h15.2l-18.2-23.9c1 .1 4.7-.2 4.7-.2 7.2-.2 13.5-3.3 13.5-13.9 0-.6.1-4.9 0-5.6zm-453.1.5C36.5 67.7 19.1 60 19.1 51c0-11.1 26-20.1 58-20.1 32.1 0 58 9 58 20.1 0 11.1-26 20.1-58 20.1-1.7 0-3.5 0-5.2-.1V37.6L60.3 70.2zm-1.5 4.9l-13.6 39.2C21.7 111.7 4 104.1 4 95.2c-.1-10.8 24-19.6 54.8-20.1zm13.2.3c27.3 1.6 48 9.9 48 19.8s-20.7 18.1-48 19.7V75.4z" fillRule="evenodd" clipRule="evenodd" fill="#C9002C"/></svg>