<?xml version="1.0" encoding="utf-8"?>
<!-- Generator: Adobe Illustrator 23.0.0, SVG Export Plug-In . SVG Version: 6.00 Build 0)  -->
<svg version="1.1" id="Capa_1" xmlns="http://www.w3.org/2000/svg" xmlns:xlink="http://www.w3.org/1999/xlink" x="0px" y="0px"
	 viewBox="0 0 474 175" style="enable-background:new 0 0 474 175;" xml:space="preserve">
<style type="text/css">
	.st0{fill:#4D6373;}
	.st1{fill:#FFFFFF;}
	.st2{fillRule:evenodd;clipRule:evenodd;fill:#4D6373;}
</style>
<g>
	<path class="st0" d="M281.1,54.3l3.7-20.2h-1.9H236l-3.8,20.2h44.6H281.1L281.1,54.3z M268.1,125.3l8.1-44.3h-3h-45.9l-8.4,45.9
		l-0.6,3h-3.1h-20.8H190l0.8-4.4l6.3-34.2c-2.1,5.9-4.5,11.2-7.4,15.9c-3.3,5.3-7.1,9.7-11.5,13.4l0,0c-4.4,3.7-9.2,6.5-14.4,8.4
		c-5.2,1.8-10.8,2.8-16.7,2.8l0,0l0,0c-6.7,0-12.7-1.2-18-3.5c-0.8-0.4-1.7-0.8-2.6-1.2l0,0c-4.3-2.3-8-5.4-11.2-9.3l0,0
		c-3.8-4.7-6.7-10.3-8.6-16.9c-1.8-6.5-2.8-13.9-2.8-22.3c0-6.8,0.6-13.3,1.8-19.6c1.2-6.2,3-12.2,5.5-17.9l0,0
		c2.4-5.7,5.4-10.7,8.8-15.1c3.5-4.4,7.4-8.2,11.8-11.3l0,0c1.3-0.9,2.5-1.7,3.8-2.4c1.2-0.7,2.5-1.4,3.9-2.1
		c6.8-3.3,14-4.8,21.5-4.8l0,0c5.9,0,11.3,0.9,16.1,2.8c4.9,1.8,9.3,4.6,13.1,8.2h0.1c3.7,3.7,6.6,8,8.8,13
		c2.1,4.9,3.5,10.4,4.2,16.5l0.4,3.6l-3.7,0.4l-20.1,2.2l-3.5,0.4l-0.5-3.5l0,0c-0.1-0.9-0.3-1.7-0.4-2.5c-0.2-0.8-0.4-1.6-0.6-2.2
		c-1-3.5-2.4-6-4.2-7.7c-1.2-1.2-2.6-2-4.2-2.6c-1.7-0.6-3.6-0.9-5.9-0.9c-2.5,0-4.8,0.4-7.1,1.2s-4.6,2.1-6.8,3.9
		c-0.6,0.5-1.2,1-1.7,1.5c-0.6,0.5-1.1,1.2-1.7,1.8c-2.9,3.5-5.4,8-7.3,13.6l0,0l0,0c-0.4,1-0.7,2.2-1.1,3.4
		c-0.3,1.1-0.7,2.3-0.9,3.4c-1.5,5.8-2.2,11.6-2.2,17.4c0,4.3,0.4,8.1,1.3,11.3c0.8,3.1,2.1,5.6,3.8,7.8v0.1l0,0
		c0.4,0.6,0.9,1.1,1.4,1.7c0.5,0.5,0.9,0.9,1.5,1.4c2.5,2,5.4,3.1,8.7,3.1c2.3,0,4.4-0.4,6.4-1.2c2.1-0.8,4.1-2.1,6-3.8l0.1-0.1l0,0
		l0,0c0.5-0.4,1-0.9,1.5-1.5c0.5-0.5,1-1.1,1.5-1.7c2.5-3.2,4.4-7.4,5.8-12.6l0.9-3.3l3.3,0.6l21,3.6l3.3,0.6L212,10.6l0.6-3h3.1
		h70.7h3.3l0.1-0.3h3.1h74.9h4.4l-0.8,4.3l-3.5,19.2l-0.6,3h-3.1h-50.9l-3.5,18.8h47.7h4.4l-0.8,4.3l-3.5,19.2l-0.6,3h-3.1h-49.2
		l-4.8,23.9H354h4.4l-0.8,4.3l-3.5,19.2l-0.6,3h-3.1h-78.8h-4.4L268.1,125.3L268.1,125.3z"/>
	<path class="st1" d="M173.5,83.2l21,3.6l1.4,0.2l-0.4,1.3c-2.1,6.5-4.7,12.3-7.9,17.4c-3.1,5.1-6.8,9.3-11,12.8l0,0
		c-4.2,3.5-8.7,6.2-13.7,7.9c-4.9,1.7-10.2,2.6-15.9,2.6l0,0l0,0c-6.3,0-12-1.1-17-3.3c-0.8-0.4-1.6-0.7-2.4-1.1l0,0
		c-4-2.1-7.5-5-10.5-8.7l0,0c-3.6-4.4-6.3-9.7-8.1-16c-1.8-6.2-2.7-13.4-2.7-21.6l0,0c0-6.7,0.6-13,1.8-19.1
		c1.2-6.1,3-11.9,5.3-17.4l0,0l0,0c0.7-1.6,1.4-3,2.1-4.5c0.7-1.4,1.5-2.8,2.3-4.2c4.2-6.9,9.3-12.5,15.4-16.7l0,0
		c1.2-0.8,2.4-1.6,3.6-2.3c1.2-0.7,2.4-1.4,3.7-2c6.5-3.1,13.3-4.6,20.4-4.6c5.6,0,10.7,0.9,15.3,2.6c4.6,1.7,8.7,4.3,12.2,7.7l0,0
		c3.5,3.5,6.2,7.6,8.3,12.3c2,4.7,3.4,9.9,4,15.8l0.1,1.2l-1.2,0.1l-20.1,2.2l-1.2,0.1l-0.2-1.2l0,0l0,0c-0.1-0.9-0.3-1.8-0.5-2.6
		c-0.2-0.9-0.4-1.7-0.6-2.4c-1.1-3.9-2.8-6.8-4.9-8.8c-1.5-1.4-3.2-2.5-5.1-3.1c-1.9-0.7-4.2-1-6.7-1c-2.7,0-5.4,0.5-7.9,1.4
		c-2.6,0.9-5,2.3-7.5,4.2c-0.7,0.5-1.3,1.1-1.9,1.7c-0.6,0.6-1.2,1.3-1.8,2c-3.1,3.7-5.7,8.4-7.8,14.4l0,0l0,0
		c-0.4,1.1-0.8,2.3-1.1,3.5c-0.4,1.2-0.7,2.3-1,3.5c-1.5,6-2.3,12-2.3,18c0,4.5,0.5,8.5,1.4,11.9s2.3,6.3,4.2,8.7l0,0l0,0
		c0.5,0.7,1,1.3,1.6,1.9c0.5,0.6,1.1,1.1,1.7,1.6c2.9,2.4,6.4,3.6,10.2,3.6c2.6,0,5-0.5,7.3-1.4s4.6-2.4,6.7-4.3l0,0l0,0l0,0
		c0.6-0.5,1.2-1.1,1.7-1.7c0.6-0.6,1.1-1.2,1.6-1.9c2.7-3.5,4.8-8,6.2-13.5l0.3-1.1L173.5,83.2L173.5,83.2z"/>
	<polygon class="st1" points="193.4,125.7 214.6,10.6 214.8,9.6 215.8,9.6 286.5,9.6 287.9,9.6 287.7,11.1 284.2,30.3 284,31.3 
		283,31.3 234.1,31.3 229.3,56.4 276.9,56.4 278.4,56.4 278.1,57.9 274.5,77.3 274.3,78.3 273.3,78.3 225.4,78.3 216.6,126.2 
		216.4,127.2 215.4,127.2 194.6,127.2 193.1,127.2 	"/>
	<polygon class="st1" points="270.5,125.7 291.5,10.6 291.7,9.6 292.7,9.6 367.6,9.6 369.1,9.6 368.8,11.1 365.3,30.3 365.1,31.3 
		364.1,31.3 311.1,31.3 306.7,55 357.4,55 358.9,55 358.6,56.5 355.1,75.7 354.9,76.7 353.9,76.7 302.7,76.7 296.9,105.5 354,105.5 
		355.5,105.5 355.2,107 351.7,126.2 351.5,127.2 350.5,127.2 271.7,127.2 270.2,127.2 	"/>
	<path class="st2" d="M19.9,160.2l4.3,0.8c-0.8,3.2-2.1,5.6-3.9,7.3c-1.7,1.5-3.6,2.4-5.9,2.4c-2.5,0-4.5-1-5.9-3.1
		c-1.5-2-2.2-4.9-2.2-9c0-3.4,0.6-6.5,1.5-9.1c1.1-2.5,2.5-4.5,4.1-5.8c1.7-1.3,3.5-2,5.5-2c2.1,0,3.9,0.8,5.5,2.4
		c1.4,1.5,2.2,3.8,2.5,6.6l-4.2,0.6c-0.1-1.7-0.7-2.8-1.3-3.5c-0.7-0.7-1.5-1.1-2.7-1.1c-1,0-2.1,0.4-3.1,1.3
		c-1,0.8-1.8,2.4-2.5,4.3c-0.7,2-1.1,4.2-1.1,6.6c0,2.2,0.4,3.9,1.3,5.2c0.8,1.1,1.8,1.8,2.9,1.8c1.1,0,2.1-0.6,3.1-1.5
		C18.8,163.6,19.5,162,19.9,160.2L19.9,160.2z"/>
	<path class="st2" d="M34.4,149.5c0.3,0,0.6,0,0.8,0c2.1,0,3.8,0.8,5,2.4c1.4,1.5,2,3.8,2,6.7c0,3.4-0.8,6.2-2.4,8.6
		c-1.4,2.1-3.2,3.2-5.5,3.4v-4.2c0.8-0.1,1.5-0.8,2.2-1.8c1-1.8,1.5-4.1,1.5-6.6c0-1.4-0.3-2.4-0.8-3.2c-0.6-0.7-1.3-1.1-2.2-1.1
		c-0.1,0-0.4,0-0.7,0.1v-4.3H34.4z M26.5,161.9c0-3.4,0.7-6.2,2-8.6c1.4-2.2,3.4-3.5,5.9-3.8v4.2c-0.4,0.1-0.8,0.3-1.4,0.7
		c-0.6,0.6-1.1,1.5-1.7,2.9c-0.4,1.4-0.7,2.8-0.7,4.3c0,1.4,0.3,2.7,0.8,3.5c0.7,0.8,1.4,1.3,2.2,1.3c0.3,0,0.6-0.1,0.7-0.1v4.2
		c-0.3,0.1-0.6,0.1-0.8,0.1c-2.1,0-3.8-0.8-5-2.4C27.1,166.6,26.5,164.5,26.5,161.9L26.5,161.9z"/>
	<path class="st2" d="M46.8,149.9h3.8l-0.3,2.5c1.4-2,3.1-2.9,4.6-2.9c2.2,0,3.5,1.1,3.9,3.5c0.6-1,1.3-1.8,2.2-2.5c1-0.7,2-1,3.1-1
		s2.1,0.4,2.8,1.3c0.7,0.8,1,2,1,3.5c0,0.7-0.1,1.8-0.4,3.5l-1.8,12.3h-4.2l2-12.3c0.3-1.5,0.4-2.4,0.4-2.5c0-0.7-0.1-1.1-0.4-1.4
		s-0.7-0.4-1.1-0.4c-1,0-1.8,0.6-2.7,2c-0.7,1.1-1.1,2.9-1.5,5.6l-1.5,9.1h-4.1l2-12.2c0.1-1.4,0.3-2.2,0.3-2.7c0-0.6-0.1-1-0.4-1.4
		c-0.3-0.3-0.7-0.4-1.1-0.4c-0.6,0-1.1,0.3-1.8,0.8c-0.6,0.7-1.1,1.5-1.5,2.7c-0.1,0.7-0.4,2.1-0.7,3.9l-1.5,9.3h-4.1L46.8,149.9
		L46.8,149.9z"/>
	<path class="st2" d="M74.2,142.2h4.2l-0.8,5h-4.1L74.2,142.2L74.2,142.2L74.2,142.2z M73.1,149.9h4.1L74,170.1h-4.1L73.1,149.9
		L73.1,149.9z"/>
	<path class="st2" d="M77.4,164.5l4.1-0.8c0.3,1.1,0.7,2,1.3,2.4c0.6,0.4,1.3,0.7,2.1,0.7c0.8,0,1.5-0.3,2.1-0.7
		c0.6-0.4,0.8-1,0.8-1.5c0-0.4-0.1-0.7-0.4-1c-0.1-0.3-0.7-0.6-1.7-1c-2.4-1.1-3.9-2-4.5-2.5c-1-1.1-1.4-2.4-1.4-3.9
		c0-2,0.6-3.5,1.8-4.8c1.3-1.3,2.9-1.8,5-1.8c3.6,0,5.7,1.7,6.3,5.3l-3.8,0.8c-0.4-1.7-1.5-2.4-3.2-2.4c-0.7,0-1.4,0.1-1.8,0.6
		c-0.3,0.3-0.6,0.7-0.6,1.3c0,0.4,0.1,0.8,0.4,1.1c0.3,0.3,1.1,0.7,2.5,1.3c2,0.7,3.2,1.4,3.9,2.2c1,1,1.4,2.2,1.4,3.8
		c0,2.1-0.6,3.8-1.8,5c-1.3,1.4-2.9,2.1-5,2.1C80.9,170.7,78.4,168.6,77.4,164.5L77.4,164.5z"/>
	<path class="st2" d="M98.7,142.2h4.1l-0.8,5h-4.1L98.7,142.2L98.7,142.2L98.7,142.2z M97.5,149.9h4.1l-3.1,20.2h-4.2L97.5,149.9
		L97.5,149.9z"/>
	<path class="st2" d="M110.9,149.5c0.3,0,0.6,0,0.8,0c2.1,0,3.8,0.8,5,2.4c1.4,1.5,2,3.8,2,6.7c0,3.4-0.7,6.2-2.4,8.6
		c-1.4,2.1-3.2,3.2-5.5,3.4v-4.2c0.8-0.1,1.5-0.8,2.2-1.8c1-1.8,1.5-4.1,1.5-6.6c0-1.4-0.3-2.4-0.8-3.2c-0.6-0.7-1.3-1.1-2.2-1.1
		c-0.1,0-0.4,0-0.7,0.1L110.9,149.5L110.9,149.5L110.9,149.5z M110.9,147.4v-2.5l1.7-3.2h4.3l-4.6,5.7H110.9L110.9,147.4z
		 M103.1,161.9c0-3.4,0.7-6.2,2-8.6c1.4-2.2,3.4-3.5,5.9-3.8v4.2c-0.4,0.1-0.8,0.3-1.4,0.7c-0.6,0.6-1.1,1.5-1.7,2.9
		c-0.4,1.4-0.7,2.8-0.7,4.3c0,1.4,0.3,2.7,0.8,3.5c0.7,0.8,1.4,1.3,2.2,1.3c0.3,0,0.6-0.1,0.7-0.1v4.2c-0.3,0.1-0.6,0.1-0.8,0.1
		c-2.1,0-3.8-0.8-5-2.4C103.6,166.6,103.1,164.5,103.1,161.9L103.1,161.9L103.1,161.9z M110.9,144.9v2.5h-1.4L110.9,144.9
		L110.9,144.9z"/>
	<path class="st2" d="M123.6,149.9h3.9l-0.4,2.7c1-1.1,2-2,2.8-2.4s1.7-0.7,2.5-0.7c1.3,0,2.2,0.4,2.9,1.4c0.8,0.8,1.1,2.2,1.1,3.8
		c0,0.7-0.1,2.1-0.4,4.1l-1.8,11.4h-4.1l1.8-11.4c0.3-1.8,0.4-2.8,0.4-3.1c0-0.8-0.3-1.3-0.6-1.7c-0.3-0.4-0.7-0.6-1.3-0.6
		s-1.1,0.1-1.7,0.7c-0.8,0.7-1.4,1.5-1.8,2.4c-0.4,1-0.8,2.8-1.3,5.3l-1.3,8.3h-4.2L123.6,149.9L123.6,149.9z"/>
	<polygon class="st2" points="146.4,170.1 150.8,142.2 165.5,142.2 164.6,147 154.4,147 153.3,153.6 163.4,153.6 162.7,158.4 
		152.6,158.4 150.6,170.1 	"/>
	<path class="st2" d="M179.1,161.7h-6.6v-3.2h3.1l0.1-0.6c0-1.5-0.3-2.7-0.8-3.4c-0.6-0.8-1.1-1.1-2-1.1c-0.1,0-0.3,0-0.4,0v-3.9
		c0.3,0,0.6,0,0.8,0c1.8,0,3.2,0.7,4.3,2.2s1.7,3.6,1.7,6.5C179.4,159.5,179.2,160.7,179.1,161.7L179.1,161.7L179.1,161.7z
		 M172.5,166.6c1-0.3,1.8-1.1,2.5-2.7l3.6,0.8c-0.7,2-1.7,3.4-2.9,4.3c-1,0.8-2.1,1.3-3.2,1.4L172.5,166.6L172.5,166.6z
		 M172.5,161.7h-3.6v0.6c0,1.4,0.3,2.4,0.8,3.2c0.6,0.8,1.3,1.3,2.1,1.3c0.1,0,0.4,0,0.7-0.1v3.9c-0.3,0.1-0.6,0.1-0.8,0.1
		c-2,0-3.5-0.8-4.9-2.5c-1.3-1.7-2-4.1-2-6.9c0-3.1,0.8-5.9,2.2-8.3c1.4-2.1,3.1-3.2,5.5-3.5v3.9c-0.7,0.1-1.4,0.6-2,1.3
		c-0.7,0.8-1.1,2.1-1.3,3.8h3.2v3.2H172.5z"/>
	<path class="st2" d="M194.7,170.1h-3.9l0.4-2.1c-0.8,1-1.5,1.7-2.2,2c-0.1,0.1-0.1,0.1-0.1,0.1v-3.6c0.4-0.1,0.7-0.4,1.1-0.7
		c0.7-0.6,1.3-1.5,1.7-2.9s0.7-2.8,0.7-4.3s-0.3-2.7-1-3.6c-0.6-0.8-1.3-1.3-2-1.3c-0.3,0-0.4,0-0.6,0v-4.1l0,0c2,0,3.5,1.1,4.5,3.2
		l1.7-10.5h4.1L194.7,170.1L194.7,170.1z M188.8,170.1c-0.7,0.3-1.5,0.6-2.2,0.6c-1.5,0-2.8-0.7-3.8-2.1c-1.1-1.4-1.5-3.6-1.5-6.5
		c0-3.4,0.7-6.3,2.1-8.8c1.4-2.5,3.2-3.8,5.5-3.8v4.1c-0.4,0.1-0.8,0.4-1.3,0.8c-0.7,0.6-1.1,1.5-1.7,2.9c-0.4,1.5-0.7,2.9-0.7,4.6
		c0,1.4,0.3,2.5,0.8,3.4c0.6,0.8,1.3,1.3,2.1,1.3c0.1,0,0.4-0.1,0.7-0.1L188.8,170.1L188.8,170.1z"/>
	<path class="st2" d="M213.3,161.7h-6.6v-3.2h3.1v-0.6c0-1.5-0.1-2.7-0.7-3.4c-0.6-0.8-1.3-1.1-2-1.1c-0.1,0-0.3,0-0.4,0v-3.9
		c0.3,0,0.6,0,0.8,0c1.8,0,3.2,0.7,4.3,2.2s1.7,3.6,1.7,6.5C213.6,159.5,213.4,160.7,213.3,161.7L213.3,161.7L213.3,161.7z
		 M206.7,166.6c1-0.3,1.8-1.1,2.4-2.7l3.8,0.8c-0.7,2-1.7,3.4-2.9,4.3c-1,0.8-2.1,1.3-3.2,1.4v-3.8H206.7z M206.7,161.7h-3.6v0.6
		c0,1.4,0.3,2.4,0.8,3.2c0.6,0.8,1.3,1.3,2.1,1.3c0.1,0,0.4,0,0.7-0.1v3.9c-0.3,0.1-0.6,0.1-0.8,0.1c-2,0-3.5-0.8-4.9-2.5
		c-1.3-1.7-2-4.1-2-6.9c0-3.1,0.8-5.9,2.2-8.3c1.4-2.1,3.1-3.2,5.5-3.5v3.9c-0.7,0.1-1.4,0.6-2,1.3c-0.7,0.8-1.1,2.1-1.3,3.8h3.2
		v3.2H206.7z"/>
	<path class="st2" d="M217.8,149.9h3.8l-0.6,3.9c1.4-2.9,2.9-4.3,4.6-4.3c0.6,0,1.3,0.1,2,0.6l-1.7,4.5c-0.3-0.1-0.7-0.3-1.1-0.3
		c-0.7,0-1.3,0.3-1.8,0.7c-0.8,0.7-1.5,1.7-2,2.8c-0.4,1.3-0.8,3.2-1.3,6l-1.1,6.3h-4.1L217.8,149.9L217.8,149.9z"/>
	<path class="st2" d="M233.1,149.7c0.6-0.1,1.3-0.1,1.8-0.1c2,0,3.4,0.6,4.3,1.5c1,1,1.4,2.2,1.4,3.9c0,0.6,0,1.3-0.1,1.8
		c0,0.7-0.3,2.5-0.8,5.5c-0.3,2.4-0.6,4.1-0.6,5c0,0.8,0.1,1.8,0.3,2.8h-3.9c-0.1-0.7-0.3-1.4-0.3-2.2c-0.6,0.8-1.3,1.5-2.1,2.1
		v-3.6c0.3,0,0.4-0.1,0.7-0.3c0.6-0.4,1-0.8,1.3-1.5c0.3-0.6,0.6-1.5,0.8-3.1v-0.7c-0.1,0.1-0.6,0.1-1,0.3c-0.7,0.1-1.3,0.3-1.8,0.4
		V158c1.7-0.1,2.8-0.4,3.4-0.7c0.3-0.7,0.3-1.4,0.3-1.8c0-0.6-0.1-1.1-0.6-1.4c-0.4-0.4-0.8-0.6-1.5-0.6c-0.6,0-1.1,0.1-1.5,0.4
		L233.1,149.7L233.1,149.7z M232.1,155.7l-4.1-0.4c0.4-1.8,1.3-3.4,2.5-4.3c0.7-0.6,1.5-1,2.5-1.3v4.2
		C232.5,154.2,232.2,154.9,232.1,155.7L232.1,155.7L232.1,155.7z M233.1,170c-0.8,0.4-1.5,0.7-2.4,0.7c-1.1,0-2.2-0.6-3.1-1.7
		c-0.8-1-1.3-2.5-1.3-4.2c0-2.1,0.6-3.6,1.4-4.8c1-1.1,2.5-1.7,4.8-2c0.3,0,0.4,0,0.6-0.1v3.5c-0.8,0.1-1.5,0.4-2,0.8
		c-0.6,0.4-0.8,1.1-0.8,2c0,0.7,0.1,1.3,0.4,1.7c0.4,0.4,0.8,0.7,1.4,0.7c0.4,0,0.7-0.1,1-0.3L233.1,170L233.1,170z"/>
	<polygon class="st2" points="242.5,170.1 246.8,142.2 251,142.2 246.5,170.1 	"/>
	<path class="st2" d="M272.9,170.1H269l0.4-2.1c-0.8,1-1.5,1.7-2.2,2c-0.1,0.1-0.1,0.1-0.3,0.1v-3.6c0.4-0.1,0.8-0.4,1.3-0.7
		c0.6-0.6,1.1-1.5,1.7-2.9c0.4-1.4,0.6-2.8,0.6-4.3s-0.3-2.7-0.8-3.6c-0.6-0.8-1.3-1.3-2-1.3c-0.3,0-0.4,0-0.7,0v-4.1l0,0
		c2.1,0,3.6,1.1,4.6,3.2l1.7-10.5h4.1L272.9,170.1L272.9,170.1z M266.9,170.1c-0.7,0.3-1.4,0.6-2.1,0.6c-1.7,0-2.9-0.7-3.9-2.1
		s-1.4-3.6-1.4-6.5c0-3.4,0.7-6.3,2.1-8.8s3.2-3.8,5.3-3.8v4.1c-0.4,0.1-0.7,0.4-1.1,0.8c-0.7,0.6-1.3,1.5-1.7,2.9
		c-0.4,1.5-0.7,2.9-0.7,4.6c0,1.4,0.3,2.5,0.8,3.4c0.6,0.8,1.3,1.3,2,1.3c0.3,0,0.6-0.1,0.7-0.1L266.9,170.1L266.9,170.1z"/>
	<path class="st2" d="M291.5,161.7h-6.7v-3.2h3.2v-0.6c0-1.5-0.3-2.7-0.7-3.4c-0.6-0.8-1.3-1.1-2.1-1.1c-0.1,0-0.3,0-0.4,0v-3.9
		c0.3,0,0.6,0,1,0c1.7,0,3.2,0.7,4.3,2.2c1.1,1.5,1.7,3.6,1.7,6.5C291.8,159.5,291.7,160.7,291.5,161.7L291.5,161.7L291.5,161.7z
		 M284.8,166.6c1.1-0.3,2-1.1,2.5-2.7l3.8,0.8c-0.8,2-1.8,3.4-2.9,4.3c-1,0.8-2.1,1.3-3.4,1.4V166.6L284.8,166.6z M284.8,161.7h-3.6
		v0.6c0,1.4,0.3,2.4,1,3.2c0.6,0.8,1.3,1.3,2,1.3c0.3,0,0.6,0,0.7-0.1v3.9c-0.1,0.1-0.4,0.1-0.7,0.1c-2,0-3.6-0.8-4.9-2.5
		s-2-4.1-2-6.9c0-3.1,0.7-5.9,2.2-8.3c1.3-2.1,3.1-3.2,5.3-3.5v3.9c-0.7,0.1-1.3,0.6-1.8,1.3c-0.7,0.8-1.1,2.1-1.4,3.8h3.2
		L284.8,161.7L284.8,161.7z"/>
	<polygon class="st2" points="301.2,170.1 305.6,142.2 321,142.2 320.3,147 309.2,147 308.2,153.3 319,153.3 318.3,157.9 
		307.4,157.9 306.3,165.5 318.3,165.5 317.6,170.1 	"/>
	<polygon class="st2" points="320.6,170.1 324.9,142.2 329.1,142.2 324.6,170.1 	"/>
	<path class="st2" d="M343.6,161.7h-6.7v-3.2h3.2v-0.6c0-1.5-0.3-2.7-0.7-3.4c-0.6-0.8-1.3-1.1-2.1-1.1c-0.1,0-0.3,0-0.4,0v-3.9
		c0.3,0,0.6,0,0.8,0c1.8,0,3.4,0.7,4.5,2.2s1.7,3.6,1.7,6.5C343.9,159.5,343.7,160.7,343.6,161.7L343.6,161.7L343.6,161.7z
		 M336.8,166.6c1.1-0.3,2-1.1,2.5-2.7l3.6,0.8c-0.7,2-1.7,3.4-2.8,4.3c-1,0.8-2.1,1.3-3.4,1.4L336.8,166.6L336.8,166.6z
		 M336.8,161.7h-3.6v0.6c0,1.4,0.3,2.4,0.8,3.2c0.7,0.8,1.4,1.3,2.1,1.3c0.3,0,0.6,0,0.7-0.1v3.9c-0.3,0.1-0.4,0.1-0.7,0.1
		c-2,0-3.6-0.8-4.9-2.5s-2-4.1-2-6.9c0-3.1,0.7-5.9,2.2-8.3c1.3-2.1,3.1-3.2,5.3-3.5v3.9c-0.7,0.1-1.3,0.6-1.8,1.3
		c-0.7,0.8-1.1,2.1-1.4,3.8h3.2L336.8,161.7L336.8,161.7z"/>
	<path class="st2" d="M355.4,162.6l3.9,0.8c-0.6,2.4-1.5,4.2-2.9,5.5c-1.3,1.1-2.7,1.8-4.3,1.8c-2,0-3.5-0.8-4.6-2.2
		c-1.1-1.5-1.7-3.6-1.7-6.4c0-2.5,0.3-4.6,1.1-6.6c0.8-2,1.8-3.4,3.2-4.3c1.3-1,2.8-1.5,4.3-1.5c1.7,0,3.1,0.6,4.2,1.8
		c1.1,1.1,1.7,2.8,1.8,4.9l-3.9,0.6c-0.1-2.2-1-3.2-2.4-3.2c-0.7,0-1.4,0.3-2,0.8c-0.7,0.6-1.3,1.7-1.7,3.2c-0.6,1.5-0.7,3.2-0.7,5
		c0,1.1,0.1,2.1,0.6,2.7c0.6,0.7,1,1,1.7,1s1.3-0.3,2-0.8C354.5,164.8,354.9,163.8,355.4,162.6L355.4,162.6z"/>
	<path class="st2" d="M362.4,154l0.7-4.1h2l0.4-3.2l4.8-3.8l-1.1,7h2.5L371,154h-2.4l-1.4,8.6c-0.3,1.4-0.4,2.4-0.4,2.5
		c0,0.6,0.1,0.8,0.4,1c0.1,0.3,0.6,0.4,1,0.4c0.3,0,0.7-0.1,1.4-0.1l-0.7,4.1c-0.7,0.1-1.4,0.3-2.1,0.3c-1.4,0-2.4-0.4-3.1-1.1
		s-1.1-1.7-1.1-3.1c0-0.7,0.3-2.1,0.6-4.3l1.3-8.1h-2.1V154z"/>
	<path class="st2" d="M374,149.9h3.9l-0.7,3.9c1.4-2.9,2.9-4.3,4.6-4.3c0.7,0,1.3,0.1,2,0.6l-1.5,4.5c-0.4-0.1-0.8-0.3-1.3-0.3
		c-0.6,0-1.1,0.3-1.7,0.7c-0.8,0.7-1.5,1.7-2,2.8c-0.6,1.3-1,3.2-1.4,6l-1,6.3h-4.1L374,149.9L374,149.9z"/>
	<path class="st2" d="M386.9,142.2h4.1l-0.7,5h-4.2L386.9,142.2L386.9,142.2L386.9,142.2z M385.6,149.9h4.2l-3.2,20.2h-4.1
		L385.6,149.9L385.6,149.9z"/>
	<path class="st2" d="M400.9,162.6l4.1,0.8c-0.7,2.4-1.7,4.2-2.9,5.5c-1.4,1.1-2.8,1.8-4.5,1.8c-1.8,0-3.4-0.8-4.6-2.2
		c-1.1-1.5-1.7-3.6-1.7-6.4c0-2.5,0.4-4.6,1.1-6.6c0.8-2,1.8-3.4,3.2-4.3c1.4-1,2.8-1.5,4.3-1.5c1.7,0,3.1,0.6,4.2,1.8
		c1.1,1.1,1.7,2.8,1.8,4.9L402,157c-0.1-2.2-1-3.2-2.4-3.2c-0.7,0-1.3,0.3-2,0.8c-0.7,0.6-1.1,1.7-1.7,3.2c-0.4,1.5-0.7,3.2-0.7,5
		c0,1.1,0.1,2.1,0.7,2.7c0.4,0.7,1,1,1.5,1c0.7,0,1.4-0.3,2-0.8C400.1,164.8,400.6,163.8,400.9,162.6L400.9,162.6z"/>
	<path class="st2" d="M411.3,142.2h4.2l-0.8,5h-4.1L411.3,142.2L411.3,142.2L411.3,142.2z M410.2,149.9h4.1l-3.2,20.2H407
		L410.2,149.9L410.2,149.9z"/>
	<path class="st2" d="M429.1,170.1h-3.9l0.4-2.1c-0.8,1-1.5,1.7-2.2,2c0,0.1-0.1,0.1-0.1,0.1v-3.6c0.4-0.1,0.8-0.4,1.3-0.7
		c0.6-0.6,1.1-1.5,1.5-2.9s0.7-2.8,0.7-4.3s-0.3-2.7-0.8-3.6c-0.7-0.8-1.4-1.3-2.1-1.3c-0.1,0-0.4,0-0.6,0v-4.1l0,0
		c2,0,3.5,1.1,4.6,3.2l1.5-10.5h4.1L429.1,170.1L429.1,170.1z M423.2,170.1c-0.7,0.3-1.4,0.6-2.2,0.6c-1.5,0-2.8-0.7-3.8-2.1
		s-1.5-3.6-1.5-6.5c0-3.4,0.7-6.3,2.1-8.8s3.2-3.8,5.5-3.8v4.1c-0.4,0.1-0.8,0.4-1.3,0.8c-0.6,0.6-1.1,1.5-1.5,2.9
		c-0.6,1.5-0.7,2.9-0.7,4.6c0,1.4,0.3,2.5,0.8,3.4c0.6,0.8,1.1,1.3,2,1.3c0.3,0,0.4-0.1,0.7-0.1v3.6H423.2z"/>
	<path class="st2" d="M439.9,149.7c0.6-0.1,1.1-0.1,1.8-0.1c1.8,0,3.2,0.6,4.2,1.5c1,1,1.5,2.2,1.5,3.9c0,0.6,0,1.3-0.1,1.8
		c0,0.7-0.3,2.5-0.8,5.5c-0.4,2.4-0.6,4.1-0.6,5c0,0.8,0.1,1.8,0.3,2.8h-3.9c-0.1-0.7-0.3-1.4-0.3-2.2c-0.7,0.8-1.4,1.5-2.1,2.1
		v-3.6c0.1,0,0.4-0.1,0.7-0.3c0.4-0.4,0.8-0.8,1.1-1.5c0.4-0.6,0.7-1.5,0.8-3.1l0.1-0.7c-0.3,0.1-0.6,0.1-1,0.3
		c-0.7,0.1-1.3,0.3-1.8,0.4V158c1.7-0.1,2.8-0.4,3.4-0.7c0.1-0.7,0.3-1.4,0.3-1.8c0-0.6-0.3-1.1-0.6-1.4c-0.4-0.4-1-0.6-1.5-0.6
		c-0.7,0-1.1,0.1-1.5,0.4V149.7L439.9,149.7z M438.8,155.7l-3.9-0.4c0.4-1.8,1.3-3.4,2.4-4.3c0.8-0.6,1.7-1,2.7-1.3v4.2
		C439.3,154.2,438.9,154.9,438.8,155.7L438.8,155.7L438.8,155.7z M439.9,170c-0.8,0.4-1.5,0.7-2.4,0.7c-1.3,0-2.2-0.6-3.1-1.7
		c-0.8-1-1.3-2.5-1.3-4.2c0-2.1,0.4-3.6,1.4-4.8c1-1.1,2.5-1.7,4.8-2c0.1,0,0.4,0,0.6-0.1v3.5c-1,0.1-1.5,0.4-2,0.8
		c-0.6,0.4-1,1.1-1,2c0,0.7,0.3,1.3,0.6,1.7c0.4,0.4,0.8,0.7,1.4,0.7c0.3,0,0.6-0.1,1-0.3V170L439.9,170z"/>
	<path class="st2" d="M463.3,170.1h-3.9l0.4-2.1c-0.8,1-1.5,1.7-2.2,2c0,0.1-0.1,0.1-0.1,0.1v-3.6c0.4-0.1,0.8-0.4,1.1-0.7
		c0.7-0.6,1.3-1.5,1.7-2.9c0.4-1.4,0.7-2.8,0.7-4.3s-0.3-2.7-0.8-3.6c-0.7-0.8-1.4-1.3-2.1-1.3c-0.1,0-0.4,0-0.6,0v-4.1l0,0
		c2,0,3.5,1.1,4.5,3.2l1.7-10.5h4.1L463.3,170.1L463.3,170.1z M457.4,170.1c-0.7,0.3-1.4,0.6-2.2,0.6c-1.5,0-2.8-0.7-3.8-2.1
		s-1.5-3.6-1.5-6.5c0-3.4,0.7-6.3,2.1-8.8s3.2-3.8,5.5-3.8v4.1c-0.4,0.1-0.8,0.4-1.3,0.8c-0.6,0.6-1.1,1.5-1.5,2.9
		c-0.6,1.5-0.7,2.9-0.7,4.6c0,1.4,0.3,2.5,0.8,3.4c0.4,0.8,1.1,1.3,2,1.3c0.3,0,0.4-0.1,0.7-0.1v3.6H457.4z"/>
	<path class="st2" d="M173.3,84.5l21,3.6c-4.2,12.9-10.2,22.9-18.5,29.6c-8.1,6.9-17.7,10.2-28.7,10.2c-12.3,0-22-4.2-28.9-12.6
		c-7-8.6-10.5-20.8-10.5-36.9c0-13.2,2.4-25.1,7-36c4.6-10.8,11.1-19.1,19.4-24.8c8.3-5.9,17.4-8.7,27.1-8.7
		c10.9,0,19.8,3.4,26.6,10c6.7,6.7,10.7,15.8,11.9,27.3l-20.1,2.2c-1-6.7-3.2-11.6-6.3-14.6c-3.2-3.1-7.3-4.5-12.6-4.5
		c-5.8,0-11.1,2-16.1,5.9c-4.9,4.1-9,10.2-11.9,18.7c-2.9,8.4-4.5,17-4.5,25.4c0,9.3,2,16.3,5.9,21.3c3.8,5,8.7,7.6,14.4,7.6
		c5.5,0,10.4-2,14.9-6C167.9,98.2,171.2,92.3,173.3,84.5L173.3,84.5z"/>
	<polygon class="st2" points="194.6,126 215.8,10.8 286.5,10.8 283,30.1 233,30.1 227.9,57.7 276.9,57.7 273.3,77 224.3,77 
		215.4,126 	"/>
	<polygon class="st2" points="271.7,126 292.7,10.8 367.6,10.8 364.1,30.1 310.1,30.1 305.2,56.3 357.4,56.3 353.9,75.5 301.7,75.5 
		295.4,106.8 354,106.8 350.5,126 	"/>
</g>
</svg>
