<?xml version="1.0" encoding="utf-8"?>
<!-- Generator: Adobe Illustrator 23.0.0, SVG Export Plug-In . SVG Version: 6.00 Build 0)  -->
<svg version="1.1" id="Capa_1" xmlns="http://www.w3.org/2000/svg" xmlns:xlink="http://www.w3.org/1999/xlink" x="0px" y="0px"
	 viewBox="0 0 512 512" style="enable-background:new 0 0 512 512;" xml:space="preserve">
<style type="text/css">
	.st0{fillRule:evenodd;clipRule:evenodd;fill:#004F93;}
	.st1{fillRule:evenodd;clipRule:evenodd;fill:#F2D300;}
</style>
<g>
	<path class="st0" d="M58.9,306.6c3.6,3.5,8.4,5.8,13.4,6.2l3.5,0.3c0.5,0,1.1,0,1.5-0.3c0.4-0.3,0.5-0.9,0.4-1.3l-2.7-2.2
		c-2.6-2.2-4.3-6.1-5.4-9.3c6.7-3.7,14.5-7.5,22.1-8.7l0.4-0.1c2.2,0.9,4.2,2.3,5.9,4c-1.6,4.5-2.5,9.1-2.8,13.9
		c-0.2,3.8,0.1,7.5,0.9,11.2c-3.5,2.6-6.3,6-8.1,10.1l-1.1,0.6c-1.8-4-3.1-8.2-4.1-12.5c-0.1-0.5-0.6-0.9-1.2-0.9
		c-0.4,0-0.8,0.2-1,0.5c-2.3,4.3-4,9.4-3.9,14.2l0.1,2.8v0.4l-1-0.2c-2.1-0.4-4.3,1.7-4.6,3.8c-0.5,3.3-0.9,6.6-1,9.9
		c-0.2,4.1,0.2,8.1,1.3,12.1c0.6,2.4,1.8,4.8,3.6,6.6l19.4,19.6c0.9,0.9,2.4,1.5,3.6,2v0.2c-1.8,2.6-2.8,5.8-2.8,9
		c0,4.5,1.9,8.8,5.1,11.9c14.9,14.5,31.7,27,50,37c26,14.2,54.5,23.2,84,26.4c3.9,10.4,13.8,17.3,24.9,17.3c11.1,0,21-6.9,24.9-17.2
		c33-3.5,64.8-14.2,93.2-31.4c15.1-9.2,29.2-19.9,41.7-32.5c2.7-2.7,4.7-6.9,4.8-10.7l0-0.5c0.1-3.1-0.9-6.3-2.5-8.9l0.1-0.2
		c3.8-1,6.8-3.9,8.3-7.5c2.3-5.5,4.9-10.9,7.7-16.1c0.9-1.6,2.2-3,3.5-4.3c2.3-2.1,3.8-4.9,4.2-7.9c0.3-2.5-0.3-5.1-1.5-7.3l-1.6-3
		c0.6-2,1.3-4.1,1.4-6.2l0.1-2.1c0.3-4.7-1.2-9.7-3.5-13.8c-0.2-0.4-0.6-0.5-1-0.5c-0.6,0-1.1,0.3-1.2,0.9
		c-1.1,4.9-2.8,9.6-5.1,13.9c-7-5.3-11.8-13-13.5-21.7c-0.5-2.7-0.9-5.5-1.1-8.3c-0.1-1.7-0.1-3.3,0.1-5c0-0.4,0.4-0.7,0.8-0.7
		c3.8-1.3,7.8-2.1,11.8-2.3c4.3-0.2,8.7,0.3,12.9,1.3l2.6,1.9c-1.6,3.7-3.9,7.1-6.8,10c-0.6,0.6-1.3,1-2,1.3
		c-0.5,0.3-0.7,0.9-0.5,1.5c0.2,0.5,0.7,0.9,1.3,0.9c6.7-0.4,13.2-2.3,19-5.8c1,0.2,1.9,0.3,2.9,0.3c4,0,7.7-2,10.3-5
		c4.9-5.5,10.5-10.4,16.3-15c3.3-2.6,6.5-5.4,9.6-8.1c1.6-1.4,3.1-3.1,4.1-5c1.1-2,1.7-4.3,1.6-6.7c-0.1-3.8-1.1-7.5-2.9-10.9
		c-8.9-17.4-19.1-34.2-30.6-50.1c-1.2-1.7-2.1-3.7-2.4-5.8c-0.5-3.4-0.8-6.8-0.8-10.2c0-2.5-1-4.8-2.6-6.8
		c-5.3-6.7-10.2-13.8-14.9-20.9c-0.8-1.2-1.5-2.3-2.1-3.6c0.4-2.3,0.7-4.5,0.7-6.8c-0.1-12.7-7.1-24.3-18.2-30.3
		c-3.4-1.8-6.7-3.8-9.9-6c3-3,4.7-7.1,4.7-11.4c0-4.7-2.2-9.1-5.6-12.4c-15.5-14.8-32.8-27.6-51.7-37.7c-31.7-16.9-67-26-102.9-26.6
		c-37.8-0.7-75.3,8-108.9,25.4c-17.1,8.9-33,19.9-47.4,32.8c-3,2.6-5.9,5.3-8.5,8.3c-2.1,2.5-3.3,5.6-3.6,8.8c-0.3,3.5,0.6,7,2.5,10
		c-4.5,2.2-8.8,4.9-12.6,8.2c-2.6,2.2-4.1,5.3-4.8,8.6c-0.6,2.9-2.1,5.7-3.5,8.4l-4.9,9.2c-0.6,1.2-0.8,2.7-0.9,4.1
		c-0.1,2.5,0.1,5,0.4,7.4c-9.7,7.1-15.8,19-15.2,31l0.3,5.2c-10.2,12.5-19.7,25.7-28.2,39.5c-3.3,5.4-5.9,11.2-8.8,16.7
		c-1.8,3.3-3.3,6.8-3.3,10.6c0,3.9,1.4,7.7,4.1,10.6c2.3,2.4,5,4.4,7.9,6.1c7.6,4.8,14.8,11.7,18.8,19.8l2,4
		c0.5,0.9,1.8,1.5,2.8,1.6l6,0.6L58.9,306.6L58.9,306.6z"/>
	<path class="st1" d="M253.7,78.6c-0.1-6.6-4.5-11.9-10.7-13.1c-1-0.2-2.1-0.3-3.1-0.3c-7.4-0.1-13.7,5.7-13.9,13.2
		c-0.2,7.8,6.1,14.4,13.9,14.4C247.6,92.8,253.8,86.4,253.7,78.6L253.7,78.6z M263.7,96.7c4.1-5.1,6.1-11.6,6.1-18.2
		c0.1-11.4-6.8-21.8-17.4-26c-3.3-1.3-6.9-2.2-10.4-2.4c-11.7-0.7-22.9,5.2-28.8,15.4c-2.2,3.9-3.3,8.3-3.3,12.7
		c-0.1,9.1,3.9,17.8,11,23.5c5.2,4.1,11.7,6.1,18.3,6.2C248.7,108,257.8,104.1,263.7,96.7L263.7,96.7z M185.2,63.6l-14.3,6.2
		l21.5,50l14.4-6.2L185.2,63.6L185.2,63.6z M301.8,80.7l12.7,36.2l14.2,4.8L346.1,70l-13.4-4.5l-1.4-0.3l-9.7,28.4L309,57.4
		l-14.2-4.8l-17.5,51.6l14.7,5l0.2-0.1L301.8,80.7L301.8,80.7z M144.1,152c1.4-0.1,2.7,0.9,3.7,1.9l3.7,3.7c1.2,1.2,3,1.8,4.7,1.8
		c2,0,3.9-0.9,5.3-2.4c17-17.1,38.2-29.4,61.4-35.8c11.1-3.1,22.6-4.7,34.2-4.9c30.6-0.5,60.4,9.3,84.9,27.6c5.7,4.3,11,9,16.2,14
		c1.1,1.1,2.7,1.5,4.2,1.5c2.1,0,4.1-1.2,5.6-2.7l3.5-3.5c0.8-0.8,2.1-1.3,3.1-1.1l3.9,0.6c7.4,1.1,15.2-1.7,20.8-6.7
		c5.5-5,8.8-12.2,8.7-19.6c0-2.4-0.5-4.8-0.8-7.3c-0.2-1.6,1.2-3.1,2.3-4.3l3.1-3.1c2.9-2.9,2.4-7.8-0.5-10.6
		c-17.2-16.4-36.4-30-57.4-40.2c-28.8-14-60.4-21.4-92.4-21.8c-37.6-0.5-74.7,8.6-107.7,26.7c-18,9.8-34.5,22-48.9,36.6
		c-1.1,1.1-1.6,2.8-1.6,4.4c0,2,0.9,3.9,2.3,5.3l4.1,4.1c0.7,0.7,1.2,2,1,3.1l-0.6,4.3c-2.1,14.5,10.1,28.6,26.3,29.4
		c2.1,0.1,4.6-0.7,6.8-0.8L144.1,152L144.1,152z M378.2,135.9c2.2-2.7,4.3-6.2,4.4-9.8l0-0.5c0.1-3.9-1.6-7.9-4.1-10.9
		c-1.8-2.2-3.6-4.5-5.2-6.9c-0.5-0.7-0.8-1.6-0.8-2.5c0-1.3,1-2.3,2.3-2.4c1.8-0.1,3.6,0.5,4.9,1.8c2.2,2.2,3.8,4.9,4.5,7.9
		l12.5-6.7c-3-6.5-7.9-12-14.1-15.5c-2.4-1.4-5.1-2.2-7.9-2.4c-6.3-0.4-12.3,2.7-16,7.9c-1.9,2.7-3.3,5.7-3.2,9
		c0,3.3,1.3,6.4,3.4,8.9c1.9,2.4,3.7,4.8,5.6,7.2c0.9,1.2,1.5,2.8,1.1,4.3c-0.4,1.5-1.9,2.5-3.5,2.4c-2.9-0.3-5.4-2-7-4.4
		c-1.7-2.7-3-5.7-3.6-8.9l-12.9,6.7c2.9,9.3,9.9,16.8,19,20.2c2.3,0.9,4.8,1.3,7.2,1.3C370,142.6,374.9,140,378.2,135.9L378.2,135.9
		z M173.6,113.9L161,124.2l-25.9-31.6l-12.2,10l28.4,34.7l6.1,7.5l24.8-20.3L173.6,113.9L173.6,113.9z M90.1,203.4
		c0.2-1.1,0.4-2.4,0.3-3.5l-0.3-4.1l-1.8-0.6c-1.6,0.6-2.6,2.3-2.9,4l-0.1,0.6c-0.2,1.6,0,3.4,0.2,5.1c0,0.5-0.2,0.9-0.6,1.2
		c-2.3-1.5-4-3.9-5.1-6.5l-1.8-4.1c-0.8,0.1-1.5,0.4-2.2,0.8c0.6,4,2.7,7.7,5.9,10.2c1.1,0.9,2.5,1.4,3.9,1.4
		C87.9,207.6,89.8,205.7,90.1,203.4L90.1,203.4z M389.3,185.2c-3.6-2.3-6.2-5.9-7.3-10c-0.5-2-0.9-4-1.1-6c-1,2.6-1.4,5.3-1.5,8.1
		c-0.1,2.3,0.6,4.7,2.3,6.2c1.7,1.4,4,1.9,6.2,1.8L389.3,185.2L389.3,185.2z M45.2,260.8c3.2-0.6,6.5-1.1,9.8-1.5l6.3-5.7l0,0.1
		c-1.4,3.3-2.2,6.7-2.4,10.3c-0.1,2,0,4,0.3,5.9c-6.8,0.3-13.1,4.6-15.5,11l-0.5,1.4l-2.7,1c5.3,4.8,9.5,10.6,12.6,17
		c2.3,0.4,4.7,0.7,7,0.9c11-7.3,23.4-12.3,36.3-14.8c3.5-0.7,7.1-1,10.7-1.1c5-0.1,9.9,0.4,14.7,1.5c3,3.1,5.3,6.7,6.9,10.7
		c2.8,6.8,4.8,14,4.7,21.3c0,2.2-1.4,4.2-2.9,5.8c-2.5,2.6-5.6,4.5-9.2,5.3c-2.9,4.9-8.1,8-13.8,8.4c-1.7,0.1-3.4,0-5.1-0.3l-0.2,0
		c-1.8,3.2-5.3,5.2-9,5l-1.8-0.1l-2.7,1.2c-1.7,0.7-3.6,1-5.4,1c-2,0-4-0.5-5.7-1.4l0,0.5h0c-0.3,6.2,1,12.4,4,17.9
		c1,1.8,2.3,3.3,3.8,4.7l0-0.1c-2-4.3-3.3-9-3.8-13.8l-0.5-4.2l0-0.3c2.1,3.3,4.6,6.4,7.2,9.3l2.5,2.8l0-0.1
		c-0.7-3.4-1.4-7-1.4-10.4v-0.1c1.4,1.5,3.4,2.4,5.4,2.9l2.6,0.6l-0.1-1.4c0-0.9,0.1-1.8,0.5-2.6c1.1,1.1,2.7,1.6,4.2,1.7l1.2,0.1
		l3.7-0.1l0-0.6l0.6-5l0.1-0.2c0.9,0.4,1.9,0.5,2.8,0.5c2.7-0.1,5.3-0.5,7.9-1.2c-1.6-0.8-3-1.9-4.3-3.3c3.5-0.2,6.9-1.1,10.2-2.4
		c2.5-1,5.1-2,7.6-3.1c-1.6-1.2-3.2-2.6-4.6-4c5.2-1.1,10.2-2.6,15.2-4.4l-6.4-3.7c2-0.3,3.9-0.8,5.7-1.6
		c-7.4-12.3-12.8-25.8-15.9-39.8l-2.2,0v0c-3.1,0.2-6.3-0.2-9.3-1.1c-1.6-0.5-3.1-1.4-4.2-2.7c0.7-2,1.2-4,1.3-6.1
		c0.3-5.8-1.3-11.6-4.6-16.4l0.1,0c4.8,1.4,9.3,3.9,13,7.3c1.9-3.7,2.3-8.2,2.6-12.3l0-0.1v-0.6c-5.7,1.9-11.7,2.8-17.7,2.7
		c-1,0-2-0.2-2.9-0.5c4.7-2.2,9.3-4.5,13.7-7.1l-0.1,0c-2.2,0.7-4.5,1.1-6.9,1.1c-2.9,0.1-5.8-0.6-8.3-2.1c2.6-2.4,5.6-4.3,9-5.4
		c-6.7-0.8-13-3.7-18.2-8c-3.1-2.6-5.9-5.4-8.3-8.7c1.8-0.4,3.7-0.6,5.5-0.6c4.5-0.1,8.9,1.1,12.7,3.5l0.1,0c-3-3.4-5-7.7-6.1-12.2
		l-0.2-0.9l0.1-0.1c5.4,0.4,11.5,1.9,15.7,5.3l0.1,0.1l0-0.1c-1.8-3.9-4.3-7.4-7.3-10.5l-1-1c7.3,0.3,14.4-2.4,19.7-7.4l-0.1,0
		c-4.1,2.7-8.9,4.2-13.8,4.3c-3.8,0.1-7.6-1.1-10.6-3.4c-2.2,2.9-4.9,5.3-7.9,7.1c-1.7,1-3.7,1.6-5.7,1.6c-2.4,0-4.6-0.9-6.4-2.5
		c-5.7,6.5-14,10.6-22.6,10.6h-0.5l3-3.1c1.5-1.5,2.4-3.8,2.9-5.8c0.7-2.7,2.2-5.1,4.3-6.9c0.6-0.5,1.1-1,1.4-1.6
		c-0.4-1.3-0.7-2.6-0.7-4c0-2.7,0.8-5.4,2.3-7.7c3.6-1,7.3-1.8,11.1-1.8c4.2,0,8.4,1.2,12.1,3.2c2.5,1.4,5,2.7,7.6,3.8
		c2.3,1,4.8,1.4,7.3,1.4c3.6,0.1,7.1-1,10.1-3.1c-2.3-2.1-3.8-4.9-4.3-8c3.5,0,7-1.1,9.8-3.3c2.1-1.7,3.2-4.2,3.2-6.9
		c0-2.4-0.6-4.8-2.1-6.7c-1.1-1.3-2.8-2-4.5-1.9c-1.8,0.1-3.7,0.6-5.3,1.3l-2.1-2.1c1.8-2.2,4.1-4.1,6.6-5.5l3.6-2.2l-3.9-2.5
		c-4.5,1.9-8.7,4.3-12.5,7.3l-3.2-1.4c1.1-3.9,3.4-7.7,6.6-10.2l2.5-2l-1.1-1.5c-4.4,2.2-8.5,5.3-11.7,9.2l-2.2,2.7
		c-0.6-3.3-2.1-6.4-4.5-8.8c-1.8-1.8-4.3-2.8-6.9-2.8c2.2-4.6,4.6-9.2,7-13.7c4.2-1.5,8.3-3.3,12.2-5.3c0.1-2.3,0.3-4.5,0.6-6.8
		l-1-0.9c-5,3.7-10.2,7.1-15.7,10.1c-3.1,8.6-6.9,16.9-11.2,24.9l0,0.3l0.7,9.9l0,0.3c-9.1,5.2-15,14.8-15.4,25.2l-0.1,2.3l0.5,7.5
		c-10.4,12.7-20,26-28.8,39.9c-3.3,5.2-6.2,10.8-8.6,16.5c-2,2.3-3.2,5.2-3.2,8.3c0,2.5,0.9,5,2.5,7
		C30.3,265.8,37.5,262.3,45.2,260.8L45.2,260.8z M463,229.5c2,3.1,5,5.6,8.4,7.1c0.8,0.3,1.7,0.5,2.6,0.6c0.5,0,0.9,0,1.3-0.3
		c0.3-0.3,0.6-0.8,0.5-1.2c-0.3-2-1.4-3.9-2.7-5.5l-1.6-1.9c-0.2,1.3-1.3,2.2-2.6,2.3l-0.8,0.1C466.4,230.6,464.6,230,463,229.5
		L463,229.5L463,229.5z M429.6,204.8L429.6,204.8c-0.3-1.2-0.6-2.3-0.6-3.4c-0.1-1.8,0-3.6,0.3-5.3c0.2-0.3,0.7-0.5,1.1-0.6l2.1-0.7
		c0.8,0.8,1,2,1.1,3.1l0,0.6l-0.9,5.1c-0.1,0.8,0.3,1.7,1.1,1.9c2.9-2.1,5-5,6.4-8.3l0.8-1.8c0.9,0.1,1.7,0.4,2.5,0.7l0.1,0.2
		c-0.6,4.2-2.9,8.1-6.4,10.5c-1,0.7-2.2,1.1-3.4,1.1c-0.5,0-1.1-0.1-1.6-0.3c-2.2,0.8-4.2,2-5.8,3.7c-0.3,0.3-0.4,0.6-0.4,1
		c0.3,1.1,1.3,1.7,2.4,1.6c5.9-0.5,11.6-2.5,16.5-6c1.7,1.2,3.1,2.8,4,4.7l2,4c3.1,0.6,6.3,1.5,8.9,3.4c1.8,1.4,4,3.1,6.3,3.3l0.1,0
		c0.6,0,1.2-0.1,1.7-0.5c-3.1-3.7-5.9-7.8-7.9-12.2c-2.2-5-3.3-10.4-4.1-15.8c-0.5-3.1-3.3-5.4-6.5-5.6l-2.1-0.2
		c-5.9-0.4-12.6,1.6-18.1,3.8l-5.8,2.3c-2.9,1.2-6.5,1.5-9.6,1.7c-2.6,0.2-5.3-0.1-7.8-0.7c-2.5-0.6-4.7-2-6.2-4l-0.2,0l-0.2,0.1
		c1.8,4.8,5.4,8.6,10.1,10.6c2,0.8,4.1,1.1,6.2,1.1c3.5,0,7.4-1,10.6-2.4L429.6,204.8L429.6,204.8z M96.6,239.8
		c-6.8-2.5-12.5-7.3-16-13.6l-0.1,0.1c-0.2,3,0.2,6.1,1.2,8.9c1.4,3.7,5,5.9,9,5.8C92.7,240.9,94.7,240.5,96.6,239.8L96.6,239.8z
		 M482.2,248.2c0.3-0.3,0.4-0.7,0.4-1.1c-0.2-1.7-0.9-3.3-2.1-4.5c-0.3,0.7-1.1,1.1-1.9,1c-2.8-0.4-5.4-1.7-7.8-3.2l-0.9-0.6l-0.1,0
		c2.3,3.1,5.2,5.9,8.5,8c0.8,0.5,1.7,0.8,2.7,0.9C481.5,248.7,481.9,248.5,482.2,248.2L482.2,248.2z M92.6,256.8
		c2.3,4.4,3.8,9.1,4.2,14.1c0.3,3.5-0.2,7.3-1.5,10.5l-0.4,1c3.7,0.4,7.4-0.2,10.9-1.6c1.1-0.4,2.1-1.1,2.9-1.8
		c0.5-1.7,0.9-3.4,1-5.1c0.3-6.7-2-13.2-6.4-18.3l0,0.1l0.4,2.9c0.4,3.2-0.1,6.8-0.8,10l-0.1,0.2C101.2,263.4,97.6,259,92.6,256.8
		L92.6,256.8L92.6,256.8z M42.5,249.8c0.5-4.9,1.6-9.7,3.3-14.3c2.1-5.8,4.3-11.5,6.8-17.1l0-0.1c-6.8,9.2-12.7,19-17.8,29.2
		l-2.4,4.8c0.7,0.2,1.4,0.3,2.1,0.3C37.4,252.6,40.2,251.6,42.5,249.8L42.5,249.8z M425.5,265.3c-2-0.5-4-0.7-6-0.8
		c-0.9-0.1-1.7,0-2.5,0.4c-0.2,0.1-0.3,0.3-0.3,0.5c0.3,0.6,0.9,0.8,1.6,0.9c6.2,1.1,12.1,3.4,17.8,6.1c6.8,3.3,13.3,7.1,19.5,11.5
		l0,0.2c0,0.1-0.1,0.3-0.2,0.4c-0.1,0.1-0.3,0.2-0.4,0.1c-11.8-4.2-23.8-7.6-36-10.3c-2.2-0.5-4.5-0.7-6.8-0.9
		c-0.8-0.1-1.6,0.1-2.3,0.5c-0.1,0.1-0.1,0.2-0.1,0.3c0.2,0.5,0.7,0.8,1.2,0.8c4.4,0.7,8.8,1.5,13,2.7c12,3.4,23.8,7.5,35.4,12.2
		l1.8,0.7c2,0,3.8-1,5.2-2.4c0.8-0.8,1.4-1.7,1.6-2.8l0-0.2c-7.3-8.2-15.7-15.4-24.8-21.5c-3.9-2.6-8.1-4.8-12.6-6.3
		c-0.9-0.3-1.8-0.4-2.6-0.5c-0.5-0.1-1.1,0.1-1.4,0.5l0,0.2c0,0.3,0.3,0.5,0.6,0.6c4.4,1.8,8.6,3.9,12.5,6.7
		c6.4,4.6,12.4,9.7,18.2,14.9c0.1,0.2,0.1,0.5,0,0.7c-0.1,0.2-0.3,0.4-0.5,0.5C448,273.7,437.1,268.3,425.5,265.3L425.5,265.3z
		 M476.7,250.5c1.8,2.2,4.4,4.9,7.2,5.5l0.2,0.1c0.9,0.2,2.1-0.9,1.9-1.9l0-0.1l-0.5,0.2l-0.2,0C482.4,254.3,479,252.2,476.7,250.5
		L476.7,250.5L476.7,250.5z M390.7,289.2c8.1-3.8,17-5.9,26-6.1c3.4-0.1,7,0.4,10.4,0.4c-6.2-1.6-12.8-2.6-19.2-2.5l-7,0.1l-2.4-2.9
		c-0.5-0.1-1,0.1-1.4,0.4c-1.5,1.1-3.1,2-4.6,3.2l0-0.1l0.9-4.2c2.6-1.6,5.3-2.8,8.2-3.6l2.9-9.5c-3.1-1.3-6.1-2.8-9.1-4.4l0.1-5.2
		l14.6,6.6l-0.1-0.8c-0.3-2.6,1.8-5.2,4.2-6.2c2-0.8,4.1-1.4,6.2-1.6l-24.9-4.6l-0.1-2.9c3.9,0.4,7.7,0.8,11.6,0.9
		c4.9,0.2,9.8-0.1,14.7-0.7c5.9-0.7,12.1-2.6,16.9-6.1l0.4-0.3l-0.1,0c-4,0.8-8.3,1.4-12.4,1.3l-6.1-0.1l-0.1-0.1
		c6.6-2.6,12.5-6.7,17.1-12.1l-0.1,0c-4.9,2.1-10.1,3.2-15.4,3.4c-2.2,0.1-4.5,0.1-6.7-0.1c5.2-2.6,10.1-5.8,14.6-9.5
		c1-0.9,1.9-1.9,2.7-3l-0.1-0.1c-7.9,3.2-16.5,5.7-25,6.2l-1.2,0.1h-0.5c4.5-1.8,9.4-4,13.1-7.2l1.6-1.3l-13.2,1.1H407l3.6-5.5
		c-6.9-2.2-13-6.2-17.5-11.8c-1.9-2.4-3.2-5.2-4-8.1l0.1-0.1l6.3,0.8l0.2,0c-0.7-2.6-1.1-5.3-1.2-8c-0.2-2.6,0.1-5.2,0.5-7.8
		c0.7-4.2,3.3-7.9,7.1-9.9c-2.5-1.5-5.5-2.5-8.3-3.4l-3.6-1.2c3.7-0.2,7.4-0.1,11.1,0.1c2.2,0.2,4.4,0.6,6.5,1.3l0.1-0.1
		c-1.9-2.9-4.9-5-8.1-6.3l-1.7-0.8c4.3-1.3,9.2,0.1,13.5,1.2c1.4,0.4,2.8,1,3.9,2l0.1-0.1c-1.6-2.9-3.5-5.6-5.6-8.2
		c-0.5-0.6-1-1.1-1.6-1.5l0.1,0c4.8,1.6,9.1,4.3,12.7,7.9l0,0.1l3.4-0.3c-0.5-4.9-2-9.6-4.3-13.9l0.1-0.1c4.7,3.8,8.4,8.8,10.6,14.4
		c1.8,1.7,4.1,2.8,6.6,2.9c1,0.1,1.9,0.1,2.9-0.1l0.3,0.1l-0.1,0.3c1.7,4.9,4.5,10.4,8.5,13.6l1.1,0.9c1.6,4.8,4.2,9.1,7.6,12.8
		c0.7,0.7,1.5,1.4,2.4,1.8c-0.2,5.7,0.4,11.4,2,16.8c0.5,1.8,1.7,3.3,2.8,4.9c11.2,15.4,20.9,31.7,29.6,48.5
		c1.3,2.6,2.1,5.4,2.3,8.3c0,0.6,0,1.1-0.2,1.7l-4.1-3.3l-2.2,2.1c-4.2-3.7-9.4-6.1-14.9-6.8c-1.3-0.2-2.6,0-3.9,0.2
		c-3.5,2.2-6.9,4.4-10.3,6.7c4.9,0,9.7,1.9,12.9,5.6c3.2,3.6,4.6,8.5,4.5,13.3c-4.6,3.9-9,8.1-13.2,12.4c-1.3,1.3-3.1,2-4.9,1.9
		c-2.9-0.2-5.7-1.1-8.1-2.7c-4.2-2.7-8.3-5.7-12.3-8.7c-2.5-1.9-5.6-3-8.7-3.6c-4.7-0.9-9.5-1.4-14.3-1.5
		c-8.3-0.1-17.5,1.6-24.6,6.1l-3.5,2.2L390.7,289.2L390.7,289.2z M54.7,284.1c5.4-5.1,11.6-9.3,18.3-12.6l18.1-9l0.1-0.2
		c-0.2-0.2-0.4-0.3-0.7-0.3c-4.5,0.7-8.9,2.1-13.1,3.9c-9.1,3.9-17.6,8.9-25.2,15.2c-0.9,0.7-2,1.8-2.2,2.9l0,0
		c-0.2,0.8,0.6,1.7,1.3,1.7C52.5,285.7,53.7,285,54.7,284.1L54.7,284.1z M58.1,289.1c5-4.9,10.7-9.2,16.9-12.5l16.1-8.5
		c0.2-0.1,0.3-0.2,0.4-0.4l-0.1-0.2c-3.3-0.8-7.2,1.6-10.4,2.9c-8.9,3.8-17.1,8.9-24.4,15.2c-0.9,0.8-1.7,1.7-2.2,2.7
		c-0.3,0.6,0.2,1.6,0.9,1.7l0.1,0C56.3,290.3,57.4,289.7,58.1,289.1L58.1,289.1z M262.7,198.1c0-5,4.7-9.9,9.7-9.9h5.7v-11.5h-65.7
		V188h5c5.1,0,9.8,4.7,9.8,9.7l0,40.1h0V296c0,4.8-4.7,9.5-9.5,9.5h-5.5v15.1h113.2v-14.4c-5.3-3.6-8.5-9.6-8.5-16
		c0-5.4,2.3-10.6,6.3-14.3l-7.4-7.3c-7.1,3.5-12.7,11.4-12.4,19.4l0.2,5.9c0.2,4.5-3.8,8.5-8.2,8.5h-32.7V198.1L262.7,198.1z
		 M72.2,310.1c-2.1-2.7-3.8-5.7-4.9-8.9l-0.1-0.1c-2.2,1.1-4.2,2.4-6.1,3.9c2.4,2.5,5.7,4.1,9.1,4.7L72.2,310.1L72.2,310.1
		L72.2,310.1z M60.4,294c5.1-5,10.9-9.2,17.2-12.5l12.6-6.7c0.1-0.1,0.2-0.2,0.2-0.3l0-0.1c-2,0.1-3.9,0.6-5.8,1.3
		c-9.7,3.6-18.7,9.1-26.3,16.1c-0.5,0.5-0.9,1.1-1,1.8c0,0.3,0.1,0.7,0.3,0.9c0.2,0.2,0.6,0.4,0.9,0.3
		C59.2,294.7,59.9,294.5,60.4,294L60.4,294z M456.7,306.2c-2.8-0.8-5.5-2.1-7.9-3.8l-0.2,0c-1.5,3.2-3.4,6.2-5.7,8.9
		C447.8,310.7,452.6,308.9,456.7,306.2L456.7,306.2z M107.4,327c2.2-2.5,4.3-5.9,4.5-9.3l0.1-1.3l-0.4-5l0-2.6c0-2.7,1.6-5.7,3.1-8
		c0.6-0.8,1-1.8,1-2.9c0-1.7-1.6-3-3.3-2.9c-1.8,0.1-3.3,0.9-4.2,2.3c-2.3,3.1-4.2,7.1-4.1,11.1l0.2,7.9c0.1,2.9-0.7,5.8-2.4,8.1
		c-0.7,1.1-1.2,2.3-1.3,3.6c-0.1,1,0.7,2,1.7,1.9C104.2,329.9,106,328.6,107.4,327L107.4,327z M420.1,336.5
		c-4.5-4.1-7.2-9.8-7.3-15.8c-0.1-4.9-0.3-9.8-0.6-14.8c-0.2-2.8-1.8-5.1-4.3-6.5c-1.9-1-3.8-1.9-5.9-2c-1.9-0.1-3.7,0.7-4.9,2.2
		c-0.5,0.6-0.7,1.4-0.6,2.1c0.2,2.5,1.5,4.8,3.4,6.3l2.6,2c0.8,0.6,1.7,1.7,1.7,2.7l0,0.4l-0.8,4.4l0,0.4c-0.1,3.6,1.8,7.3,4,10.2
		c3.2,4,7.4,7,12.3,8.4L420.1,336.5L420.1,336.5z M89.5,340.3c-3.8-5.1-6.6-10.9-8.1-17.1c0-0.1-0.1-0.2-0.1-0.2
		c-1.3,3.3-2,6.8-2,10.4c0,2.8,0.5,5.5,1.5,8.1c1,0.4,2,0.6,3.1,0.6C85.8,341.9,87.8,341.3,89.5,340.3L89.5,340.3z M439.7,341.9
		c0.7-1.8,1.2-3.7,1.3-5.6c0.2-3.5-0.3-7-1.6-10.2c-1.5,5.7-4,11.6-8,15.9l-0.4,0.4c1,0.3,2.1,0.5,3.1,0.5
		C436,342.9,437.9,342.6,439.7,341.9L439.7,341.9z M361.5,410.4l6.5-4.3l5.4,5.6l4.4-2.9l-28.5-28.4l-3.4,2.2l14.1,37.6
		c1.5-0.8,3-1.7,4.3-2.8L361.5,410.4L361.5,410.4z M385.2,327.4c-2,1.8-4.2,4.5-4.5,7.2c0,1.3,1.2,2.3,2.5,2.4l0.7,0.1
		c3.3,0.4,7.2-1.1,10.2-2.6l0.1,0c-1.3,1.7-2.5,4-2.6,6.1l0,0.2c-0.1,1.1,0.7,2.1,1.8,2.3c4.5,0.2,9.7-0.5,14-1.7l0.1,0
		c-1.8,1.8-3.1,4.2-3.5,6.8c-0.1,0.7,0.4,1.4,0.9,1.9c0.6,0.5,1.5,0.5,2.3,0.6c5.1,0.1,10.4-1.7,15.2-3.7l0,0.1
		c-2.3,5.1-4.3,10.9-4.4,16.5l0,0.6c-0.1,2,0.4,4.3,1.8,5.7c0.7,0.7,1.6,1,2.5,1c1.2,0,2.3-0.7,3-1.7l5.5-8.4c1.9-2.9,5.1-5,8.3-6.4
		c0.9-0.4,1.2-1.4,1.2-2.3c-0.2-2.1-0.9-4.1-2-5.9l-0.2-0.1c-1.4,0.3-2.9,0.4-4.3,0.4c-6.7-0.2-13.2-1.8-19.5-4.1
		c-9.1-3.4-17.8-7.8-25.7-13.4c-1.7-1.2-3.3-2.6-4.4-4.4c-1.1-1.8-1.5-3.9-1.6-6c-0.1-2.9,0.1-5.7,0.7-8.5l0-0.1
		c-2.7,5.8-5.8,11.4-9.2,16.7c-0.1,0.7,0.1,1.4,0.6,2c0.5,0.5,1.2,0.8,1.9,0.8l0.4,0C379.6,329.4,382.6,328.5,385.2,327.4
		L385.2,327.4L385.2,327.4z M370.9,351.7c-1.7-2.3-4-4.2-6.5-5.5c-0.7-0.4-1.5-0.4-2.3-0.4c-1.7,0-3.5,0.6-4.7,1.9
		c-13.8,14.5-30.8,25.6-49.6,32.6c-14.4,5.3-29.5,8.4-44.8,8.8c-22,0.6-43.8-4.2-63.7-13.7c-14.2-6.8-27.1-16.1-37.9-27.5
		c-1.3-1.3-3-2.1-4.9-2c-2.2,0.1-4.2,1.3-5.8,2.8l-4.3,4.4c-0.6,0.7-1.8,1-2.7,0.8c-1.9-0.3-3.9-0.8-5.9-0.9
		c-14.5-0.8-26.9,10.4-27.5,24.8c-0.2,3.7,0.8,6.4,0.9,8.8c0.1,1.3-0.7,2.4-1.6,3.2c-1.9,1.6-3.6,3.5-5,5.5c-0.6,1-1,2.1-1,3.3
		c0,1.9,0.7,3.7,2.1,5.1c18.6,19.2,40.8,34.4,65.4,44.9c22.4,9.5,46.1,15.3,70.3,17c0.7,9.3,8.4,16.6,17.8,16.6
		c9.4,0,17.1-7.2,17.8-16.6c33.6-2.4,66.2-12.5,95.2-29.7c14.8-8.8,28.3-19.7,40.4-32c1.4-1.4,2.2-3.2,2.1-5.1c-0.1-2.3-1.4-4.4-3-6
		l-3.4-3.4c-0.7-0.7-1.2-1.9-1-2.8l0.7-4.3c2.3-14.4-10-28.4-24.5-29.2c-2.9-0.2-6.2,0.7-9.1,0.9C373,354,371.7,352.9,370.9,351.7
		L370.9,351.7z M365.1,403.1c-4.4-4.7-8.7-9.8-13-14.6l-0.4-0.4l0,0.1l8.2,18.4L365.1,403.1L365.1,403.1z M157.1,385.6
		c0.3-0.6,0.6-1.3,1-1.8l0,0.1l-9.8,29.9l3.9,2.8l21-29.9l1.4-2.1c-0.1-0.3-0.4-0.5-0.7-0.7l-3.5-2.4c-3,4-6.1,8.2-8.7,12.6
		l-7.4,12.5l-0.1-0.1l9.6-29.5c-1-0.9-2.2-1.7-3.3-2.5l-0.7-0.5L139,403.9l-1.6,2.3l4.2,3c3.3-4.5,6.6-9.1,9.5-13.8L157.1,385.6
		L157.1,385.6z M215.9,416.9c1.3-2.5,2-5.3,1.5-8c-0.3-1.4-2-2.2-3.4-2.6l-0.3-0.1l-3.3,12.4c0.6,0.4,1.3,0.5,1.9,0.5
		C213.8,419,215.1,418.2,215.9,416.9L215.9,416.9z M325.4,393.9l21,23.1l0-0.1l-8.7-15.6l-5-10.8l4.7-2.3l16.6,35.6
		c-1.4,0.8-2.9,1.5-4.3,2.1l-21.1-23.5l0,0.1c3.2,5.5,6.4,11.3,9.1,17.1l4.5,9.8c-1.5,0.9-3.1,1.6-4.7,2.3L320.9,396L325.4,393.9
		L325.4,393.9z M185.8,428.5l5.1-12.3l7.2,2.9c0.7-1.3,1.2-2.7,1.7-4.1c-1.2-0.7-2.7-1.2-4-1.7l-3.3-1.3l4.6-11.3l8.1,3.2
		c0.7-1.2,1.2-2.7,1.7-4l0.1-0.2l-12.9-5.2c-0.7,1.2-1.1,2.6-1.6,3.8l-13.2,32.6l12.9,5.3c0.7-1.3,1.3-2.7,1.7-4.2L185.8,428.5
		L185.8,428.5z M209.7,421.3l2,20.4l5.1,1.3l-2-20.1c2.3-0.4,4.8-1.8,6-3.9c2-3.5,3-7.5,2.1-11.4c-0.6-2.4-2.6-4.2-5-4.9
		c-2.7-0.8-5.4-1.5-8.1-2.1l-10.1,37.9l4.8,1.3l0.3-0.4L209.7,421.3L209.7,421.3z M337.4,337c22.1-20.5,35-49.3,36.7-79.4l0-0.6
		c1.7-31-10.7-62-32.3-84.3c-18.4-19-42.7-31-68.9-34.1c-3.5-0.4-7-0.7-10.6-0.8c-33-0.9-64.8,12.5-87.2,36.7
		c-18.7,20.1-29.4,46.4-30.6,73.8l-0.1,1.4c-1.3,29.5,10.2,58.9,30.2,80.7c18.9,20.6,44.6,33.6,72.4,36.5c4.1,0.4,8.2,0.7,12.2,0.7
		C288.3,367.6,316.1,356.7,337.4,337L337.4,337z M189.5,397.5l2.2-4l-14.4-7.7l-0.9-0.3l-2,3.8c1.7,1,3.5,2,5.3,2.9L163.5,423
		l4.4,2.4l16.4-30.6L189.5,397.5L189.5,397.5z M320.4,430.3c0.3-4.1-1.4-8.8-2.7-12.7c-1.2-3.5-2.6-7-4.4-10.2
		c-0.7-1.2-1.8-2.1-3.1-2.4c-1-0.2-2,0.2-2.7,0.8c-0.7,0.7-1.1,1.7-1.1,2.7l0,0.6c-0.1,3.6,1.1,7.5,2.2,11c1.2,3.8,2.7,7.6,4.5,11.1
		c0.7,1.4,2.1,2.8,3.7,3l0,0c1.8,0.3,3.5-1.6,3.6-3.4L320.4,430.3L320.4,430.3z M391.4,392.3l-0.5-0.3l-6.5,5.5L361.9,371
		c-1.2,1.2-2.5,2.3-3.9,3.3l25.2,30.1l10.7-9L391.4,392.3L391.4,392.3z M259.2,415.7L259.2,415.7l-2.8,19.9h1.4l4.8-0.1L259.2,415.7
		L259.2,415.7z M325.7,429.4c0.1-4.4-1.3-9.1-2.6-13.3c-1.4-4.4-3.2-8.6-5.8-12.4c-1.6-2.4-4.3-3.9-7.2-3.9c-4.8-0.1-8.9,3.6-9,8.5
		c-0.1,4.1,0.6,8.1,1.8,12c1.3,4.3,2.9,8.4,4.9,12.4c1.3,2.6,3.4,4.7,6.1,5.9c0.9,0.4,1.8,0.5,2.8,0.6c4.9,0.1,9-3.8,9.1-8.8
		L325.7,429.4L325.7,429.4z M152.1,367.1l-26.3,29.2l3.8,3.5l26.3-29.2L152.1,367.1L152.1,367.1z M293.2,404.5l-5,1l7.5,38.5l5.1-1
		L293.2,404.5L293.2,404.5z M278.2,446.5l4.9-0.6l0.3-0.2l-4.2-34.3l5.8-0.7l-0.6-4.5l-17.1,2.1l0.5,4.6l6.1-0.8L278.2,446.5
		L278.2,446.5z M259.6,462.8c0.6,0,1.2-0.3,1.5-0.8l0.2-0.8c0.2-0.8-0.5-1.7-1.4-1.8l-0.9-0.1l-1.2,0.1v3.4L259.6,462.8L259.6,462.8
		z M229.3,445.1c1.7-9.9,2.7-19.9,3.1-29.9l0.1-0.1l4.8,31.3l4.9,0.7l5.5-38.9l-5.2-0.7l-2,14.4l-0.9,15.2l-0.1,0.1l-4.9-30.8
		l-5-0.6l-5.5,38.9l4.8,0.7L229.3,445.1L229.3,445.1z M257.9,464.9c0.7-0.2,1.4,0,1.8,0.5l2.3,4.6h2.7c-0.8-1.9-1.7-4.1-3-5.8
		c1.3-0.5,2.1-1.8,2.1-3.3c0-2.1-1.6-3.7-3.7-3.8l-1,0c-1.2,0-2.5,0.2-3.6,0.7v12.1h2.4V464.9L257.9,464.9z M267.9,464
		c0-4.8-3.9-8.6-8.6-8.6c-4.8,0-8.6,3.9-8.6,8.6c0,4.8,3.9,8.6,8.6,8.6C264,472.7,267.9,468.8,267.9,464L267.9,464z M254.4,447.4
		l1.3-7.7l7.8-0.1l1.6,7.6l5.2-0.1l-9.1-39.1l-4.1,0.1l-7.9,39.4l4.7-0.1L254.4,447.4L254.4,447.4z M270.2,464
		c0-6-4.9-10.9-10.9-10.9c-6,0-10.9,4.9-10.9,10.9c0,6,4.9,11,10.9,11C265.3,475,270.2,470.1,270.2,464L270.2,464z M338.9,350.6
		c20.4-16.6,35.1-39.1,42.1-64.4c2.9-10.4,4.4-21.2,4.5-32c0.4-30.3-10.2-59.7-29.7-82.8c-16.9-20.1-39.7-34.5-65.1-41
		c-9-2.3-18.2-3.6-27.5-3.9c-30-1-59.4,8.9-82.8,27.7c-20.7,16.6-35.7,39.2-42.7,64.8c-2.7,9.8-4.2,20-4.5,30.2
		c-0.9,30.4,9.3,60,28.6,83.5c16.4,19.9,38.4,34.4,63.2,41.4c10.3,2.9,20.9,4.5,31.6,4.7C286.5,379.6,315.7,369.5,338.9,350.6
		L338.9,350.6z"/>
</g>
</svg>
