<?xml version="1.0" encoding="utf-8"?>
<!-- Generator: Adobe Illustrator 23.0.0, SVG Export Plug-In . SVG Version: 6.00 Build 0)  -->
<svg version="1.1" id="Capa_1" xmlns="http://www.w3.org/2000/svg" xmlns:xlink="http://www.w3.org/1999/xlink" x="0px" y="0px"
	 viewBox="0 0 512 512" style="enable-background:new 0 0 512 512;" xml:space="preserve">
<style type="text/css">
	.st0{fill:#6D393A;}
	.st1{font-family:'Raleway-Bold';}
	.st2{font-size:34.1966px;}
	.st3{letter-spacing:7;}
</style>
<g>
	<g>
		<path class="st0" d="M198,231.1c1.9-3.1,3.3-5.8,5-8.4c14.3-21.3,23.7-44.1,23.3-70.2c-0.3-19.4-16.6-33.2-35.9-29.7
			c-21.8,4-40.1,15.2-55.6,30.4C99.3,188.1,83.1,231,87.3,280.7c2.3,27.3,13.9,49.7,42.3,58.9c16.1,5.2,32.3,3.5,48.6-0.3
			c45.9-10.5,80-38,108.1-74.3c6-7.7,11.9-15.6,17.3-23.8c3.7-5.5,8-8.3,14.7-7.6c5.9,0.6,11.8,0.5,19.4,0.8
			c-3.2,9.9-5.9,17.8-8.2,25.8c-3.7,12.9-7.4,25.8-10.4,38.9c-1.3,5.5-1.2,11.3-0.9,17c1.1,20.5,14.7,30.3,34.6,24.9
			c14.2-3.9,26.2-11.4,36.3-22.1c25.8-27.8,43-60.9,58.8-94.9c3.2-7,4.1-7.5,11.1-5.3c-0.1,1.4,0.1,3-0.4,4.4
			c-13.6,39-30.6,76.2-57.1,108.3c-16.6,20.1-36.4,35.9-62.6,41.5c-28.3,6.1-50.6-8.9-55.2-37.5c-1.6-10-1.7-20.3-2.6-31.9
			c-2.9,2.3-5.4,4-7.5,6c-20.1,19.3-41.2,37.3-67.1,48.8c-30,13.3-61,15.8-92,5.9c-34.7-11.1-52.2-38.2-59.7-72.2
			c-6.8-30.5-2.3-60.4,7.7-89.5c16.4-47.6,42.2-88.8,83.2-119.3c22.3-16.6,46.7-28.1,75.3-29c49.9-1.6,75.2,41.3,64.9,84
			c-7.7,32-27.2,56.8-51.2,78.4c-5.1,4.6-10.3,9-15.6,13.3C213.8,234.2,206.4,234.7,198,231.1z"/>
		<path class="st0" d="M357,195.4c0,12.2-9.4,21.6-21.5,21.6c-12.2,0-21.7-9.3-21.8-21.4c-0.1-12,10.1-22.4,22-22.3
			C347.4,173.4,357,183.4,357,195.4z"/>
	</g>
	<text transform="matrix(1 0 0 1 48.0347 449.9131)" class="st0 st1 st2 st3">CLUB INDUSTRIAL</text>
</g>
</svg>
