<?xml version="1.0" encoding="UTF-8" standalone="no"?>
<svg
   xmlns:dc="http://purl.org/dc/elements/1.1/"
   xmlns:cc="http://creativecommons.org/ns#"
   xmlns:rdf="http://www.w3.org/1999/02/22-rdf-syntax-ns#"
   xmlns:svg="http://www.w3.org/2000/svg"
   xmlns="http://www.w3.org/2000/svg"
   viewBox="0 0 533.94666 505.58667"
   height="505.58667"
   width="533.94666"
   xml:space="preserve"
   id="svg2"
   version="1.1"><metadata
     id="metadata8"><rdf:RDF><cc:Work
         rdf:about=""><dc:format>image/svg+xml</dc:format><dc:type
           rdf:resource="http://purl.org/dc/dcmitype/StillImage" /></cc:Work></rdf:RDF></metadata><defs
     id="defs6" /><g
     transform="matrix(1.3333333,0,0,-1.3333333,0,505.58667)"
     id="g10"><g
       transform="scale(0.1)"
       id="g12"><path
         id="path14"
         style="fill:#4D6373;fill-opacity:1;fill-rule:nonzero;stroke:none"
         d="m 1428,768.98 17.51,32.918 -125.24,66.582 -17.5,-32.898 44.65,-23.742 -134.19,-252.371 37.84,-20.11 134.17,252.352 z m 70.72,-177.8 13.96,34.558 -59.99,24.231 38.04,94.179 67.15,-27.136 13.97,34.558 -106.88,43.192 L 1343.94,495.199 1450.8,452 l 13.98,34.57 -67.15,27.141 41.1,101.711 z m 155.26,41.57 c -8.41,-31.461 -24.52,-48.441 -54.99,-38.051 l 27.61,103.071 6.62,-1.782 c 31.69,-7.609 28.75,-33.449 20.76,-63.238 z m -9.66,97.969 -49.68,13.301 -83.61,-312.079 41.37,-11.082 40.94,152.731 0.81,-0.219 15.38,-167.82 43.04,-11.531 -16.83,167.32 c 36.03,-3 56.68,39.359 64.56,68.762 20.96,78.23 -25.78,92.527 -55.98,100.617 z m 203.95,-157.11 -7.83,-129.578 -0.98,-0.722 -40.5,253.64 -40.74,5.731 -44.97,-319.95 42.43,-5.96 16.53,117.539 8.72,108.242 0.37,21.148 0.97,0.742 40.03,-257.05 39.47,-5.532 44.96,319.942 -42.42,5.961 z M 714.332,1827.96 c -25.102,78.96 -84.215,99.2 -84.215,99.2 65.918,-125.82 18.645,-210.9 18.645,-210.9 0,0 70.078,-8.28 113.551,27.93 34.433,105.04 -44.61,193.79 -44.61,193.79 10.395,-48.08 -3.371,-110.02 -3.371,-110.02 z m 557.708,-927.401 -66.11,-94.43 -65.79,-111.899 -1.21,-0.199 79.06,244.379 -33.7,23.59 -185.306,-264.648 35.086,-24.59 68.08,97.226 56.92,92.492 9.94,18.68 1.19,0.211 -81.02,-247.18 32.65,-22.871 185.31,264.66 z m -151.83,118.501 -216.179,-240.091 31.828,-28.688 216.191,240.11 z m 2258.94,899.69 c -1.39,-7.09 37.24,-15.77 86.39,-46.06 47.63,-29.36 104.78,-79.54 168.81,-135.14 5.69,-3.96 -0.81,-12.8 -2.51,-11.48 -169.41,131.43 -335.78,151 -333.89,129.21 0.76,-8.8 38.46,-9.03 85.69,-26.58 68.9,-25.6 162.94,-74.11 232.45,-124.42 4.86,-3.06 -0.65,-8.14 -3.55,-7.49 -195.88,69.1 -373.34,108.86 -371.06,84.92 0.96,-10.04 56.49,-11.21 124.72,-30.35 94.43,-26.5 218.18,-73.87 299.97,-104.84 2.41,0.74 13.62,-3.09 37.39,17.29 19.03,17.66 16.31,26.81 16.31,26.81 -184.33,200.27 -336.17,251.44 -340.72,228.13 z M 1998.87,231.59 h -8.27 v 27.84 c 2.87,0.679 6.76,1.16 10.51,1.16 13.85,-0.36 17.94,-5.399 18.27,-14.231 -0.3,-10.968 -5.75,-14.328 -20.51,-14.769 z m 22.99,-11.61 c 10.02,4.079 17.45,12.891 17.32,26.782 -0.04,18.758 -14.37,31.527 -38.16,31.57 -9.71,0 -19.71,-1.82 -28.67,-6.023 l -1.61,-0.758 v -99.563 h 19.86 v 42.293 l 5.49,-0.019 c 6.54,-0.172 9.35,-2.391 12.36,-8.403 l 16.2,-33.871 h 21.97 l -18.72,38.551 c -1.7,3.461 -3.62,6.699 -6.04,9.441 z m 218.78,483.192 61.65,-317.16 42.06,8.179 -61.64,317.137 z m 522.38,143.476 77.6,-89.597 32.62,-34.5 -43.11,-27.992 -67.83,151.621 z m -48.09,43.372 117.03,-309.239 35.22,22.879 -24.24,59.36 53.9,35 44.37,-46.301 36.29,23.57 -234.18,233.172 z M 531.023,2179.27 c -8.257,-169.38 132.895,-112.93 132.895,-112.93 -89.672,29.88 -132.895,112.93 -132.895,112.93 z M 2486.01,468.75 c -32.21,-10.48 -54.29,42.281 -75.48,107.48 -21.18,65.2 -34.31,120.852 -2.11,131.321 32.19,10.469 54.28,-42.281 75.48,-107.492 21.18,-65.2 34.3,-120.86 2.11,-131.309 z m -90.04,277.109 c -79.06,-25.679 -46.64,-128.238 -28.63,-183.66 18,-55.418 52.06,-157.449 131.13,-131.769 79.04,25.691 46.63,128.23 28.61,183.672 -18.01,55.418 -52.05,157.437 -131.11,131.757 z m -393.6,-595.211 c -39.24,0.082 -70.92,31.75 -71,71.024 0.08,39.199 31.76,70.906 71,71 39.14,-0.094 70.9,-31.82 70.99,-71 -0.09,-39.231 -31.85,-70.942 -70.99,-71.024 z m 0,161 c -49.73,0 -90.02,-40.257 -90.02,-89.976 0,-49.742 40.27,-90 90.02,-90 49.65,0 89.98,40.258 89.98,90 -0.02,49.719 -40.33,89.949 -89.98,89.976 z m 206.9,386.141 -140.77,-17.289 4.54,-36.988 50.17,6.16 34.85,-283.684 42.53,5.223 -34.84,283.687 48.06,5.903 z m -179.41,-242.027 -51.4,-0.903 22.84,164.539 0.86,0.024 18.32,-117.102 z m -45.5,225.91 -64.64,-324.262 41.99,0.738 10.91,63.192 64.26,1.109 13.09,-62.758 43.27,0.75 -75.05,321.829 z m 1046.89,87.187 -183.72,218.93 -32.8,-27.527 207.67,-247.5 87.96,73.808 -23.97,28.559 z M 342.02,1695.54 c 0,0 -28.188,-22.75 -26.457,-32.96 3.367,-19.92 25.781,-6.89 31.57,-0.92 97.949,101.11 276.094,164.8 274.367,175.17 -1.734,10.37 -154.266,-33.84 -279.48,-141.29 z m 2205.57,-293.58 h -932.03 v 123.75 h 41.56 c 45.62,0 81.8,37.66 81.8,83.29 l -0.82,800.46 c 0,45.71 -37,82.66 -82.7,82.66 h -39.06 v 93.75 h 540.92 v -94.45 l -43.27,-0.08 c -45.66,0 -83.04,-37.81 -83.04,-83.48 l -0.39,-855.54 h 270.11 c 36.78,0 70.34,35.58 66.98,72.89 -1.08,11.48 -2.25,28.24 -2.25,40.11 0,71.29 41.37,133.79 103.05,165.24 l 61.03,-61.06 c -31.81,-29.1 -51.79,-70.93 -51.79,-117.5 0,-54.88 27.81,-103.28 70.09,-131.87 z m -545.2,1503.33 c -521.93,0 -945.02,-423.09 -945.02,-945.01 0,-521.91 423.09,-945.03 945.02,-945.03 521.9,0 944.98,423.12 944.98,945.03 0,521.92 -423.08,945.01 -944.98,945.01 z m 1953.55,-1089.27 -0.03,-0.27 c -0.24,-2.23 -0.55,-4.42 -0.97,-6.57 l -34.21,27.9 -18.32,-18.32 c -85.39,73.2 -155.53,54.92 -155.53,54.92 l -85.41,-54.92 c 115.53,-7.1 141.97,-88.73 143.91,-155.64 -0.11,-0.09 -0.21,-0.19 -0.32,-0.28 -8.42,-7.14 -16.86,-14.42 -25.29,-21.85 -0.9,-0.79 -1.79,-1.59 -2.7,-2.39 -7.81,-6.93 -15.58,-13.96 -23.24,-21.09 -0.7,-0.66 -1.43,-1.31 -2.13,-1.97 -7.71,-7.22 -15.24,-14.54 -22.63,-21.94 -1.6,-1.61 -3.16,-3.21 -4.74,-4.82 -7.42,-7.56 -14.68,-15.16 -21.57,-22.85 -14.18,-15.62 -28.46,-20.86 -45.47,-21.06 -25.02,-0.32 -55.96,14.36 -85.68,33.6 -6.92,4.49 -13.8,9.13 -20.5,13.98 -36.12,25.63 -65.92,52.96 -88.75,62.58 -24.81,9.82 -87.07,25.33 -162.46,25.44 -4.72,0 -9.51,-0.07 -14.32,-0.2 -2.29,-0.07 -4.61,-0.2 -6.92,-0.29 -2.51,-0.11 -5,-0.18 -7.53,-0.33 -3.1,-0.17 -6.23,-0.42 -9.36,-0.65 -1.72,-0.13 -3.43,-0.23 -5.16,-0.39 -3.66,-0.31 -7.35,-0.7 -11.05,-1.1 -1.18,-0.14 -2.34,-0.24 -3.52,-0.38 -4.12,-0.48 -8.26,-1.04 -12.42,-1.65 -0.71,-0.11 -1.44,-0.2 -2.15,-0.3 -4.53,-0.69 -9.06,-1.46 -13.61,-2.29 -0.32,-0.06 -0.63,-0.11 -0.94,-0.16 -49.35,-9.13 -99.53,-27.42 -143.98,-60.51 5.08,15.58 9.87,31.33 14.27,47.22 61.82,30.43 162.98,61.87 302.68,46.39 0,0 -86.45,27.38 -217.38,19.49 l -22.35,26.64 c 0,0 -21.2,-10.62 -47.91,-31.69 2.56,11.71 4.96,23.5 7.15,35.36 32.81,20.73 68.13,29.58 68.13,29.58 l 24.35,79.29 c -7.39,0.63 -35.43,14.37 -75.39,35.85 0.74,14.12 1.16,28.32 1.38,42.57 55.44,-24.29 101.48,-44.85 119.77,-54 0,0 -18.26,57.93 85.41,70.15 0,0 -95.82,16.25 -205.62,37.9 -0.27,8.17 -0.58,16.32 -1.02,24.43 137.64,-16.89 274.52,-11.27 359.12,50.53 0,0 -73.18,-15.28 -155.54,-9.18 0,0 79.31,24.41 143.34,100.66 0,0 -73.17,-36.58 -182.99,-27.42 0,0 109.82,54.86 143.34,103.65 0,0 -131.1,-51.82 -222.6,-51.82 0,0 85.41,33.52 121.97,70.14 l -111.92,-9.29 30.13,45.72 c 0,0 -146.96,42.87 -177.43,164.86 l 54.14,-6.62 c 0,0 -44.88,164.17 51.97,211.41 -12.4,12.4 -99.21,37.2 -99.21,37.2 0,0 100.68,6.51 146.44,-11.81 0,0 -8.26,15.95 -30.7,32.48 -22.44,16.53 -52.54,27.07 -52.54,27.07 0,0 112.85,6.11 146.41,-27.45 0,0 -33.56,60.98 -60.96,82.35 0,0 67.11,-21.37 106.72,-67.09 l 27.46,3.03 c 0,0 -6.09,64.06 -36.6,115.89 0,0 60.98,-45.74 88.44,-118.92 0,0 21.95,-30.5 80.71,-24.26 l -1.14,-3.86 1.78,-4.53 c 0.17,-0.38 8.73,-22.2 22.95,-47.51 13.59,-23.7 31.28,-50.66 54.76,-66.38 3.08,-8.58 10.24,-27.26 21.38,-48.09 13.97,-25.79 33.55,-55.38 61.5,-72.77 v -1.57 c 0,-15.62 0.53,-47.14 4.35,-79.19 4.17,-32.18 10.02,-64.28 26.49,-84.85 28.97,-34.61 153.09,-220.42 242.32,-390.92 18.91,-35.95 29.96,-66.12 29.81,-89.78 -0.02,-2.41 -0.15,-4.77 -0.37,-7.06 z m -443.67,-338.46 c 13.78,14.96 30.66,38.59 47.83,74.71 21.43,-13.66 44.12,-25.54 67.39,-31.53 -24.8,-17.53 -61.33,-34.1 -115.22,-43.18 z m -186.62,-206.67 c -2.13,-2.02 -78.71,17.85 -121.68,96.6 -42.89,78.62 21.49,89.36 -28.55,125.14 -50.08,35.84 -58.98,82.95 -17.85,96.6 21.4,7.11 39.3,3.61 75.12,-17.87 35.66,-21.49 28.55,-57.25 32.14,-160.98 3.52,-103.77 62.96,-137.47 60.82,-139.49 z m 112.24,-81.38 c 12.81,0 25.1,1.02 36.71,3.23 3.54,-6.59 8.7,-17.32 14.14,-32.04 8.38,-34.72 -6.7,-37.49 -15.12,-41.02 -87.78,-35.37 -90.64,-150.051 -141.93,-128.848 -60.96,25.238 12.64,193.398 12.64,193.398 0,0 -119.01,-44.3 -144.22,-25.35 -25.2,18.94 21.3,71.86 21.3,71.86 0,0 -103.46,-25.99 -124.44,-11.3 -21.05,14.72 15.32,67.86 15.32,67.86 0,0 -70.68,-33.66 -102.24,-16.86 -31.52,16.84 29.71,76.08 29.71,76.08 0,0 -67.48,-28.15 -88.5,-11.31 -4.95,3.95 -6.21,10.54 -5.37,18.23 28.56,44.32 54.05,90.79 76.25,139.09 -0.04,-0.21 -0.07,-0.44 -0.11,-0.66 -0.81,-4.47 -1.57,-8.96 -2.24,-13.49 v 0 c -2.28,-15.25 -3.75,-30.74 -3.8,-45.67 0.1,-27.99 4.7,-55.01 21.9,-74.7 25.19,-27.84 89.26,-68.06 165.83,-103.7 76.45,-35.23 163.77,-64.62 234.17,-64.8 z m 46.57,167.51 c 9.86,-27.22 13.24,-51.21 13.25,-71.49 0,-23.86 -4.72,-42.64 -9.35,-55.35 -0.54,-1.47 -1.07,-2.83 -1.59,-4.13 l -9.7,-3.03 c -10.44,-3.27 -28.41,-5.29 -36.72,-5.25 -8.31,0.03 -17.98,1.82 -25.64,3.7 37.58,38.62 59.27,99.2 69.75,135.55 z M 3272.23,726.379 c -2.35,-2.969 -7.5,-9.219 -9.32,-11.688 C 2967.3,408.602 2563.89,239.738 2149.18,208.012 2143.2,131.941 2079.88,72.0703 2002.4,71.7109 c -77.48,0.3594 -140.81,60.2301 -146.79,136.3011 -414.72,31.726 -818.13,200.59 -1113.735,506.679 -1.816,2.469 -6.973,8.719 -9.316,11.688 -7.801,9.973 -9.899,20.269 -9.899,33.91 0,20.609 15.375,37.441 26.703,49.18 11.328,11.75 26.235,26.32 26.235,26.32 0,0 5.867,7.152 7.898,13.871 2.156,7.141 0.879,13.559 0.16,16.289 -4.511,17.16 -7.008,35.133 -7.039,53.711 -0.199,119.03 96.133,215.69 215.168,215.89 18.455,0.04 36.315,-2.37 53.385,-6.76 3.21,-0.82 6.76,-1.47 16.14,0.09 11.21,1.86 14.23,7.44 17.03,10.31 2.8,2.87 18.29,20.1 32.17,32.64 13.88,12.54 27.1,22.99 46.42,22.99 21.59,0 37.03,-12.19 51.3,-28.24 100.98,-105.01 222.17,-184.342 353.65,-238.182 135.24,-57.789 284.13,-89.828 440.5,-89.828 156.06,0 304.65,31.899 439.66,89.481 131.83,53.84 253.31,133.289 354.52,238.529 14.26,16.05 29.71,28.24 51.29,28.24 19.34,0 29.84,-8.31 46.43,-22.99 16.59,-14.68 28.05,-27.98 32.17,-32.64 4.11,-4.66 5.9,-7.97 17.03,-10.31 7.22,-1.52 12.93,-0.91 16.15,-0.09 17.05,4.39 34.92,6.8 53.38,6.76 119.02,-0.2 215.37,-96.86 215.15,-215.89 -0.02,-18.578 -2.52,-36.551 -7.03,-53.711 -0.72,-2.73 -1.99,-9.148 0.16,-16.289 2.03,-6.719 7.91,-13.871 7.91,-13.871 0,0 16.02,-15.719 26.23,-26.32 10.2,-10.59 26.7,-28.571 26.7,-49.18 0,-13.641 -2.09,-23.937 -9.9,-33.91 z M 592.297,2433.01 c 0,0 1.469,0.52 3.312,1.22 5.969,-2.05 11.149,-4.04 14.633,-5.31 8.149,-60.96 -3.179,-90.41 -29.097,-97.74 -27.559,-7.83 -75.942,23.4 -89.614,95.71 6.278,2.14 12.848,4.12 19.555,6 8.973,-27.83 28.777,-72.43 56.094,-87.83 0,0 5.597,3.17 5.086,10.22 -1.539,21.16 -7.508,66.29 20.031,77.73 z m 175.57,-830.61 c 9.188,9.72 32.274,11.14 42.031,3.57 23.028,-17.84 5.86,-34.1 -12.324,-68.41 -29.386,-55.48 9.891,-93.53 -18.73,-149.07 -28.672,-55.59 -64.348,-71.21 -77.285,-61.35 -19.211,14.67 9.105,45.35 18.629,69.83 20.425,52.61 -25.211,128.35 47.679,205.43 z M 677.117,1162 c 0,0 -6.012,-11.99 -2.984,-33 0,0 -53.945,9.02 -65.957,30 0,0 3.008,-50.94 12.012,-89.89 0,0 -71.895,77.89 -80.879,101.84 0,0 5.972,-98.87 35.933,-152.77 0,0 -70.238,51.34 -64.707,191.71 0,0 0.008,0 0.012,-0.01 7.969,-4.24 16.031,-7.24 23.961,-9.12 0.008,0 0.019,-0.01 0.035,-0.01 3.711,-0.88 7.383,-1.5 11.004,-1.93 0.601,-0.07 1.191,-0.13 1.793,-0.19 3.5,-0.34 6.961,-0.56 10.328,-0.53 30.469,0.17 54.715,12.42 64.77,18.32 5.941,-0.77 11.566,-1.14 16.894,-1.14 31.027,-0.18 52.055,13.09 63.477,26.62 4.464,5.21 7.671,10.33 9.945,14.73 11.371,-2.01 22.133,-2.94 32.289,-2.94 45.516,-0.08 78.039,18.92 98.187,37.74 13.348,12.4 21.665,24.65 25.93,31.86 80.113,18.83 99.84,84.7 100.188,86.53 l 0.668,2.37 -0.168,2.46 c -12.172,180.74 -92.36,259.25 -94.235,260.91 l -2.847,2.75 -3.817,0.85 c -36.027,8.16 -71.847,11.65 -106.84,11.65 -8.246,-0.01 -16.425,-0.28 -24.566,-0.66 -2.039,-0.1 -4.074,-0.2 -6.105,-0.31 -8.004,-0.47 -15.969,-1.04 -23.844,-1.82 -0.071,-0.01 -0.137,-0.01 -0.199,-0.02 -7.981,-0.8 -15.864,-1.81 -23.696,-2.9 -1.98,-0.28 -3.953,-0.57 -5.926,-0.86 -7.632,-1.14 -15.214,-2.38 -22.691,-3.78 -0.125,-0.03 -0.258,-0.05 -0.391,-0.07 -7.621,-1.43 -15.128,-3.03 -22.578,-4.7 -1.894,-0.42 -3.773,-0.85 -5.652,-1.29 -7.246,-1.69 -14.434,-3.45 -21.496,-5.33 -0.117,-0.03 -0.238,-0.05 -0.36,-0.09 -7.222,-1.93 -14.296,-3.98 -21.304,-6.08 -1.758,-0.53 -3.504,-1.05 -5.254,-1.6 -6.77,-2.08 -13.469,-4.21 -20.02,-6.43 -0.132,-0.04 -0.269,-0.08 -0.398,-0.13 -6.723,-2.27 -13.27,-4.62 -19.738,-7 -1.621,-0.61 -3.235,-1.21 -4.844,-1.81 -6.262,-2.35 -12.442,-4.74 -18.442,-7.16 -0.085,-0.03 -0.171,-0.06 -0.25,-0.1 -6.164,-2.48 -12.125,-5 -17.992,-7.53 -1.445,-0.62 -2.879,-1.25 -4.308,-1.87 -5.602,-2.45 -11.11,-4.9 -16.414,-7.36 -0.129,-0.06 -0.258,-0.12 -0.387,-0.18 -5.473,-2.53 -10.723,-5.06 -15.867,-7.57 -1.305,-0.63 -2.594,-1.27 -3.879,-1.9 -4.762,-2.36 -9.414,-4.69 -13.871,-6.99 -0.246,-0.13 -0.508,-0.26 -0.758,-0.39 -4.641,-2.4 -9.039,-4.74 -13.324,-7.06 -1.231,-0.67 -2.434,-1.31 -3.629,-1.97 -3.727,-2.04 -7.332,-4.03 -10.766,-5.98 -0.355,-0.2 -0.758,-0.42 -1.109,-0.61 -23.305,-13.22 -39.602,-23.96 -47.106,-29.04 l -58.746,7.3 c -3.047,6.5 -6.293,12.82 -9.629,19.04 -0.636,1.21 -1.273,2.42 -1.925,3.6 -3.274,5.96 -6.661,11.8 -10.165,17.51 -0.628,1.02 -1.265,2.02 -1.902,3.03 -3.496,5.59 -7.074,11.08 -10.758,16.41 -0.222,0.32 -0.437,0.66 -0.664,0.99 -3.883,5.59 -7.871,11 -11.918,16.32 -0.703,0.92 -1.406,1.85 -2.121,2.77 -4.027,5.2 -8.113,10.29 -12.254,15.22 -0.461,0.55 -0.918,1.07 -1.371,1.61 -4.152,4.89 -8.34,9.65 -12.562,14.27 -0.266,0.3 -0.524,0.59 -0.789,0.87 -4.379,4.78 -8.793,9.38 -13.211,13.85 l -1.742,1.76 c -4.461,4.47 -8.918,8.82 -13.372,12.99 -0.015,0.01 -0.023,0.02 -0.039,0.03 l 22.879,8.47 c 30.024,98.87 131.86,101.88 131.86,101.88 -11.973,74.92 17.988,134.84 17.988,134.84 l -53.906,-47.97 C 187.445,1893.93 111.477,1849.33 69.3164,1809.79 l -0.0039,0.01 c -9.5039,12.53 -15.0508,24.49 -18.043,35.81 -0.2343,0.91 -0.4804,1.81 -0.6836,2.71 -0.3476,1.5 -0.6406,2.98 -0.8984,4.45 -0.2383,1.4 -0.4414,2.78 -0.6055,4.15 -0.1367,1.08 -0.2929,2.16 -0.3867,3.24 -0.2148,2.49 -0.3594,4.96 -0.375,7.38 -0.0195,18.98 6.25,35.97 12.711,48.16 3.2304,6.11 6.457,10.98 8.8164,14.23 2.375,3.27 3.6445,4.6 3.6054,4.63 l 1.7266,1.96 0.918,2.4 c 30.3433,79.72 106.4223,195.06 174.6643,289.29 68.265,94.39 128.593,168.08 128.695,168.25 l 4.023,4.91 -1,6.27 c -3.042,19.07 -4.417,36.97 -4.417,53.77 0.062,79.3 30.195,134.4 60.39,170.47 15.106,17.98 30.235,31.05 41.488,39.55 5.625,4.26 10.293,7.36 13.461,9.38 3.192,2 4.649,2.75 4.625,2.78 l 8.086,4.35 -6.367,85.7 c 47.063,82.14 84.176,181.88 92.887,205.96 8.148,4.18 15.937,8.4 23.484,12.64 2.442,1.37 4.711,2.72 7.098,4.1 5.015,2.89 9.969,5.76 14.707,8.64 2.57,1.56 5.012,3.08 7.5,4.63 4.324,2.69 8.543,5.35 12.609,7.99 2.352,1.53 4.625,3.01 6.891,4.51 4.016,2.66 7.855,5.25 11.598,7.81 1.96,1.35 3.918,2.69 5.804,4 3.946,2.75 7.656,5.38 11.27,7.98 1.379,0.99 2.816,2 4.144,2.96 9.164,6.65 17.227,12.69 24.043,17.77 l 8.387,-8.44 c -3.559,-17.58 -5.355,-35.7 -5.355,-54.06 0,-0.21 0.015,-0.42 0.015,-0.63 -31.137,-16.09 -64.918,-31.06 -101.613,-44.41 l -56.953,-112.25 c 0,0 71.875,6 92.847,-95.9 0,0 44.133,62.01 114.215,98.12 3.071,-4.43 6.285,-8.74 9.606,-12.97 -30.75,-21.88 -62.387,-54.32 -75.852,-100.13 l 26.953,-11.99 c 0,0 47.422,37.92 102.731,60.11 10.422,-7.6 21.398,-14.49 32.867,-20.58 -33.988,-18.7 -71.231,-42.57 -84.68,-63.47 l 17.989,-17.99 c 0,0 80.902,44.96 95.902,-41.93 14.961,-86.88 -77.895,-101.88 -104.887,-101.88 0,0 3.012,-32.95 35.981,-65.9 0,0 -71.938,-56.93 -173.789,0 -101.875,56.92 -136.836,50.28 -223.672,29.3 0,0 -31.875,-45.12 -12.871,-98.52 -19.536,-19.14 -29.985,-17.15 -51.309,-75.58 -8.676,-37.93 -47.734,-64.96 -47.734,-64.96 0,0 104.879,-8.97 191.754,86.91 0,0 65.917,-71.91 164.804,50.94 0,0 77.895,-68.95 203.735,8.98 0,0 -59.907,-65.92 -164.766,-62.91 0,0 50.918,-47.95 68.863,-95.88 0,0 -38.926,35.94 -131.797,44.94 0,0 11.977,-68.92 53.926,-110.87 0,0 -53.926,44.96 -152.808,26.95 0,0 86.914,-125.82 218.75,-137.81 0,0 -50.957,-17.97 -74.922,-44.93 0,0 50.933,-32.98 128.804,-5.99 0,0 -80.879,-44.94 -116.812,-59.94 0,0 53.914,-17.96 170.723,17.96 -0.083,-5.55 -0.211,-11.07 -0.211,-16.64 0,-4.71 0.121,-9.41 0.179,-14.11 -1.535,-21.04 -6.496,-49.88 -20.91,-77.1 0,0 -53.941,47.97 -107.867,59.93 0,0 62.93,-86.88 26.988,-185.79 0,0 22.438,-34.79 110.918,-30.95 6.969,0.3 12.926,0.35 18.219,0.23 26.437,-117.21 71.223,-227.46 131.171,-327.59 -19.51,-6.85 -37.06,-11.56 -47.589,-13.17 l 53.919,-29.96 c 0,0 -86.868,-29.96 -125.817,-35.98 0,0 20.941,-20.97 38.949,-32.97 0,0 -104.867,-47.93 -146.821,-44.92 0,0 23.965,-23.98 35.957,-26.95 0,0 -68.906,-17.97 -89.902,-6.02 L 752.004,1147 c 0,0 -59.926,-6.01 -74.887,15 z m -139.812,221.95 c 10.347,-36.79 31.789,-99.4 68.441,-144.49 -8.984,-4.92 -27.695,-13.18 -48.078,-13.08 -8.234,0.08 -16.695,1.37 -25.273,4.56 -5.684,14.62 -11.907,37.19 -11.907,66.56 0.016,24.39 4.254,53.4 16.817,86.45 z m -74.078,103.41 c -46.411,6.53 -73.485,23.35 -89.657,39.23 -1.566,1.55 -1.351,1.63 -2.718,3.17 l 5.921,4.28 c 0.04,0.03 10.817,7.81 30.821,19.87 4.347,2.62 9.238,5.5 14.41,8.46 14.754,-37.12 29.148,-60.6 41.223,-75.01 z m 2577.383,472.92 c -0.02,-286.83 -116.14,-546.14 -304.1,-734.16 -187.99,-187.93 -447.28,-304.069 -734.13,-304.069 -286.83,0 -546.16,116.139 -734.18,304.069 -187.96,188.02 -304.095,447.33 -304.114,734.16 0.019,286.87 116.154,546.15 304.114,734.17 188.02,187.96 447.35,304.08 734.18,304.1 286.85,-0.02 546.14,-116.14 734.13,-304.1 187.96,-188.02 304.08,-447.3 304.1,-734.17 z m -37.49,689.15 c 0,0 2.56,-95.86 69.92,-133.77 -25.08,0.69 -114.48,-13.58 -69.92,133.77 z m -2260.593,554.33 2.953,2.7 c 324.14,316.4 767.3,511.29 1256.01,511.29 h 1.72 c 488.71,0 931.86,-194.89 1255.98,-511.29 l 3.05,-2.7 c 11.05,-10.82 17.97,-25.94 17.97,-42.62 0,-16.28 -6.31,-31.05 -17.72,-42.22 l -33.53,-33.28 c -6.65,-6.72 -10.1,-15.94 -10.1,-26.1 0,-2.77 0.33,-5.5 0.86,-8.08 l -0.08,0.11 c 3.98,-16.52 6.11,-33.75 6.11,-51.44 0,-120.51 -97.65,-218.13 -218.08,-218.13 -16.06,0 -31.7,1.76 -46.78,5.04 l -0.49,0.08 -1.5,0.39 c -2.89,0.74 -5.75,1.17 -8.93,1.17 -10.23,0 -19.43,-4.25 -25.98,-11.09 l -0.54,-0.31 -29.85,-30.2 c -10.82,-11.48 -25.88,-18.94 -42.97,-18.94 -16.93,0 -32.09,7.18 -43.2,19.1 -116.14,116.13 -257.26,207.32 -414.59,264.9 -121.6,45.16 -253.13,69.88 -390.46,69.89 -137.08,-0.01 -268.39,-24.64 -389.81,-69.64 -157.6,-57.57 -298.99,-148.84 -415.35,-265.15 -11.04,-11.92 -26.16,-19.1 -43.23,-19.1 -16.99,0 -32.09,7.46 -42.91,18.94 l -29.82,30.2 -0.57,0.6 c -6.6,6.84 -15.78,10.8 -25.99,10.8 -3.13,0 -6.02,-0.43 -8.91,-1.17 l -1.52,-0.39 -0.43,-0.08 c -15.04,-3.28 -30.71,-5.04 -46.797,-5.04 -120.434,0 -218.125,97.62 -218.125,218.13 0,17.69 2.145,34.92 6.172,51.44 l -0.078,-0.11 c 0.562,2.58 0.855,5.31 0.855,8.08 0,10.16 -2.984,18.81 -10.054,26.1 l -33.618,33.28 c -11.367,11.17 -17.715,25.94 -17.715,42.22 0,16.68 6.938,31.8 18.047,42.62 z M 4004.57,1823.19 c -0.3,37.73 -15.37,73.57 -35.29,112.05 l -0.03,-0.02 0.01,0.03 -0.15,-0.02 0.15,0.07 c -90.98,173.13 -211.81,354.92 -247.07,398.25 -6.05,10.15 -13.85,34.04 -16.55,60.58 -3.48,28.73 -2.34,58.02 -4.13,75.85 -2.47,16.78 -11.18,27.87 -21.26,42.23 -10.28,14 -23.01,29.73 -35.87,47.77 -18.89,26.46 -39.09,55.15 -55.11,78.24 -15.79,22.68 -28.4,41.44 -29.29,43.28 -7.52,13.14 -15.18,23.59 -17.07,28.21 -0.43,0.95 -0.84,1.85 -1.21,2.7 2.43,11.96 5.41,31.59 5.43,56.14 0,0.8 -0.03,1.33 -0.03,1.6 0.47,68.48 -27.02,178.12 -152.3,249.43 -29.45,16.9 -55.77,32.71 -79.34,47.45 24.32,23.78 38.74,57.79 38.83,93.1 -0.02,0.36 -0.02,0.38 -0.02,0.38 l 0.02,0.63 v 0.15 c -0.02,37.21 -15.48,71.55 -40.61,95.78 l -4.15,3.81 c -335.8,327.94 -797.65,531.06 -1306.19,531.06 h -0.09 c -0.19,-0.01 -0.45,-0.01 -0.85,-0.02 h -0.13 c -0.23,0.01 -0.52,0.01 -0.89,0.02 -508.65,0 -970.43,-203.12 -1307.728,-532.43 l -1.367,-1.2 c -26.113,-25.18 -41.91,-59.45 -41.953,-96.72 h -0.004 c 0,-0.09 -0.008,-0.36 0.004,-0.79 0,-0.12 -0.004,-0.25 -0.004,-0.4 0.031,-25.36 7.563,-49.88 20.793,-70.66 -15.004,-7.78 -34.601,-18.35 -54.016,-30.47 -31.457,-20.23 -63.183,-42.31 -77.332,-72.41 -10.687,-24.75 -10.16,-36.14 -18.027,-56.19 -7.23,-19.04 -20.738,-45.18 -33.371,-68.33 -12.754,-23.48 -24.242,-43.24 -29.305,-54.3 -6.554,-15.04 -7.586,-31.31 -7.715,-47.52 0.012,-18.15 1.965,-35.95 3.551,-47.49 -39.617,-28.74 -124.785,-107.88 -125.109,-251.58 0,-14.8 0.922,-30.19 2.875,-46.17 -45.168,-56.54 -239.7657,-301.64 -300.8126,-456.85 -3.75,-11.11 -31.70315,-40.21 -31.82815,-90.74 v -1.08 c -0.675781,-32.15 9.67578,-66.82 45.89065,-100.51 l 12.4804,-11.03 2.3438,-1.78 c 1.4102,-0.77 6.0273,-5.1 21.5898,-14.65 44.0311,-26.87 137.0271,-94.03 181.4571,-195.29 0.387,-1.09 1.02,-2.81 1.953,-4.88 1.754,-3.33 2.93,-7.36 9.445,-13.14 4.938,-3.62 6.329,-3.41 7.993,-4.11 5.121,-1.43 9.214,-1.85 15.218,-2.65 17.184,-2.11 42.844,-4.01 43.008,-4.03 l 3.649,0.06 c 3.207,0.45 6.046,1.26 8.675,2.26 1.602,-1.78 3.114,-3.55 4.922,-5.34 23.703,-23.5 66.024,-46.41 137.836,-48.05 h 0.242 c 5.399,0 9.985,4.07 10.555,9.47 0.578,5.46 -3.133,10.5 -8.519,11.54 l 0.019,0.04 c -3.23,1.15 -29.023,13.72 -58.152,88.2 44.605,24.09 109.328,53.76 184.164,72.25 20.379,-9.88 39.164,-21.36 49.332,-33.55 0,0 -38.965,-98.91 -15.024,-206.76 0,0 -47.039,-33.34 -66.089,-82.56 -3.024,-1.7 -6.071,-3.41 -9,-5.06 -3.852,8.52 -7.454,17.01 -10.59,25.27 -15.942,41.55 -23.016,76.23 -23.078,76.27 -0.914,4.44 -4.567,7.8 -9.028,8.37 -4.484,0.59 -8.863,-1.75 -10.875,-5.81 -23.492,-47.5 -31.191,-89.48 -31.172,-123.64 0,-6.4 0.325,-12.47 0.801,-18.31 -3.43,1.36 -7.363,2.3 -11.703,2.27 -1.793,0 -4.066,-0.13 -6.68,-0.68 -11.851,-2.17 -19.168,-10.86 -22.304,-16.55 -3.375,-5.97 -4.219,-10.46 -4.536,-11.72 l -0.128,-0.67 c 0,-0.11 -8.832,-45.59 -8.832,-97.82 0.714,-46.58 4.871,-102.57 42.058,-141.78 53.805,-53.76 149.582,-152.529 149.645,-152.568 l 1.175,-1.141 c 1.485,-1.301 14.704,-13.652 37.188,-21.902 -14.785,-21.449 -23.207,-47.617 -23.27,-74.559 0,-0.09 -0.011,-0.492 0,-1.14 v -0.008 c 0.02,-37.192 15.454,-71.551 40.625,-95.801 l 4.157,-3.82 C 987.184,378.398 1370.84,188.449 1797.34,141.648 1828.67,58.8789 1908.63,0 2002.37,0 c 93.55,0 173.35,58.6211 204.83,141.109 428.48,45.903 814,236.371 1106.14,521.539 l 1.05,1.122 c 0.53,0.609 10.5,11.968 20.82,29.218 10.14,17.301 21.25,40.371 21.46,66.703 0,0.739 -0.02,1.207 -0.02,1.329 -0.58,26.089 -8.01,51.57 -21.87,73.082 25.88,7.699 43.35,21.82 53.66,34.558 3.67,4.559 5.65,8.442 8.58,13.942 9.61,18.57 24.02,52.046 39.46,85.16 15.12,32.728 32.13,65.618 41.94,77.048 10.22,14.04 52.68,43.45 53.82,93.56 0,1.9 -0.08,3.5 -0.13,4.77 -1.45,19.66 -8.92,37.48 -15.66,51.67 -3.39,7.04 -6.72,13.05 -9.21,17.41 -0.73,1.25 -1.35,2.31 -1.91,3.26 6.18,14.5 13.58,38.38 13.59,70.05 0.03,30.16 -6.79,67.16 -27.46,108.95 -1.99,4.05 -6.37,6.41 -10.85,5.82 -4.49,-0.56 -8.12,-3.95 -9.04,-8.37 0,-0.07 -6.25,-30.46 -20.16,-66.87 -5.77,-15.2 -13.01,-31.29 -21.48,-46.51 -140.3,102.11 -119.16,290.13 -119.16,290.13 71.86,28.74 148.36,24.28 209.27,11.56 4.79,-3.6 9.67,-7.2 14.62,-10.79 2.51,-1.77 5.05,-3.55 7.61,-5.32 -14.26,-30.57 -28.06,-51.44 -39.55,-65.29 -9.58,-11.55 -17.53,-18.36 -22.87,-22.21 -2.66,-1.93 -4.68,-3.1 -5.92,-3.78 -0.63,-0.33 -1.05,-0.52 -1.26,-0.62 h -0.02 c -4.96,-1.88 -7.78,-7.15 -6.6,-12.3 1.11,-4.85 5.45,-8.25 10.37,-8.25 0.29,0 0.59,0.02 0.89,0.04 73.02,6.16 122.58,25.51 156.03,47.46 4.76,-1.14 9.48,-1.93 14.1,-2.1 3.23,-0.27 6.41,-0.44 9.63,-0.46 0.79,0 1.15,0.02 1.32,0.02 28.74,-0.04 58.38,12.07 80.46,37.21 72.37,81.42 185.37,157.71 234.32,209.9 20.96,22.4 31.5,50.45 31.4,78.74 v 0.57 h -0.01 z m -214.38,156.63 c 77.28,-83.68 78.22,-30.12 78.22,-30.12 -18.19,-12.7 -78.22,30.12 -78.22,30.12 z m -2625.66,868.45 203.92,166.98 -70.96,86.64 -103.98,-85.12 -213.072,260.19 -99.915,-81.82 3.735,-4.56 z m 1490.97,188.76 c 19.7,-53.39 53.2,-100.14 100.58,-132.94 32.88,-22.76 72.78,-38.47 114.05,-38.49 5.1,0 10.24,0.23 15.39,0.73 48.44,4.86 83.89,37.49 108.95,73.71 15.9,23 22.86,45.59 22.84,67.41 -0.03,36.14 -18.65,69.2 -43.62,100.23 l -18.59,23.28 c -6.85,8.93 -13.56,17.8 -17.59,27.42 -2.26,5.25 -3.13,9.76 -3.13,13.54 0.1,12.72 9.74,19.71 24.66,20.09 8.49,0.02 18.22,-2.8 27.06,-8.91 22.2,-15.4 35.05,-38.05 42.36,-64.28 l 1.96,-7.07 102.77,54.97 -2.44,5.07 c -20.43,42.27 -55.96,84.69 -94.72,111.58 h -0.02 c -30.11,20.84 -62.72,31.4 -94.43,31.4 -46.59,0.04 -91.02,-22.95 -122.07,-67.89 -18.26,-26.31 -26.27,-49.58 -26.27,-71.44 0.13,-38.12 23.8,-69.45 53.3,-105.42 11.94,-14.19 31.93,-38.22 31.51,-55.96 -0.04,-4.67 -1.15,-8.83 -3.97,-12.93 -7,-9.93 -15.81,-13.58 -26.03,-13.69 -10.23,-0.04 -21.7,4.2 -31.53,11.02 -30.66,21.2 -44.81,55.6 -53.81,91.61 l -1.81,7.22 -107.2,-55.37 z m -823.32,465.35 c 3.57,0.35 7.11,0.52 10.68,0.52 h 0.16 c 58.08,0 108.01,-44.27 112.64,-95.63 h -0.02 c 0.4,-4.39 0.6,-8.72 0.6,-12.96 -0.08,-63.9 -44.62,-112.67 -103.04,-118.15 -3.57,-0.33 -7.09,-0.49 -10.59,-0.49 -57.91,0.06 -108.1,44.29 -114.3,110.44 -0.26,2.77 -0.39,5.52 -0.39,8.31 -0.12,51.76 44.83,102.54 104.26,107.96 z m 5.27,-350.9 h 0.36 c 8.82,0 17.78,0.41 26.86,1.26 132.67,12.17 223.75,110.61 223.61,240.52 -0.03,8.78 -0.42,17.72 -1.26,26.76 -11.79,126.2 -123.75,206.98 -242.19,206.92 -8.03,0 -16.08,-0.37 -24.14,-1.11 -120.4,-11.17 -224.74,-105.75 -224.82,-230.38 0,-6.93 0.33,-13.91 0.99,-20.98 12.24,-133.61 111.83,-222.97 240.59,-222.99 z m 514.74,224.98 103.63,-298.28 118.22,-40.01 143.69,424.67 -122.39,41.39 -79.71,-235.68 -103.82,297.78 -118.23,40 -143.69,-424.65 122.4,-41.43 z m -900.92,-323.81 118.63,51.12 -177.4,411.71 -118.63,-51.11 2.33,-5.41 z M 363.418,1653.44 c 0,0 -25.156,-20.55 -23.645,-29.76 2.961,-17.93 22.954,-6.14 28.122,-0.75 87.472,91.28 246.285,149.04 244.761,158.38 -1.519,9.34 -137.468,-30.81 -249.238,-127.87 z m -139.984,471.95 c -15.582,-25.89 -28.946,-47.97 -42.371,-72.92 0.066,0.02 0.109,0.02 0.167,0.04 -14.238,-27.11 -36.875,-70.58 -46.574,-90.47 25.547,-4.68 53.828,0.28 83.735,21.92 3.367,84.33 84.214,259.66 84.214,259.66 -23.085,-28.71 -57.703,-83.35 -79.246,-118.24 0.032,0.01 0.047,0 0.075,0.01 z M 2606.23,826.559 l 48.7,-104.457 64.02,-112.93 -0.42,-1.152 -172.11,190.66 -37.29,-17.379 136.55,-292.813 38.83,18.082 -50.16,107.578 -51.64,95.551 -11.21,17.93 0.42,1.141 173.56,-193.758 36.11,16.847 -136.53,292.821 z M 618.496,1882.06 c -2.055,11.09 -171.918,-34.24 -310.535,-147.21 0,0 -31.223,-23.88 -29.184,-34.8 3.993,-21.24 28.875,-7.62 35.278,-1.32 108.25,106.52 306.488,172.29 304.441,183.33 z m 3100.944,324.05 c -51.85,70.13 -77.73,95.09 -97.61,225.7 -17.86,117.3 -271.45,0 -271.45,0 -124.63,-31.17 -172.85,1.35 -190.94,25.25 0,0.51 -5.36,4.2 -2.34,-2.46 68.89,-151.78 219.42,-73.42 219.42,-73.42 l 27.66,-27.62 c -6.52,16.03 -7.98,40.02 -3.5,73.62 5.79,2.1 15.92,6.17 27.26,9.25 6.76,-8.99 7.55,-15.04 8.35,-29.01 0.79,-13.8 -7.39,-32.2 -7.38,-43.95 0.01,-11.23 8.23,-16.11 8.23,-16.11 28.86,17.05 50.49,58.39 60.67,84.35 7.43,-2.04 14.68,-4.2 21.58,-6.56 -13.67,-72.31 -62.01,-103.54 -89.62,-95.71 -1.34,0.39 -2.62,0.86 -3.88,1.36 -88.06,-40.16 -35.84,-51.49 -35.84,-51.49 73.18,0 139.39,49.65 139.39,49.65 24.38,-12.19 49.73,-71 49.73,-71 27.42,-3.03 73.16,-27.44 73.16,-27.44 45.75,-42.7 67.11,-24.41 67.11,-24.41 z m 28.58,-43.33 c 0,0 -0.92,-35.42 -69.48,-10.89 0,0 33.44,-51.41 79.69,-61.33 49.71,-10.65 17.03,43.12 -10.21,72.22 z m 74.29,-119.14 c 0,0 -7.24,-29.14 -87.52,23.68 0,0 48.58,-62.54 84.22,-72.37 35.59,-9.82 16.12,38.05 3.3,48.69" /></g></g></svg>