<?xml version="1.0" encoding="UTF-8" standalone="no"?>
<!-- Created with Inkscape (http://www.inkscape.org/) -->
<svg
   xmlns:dc="http://purl.org/dc/elements/1.1/"
   xmlns:cc="http://creativecommons.org/ns#"
   xmlns:rdf="http://www.w3.org/1999/02/22-rdf-syntax-ns#"
   xmlns:svg="http://www.w3.org/2000/svg"
   xmlns="http://www.w3.org/2000/svg"
   xmlns:sodipodi="http://sodipodi.sourceforge.net/DTD/sodipodi-0.dtd"
   xmlns:inkscape="http://www.inkscape.org/namespaces/inkscape"
   id="svg2"
   sodipodi:version="0.32"
   inkscape:version="0.46"
   width="97.232605"
   height="31.008778"
   xml:space="preserve"
   sodipodi:docname="Fresnillosvg.svg"
   version="1.0"
   inkscape:output_extension="org.inkscape.output.svg.inkscape"><metadata
     id="metadata7"><rdf:RDF><cc:Work
         rdf:about=""><dc:format>image/svg+xml</dc:format><dc:type
           rdf:resource="http://purl.org/dc/dcmitype/StillImage" /></cc:Work></rdf:RDF></metadata><defs
     id="defs5"><inkscape:perspective
       sodipodi:type="inkscape:persp3d"
       inkscape:vp_x="0 : 526.18109 : 1"
       inkscape:vp_y="0 : 1000 : 0"
       inkscape:vp_z="744.09448 : 526.18109 : 1"
       inkscape:persp3d-origin="372.04724 : 350.78739 : 1"
       id="perspective9" /><clipPath
       clipPathUnits="userSpaceOnUse"
       id="clipPath17"><path
         d="M 0.175,322.568 L 612,322.568 L 612,733.748 L 0.175,733.748 L 0.175,322.568 z"
         id="path19" /></clipPath><clipPath
       clipPathUnits="userSpaceOnUse"
       id="clipPath31"><path
         d="M 120.52,184.342 L 268.504,184.342 L 268.504,248.903 L 120.52,248.903 L 120.52,184.342 z"
         id="path33" /></clipPath><clipPath
       clipPathUnits="userSpaceOnUse"
       id="clipPath75"><path
         d="M 0,0 L 612,0 L 612,792 L 0,792 L 0,0 z"
         id="path77" /></clipPath></defs><sodipodi:namedview
     inkscape:window-height="712"
     inkscape:window-width="1024"
     inkscape:pageshadow="2"
     inkscape:pageopacity="0.0"
     guidetolerance="10.0"
     gridtolerance="10.0"
     objecttolerance="10.0"
     borderopacity="1.0"
     bordercolor="#4D6373"
     pagecolor="#ffffff"
     id="base"
     showgrid="false"
     showguides="true"
     inkscape:guide-bbox="true"
     inkscape:zoom="0.95"
     inkscape:cx="49.165196"
     inkscape:cy="15.066754"
     inkscape:window-x="-4"
     inkscape:window-y="-4"
     inkscape:current-layer="g29" /><g
     id="g11"
     inkscape:groupmode="layer"
     inkscape:label="FRESNILLO_INTERIM2008_LOW"
     transform="matrix(1.25,0,0,-1.25,-152.63213,308.8083)"><g
       id="g27"
       transform="matrix(0.9557821,0,0,0.9557821,8.8182869,9.4199999)"><g
         id="g29"
         clip-path="url(#clipPath31)"><g
           id="g35"
           transform="matrix(0.5274481,0,0,0.5274481,120.64537,231.57892)"><path
             d="M 0,0 L 57.909,22.413 C 58.495,22.64 59.163,22.362 59.396,21.788 C 59.51,21.511 59.501,21.213 59.396,20.955 C 60.159,19.06 60.92,17.165 61.682,15.27 C 63.751,11.42 67.782,12.863 69.851,17.677 C 70.295,18.7 71.313,19.139 72.361,19.122 C 71.186,19.292 70.458,20.187 71.649,22.17 C 74.123,24.885 72.982,27.797 74.289,30.722 C 74.543,31.287 75.221,31.548 75.797,31.299 L 146.427,0.709 C 147.002,0.461 147.266,-0.205 147.013,-0.771 C 146.76,-1.336 146.081,-1.596 145.505,-1.348 L 76.435,28.579 L 76.095,28.732 C 75.433,26.026 77.83,23.841 75.897,20.726 C 75.538,19.745 74.025,19.084 72.782,19.091 C 74.546,18.861 76.188,17.382 75.08,15.27 C 71.049,6.125 61.464,5.161 59.558,12.863 C 58.82,14.935 57.928,17.607 57.18,19.717 L 0.85,-2.086 C 0.265,-2.312 -0.403,-2.034 -0.637,-1.461 C -0.87,-0.887 -0.585,-0.227 0,0"
             style="fill:#4D6373;fill-opacity:1;fillRule:evenodd;stroke:none"
             id="path37" /></g><g
           id="g39"
           transform="matrix(0.5274481,0,0,0.5274481,191.20385,228.55458)"><path
             d="M 0,0 C 0.007,0.717 -0.133,1.213 -0.414,1.494 C -0.696,1.783 -1.228,1.916 -2.004,1.901 L -6.709,1.901 C -7.567,1.901 -8.137,1.715 -8.395,1.338 C -8.661,0.954 -8.802,0.348 -8.817,-0.496 L -8.795,-5.274 C -8.802,-5.962 -8.655,-6.45 -8.351,-6.731 C -8.04,-7.012 -7.486,-7.153 -6.694,-7.145 L -1.983,-7.145 C -1.183,-7.145 -0.658,-7.012 -0.399,-6.738 C -0.148,-6.465 -0.022,-5.969 -0.022,-5.252 L 0,0 z M 2.988,-6.287 C 2.655,-8.684 1.257,-9.934 -1.228,-10.037 L -7.294,-10.067 C -8.684,-10.008 -9.697,-9.601 -10.355,-8.846 C -11.006,-8.092 -11.421,-7.064 -11.599,-5.748 L -11.62,0.502 C -11.458,3.099 -10.03,4.512 -7.338,4.749 L -1.324,4.749 C 1.302,4.594 2.744,3.343 3.01,0.998 L 2.988,-6.287 z M -24.439,-6.273 L -24.439,4.749 L -21.435,4.749 L -21.435,-5.281 C -21.399,-5.969 -21.236,-6.45 -20.948,-6.709 C -20.652,-6.975 -20.149,-7.13 -19.431,-7.168 L -12.841,-7.168 L -12.841,-10.06 L -20.237,-10.06 C -21.34,-9.956 -22.257,-9.586 -23.004,-8.936 C -23.743,-8.284 -24.225,-7.397 -24.439,-6.273 M -37.228,-6.273 L -37.228,4.749 L -34.225,4.749 L -34.225,-5.281 C -34.188,-5.969 -34.025,-6.45 -33.737,-6.709 C -33.441,-6.975 -32.938,-7.13 -32.22,-7.168 L -25.63,-7.168 L -25.63,-10.06 L -33.026,-10.06 C -34.129,-9.956 -35.045,-9.586 -35.793,-8.936 C -36.532,-8.284 -37.014,-7.397 -37.228,-6.273 M -41,4.749 L -38.085,4.749 L -38.085,-10.067 L -41,-10.067 L -41,4.749 z M -59.151,4.785 L -49.055,4.793 C -46.325,4.548 -44.779,3.129 -44.425,0.525 L -44.425,-10.06 L -47.184,-10.06 L -47.184,-0.474 C -47.154,1.176 -47.842,1.967 -49.255,1.909 L -56.148,1.916 L -56.148,-10.037 L -59.159,-10.067 L -59.151,4.785 z M -65.106,-4.046 L -70.594,-3.994 C -71.097,-3.95 -71.74,-3.802 -72.517,-3.551 C -73.301,-3.292 -73.886,-2.825 -74.285,-2.137 C -74.803,-1.383 -75.061,-0.606 -75.054,0.2 C -75.054,0.998 -74.892,1.768 -74.573,2.485 C -74.07,3.187 -73.589,3.676 -73.124,3.935 C -72.665,4.201 -71.889,4.468 -70.816,4.749 L -61.984,4.749 L -61.984,1.738 L -70.402,1.715 C -70.971,1.768 -71.407,1.641 -71.711,1.338 C -72.007,1.035 -72.162,0.695 -72.169,0.311 C -72.177,-0.067 -72.036,-0.414 -71.748,-0.725 C -71.46,-1.044 -71.008,-1.176 -70.402,-1.139 L -64.906,-1.176 C -64.411,-1.221 -63.767,-1.391 -62.99,-1.679 C -62.213,-1.96 -61.622,-2.448 -61.223,-3.136 C -60.712,-3.905 -60.453,-4.69 -60.453,-5.496 C -60.446,-6.302 -60.608,-7.071 -60.927,-7.789 C -61.437,-8.499 -61.925,-8.987 -62.391,-9.253 C -62.849,-9.512 -63.619,-9.786 -64.684,-10.067 L -75.114,-10.067 L -75.114,-7.042 L -65.098,-7.019 C -64.528,-7.101 -64.092,-6.99 -63.782,-6.694 C -63.478,-6.398 -63.315,-6.058 -63.301,-5.673 C -63.286,-5.281 -63.427,-4.919 -63.723,-4.579 C -64.011,-4.238 -64.477,-4.053 -65.106,-4.046 M -87.621,4.749 L -78.131,4.749 L -78.131,1.709 L -86.519,1.709 C -87.976,1.974 -88.612,1.294 -88.435,-0.326 L -88.435,-1.287 L -78.116,-1.287 L -78.116,-4.075 L -88.435,-4.031 L -88.435,-5.089 C -88.701,-6.613 -87.895,-7.323 -86.016,-7.219 L -78.131,-7.219 L -78.131,-10.067 L -87.126,-10.067 C -89.781,-9.697 -91.231,-8.107 -91.467,-5.297 L -91.467,0.489 C -91.268,2.722 -89.98,4.142 -87.621,4.749 M -107.622,-10.067 L -107.622,4.749 L -97.281,4.749 C -96.209,4.659 -95.447,4.431 -94.988,4.068 C -94.529,3.698 -94.049,3.151 -93.539,2.433 C -93.102,1.694 -92.895,0.836 -92.917,-0.141 C -92.939,-1.118 -93.28,-2.034 -93.923,-2.907 C -93.59,-3.344 -93.347,-3.751 -93.206,-4.112 C -93.057,-4.483 -92.984,-5.008 -92.984,-5.703 L -92.976,-10.067 L -95.906,-10.067 L -95.935,-6.472 C -95.943,-5.644 -96.046,-5.067 -96.238,-4.742 C -96.43,-4.416 -96.845,-4.268 -97.488,-4.312 L -104.515,-4.32 L -104.515,-10.067 L -107.622,-10.067 z M -104.56,-1.199 L -97.37,-1.199 C -96.823,-1.161 -96.416,-0.984 -96.142,-0.651 C -95.868,-0.318 -95.736,0.03 -95.75,0.407 C -95.758,0.784 -95.906,1.116 -96.194,1.413 C -96.483,1.709 -96.912,1.849 -97.473,1.819 L -104.56,1.826 L -104.56,-1.199 z M -119.93,4.749 L -110.44,4.749 L -110.44,1.709 L -118.828,1.709 C -120.285,1.974 -120.921,1.294 -120.744,-0.326 L -120.744,-1.287 L -110.425,-1.287 L -110.425,-4.075 L -120.847,-4.031 L -120.847,-10.067 L -123.776,-10.067 L -123.776,0.489 C -123.576,2.722 -122.29,4.142 -119.93,4.749"
             style="fill:#4D6373;fill-opacity:1;fillRule:evenodd;stroke:none"
             id="path41" /></g><g
           id="g43"
           transform="matrix(0.5274481,0,0,0.5274481,196.47369,224.87986)"><path
             d="M 0,0 L 0.919,0 C 1.114,0 1.267,0.021 1.377,0.061 C 1.487,0.101 1.571,0.166 1.628,0.255 C 1.685,0.344 1.714,0.44 1.714,0.544 C 1.714,0.697 1.659,0.823 1.548,0.921 C 1.437,1.02 1.262,1.069 1.022,1.069 L 0,1.069 L 0,0 z M 1.441,-0.297 C 1.653,-0.243 1.817,-0.156 1.932,-0.035 C 2.081,0.123 2.155,0.315 2.155,0.544 C 2.155,0.722 2.11,0.885 2.021,1.032 C 1.931,1.179 1.811,1.281 1.662,1.339 C 1.512,1.396 1.293,1.426 1.005,1.426 L -0.427,1.426 L -0.427,-1.805 L 0,-1.805 L 0,-0.37 L 0.952,-0.37 L 1.882,-1.805 L 2.419,-1.805 L 1.441,-0.297 z M 0.661,2.13 C 1.977,2.13 3.051,1.057 3.051,-0.26 C 3.051,-1.576 1.977,-2.649 0.661,-2.649 C -0.655,-2.649 -1.729,-1.576 -1.729,-0.26 C -1.729,1.057 -0.655,2.13 0.661,2.13 M 0.661,2.581 C 2.226,2.581 3.502,1.305 3.502,-0.26 C 3.502,-1.824 2.226,-3.1 0.661,-3.1 C -0.904,-3.1 -2.18,-1.824 -2.18,-0.26 C -2.18,1.305 -0.904,2.581 0.661,2.581"
             style="fill:#4D6373;fill-opacity:1;fillRule:evenodd;stroke:none"
             id="path45" /></g><g
           id="g47"
           transform="translate(121.238,292.3907)"><path
             d="M 0,0 L 57.909,22.413 C 58.495,22.64 59.163,22.362 59.396,21.788 C 59.51,21.511 59.501,21.213 59.396,20.955 C 60.159,19.06 60.92,17.165 61.682,15.27 C 63.751,11.419 67.782,12.863 69.851,17.677 C 70.295,18.7 71.313,19.139 72.361,19.122 C 71.186,19.292 70.458,20.187 71.649,22.17 C 74.123,24.885 72.982,27.797 74.289,30.722 C 74.543,31.287 75.221,31.548 75.797,31.298 L 146.427,0.709 C 147.002,0.46 147.266,-0.205 147.013,-0.771 C 146.76,-1.336 146.081,-1.597 145.505,-1.348 L 76.435,28.579 L 76.095,28.732 C 75.433,26.026 77.83,23.841 75.897,20.725 C 75.538,19.745 74.025,19.084 72.782,19.091 C 74.546,18.861 76.188,17.381 75.08,15.27 C 71.049,6.124 61.464,5.161 59.558,12.863 C 58.82,14.934 57.928,17.607 57.18,19.716 L 0.85,-2.087 C 0.265,-2.312 -0.403,-2.034 -0.637,-1.461 C -0.87,-0.887 -0.585,-0.227 0,0"
             style="fill:#4D6373;fill-opacity:1;fillRule:evenodd;stroke:none"
             id="path49" /></g><g
           id="g51"
           transform="translate(255.0113,286.6568)"><path
             d="M 0,0 C 0.007,0.717 -0.133,1.213 -0.414,1.494 C -0.696,1.783 -1.228,1.916 -2.004,1.901 L -6.709,1.901 C -7.567,1.901 -8.137,1.715 -8.395,1.338 C -8.661,0.954 -8.802,0.347 -8.817,-0.496 L -8.795,-5.274 C -8.802,-5.962 -8.655,-6.45 -8.351,-6.731 C -8.04,-7.013 -7.486,-7.153 -6.694,-7.145 L -1.983,-7.145 C -1.183,-7.145 -0.658,-7.013 -0.399,-6.738 C -0.148,-6.465 -0.022,-5.97 -0.022,-5.252 L 0,0 z M 2.988,-6.287 C 2.655,-8.684 1.257,-9.934 -1.228,-10.037 L -7.294,-10.067 C -8.684,-10.008 -9.697,-9.602 -10.355,-8.847 C -11.006,-8.093 -11.421,-7.064 -11.599,-5.748 L -11.62,0.502 C -11.458,3.099 -10.03,4.512 -7.338,4.749 L -1.324,4.749 C 1.302,4.594 2.744,3.343 3.01,0.998 L 2.988,-6.287 z M -24.439,-6.273 L -24.439,4.749 L -21.435,4.749 L -21.435,-5.282 C -21.399,-5.97 -21.236,-6.45 -20.948,-6.709 C -20.652,-6.975 -20.149,-7.13 -19.431,-7.168 L -12.841,-7.168 L -12.841,-10.06 L -20.237,-10.06 C -21.34,-9.956 -22.257,-9.586 -23.004,-8.936 C -23.743,-8.285 -24.225,-7.397 -24.439,-6.273 M -37.228,-6.273 L -37.228,4.749 L -34.225,4.749 L -34.225,-5.282 C -34.188,-5.97 -34.025,-6.45 -33.737,-6.709 C -33.441,-6.975 -32.938,-7.13 -32.22,-7.168 L -25.63,-7.168 L -25.63,-10.06 L -33.026,-10.06 C -34.129,-9.956 -35.045,-9.586 -35.793,-8.936 C -36.532,-8.285 -37.014,-7.397 -37.228,-6.273 M -41,4.749 L -38.085,4.749 L -38.085,-10.067 L -41,-10.067 L -41,4.749 z M -59.151,4.785 L -49.055,4.793 C -46.325,4.548 -44.779,3.129 -44.425,0.525 L -44.425,-10.06 L -47.184,-10.06 L -47.184,-0.474 C -47.154,1.176 -47.842,1.967 -49.255,1.909 L -56.148,1.916 L -56.148,-10.037 L -59.159,-10.067 L -59.151,4.785 z M -65.106,-4.046 L -70.594,-3.995 C -71.097,-3.95 -71.74,-3.803 -72.517,-3.551 C -73.301,-3.292 -73.886,-2.826 -74.285,-2.138 C -74.803,-1.383 -75.061,-0.606 -75.054,0.2 C -75.054,0.998 -74.892,1.768 -74.573,2.485 C -74.07,3.187 -73.589,3.676 -73.124,3.935 C -72.665,4.201 -71.889,4.468 -70.816,4.749 L -61.984,4.749 L -61.984,1.738 L -70.402,1.715 C -70.971,1.768 -71.407,1.641 -71.711,1.338 C -72.007,1.035 -72.162,0.695 -72.169,0.311 C -72.177,-0.067 -72.036,-0.414 -71.748,-0.725 C -71.46,-1.044 -71.008,-1.176 -70.402,-1.139 L -64.906,-1.176 C -64.411,-1.221 -63.767,-1.391 -62.99,-1.679 C -62.213,-1.96 -61.622,-2.449 -61.223,-3.136 C -60.712,-3.906 -60.453,-4.69 -60.453,-5.496 C -60.446,-6.302 -60.608,-7.071 -60.927,-7.789 C -61.437,-8.499 -61.925,-8.987 -62.391,-9.253 C -62.849,-9.512 -63.619,-9.786 -64.684,-10.067 L -75.114,-10.067 L -75.114,-7.042 L -65.098,-7.019 C -64.528,-7.101 -64.092,-6.99 -63.782,-6.694 C -63.478,-6.398 -63.315,-6.058 -63.301,-5.673 C -63.286,-5.282 -63.427,-4.919 -63.723,-4.579 C -64.011,-4.238 -64.477,-4.054 -65.106,-4.046 M -87.621,4.749 L -78.131,4.749 L -78.131,1.708 L -86.519,1.708 C -87.976,1.974 -88.612,1.294 -88.435,-0.326 L -88.435,-1.287 L -78.116,-1.287 L -78.116,-4.076 L -88.435,-4.031 L -88.435,-5.089 C -88.701,-6.613 -87.895,-7.323 -86.016,-7.22 L -78.131,-7.22 L -78.131,-10.067 L -87.126,-10.067 C -89.781,-9.697 -91.231,-8.107 -91.467,-5.297 L -91.467,0.488 C -91.268,2.722 -89.98,4.142 -87.621,4.749 M -107.622,-10.067 L -107.622,4.749 L -97.281,4.749 C -96.209,4.659 -95.447,4.431 -94.988,4.068 C -94.529,3.698 -94.049,3.151 -93.539,2.433 C -93.102,1.694 -92.895,0.836 -92.917,-0.141 C -92.939,-1.118 -93.28,-2.034 -93.923,-2.907 C -93.59,-3.344 -93.347,-3.751 -93.206,-4.112 C -93.057,-4.483 -92.984,-5.008 -92.984,-5.703 L -92.976,-10.067 L -95.906,-10.067 L -95.935,-6.472 C -95.943,-5.644 -96.046,-5.067 -96.238,-4.742 C -96.43,-4.416 -96.845,-4.268 -97.488,-4.312 L -104.515,-4.32 L -104.515,-10.067 L -107.622,-10.067 z M -104.56,-1.199 L -97.37,-1.199 C -96.823,-1.162 -96.416,-0.984 -96.142,-0.651 C -95.868,-0.318 -95.736,0.03 -95.75,0.407 C -95.758,0.784 -95.906,1.116 -96.194,1.413 C -96.483,1.708 -96.912,1.849 -97.473,1.819 L -104.56,1.826 L -104.56,-1.199 z M -119.93,4.749 L -110.44,4.749 L -110.44,1.708 L -118.828,1.708 C -120.285,1.974 -120.921,1.294 -120.744,-0.326 L -120.744,-1.287 L -110.425,-1.287 L -110.425,-4.076 L -120.847,-4.031 L -120.847,-10.067 L -123.776,-10.067 L -123.776,0.488 C -123.576,2.722 -122.29,4.142 -119.93,4.749"
             style="fill:#4D6373;fill-opacity:1;fillRule:evenodd;stroke:none"
             id="path53" /></g><g
           id="g55"
           transform="translate(265.0025,279.6898)"><path
             d="M 0,0 L 0.919,0 C 1.114,0 1.267,0.02 1.377,0.061 C 1.487,0.101 1.571,0.166 1.628,0.255 C 1.685,0.343 1.714,0.44 1.714,0.544 C 1.714,0.697 1.659,0.823 1.548,0.921 C 1.437,1.02 1.262,1.069 1.022,1.069 L 0,1.069 L 0,0 z M 1.441,-0.297 C 1.653,-0.243 1.817,-0.156 1.932,-0.035 C 2.081,0.123 2.155,0.315 2.155,0.544 C 2.155,0.722 2.11,0.885 2.021,1.031 C 1.931,1.178 1.811,1.28 1.662,1.339 C 1.512,1.396 1.293,1.426 1.005,1.426 L -0.427,1.426 L -0.427,-1.805 L 0,-1.805 L 0,-0.371 L 0.952,-0.371 L 1.882,-1.805 L 2.419,-1.805 L 1.441,-0.297 z M 0.661,2.13 C 1.977,2.13 3.051,1.057 3.051,-0.26 C 3.051,-1.576 1.977,-2.649 0.661,-2.649 C -0.655,-2.649 -1.729,-1.576 -1.729,-0.26 C -1.729,1.057 -0.655,2.13 0.661,2.13 M 0.661,2.581 C 2.226,2.581 3.502,1.305 3.502,-0.26 C 3.502,-1.825 2.226,-3.1 0.661,-3.1 C -0.904,-3.1 -2.18,-1.825 -2.18,-0.26 C -2.18,1.305 -0.904,2.581 0.661,2.581"
             style="fill:#4D6373;fill-opacity:1;fillRule:evenodd;stroke:none"
             id="path57" /></g><g
           id="g59"
           transform="translate(121.238,139.9822)"><path
             d="M 0,0 L 57.909,22.413 C 58.495,22.64 59.163,22.362 59.396,21.788 C 59.51,21.511 59.501,21.213 59.396,20.955 C 60.159,19.06 60.92,17.165 61.682,15.27 C 63.751,11.419 67.782,12.863 69.851,17.677 C 70.295,18.7 71.313,19.139 72.361,19.122 C 71.186,19.292 70.458,20.187 71.649,22.17 C 74.123,24.885 72.982,27.797 74.289,30.722 C 74.543,31.287 75.221,31.548 75.797,31.299 L 146.427,0.709 C 147.002,0.46 147.266,-0.205 147.013,-0.771 C 146.76,-1.336 146.081,-1.596 145.505,-1.348 L 76.435,28.579 L 76.095,28.732 C 75.433,26.026 77.83,23.841 75.897,20.726 C 75.538,19.745 74.025,19.084 72.782,19.091 C 74.546,18.861 76.188,17.382 75.08,15.27 C 71.049,6.125 61.464,5.161 59.558,12.863 C 58.82,14.934 57.928,17.607 57.18,19.716 L 0.85,-2.086 C 0.265,-2.312 -0.403,-2.034 -0.637,-1.461 C -0.87,-0.887 -0.585,-0.227 0,0"
             style="fill:#ffffff;fill-opacity:1;fillRule:evenodd;stroke:none"
             id="path61" /></g><g
           id="g63"
           transform="translate(255.0113,134.2482)"><path
             d="M 0,0 C 0.007,0.717 -0.133,1.213 -0.414,1.494 C -0.696,1.783 -1.228,1.916 -2.004,1.901 L -6.709,1.901 C -7.567,1.901 -8.137,1.715 -8.395,1.338 C -8.661,0.954 -8.802,0.347 -8.817,-0.496 L -8.795,-5.274 C -8.802,-5.962 -8.655,-6.45 -8.351,-6.731 C -8.04,-7.012 -7.486,-7.153 -6.694,-7.145 L -1.983,-7.145 C -1.183,-7.145 -0.658,-7.012 -0.399,-6.738 C -0.148,-6.465 -0.022,-5.97 -0.022,-5.252 L 0,0 z M 2.988,-6.287 C 2.655,-8.684 1.257,-9.934 -1.228,-10.037 L -7.294,-10.067 C -8.684,-10.008 -9.697,-9.601 -10.355,-8.846 C -11.006,-8.092 -11.421,-7.064 -11.599,-5.748 L -11.62,0.502 C -11.458,3.099 -10.03,4.512 -7.338,4.749 L -1.324,4.749 C 1.302,4.594 2.744,3.343 3.01,0.998 L 2.988,-6.287 z M -24.439,-6.273 L -24.439,4.749 L -21.435,4.749 L -21.435,-5.282 C -21.399,-5.97 -21.236,-6.45 -20.948,-6.709 C -20.652,-6.975 -20.149,-7.13 -19.431,-7.168 L -12.841,-7.168 L -12.841,-10.06 L -20.237,-10.06 C -21.34,-9.956 -22.257,-9.586 -23.004,-8.936 C -23.743,-8.285 -24.225,-7.397 -24.439,-6.273 M -37.228,-6.273 L -37.228,4.749 L -34.225,4.749 L -34.225,-5.282 C -34.188,-5.97 -34.025,-6.45 -33.737,-6.709 C -33.441,-6.975 -32.938,-7.13 -32.22,-7.168 L -25.63,-7.168 L -25.63,-10.06 L -33.026,-10.06 C -34.129,-9.956 -35.045,-9.586 -35.793,-8.936 C -36.532,-8.285 -37.014,-7.397 -37.228,-6.273 M -41,4.749 L -38.085,4.749 L -38.085,-10.067 L -41,-10.067 L -41,4.749 z M -59.151,4.785 L -49.055,4.793 C -46.325,4.548 -44.779,3.129 -44.425,0.525 L -44.425,-10.06 L -47.184,-10.06 L -47.184,-0.474 C -47.154,1.176 -47.842,1.967 -49.255,1.909 L -56.148,1.916 L -56.148,-10.037 L -59.159,-10.067 L -59.151,4.785 z M -65.106,-4.046 L -70.594,-3.995 C -71.097,-3.95 -71.74,-3.802 -72.517,-3.551 C -73.301,-3.292 -73.886,-2.825 -74.285,-2.137 C -74.803,-1.383 -75.061,-0.606 -75.054,0.2 C -75.054,0.998 -74.892,1.768 -74.573,2.485 C -74.07,3.187 -73.589,3.676 -73.124,3.935 C -72.665,4.201 -71.889,4.468 -70.816,4.749 L -61.984,4.749 L -61.984,1.738 L -70.402,1.715 C -70.971,1.768 -71.407,1.641 -71.711,1.338 C -72.007,1.035 -72.162,0.695 -72.169,0.311 C -72.177,-0.067 -72.036,-0.414 -71.748,-0.725 C -71.46,-1.044 -71.008,-1.176 -70.402,-1.139 L -64.906,-1.176 C -64.411,-1.221 -63.767,-1.391 -62.99,-1.679 C -62.213,-1.96 -61.622,-2.448 -61.223,-3.136 C -60.712,-3.905 -60.453,-4.69 -60.453,-5.496 C -60.446,-6.302 -60.608,-7.071 -60.927,-7.789 C -61.437,-8.499 -61.925,-8.987 -62.391,-9.253 C -62.849,-9.512 -63.619,-9.786 -64.684,-10.067 L -75.114,-10.067 L -75.114,-7.042 L -65.098,-7.019 C -64.528,-7.101 -64.092,-6.99 -63.782,-6.694 C -63.478,-6.398 -63.315,-6.058 -63.301,-5.673 C -63.286,-5.282 -63.427,-4.919 -63.723,-4.579 C -64.011,-4.238 -64.477,-4.054 -65.106,-4.046 M -87.621,4.749 L -78.131,4.749 L -78.131,1.709 L -86.519,1.709 C -87.976,1.974 -88.612,1.294 -88.435,-0.326 L -88.435,-1.287 L -78.116,-1.287 L -78.116,-4.075 L -88.435,-4.031 L -88.435,-5.089 C -88.701,-6.613 -87.895,-7.323 -86.016,-7.219 L -78.131,-7.219 L -78.131,-10.067 L -87.126,-10.067 C -89.781,-9.697 -91.231,-8.107 -91.467,-5.297 L -91.467,0.489 C -91.268,2.722 -89.98,4.142 -87.621,4.749 M -107.622,-10.067 L -107.622,4.749 L -97.281,4.749 C -96.209,4.659 -95.447,4.431 -94.988,4.068 C -94.529,3.698 -94.049,3.151 -93.539,2.433 C -93.102,1.694 -92.895,0.836 -92.917,-0.141 C -92.939,-1.118 -93.28,-2.034 -93.923,-2.907 C -93.59,-3.344 -93.347,-3.751 -93.206,-4.112 C -93.057,-4.483 -92.984,-5.008 -92.984,-5.703 L -92.976,-10.067 L -95.906,-10.067 L -95.935,-6.472 C -95.943,-5.644 -96.046,-5.067 -96.238,-4.742 C -96.43,-4.416 -96.845,-4.268 -97.488,-4.312 L -104.515,-4.32 L -104.515,-10.067 L -107.622,-10.067 z M -104.56,-1.199 L -97.37,-1.199 C -96.823,-1.161 -96.416,-0.984 -96.142,-0.651 C -95.868,-0.318 -95.736,0.03 -95.75,0.407 C -95.758,0.784 -95.906,1.116 -96.194,1.413 C -96.483,1.709 -96.912,1.849 -97.473,1.819 L -104.56,1.826 L -104.56,-1.199 z M -119.93,4.749 L -110.44,4.749 L -110.44,1.709 L -118.828,1.709 C -120.285,1.974 -120.921,1.294 -120.744,-0.326 L -120.744,-1.287 L -110.425,-1.287 L -110.425,-4.075 L -120.847,-4.031 L -120.847,-10.067 L -123.776,-10.067 L -123.776,0.489 C -123.576,2.722 -122.29,4.142 -119.93,4.749"
             style="fill:#ffffff;fill-opacity:1;fillRule:evenodd;stroke:none"
             id="path65" /></g><g
           id="g67"
           transform="translate(265.0025,127.2813)"><path
             d="M 0,0 L 0.919,0 C 1.114,0 1.267,0.021 1.377,0.061 C 1.487,0.101 1.571,0.166 1.628,0.255 C 1.685,0.344 1.714,0.44 1.714,0.544 C 1.714,0.697 1.659,0.823 1.548,0.921 C 1.437,1.02 1.262,1.069 1.022,1.069 L 0,1.069 L 0,0 z M 1.441,-0.297 C 1.653,-0.243 1.817,-0.156 1.932,-0.035 C 2.081,0.123 2.155,0.315 2.155,0.544 C 2.155,0.722 2.11,0.885 2.021,1.032 C 1.931,1.178 1.811,1.281 1.662,1.339 C 1.512,1.396 1.293,1.426 1.005,1.426 L -0.427,1.426 L -0.427,-1.805 L 0,-1.805 L 0,-0.37 L 0.952,-0.37 L 1.882,-1.805 L 2.419,-1.805 L 1.441,-0.297 z M 0.661,2.13 C 1.977,2.13 3.051,1.057 3.051,-0.26 C 3.051,-1.576 1.977,-2.649 0.661,-2.649 C -0.655,-2.649 -1.729,-1.576 -1.729,-0.26 C -1.729,1.057 -0.655,2.13 0.661,2.13 M 0.661,2.581 C 2.226,2.581 3.502,1.305 3.502,-0.26 C 3.502,-1.825 2.226,-3.1 0.661,-3.1 C -0.904,-3.1 -2.18,-1.825 -2.18,-0.26 C -2.18,1.305 -0.904,2.581 0.661,2.581"
             style="fill:#ffffff;fill-opacity:1;fillRule:evenodd;stroke:none"
             id="path69" /></g></g></g></g></svg>