<?xml version="1.0" encoding="utf-8"?>
<!-- Generator: Adobe Illustrator 23.0.0, SVG Export Plug-In . SVG Version: 6.00 Build 0)  -->
<svg version="1.1" id="Capa_1" xmlns="http://www.w3.org/2000/svg" xmlns:xlink="http://www.w3.org/1999/xlink" x="0px" y="0px"
	 viewBox="0 0 359 465" style="enable-background:new 0 0 359 465;" xml:space="preserve">
<style type="text/css">
	.st0{fill:#01493D;}
</style>
<g>
	<g>
		<path class="st0" d="M139.5,6.4c31,0,61.9,0,92.9,0c1.8,0.2,3.5,0.5,5.3,0.6c20.8,1.1,41.7,1.8,62.4,3.3
			c19.9,1.4,37.1,16.6,40.3,36.3c2.2,13.5,2.4,27.2,3.3,40.9c0.7,10.1,1.1,20.1,1.6,30.2c0,28.2,0,56.3,0,84.5
			c-0.2,2.1-0.5,4.3-0.7,6.4c-1.1,20.4-1.9,40.9-3.3,61.3c-1.5,21.3-19.1,39.5-40.3,41.2c-19,1.5-38,2.3-57.1,3
			c-59.9,2-119.7,1.1-179.5-2.3c-26.3-1.5-44-18.9-45.6-45.2c-1.1-18.9-1.9-37.8-2.4-56.7C14.9,157,15.6,104.2,19,51.4
			c1.4-21.3,19.4-39.8,40.8-41.1c24.1-1.5,48.3-2.2,72.4-3.3C134.7,7,137.1,6.6,139.5,6.4z M45.8,132.2c5.3-1.2,9.3-2.9,13.4-3
			c13.8-0.3,27.6-0.7,41.4,0.2c26.3,1.7,51.5,7.9,74.9,20.4c24.3,12.9,42.5,31.4,51.9,57.7c6.6,18.6,7.2,37.7,5.6,57.2
			c-0.8,9.9-5.4,17-12.2,23.4c-2.2,2.1-4.5,4.1-6.8,6.2c-0.7,0.6-1.2,1.4-2.4,2.8c2.4,0,4,0.2,5.6,0c7.7-0.9,15.5-1.8,23.2-2.7
			c14-1.6,27.4-4.9,39.5-12.6c16.6-10.7,25.3-26.7,30.1-45.2c6.1-23,7.1-46.5,6.5-70.1c-1-37-2.7-73.9-4.3-110.9
			c-0.9-20.9-19.7-37.8-43-30.6c-10.7,3.3-19.7,9.5-28.4,16.4c-14.3,11.2-28.3,22.8-43,33.5c-14.4,10.6-28.2,22.2-44.3,30.2
			c-13.2,6.6-26.8,12.1-42.6,14.2c14.3-8.4,28.2-15.4,39.8-26.2c-14.2-0.5-28.2-0.8-42.2-0.4c-8.1,0.3-16.3,1.2-24.3,2.8
			c-8.1,1.6-15.2,5.7-20.8,13.1c5.3,0.4,9.9,0.8,14.6,1.2c-2.7,8.2-7.1,10.3-13.2,5.6c-6.3-4.9-11.6-3.8-17.1,0.7
			c-0.8,0.6-1.6,1.2-2.5,1.8c-2.6,1.5-3.4,3.9-2.6,6.6C43.6,127.3,45,130.2,45.8,132.2z M130.7,167.6c-0.3-0.4-0.5-0.6-0.6-0.8
			c-0.2-0.3-0.3-0.7-0.4-1.1c-2.9-12.9-10.7-19.9-24-21.5c-19.1-2.4-38-1-56.9,2.3c-3.1,0.5-3.9,1.6-3.9,4.7
			c0.1,19.7,1.4,39.4,4.8,58.8c3.3,18.5,8.1,36.4,17.7,52.8c11.9,20.3,28.8,33,53.2,33.4c13.3,0.2,26.6,0.3,39.9-0.4
			c12.9-0.7,25.6-3.3,37.5-8.9c14.6-6.8,22.9-17.9,23.2-34.4c0.5-25.4-7.5-47.9-22.7-68.1C182.5,162.8,151.5,155.1,130.7,167.6z
			 M158,79.7c-0.4-1.2-0.4-1.6-0.6-1.9c-0.7-0.9-1.4-1.8-2.1-2.7c-12-13.4-25.4-25.3-40.2-35.5c-7.5-5.2-15.5-10-23.9-13.6
			C74.5,19,55.6,27,49.9,42.9c-3.8,10.6-5.4,21.6-4.6,32.8c0.5,7.9,1.8,15.7,5.6,23.5c2.4-1.5,4.6-2.7,6.7-4.1
			c9.1-6,18.8-10.4,29.8-11.1c8.7-0.6,17.3-0.9,26-1.1c8.7-0.2,17.4,0.1,26.1-0.4C145.6,82,151.7,80.6,158,79.7z"/>
		<path class="st0" d="M116.3,431.3c0.8-1.9,1.3-2.9,1.6-3.9c10.7-31.2,21.4-62.4,31.9-93.6c0.8-2.4,1.8-3.5,4.5-3.4
			c5.7,0.2,11.5,0.1,17.7,0.1c4.4,42.8,8.9,85.3,13.3,128.1c-8.4,0-16.4,0-24.9,0c-2.2-33.6-4.4-67-6.6-100.4
			c-0.3,0-0.5-0.1-0.8-0.1c-0.4,1.1-0.9,2.2-1.3,3.3c-9.8,31.1-19.7,62.1-29.4,93.2c-1,3.1-2.3,4.5-5.8,4.4
			c-11.2-0.2-11.2-0.1-14.4-10.7c-9.3-30.5-18.6-61.1-28-91.6c-0.3-0.8-0.6-1.6-1.7-2.4c-3,34.7-5.9,69.4-8.9,104.2
			c-4.3,0-8.2,0-11.6,0c5.8-42.7,11.5-85.2,17.3-128c5,0,9.8-0.2,14.6,0.2c1,0.1,2.4,1.9,2.8,3.2c7.6,24.8,15.2,49.6,22.7,74.4
			C111.6,415.6,113.8,422.9,116.3,431.3z"/>
		<path class="st0" d="M190.9,453.6c1.5-6.9,3-13.5,4.7-20.9c1.3,1.6,2.3,2.6,3.1,3.7c8.4,12.3,22.8,17,36,11.7
			c7.4-2.9,12-8.3,13-16.2c0.9-7.5-2.5-13.3-8.6-17.2c-4.5-2.9-9.5-4.9-14.3-7.3c-6.3-3.1-12.8-5.9-18.9-9.4
			c-13.4-7.8-18.9-19.8-17-34.9c1.9-15,10.2-25.5,24.8-30.1c16-5,30.7-1.6,44.7,7.1c-1.6,5.6-3.1,10.9-4.8,17.2
			c-1.3-1.7-2.1-2.7-2.8-3.7c-7.3-10.7-19-15.1-30.8-11.5c-13.7,4.1-18.2,19.7-8,29.6c4.7,4.6,11,7.7,16.9,11
			c6.5,3.7,13.4,6.9,20.1,10.3c20.1,10.2,19.4,31.8,11.9,45.5c-6.6,12-17.8,17.2-30.7,19.3C217,459.8,204.1,457.8,190.9,453.6z"/>
		<path class="st0" d="M267,453.7c1.5-6.9,3-13.4,4.6-20.9c1.3,1.5,2.3,2.4,3,3.5c8,11.7,21.1,16.6,34.2,12.5
			c8.1-2.5,13.5-7.8,14.8-16.4c1.2-8.2-2.6-14.4-9.4-18.3c-6.6-3.8-13.8-6.6-20.7-10c-3.8-1.8-7.6-3.7-11.2-5.8
			c-13.3-7.8-19.6-20.7-17.5-35.5c2.2-15.4,12.2-26.8,27-30.5c14.4-3.6,27.9-0.9,40.5,6.5c0.9,0.5,1.9,2,1.7,2.8
			c-1.2,4.9-2.7,9.7-4.4,15.5c-1.3-1.6-2.1-2.7-2.9-3.9c-7.5-10.9-20.2-15.2-31.9-10.8c-12.6,4.8-16.5,19.3-6.9,28.8
			c4.8,4.7,11.2,7.9,17.1,11.3c6.5,3.7,13.4,6.8,20.1,10.3c17.2,9,19.8,25,13.9,41.4c-3.6,10-11.1,16.5-20.8,20.3
			C301.2,461.1,284.1,458.9,267,453.7z"/>
		<path class="st0" d="M39.2,458.5c-6.3,0-12.5,0-18.7,0c2.3-42.7,2-85.2-0.7-127.7c5.9,0,12,0,18.3,0
			C35.8,373.5,36.8,415.8,39.2,458.5z"/>
		<path class="st0" d="M237.1,69.3c-4.8,6.2-10.2,12-14.4,18.5c-5.4,8.6-6.8,18.3-3.5,28c5.2,15.3,11,30.5,16.7,45.7
			c5.3,13.9,10.6,27.6,12.9,42.4c1.8,11.7,0.7,23.2-1.1,34.7c-0.1,0.9-0.9,1.8-1.3,2.7c-0.3-0.1-0.6-0.2-1-0.2
			c-0.3-4.4-0.5-8.8-1-13.2c-2.1-17.5-8.2-33.8-16.2-49.2c-9.2-17.7-18.9-35.1-28.4-52.6c-1.3-2.4-2.5-4.8-3.4-7.3
			c-2.9-7.7-2.3-14.7,3.6-21.3c9.7-11,20.6-20.2,34-26.4c1.2-0.6,2.5-1,3.8-1.5C237.5,69.5,237.3,69.4,237.1,69.3z"/>
		<path class="st0" d="M171.8,201.3c-0.6,4.5-3.4,6.6-6.7,7.6c-5.3,1.6-10.7,2.6-16,4c-3.1,0.8-6.2,1.7-9.1,3
			c-4.2,1.8-7.2,4.8-8.4,9.3c-0.2,0.9-0.8,1.7-1.2,2.5c-0.3-0.1-0.6-0.2-0.9-0.3c0.7-2.2,1.2-4.5,2.1-6.6c2.2-5,2.5-10,1.2-15.3
			c-1.2-4.7-2.2-9.5-2.8-14.3c-1.6-13.1,6.5-22.3,19.8-22.7c13.3-0.3,24.7,4.6,33.9,13.8c19.3,19.6,25.2,43.5,19.8,69.9
			c-3.7,17.8-17.7,28.5-36.4,29.7c-9.6,0.6-18.9-0.8-27.9-4c-6.1-2.2-10.5-6.4-14.1-12.9c10.5,2.8,20,3.6,29-1.6c0-0.5,0-1,0.1-1.5
			c-4.6-0.4-9.1-0.9-13.7-1.2c-3.3-0.2-6.7,0.2-9.9-0.2c-4.2-0.6-8-2.3-9.3-6.9c-1.5-5.1-0.2-9.8,3.4-13.5
			c7.6-7.9,21.3-4.8,24.8,5.6c0.2,0.7,0.6,1.4,1.1,1.8c4.6,3.5,4.6,3.5,1.9,8.6c6.4,4.3,13.3,4.4,20.4,2.7
			c10-2.4,16.6-10.2,17.2-21.9c1.1-22.8-7.5-41.7-24.9-56.4c-7.4-6.3-15.6-6.6-22.4-2.2c-4.8,3.1-6.5,8.3-4.6,13.7
			c3.8,10.5,17,16.7,27.5,12.9C167.7,204.3,169.4,202.8,171.8,201.3z"/>
	</g>
</g>
</svg>
