<?xml version="1.0" encoding="UTF-8" standalone="no"?>
<!-- Generator: Adobe Illustrator 22.0.1, SVG Export Plug-In . SVG Version: 6.00 Build 0)  -->

<svg
   xmlns:dc="http://purl.org/dc/elements/1.1/"
   xmlns:cc="http://creativecommons.org/ns#"
   xmlns:rdf="http://www.w3.org/1999/02/22-rdf-syntax-ns#"
   xmlns:svg="http://www.w3.org/2000/svg"
   xmlns="http://www.w3.org/2000/svg"
   xmlns:sodipodi="http://sodipodi.sourceforge.net/DTD/sodipodi-0.dtd"
   xmlns:inkscape="http://www.inkscape.org/namespaces/inkscape"
   version="1.0"
   id="Capa_1"
   x="0px"
   y="0px"
   viewBox="0 0 4724 2789"
   enable-background="new 0 0 4724 2789"
   xml:space="preserve"
   sodipodi:docname="Logo_Petróleos_Mexicanos.svg"
   inkscape:version="0.92.2 (5c3e80d, 2017-08-06)"><metadata
     id="metadata102"><rdf:RDF><cc:Work
         rdf:about=""><dc:format>image/svg+xml</dc:format><dc:type
           rdf:resource="http://purl.org/dc/dcmitype/StillImage" /><dc:title></dc:title></cc:Work></rdf:RDF></metadata><defs
     id="defs100" /><sodipodi:namedview
     pagecolor="#fcfcfc"
     bordercolor="#4D6373"
     borderopacity="0"
     objecttolerance="10"
     gridtolerance="10"
     guidetolerance="10"
     inkscape:pageopacity="0"
     inkscape:pageshadow="2"
     inkscape:window-width="1600"
     inkscape:window-height="837"
     id="namedview98"
     showgrid="false"
     inkscape:zoom="0.12011474"
     inkscape:cx="4017.4565"
     inkscape:cy="2008.0285"
     inkscape:window-x="-8"
     inkscape:window-y="-8"
     inkscape:window-maximized="1"
     inkscape:current-layer="Capa_1" /><path
     d="m 2253.4866,827.16633 c 27.179,1.37142 54.4827,2.74283 81.6617,2.11946 18.8258,-0.49869 37.5269,0.87272 56.3528,1.49609 33.9114,0.9974 67.8228,1.99479 101.7342,2.36882 13.3401,0.12467 26.1816,3.49088 39.5217,3.24153 9.974,-0.12468 19.9479,0.62337 29.9219,0.62337 7.7298,0 8.7272,-1.74544 6.483,-8.97655 -1.2467,-4.11425 -3.2415,-7.97916 -5.6103,-11.59471 -17.8284,-27.67769 -41.2672,-49.37102 -70.5657,-64.45661 -21.1946,-10.97134 -43.7606,-15.33494 -67.5734,-12.09341 -17.8285,2.49349 -35.7816,2.24414 -53.7347,3.61555 -57.9735,4.48828 -116.0717,7.48046 -174.1699,10.72199 -42.14,2.36882 -84.2799,5.23633 -126.2951,7.85449 -43.1373,2.61816 -86.2746,5.36099 -129.4119,7.97915 -57.3502,3.36621 -114.8251,6.48306 -172.1752,9.84927 -10.9714,0.62337 -21.818,1.74544 -32.7894,2.61816 -1.9948,0.12467 -3.9896,0.37402 -5.9844,0.4987 -11.5947,0.24935 -12.9661,-0.62337 -15.7089,-11.71939 -6.4831,-26.1816 -12.3428,-52.3632 -13.3402,-79.41753 -0.9974,-24.68551 0.9974,-48.997 5.361,-73.55783 5.735,0.49869 8.3532,4.8623 11.4701,7.97915 33.7867,33.16337 72.3111,59.46964 115.573,78.54481 14.5869,6.48307 29.5479,11.59471 45.1321,15.33494 13.4649,3.24153 23.3141,-1.24674 31.0439,-12.09341 19.0752,-26.80497 38.3997,-53.48527 57.5996,-80.16557 10.2233,-14.33755 20.4466,-28.67509 30.5452,-43.13731 78.2954,-111.83285 158.5857,-222.29428 237.8785,-333.37908 53.1113,-74.43055 106.3472,-148.61176 159.5831,-223.04232 6.2338,-8.727201 6.7325,-8.727201 12.0934,-0.623372 73.6826,110.212082 147.4897,220.424162 221.1723,330.636242 50.2437,75.1786 100.6121,150.23253 150.8559,225.28646 55.48,82.78374 110.8354,165.69215 166.4401,248.47588 19.1999,28.67509 31.792,60.46704 42.7633,93.00703 24.3115,72.31109 34.1608,146.86637 29.6725,222.91767 -6.8571,117.1938 -39.2724,226.6579 -106.9705,323.1558 -91.0123,129.7859 -213.6918,214.4398 -369.1606,250.2213 -60.4671,13.8388 -121.5575,16.5817 -183.2713,12.3427 -50.2437,-3.4908 -99.3654,-13.2154 -147.739,-27.0543 -7.1064,-1.9948 -14.2129,-3.2415 -21.5687,-3.2415 -157.5883,0.9974 -315.1766,1.8701 -472.7649,2.7428 -111.0848,0.6234 -222.0449,0.9974 -333.1297,2.1195 -51.7399,0.4987 -103.6044,1.6207 -155.3442,0.4987 -3.4909,-0.1247 -7.3558,0.8727 -10.722,-2.2442 2.9922,-7.1064 7.8545,-13.0908 11.7194,-19.5738 5.361,-8.8519 11.096,-17.4544 16.3323,-26.1816 3.9896,-6.6078 9.2259,-9.7246 17.2051,-9.4753 46.1295,1.8701 92.3836,3.4909 138.5131,5.1117 23.3141,0.8727 46.5035,1.7454 69.8176,2.4935 55.4801,1.6207 110.9602,3.1168 166.4402,4.8623 99.3654,3.2415 198.7309,6.6077 297.9716,10.0986 73.0591,2.4935 146.1183,5.2363 219.3021,7.8545 1.6208,0 3.3662,0.2493 4.987,0.1246 6.9817,-0.1246 7.7298,-0.8727 8.4778,-8.1038 0,-0.374 0,-0.6234 0,-0.9974 0.2494,-26.6803 4.8623,-52.8619 10.348,-78.9188 0.374,-1.8701 0.6234,-3.8649 0.9974,-5.735 -2.6182,-1.9948 -5.361,-1.2468 -7.9792,-1.1221 -66.4514,1.6208 -132.9028,4.8623 -199.2295,7.7298 -37.153,1.4961 -74.4306,2.8675 -111.5835,4.3636 -83.6565,3.2415 -167.4376,6.4831 -251.0941,9.7246 -39.8957,1.4961 -79.6668,2.9922 -119.5626,4.4883 -62.4618,2.4935 -124.9237,4.9869 -187.3855,7.3557 -8.8519,0.3741 -17.7037,0 -26.805,0 -0.1246,-4.2389 2.6182,-6.857 4.7377,-9.7245 17.205,-23.6882 34.6594,-47.1269 51.7398,-70.815 4.7376,-6.6078 10.0986,-9.6 18.4518,-8.8519 16.831,1.6207 33.7867,2.6181 50.6178,3.1168 14.2128,0.3741 28.5504,-0.2493 42.7633,0.4987 37.5269,2.1195 75.0539,3.3662 112.5808,4.4883 13.9636,0.374 27.6777,2.3688 41.6413,2.8675 13.5895,0.4987 27.179,-0.1247 40.7685,0.6234 39.5217,2.1194 79.0435,3.1168 118.5652,4.7376 58.0982,2.3688 116.1965,4.8623 174.4194,7.2311 37.5269,1.4961 75.0539,2.9922 112.5809,4.3636 44.1347,1.7455 88.394,3.3662 132.5287,5.1117 7.9792,0.2493 9.7246,-0.3741 11.2207,-6.6078 6.8571,-28.4257 16.3324,-56.1034 27.6777,-83.0331 0.7481,-1.7454 1.1221,-3.7402 1.9948,-6.857 -285.3795,12.3427 -569.8862,22.6907 -853.8943,35.6568 -2.4935,-3.6155 -0.1246,-5.6103 1.3714,-7.6051 18.7012,-25.4336 37.6517,-50.7425 56.2282,-76.176 3.7402,-5.1117 8.6025,-6.6078 14.7115,-6.3584 26.9297,1.2467 53.8593,2.1195 80.6643,3.2415 20.9453,0.8727 41.8906,1.9948 62.7112,2.7429 62.4618,2.3688 124.9236,4.4882 187.3854,6.857 90.6383,3.3662 181.4011,6.7325 272.0394,10.0987 54.4826,1.9947 108.9653,3.9895 163.448,5.9843 7.3558,0.2494 14.5869,0.9974 21.9426,1.4961 6.8571,0.4987 11.4701,-2.3688 14.0882,-8.7272 10.5974,-25.3089 26.057,-47.7502 41.1426,-70.441 1.8701,-2.7428 3.6155,-5.6103 5.2363,-8.4778 0.4987,-0.7481 0.374,-1.8701 0.8727,-4.3636 -278.7717,10.0986 -557.0448,20.4466 -835.4425,30.5452 -0.6234,-5.1117 2.2442,-7.3558 3.9896,-9.974 17.3297,-24.0621 34.7841,-47.8749 51.8645,-71.937 5.1116,-7.2311 11.3454,-10.2233 20.3219,-9.7246 36.5296,1.9948 73.0592,3.6155 109.5887,5.2363 78.4202,3.2415 156.7156,6.3584 235.1358,9.5999 39.5217,1.6208 79.0435,2.9922 118.5652,4.7376 70.067,2.9922 140.1339,6.2338 210.2009,9.2259 33.9114,1.4961 67.8228,2.4935 101.6095,3.8649 6.7324,0.2494 11.2207,-3.1168 15.0856,-7.9791 16.2077,-20.3219 33.7868,-39.2724 52.1139,-57.7242 5.361,-5.4857 10.8466,-10.722 16.2076,-16.2077 2.4935,-2.4935 4.613,-5.361 6.7325,-7.9791 -2.3689,-2.9922 -4.8623,-1.6208 -6.9818,-1.4961 -48.8723,1.6207 -97.62,3.2415 -146.4923,4.987 -79.4175,2.8675 -158.8351,5.9843 -238.1279,8.9765 -44.8828,1.6208 -89.6408,3.1169 -134.5236,4.7376 -86.6486,3.1169 -173.4219,6.2337 -260.0706,9.3506 -19.9479,0.748 -39.8958,1.4961 -59.8436,2.1195 -1.3715,0 -2.6182,0.1246 -3.9896,0.1246 -4.2389,-0.374 -5.361,-1.9948 -2.8675,-5.735 4.2389,-6.3584 8.8518,-12.4674 13.3401,-18.5765 7.7298,-10.3479 7.7298,-10.2232 0,-20.5712 -7.6051,-10.0986 -15.2102,-20.1972 -22.566,-30.4205 -2.7429,-3.8649 -6.4831,-6.6078 -9.8493,-9.7246 -1.8701,-1.7455 -3.9896,-4.239 -2.7428,-6.9818 1.122,-2.6182 4.1142,-1.4961 6.2337,-1.3714 25.3089,0.8727 50.4931,1.7454 75.802,2.7428 20.9452,0.8727 41.7658,2.1195 62.7111,2.8675 43.8854,1.6208 87.6461,2.9922 131.5314,4.7377 18.3271,0.748 36.5296,2.2441 54.8567,1.8701 3.1169,0 6.8571,1.3714 8.9766,-2.4935 0.6233,-0.9974 1.9947,-1.3714 2.4934,-0.8727 5.4857,6.2337 12.5921,2.6181 18.7012,2.8675 77.4227,3.3662 154.7208,6.3584 232.1435,9.4752 36.5296,1.4961 73.0592,2.8675 109.5887,4.3636 28.5505,1.1221 57.2255,1.6208 85.6513,3.7402 19.5739,1.4961 39.1477,0.8728 58.5969,2.3689 21.1946,1.6207 42.5139,1.3714 63.5839,3.2415 7.3558,0.6234 13.5895,-0.6234 19.8232,-4.613 24.6855,-16.2076 52.3632,-24.1868 81.163,-28.4257 43.5113,-6.3584 86.2746,-2.3688 128.1652,10.2233 17.0803,5.1116 32.914,14.2129 46.8775,25.6829 6.9818,5.735 14.0882,7.6051 22.8154,7.3558 28.3011,-0.7481 56.4775,-1.1221 84.7785,-1.3714 14.3376,-0.1247 28.5504,0.374 42.888,0.374 10.4726,0 11.096,-0.374 12.7168,-10.8467 3.9895,-26.3063 5.2363,-52.8619 4.6129,-79.5422 -0.1247,-8.2285 -1.4961,-9.5999 -9.3506,-9.2259 -36.1555,1.9948 -72.4357,0.1247 -108.716,2.3688 -8.9765,0.4987 -17.9531,0.4987 -26.9296,0.6234 -89.3915,1.6208 -178.7829,3.2415 -268.1744,4.8623 -31.9166,0.6234 -63.8333,0.9974 -95.7499,1.8701 -77.4227,1.8701 -154.8455,2.4935 -232.2682,4.4883 -94.7525,2.3688 -189.3803,3.8649 -284.1327,5.735 -60.4671,1.2468 -120.9341,2.3688 -181.5258,3.7402 -50.2438,0.9974 -100.3628,2.1195 -150.6066,3.2416 -2.9922,0.1246 -5.9843,-0.1247 -8.9765,0.1246 -4.987,0.3741 -7.9792,-1.496 -9.7246,-6.483 -9.7246,-27.3037 -17.0804,-55.3554 -19.5739,-84.1552 -1.8701,-21.3193 -4.1142,-42.7633 -1.8701,-64.33191 1.1221,-11.09601 2.6182,-22.19202 3.8649,-32.78934 3.4909,-1.24674 4.7376,0.87272 5.9844,2.11946 28.1764,28.42574 61.9631,48.99699 96.7472,67.94749 19.5739,10.5973 39.8958,19.6985 60.4671,28.1764 13.9635,5.735 28.5504,8.4779 43.7606,8.7272 52.2386,1.1221 104.3524,2.2441 156.4663,3.7402 87.0227,2.6182 174.17,4.3636 261.1927,6.2337 77.0487,1.6208 154.2221,3.8649 231.2708,5.7351 81.7863,1.9947 163.448,3.9895 245.2343,5.9843 82.4097,1.9948 164.8195,3.9896 247.2292,5.9844 9.5999,0.2493 19.3245,0.748 28.9244,0.9974 8.4779,0.2493 8.4779,-0.2494 8.9766,-8.9766 0.2493,-5.4856 -1.6208,-10.3479 -2.6182,-15.5842 -1.7454,-9.8493 -3.1169,-19.6986 -5.6104,-29.2985 -2.8675,-10.9713 -6.483,-21.5687 -10.2232,-32.2907 -2.3689,-6.60769 -6.2338,-9.35053 -13.4649,-9.10118 -21.5686,0.74805 -43.1373,1.24675 -64.8306,1.62077 -105.3498,1.74544 -210.6996,3.24153 -316.174,4.98697 -76.7994,1.24674 -153.5988,2.61814 -230.3981,3.86494 -80.1656,1.3714 -160.2065,2.6181 -240.3721,3.9895 -75.4279,1.2468 -150.8559,2.6182 -226.4085,3.9896 -36.5296,0.6234 -73.1838,0.9974 -109.7134,1.9948 -7.9792,0.2494 -12.8415,-2.3688 -17.5791,-8.6025 -16.3323,-21.81802 -27.6777,-46.00484 -35.7815,-71.93709 -2.4935,-8.10383 -0.9974,-10.09862 7.7298,-9.97394 14.5869,0.24935 29.2985,1.49609 43.8854,1.24674 29.1737,-0.37402 57.9735,4.3636 87.0226,5.48567 22.192,0.87272 44.5087,0.62337 66.7008,1.74544 28.1764,1.49609 56.4774,2.36881 84.6538,3.61555 31.1686,1.37142 62.4618,2.36882 93.6304,3.49088 13.9635,0.4987 27.8024,0.12468 41.7659,-0.49869 19.1999,-0.87272 38.5244,0.87272 57.7242,1.49609 35.9062,1.24674 71.6877,2.61816 107.5939,3.8649 30.9193,1.12207 61.7138,2.49349 92.633,3.49088 9.1013,0.37403 18.2025,0 27.3037,0 0.1247,-0.62337 0.374,-1.37142 0.4987,-1.99479 -31.4179,-17.20505 -62.8358,-34.53478 -94.1291,-51.73983 0.2494,-0.62337 0.374,-1.37142 0.6234,-1.99479 10.4726,-0.4987 20.8206,-1.12207 31.2932,-1.37142 37.527,-0.99739 75.054,-1.74544 112.7056,-2.74283 19.3245,-0.4987 38.5244,-0.9974 57.8489,-1.62077 12.7168,-0.37402 25.3089,0.87272 37.7763,1.99479 22.9401,2.24414 37.901,14.46222 44.5087,36.65425 1.6208,5.36099 2.6182,10.97133 4.2389,16.33233 4.3636,14.58689 8.9766,17.9531 24.3115,18.20245 59.2203,0.87272 118.3159,1.49609 177.5362,2.61816 41.2672,0.74804 82.4097,1.87011 123.6769,2.74283 2.6182,0 5.361,0.9974 8.1039,-1.74544 0.1246,-2.74283 -2.1195,-4.8623 -3.7403,-7.23111 -21.9426,-32.78934 -50.8671,-57.59952 -85.6512,-75.92665 -12.5921,-6.60773 -25.6829,-12.46743 -38.7737,-18.07777 -6.6078,-2.86751 -13.2155,-3.74023 -20.4466,-3.36621 -36.9036,1.87012 -73.6825,3.61556 -110.5861,5.11165 -80.6643,3.36621 -161.4532,6.48306 -242.1175,9.7246 -41.1425,1.62076 -82.4097,2.99218 -123.5522,4.61294 -79.6669,3.11686 -159.4585,6.23372 -239.1253,9.35058 -39.1478,1.49609 -78.4202,2.99218 -117.5679,4.48827 -78.4201,3.11686 -156.7156,6.23372 -235.1357,9.35057 -6.3584,0.24935 -12.5921,0.4987 -18.9505,0.62338 -7.8545,0.12467 -8.4779,-0.37403 -9.7246,-7.85449 -3.2415,-19.69853 -4.8623,-39.52175 -4.7376,-59.59431 0.1246,-14.96092 1.3714,-29.92183 3.4908,-44.6334 0.3741,-2.74283 -0.6233,-6.48306 3.2416,-7.60513 3.4909,-0.87272 5.361,1.99479 7.3558,4.11425 22.0673,22.8154 46.7528,42.26459 73.9318,58.84627 22.9401,13.96352 47.3762,23.81279 73.3085,30.42053 3.4909,0.87272 7.1064,1.99479 10.5973,0.37402 1.3714,-3.49088 -1.2467,-5.61034 -2.7428,-8.10383 -7.3558,-12.21808 -14.4622,-24.68551 -20.4466,-37.65164 -1.1221,-2.36881 -2.2441,-4.86229 -2.9922,-7.35578 -2.2441,-6.98176 -1.3714,-8.47785 5.8597,-8.60253 11.3454,-0.12467 22.5661,0.24935 33.9114,0.62337 46.2542,1.24675 92.3837,2.36882 138.5132,3.61556 94.7524,2.61816 189.3802,5.36099 284.1327,8.10383 3.2415,0.12467 6.6077,-0.12468 9.8493,-0.12468 15.3349,1.74544 30.6698,0.37403 45.8801,0.74805 3.3662,0 5.735,-0.74805 7.7298,0.87272 z"
     id="path59"
     inkscape:connector-curvature="0"
     style="fill:#4D6373;stroke-width:1.24674296" /><path
     d="m 1007.9904,2503.1629 c -4.239,0.3741 -5.361,3.2416 -5.361,6.9818 0,26.5556 -0.3741,53.2359 0.374,79.7916 0.374,15.9583 10.5973,25.5582 26.4309,27.179 3.9896,0.374 7.9792,0.374 11.9688,0.374 170.1804,0 340.4855,0 510.6659,0 1.3714,0 2.6182,0 3.9896,0 21.3193,-0.374 32.6646,-11.4701 33.1633,-32.54 0.1247,-7.3558 0.1247,-14.5869 0.1247,-21.9427 0,-155.5935 0,-311.187 0,-466.7806 0,-13.9635 0,-13.8388 13.4648,-13.8388 51.4905,-0.1247 103.1057,0.1247 154.5962,-0.4987 23.4387,-0.2494 42.7633,7.8545 58.7216,24.6855 10.3479,10.8467 18.9505,23.0647 26.9296,35.7815 36.4049,58.3476 68.0722,119.438 99.4901,180.5284 30.6699,59.719 60.8411,119.5627 95.5005,177.1622 7.3558,12.2181 14.9609,24.4362 22.4414,36.5296 1.2467,1.9947 2.4935,3.9895 3.9896,5.735 3.4909,3.8649 5.735,3.8649 8.8519,-0.2494 1.9947,-2.6181 3.4908,-5.6103 5.1116,-8.4778 72.9345,-129.2873 144.6222,-259.3226 216.4346,-389.3579 4.8623,-8.7272 9.9739,-17.205 15.5843,-25.5582 15.9583,-23.6881 37.5269,-36.6542 66.8254,-36.2802 31.2932,0.374 62.4618,0 93.7551,0 18.9505,0 37.901,0 56.8514,0 10.9714,0 11.0961,0.1247 11.0961,11.2207 0,90.1395 0,180.1543 0,270.2939 0,129.6612 0,259.3225 0,388.9838 0,13.4648 0,13.4648 -13.8389,13.4648 -46.8775,0 -93.7551,0 -140.6326,0 -1.6208,0 -3.3662,0 -4.987,0 -8.7272,-0.2494 -9.8492,-1.3714 -10.0986,-9.7246 -0.1247,-2.3688 0,-4.613 0,-6.9818 0,-123.3028 0,-246.7304 0,-370.0333 0,-3.6155 0.8727,-7.2311 -0.9974,-11.3453 -3.8649,1.3714 -5.1116,4.9869 -6.7324,7.8544 -66.8254,120.9341 -133.5262,241.8682 -200.3516,362.8022 -2.9922,5.4857 -6.8571,10.5974 -10.2233,15.9584 -4.6129,7.4804 -11.7194,10.4726 -20.0725,11.096 -3.9896,0.2493 -7.9792,0.2493 -11.9688,0.374 -33.5374,0 -67.1994,-0.8727 -100.7368,0.374 -19.1999,0.7481 -31.4179,-6.7324 -40.0205,-23.0647 -14.2128,-26.6803 -29.1738,-52.9866 -43.7606,-79.4176 -50.8672,-92.5083 -101.7343,-185.1413 -152.6014,-277.6496 -2.4935,-4.613 -4.6129,-9.4753 -7.1064,-14.0882 -0.4987,-1.1221 -0.8727,-2.7429 -2.6182,-2.4935 -1.7454,0.374 -2.8675,1.7454 -2.9922,3.3662 -0.2493,1.9948 -0.1246,3.9896 -0.1246,5.9844 0,110.0874 -0.2494,220.0501 0.2493,330.1375 0.1247,22.4414 -9.8493,37.7763 -27.179,50.1191 -5.8597,4.1142 -12.2181,6.6077 -19.4492,6.9817 -8.3532,0.3741 -16.5817,0.9974 -24.9348,1.1221 -63.2099,0.1247 -126.2951,0 -189.505,0 -55.2307,0 -110.3367,-0.2493 -165.5674,0.2494 -98.9914,1.122 -198.1075,0.4987 -297.0989,0.748 -48.87233,0.1247 -97.74466,0.1247 -146.61698,0.2494 -10.34797,0 -20.57126,-0.4987 -30.29586,-4.613 -21.3193,-9.2259 -32.78934,-25.1842 -34.03608,-48.3736 -0.37402,-6.6078 -0.12467,-13.3402 -0.12467,-19.9479 0,-181.5258 0,-363.0516 0,-544.5774 0,-5.6103 0.37402,-11.3453 0.24934,-16.9557 -0.74804,-25.4335 23.56345,-49.6203 49.37103,-50.8671 22.3167,-0.9974 44.50872,-0.748 66.82542,-0.748 169.557,0.1247 339.1141,0.2493 508.6711,0.4987 18.4518,0 16.5817,-1.4961 16.5817,16.5817 0.1247,41.8905 0,83.7811 0,125.6717 0,0.6233 0,1.3714 0,1.9947 0,12.7168 0,12.7168 -12.3427,12.7168 -29.2985,0.1247 -58.4723,0.1247 -87.7707,0.2494 -111.0848,0.2493 -222.045,0.374 -333.1298,0.6233 -4.9869,0 -9.9739,-0.1246 -14.9609,0.4987 -14.2129,1.8702 -23.1894,11.8441 -23.5634,26.1816 -0.4987,23.9375 -0.9974,47.875 -1.3714,71.8124 -0.1247,4.239 -0.7481,8.8519 3.6155,11.7194 3.8649,1.7455 7.8545,0.8727 11.8441,0.8727 131.656,0 263.3121,0 394.8435,0 11.2207,0 11.2207,0 11.2207,11.3454 0,43.262 0,86.3993 0,129.6613 0,3.2415 0.748,6.6077 -0.7481,9.8492 v 0 c -2.8675,1.3715 -5.8597,0.7481 -8.8519,0.7481 -132.6534,0 -265.4315,0 -398.085,0 -2.9922,0 -5.9844,0.4987 -8.9765,-0.7481 z"
     id="path61"
     inkscape:connector-curvature="0"
     style="fill:#4D6373;stroke-width:1.24674296" /><path
     d="m 3983.4672,2512.2642 c -0.6234,0.9974 -3.1169,0.748 -2.2441,2.3688 0.9974,1.9948 2.7428,3.7402 4.2389,5.4856 24.6855,29.1738 49.745,58.0983 74.0565,87.6461 7.8545,9.5999 16.5817,13.9635 29.0491,13.8388 31.5426,-0.4987 63.2099,-0.1246 94.7525,-0.2493 11.096,0 10.0986,-0.1247 10.2233,9.3506 0.2493,43.2619 0.4987,86.3992 0.748,129.6612 0,9.7246 -0.374,10.0986 -10.0986,10.0986 -63.2098,0 -126.295,0 -189.5049,0 -6.6078,0 -13.2155,-0.8727 -19.8232,-1.3714 -13.5895,-1.122 -23.6881,-7.7298 -32.166,-17.8284 -18.0778,-21.6933 -36.0309,-43.5113 -54.1086,-65.2047 -28.4258,-34.2854 -56.8515,-68.5708 -85.2773,-102.8563 -1.8701,-2.2441 -3.2415,-5.1116 -7.1064,-6.109 -4.6129,4.7376 -9.5999,9.5999 -14.0882,14.8362 -17.3297,20.5713 -35.1581,40.7685 -51.4905,62.2125 -17.8284,23.4388 -36.9036,46.0048 -55.106,69.0696 -6.4831,8.2285 -13.8389,15.9583 -20.1973,24.3115 -11.47,15.0856 -27.4283,20.0725 -45.3814,20.9453 -5.6103,0.2493 -11.3454,0 -16.9557,0 -281.2652,0 -562.4058,0 -843.671,0 -11.3454,0 -22.3167,-0.7481 -33.4127,-3.7403 -26.805,-7.2311 -45.1321,-28.9244 -46.6282,-56.6021 -0.1247,-2.3688 -0.1247,-4.613 -0.1247,-6.9818 0.1247,-181.7751 0.3741,-363.6749 -0.4987,-545.45 -0.1246,-13.9636 2.4935,-27.179 9.8493,-39.0231 13.7142,-21.9427 33.6621,-34.1607 59.4696,-34.1607 91.7603,-0.1247 183.5206,0.374 275.1562,0.4987 51.8645,0.1246 103.729,0 155.5935,0 43.5114,0 87.1474,0.1246 130.6587,0.1246 1.6208,0 3.3662,0 4.987,0 8.1038,0.2494 8.3532,0.4987 8.4778,8.4779 0.1247,5.9843 0,11.9687 0,17.9531 -0.1246,31.5426 -0.4987,63.2098 0,94.7524 0.1247,8.8519 1.4961,17.8285 1.2468,26.805 -0.1247,2.2442 0.6234,4.7376 -1.1221,6.6078 -10.348,2.2441 -20.8206,1.7454 -31.2932,1.7454 -135.147,0 -270.1692,0 -405.3162,0.1247 -4.8623,0 -10.0986,-1.6208 -14.3375,2.2441 -3.2416,1.6208 -6.3584,3.3662 -9.5999,4.987 -12.7168,6.6077 -20.4466,16.831 -21.3194,31.4179 -1.3714,22.192 -0.8727,44.5087 -0.748,66.8254 0,6.6078 1.8701,7.7298 9.8493,7.8545 23.3141,0.1247 46.5035,0 69.8176,0 86.0252,-0.1247 172.1752,-0.374 258.2005,-0.4987 22.3167,0 44.5087,-0.2493 66.8254,-0.2493 10.722,0 10.9713,0.2493 10.9713,11.3453 0,43.5114 0,87.0227 0,130.6587 0,1.3714 0,2.6182 0,3.9896 0,4.3636 -1.6207,6.9817 -6.483,6.6077 -2.6182,-0.2493 -5.361,0 -7.9792,0 -128.2899,-0.1247 -256.5797,-0.2493 -384.8696,-0.4987 -16.7063,0 -14.9609,-0.374 -14.9609,15.335 -0.1247,20.9452 0.374,41.8905 -0.1247,62.8358 -0.4987,19.5739 12.0934,33.6621 30.9193,36.5296 6.9817,0.9974 13.8388,1.4961 20.8206,1.4961 179.1569,-0.6234 358.3139,-1.1221 537.3462,-1.7455 33.9114,-0.1247 67.8228,-0.374 101.7342,0.1247 14.4623,0.2493 25.4336,-4.987 34.6595,-15.9583 30.5452,-36.4049 61.4644,-72.5605 92.259,-108.5913 12.4674,-14.5869 25.9322,-28.4258 37.4023,-43.8854 9.7246,-13.0908 9.8492,-19.5738 -0.8728,-31.7919 -46.0048,-52.3632 -92.2589,-104.6018 -138.3884,-156.8403 -1.4961,-1.7454 -3.3662,-3.2415 -4.8623,-4.987 -10.4727,-11.47 -22.9401,-16.457 -38.8984,-15.8336 -27.179,1.1221 -54.4827,0.374 -81.7863,0.374 -2.4935,0 -5.361,0.8727 -7.3558,-1.7454 10.8466,-1.9948 21.6933,-0.7481 32.54,-0.8727 23.9374,-0.2494 47.8749,-0.1247 63.4592,-0.1247 -26.431,0.748 -61.3398,-1.3714 -96.1239,0.8727 -4.1143,-3.1169 -3.1169,-7.7298 -3.1169,-11.8441 0,-44.5087 0.1247,-89.1421 0.2494,-133.6508 0,-10.0986 0.1247,-10.2233 9.8493,-10.2233 53.2359,0 106.3471,0 159.5831,0 16.5816,0 31.2932,5.361 44.6334,14.8362 7.7298,5.361 14.3375,11.9688 20.4465,18.9505 16.9557,19.0752 33.7868,38.5244 49.6204,58.4723 18.5765,23.4388 38.5244,45.6308 56.9762,69.1942 12.8414,16.457 26.6803,32.2907 40.1451,48.3736 1.8701,2.2442 3.7402,4.613 5.8597,6.8571 6.109,6.6078 8.2285,6.7324 14.3375,-0.374 13.8389,-16.083 26.9297,-32.914 41.2672,-48.623 14.0882,-15.4596 27.3037,-31.6672 40.8932,-47.6255 20.1972,-23.8128 40.1451,-47.875 60.2177,-71.6878 10.3479,-12.2181 22.192,-22.94 35.1581,-32.2906 12.7168,-9.2259 26.9297,-14.2129 42.7633,-14.2129 50.2438,0 100.3628,0 150.6066,0 9.2259,0 10.0986,0.8727 10.0986,10.4727 0,46.5035 -0.1247,93.1317 -0.1247,139.6352 -2.9922,2.4935 -6.483,2.9922 -10.2233,2.9922 -29.1738,0 -58.2229,0 -87.3967,0 -0.9974,0 -2.1194,0.1246 -2.1194,0.1246 27.553,0 55.9787,0 84.4045,0.1247 3.4909,0 7.2311,-1.2467 10.5973,1.2467 0.1247,1.1221 3.3662,2.2442 0.2493,3.4909 -1.496,0.4987 -3.2415,0.1247 -4.9869,0.1247 -28.5504,0 -57.1009,0.1247 -85.7759,-0.2493 -11.9688,-0.1247 -20.8207,4.2389 -28.3011,13.4648 -11.096,13.5895 -23.3141,26.1816 -34.4101,39.8958 -35.5322,43.8853 -72.5605,86.5239 -108.342,130.0352 -8.4778,10.348 -8.4778,12.5922 0.2494,23.1895 11.7193,14.4622 23.8128,28.5504 35.6568,42.8879 2.7428,3.3662 5.4857,6.7324 7.7298,10.348 1.9948,3.1169 3.4909,5.9844 8.1038,5.361 1.8702,-0.2494 2.8676,2.4935 4.1143,3.9896 z"
     id="path63"
     inkscape:connector-curvature="0"
     style="fill:#4D6373;stroke-width:1.24674296" /><path
     d="m 40.891811,2425.2415 c 0,-65.454 0.623372,-130.908 -0.249348,-196.4867 -0.498697,-42.2646 0,-84.4045 -0.124674,-126.5444 0,-3.9896 -0.249349,-7.9792 -0.498698,-11.9687 -0.374023,-4.1143 1.246743,-6.1091 5.48567,-6.1091 7.355783,0 14.586893,-0.374 21.942676,-0.374 133.650853,0 267.301703,0 400.827873,-0.1247 64.20727,0 128.28986,-0.2493 192.49712,-0.4987 11.09601,0 21.94268,0.8727 31.91662,6.1091 20.19724,10.4726 31.79195,26.6803 33.16337,49.6203 0.24934,2.9922 0.12467,5.9844 0.12467,8.9766 0,118.9393 0,238.0032 0,356.9425 0,11.3454 -0.62337,22.5661 -4.61295,33.4127 -4.11425,10.9714 -11.34536,19.1999 -20.57126,26.1816 -12.5921,9.4753 -26.55562,12.3428 -42.01524,12.3428 -129.66127,-0.1247 -259.32254,-0.1247 -388.85914,-0.1247 -0.99739,0 -1.99479,0 -2.99218,0 -9.47525,-0.2493 -10.09862,-0.748 -10.09862,-10.4726 0,-47.2516 0,-94.3785 0,-141.63 0,-11.5947 0.12467,-11.7194 11.59471,-11.7194 82.40971,0.1247 164.81942,0.2493 247.35381,0.2493 4.61295,0 9.35057,0.1247 13.96352,-0.1246 14.58689,-0.8728 21.94268,-8.1039 22.06735,-22.8154 0.24935,-40.8932 0.24935,-81.7864 0,-122.6796 -0.12467,-17.205 -9.47524,-26.0569 -26.92965,-26.0569 -69.8176,0 -139.63521,0.1247 -209.45282,0.1247 -31.29325,0 -62.46182,0 -93.75507,0 -12.59211,0 -12.59211,0.1247 -12.59211,12.7168 0.12468,125.2976 0.37403,250.5953 0.62337,375.893 0.12468,43.262 0.24935,86.3993 0.37403,129.6613 0,8.4778 0,8.6025 -8.60253,8.6025 -50.49309,0 -101.11086,0 -151.603949,0 -9.475247,0 -9.475247,-0.1247 -9.475247,-10.0986 0,-110.9602 0,-222.045 0,-333.0051 0.249349,0 0.374023,0 0.498697,0 z"
     id="path65"
     inkscape:connector-curvature="0"
     style="fill:#4D6373;stroke-width:1.24674296" /><path
     d="m 4700.9678,2600.9076 c 2.3688,88.5187 -69.3189,166.8142 -165.1935,167.5623 -96.9966,0.748 -173.1726,-73.4332 -171.8011,-167.9363 1.3714,-101.6096 78.7941,-169.3077 169.8064,-169.3077 97.8693,-0.1247 170.1804,80.1655 167.1882,169.6817 z"
     id="path67"
     inkscape:connector-curvature="0"
     style="fill:#4D6373;stroke-width:1.24674296" /><path
     d="m 2862.0219,2241.9703 c 0.1246,-2.7428 1.4961,-4.2389 4.3636,-4.2389 2.9922,0 5.9843,0 8.9765,0 140.882,0 281.7639,0 422.6459,0.1246 6.3584,0 12.2181,0.1247 14.3375,-7.9791 0.2494,2.7428 0.3741,5.4856 0.6234,8.2285 -0.4987,2.3688 -2.1194,3.1168 -4.3636,3.2415 -2.6181,0.1247 -5.361,0 -7.9791,0 -132.9028,0 -265.8056,0 -398.7085,0 -13.3401,-0.1247 -26.6803,0.2494 -39.8957,0.6234 z"
     id="path69"
     inkscape:connector-curvature="0"
     style="fill:#4D6373;stroke-width:1.24674296" /><path
     d="m 1423.7791,2503.1629 c 0,-45.8801 -0.1246,-91.7602 -0.1246,-137.6404 0,-13.2155 0.6233,-12.2181 -12.5921,-12.2181 -130.908,0 -261.9407,0 -392.8488,-0.1246 -3.8649,0 -7.9791,1.4961 -11.3453,-1.8702 3.6155,-0.1246 7.3558,-0.2493 10.9713,-0.2493 131.5314,0 263.1875,0 394.7189,0 14.4622,0 13.4648,-0.9974 13.4648,13.4648 0,40.8932 0.1247,81.7864 -0.1247,122.5549 -0.1247,5.361 1.6208,11.096 -2.1195,16.0829 z"
     id="path71"
     inkscape:connector-curvature="0"
     style="fill:#4D6373;stroke-width:1.24674296" /><path
     d="m 1007.9904,2503.1629 c 3.3662,-0.1246 6.6077,-0.374 9.9739,-0.374 132.2794,0 264.5589,0 396.8383,0 2.9922,0 5.9844,0.1247 8.9765,0.2494 -2.8675,2.4935 -6.3583,1.2467 -9.5999,1.2467 -132.5288,0.1247 -265.0575,0.1247 -397.5863,0 -2.8675,0.1247 -5.8597,0.9974 -8.6025,-1.1221 z"
     id="path73"
     inkscape:connector-curvature="0"
     style="fill:#4D6373;stroke-width:1.24674296" /><path
     d="m 4189.0551,2239.8508 c -32.7893,0 -65.5787,0 -98.368,0 3.1169,-3.1168 6.4831,-2.2441 9.7246,-2.2441 22.9401,-0.1247 45.8801,0 68.6955,0 8.2285,0 16.5817,0.6234 24.6855,-1.9948 1.4961,4.7376 -2.3688,3.7402 -4.7376,4.2389 z"
     id="path75"
     inkscape:connector-curvature="0"
     style="fill:#4D6373;stroke-width:1.24674296" /><path
     d="m 2253.4866,827.16633 c -17.5791,0.24935 -35.0335,0.87272 -52.4879,-1.62077 32.166,0.62338 64.2073,-3.3662 96.3733,-2.24413 1.2467,0 2.6181,-0.24935 4.8623,1.99479 -13.4649,0 -25.9323,-0.12468 -38.275,0 -3.4909,0.12467 -7.3558,-1.24675 -10.4727,1.87011 z"
     id="path77"
     inkscape:connector-curvature="0"
     style="fill:#4D6373;stroke-width:1.24674296" /><path
     d="m 1914.4972,694.26353 c -0.1247,2.24413 -1.1221,3.24153 -2.8675,3.3662 -0.374,0 -0.9974,-0.74804 -0.9974,-1.24674 0,-1.74544 0.9974,-2.99218 2.6181,-3.49088 0.8728,-0.24935 1.2468,0.74804 1.2468,1.37142 z"
     id="path79"
     inkscape:connector-curvature="0"
     style="fill:#4D6373;stroke-width:1.24674296" /><path
     d="m 3983.3425,2512.5135 c 0,0.1247 0,0.2494 0,0.4987 0,-0.2493 0.1247,-0.374 0.1247,-0.6234 0,-0.1246 -0.1247,0.1247 -0.1247,0.1247 z"
     id="path81"
     inkscape:connector-curvature="0"
     style="fill:#4D6373;stroke-width:1.24674296" /><path
     d="m 2806.6665,1228.6176 c 16.2076,-0.7481 32.4153,-1.6208 48.7476,-2.2442 9.2259,-0.374 9.974,0.6234 7.2311,9.4753 -8.3531,27.553 -21.818,52.4879 -39.023,75.5526 -1.9948,2.6182 -3.8649,5.4857 -6.2337,7.7298 -3.7403,3.7402 -6.4831,3.7402 -10.2233,0 -2.1195,-2.1194 -3.8649,-4.6129 -5.361,-7.1064 -16.083,-25.0596 -31.9166,-50.4931 -51.1165,-73.4332 -0.8727,-0.9974 -1.6207,-2.1194 -2.2441,-3.2415 -1.2468,-2.6182 -0.7481,-4.613 2.4935,-4.7376 4.6129,-0.2494 9.2259,-0.2494 13.9635,-0.4987 13.9635,-0.6234 27.8024,-1.2468 41.7659,-1.8701 0,0.2493 0,0.374 0,0.374 z"
     id="path83"
     inkscape:connector-curvature="0"
     style="fill:#FCFCFC;stroke-width:1.24674296" /><path
     d="m 3414.4537,2239.4768 c 1.9948,-2.4935 4.8623,-1.8701 7.3558,-1.8701 31.9166,0 63.8332,0 95.7498,0 1.4961,0 3.2416,-0.4987 4.987,1.8701 -36.4049,0.1247 -72.1864,0.1247 -108.0926,0 0.1247,0.1247 0,0 0,0 z"
     id="path85"
     inkscape:connector-curvature="0"
     style="fill:#FCFCFC;stroke-width:1.24674296" /><path
     d="m 4532.7822,2458.7789 c 78.0461,-0.2494 140.1339,61.4644 140.2586,139.5105 0.1246,76.6747 -55.9788,140.7573 -139.8846,141.63 -79.1682,0.8728 -141.256,-60.467 -141.63,-138.8871 -0.4987,-79.0435 62.2125,-142.0041 141.256,-142.2534 z"
     id="path87"
     inkscape:connector-curvature="0"
     style="fill:#FCFCFC;stroke-width:1.24674296" /><path
     d="m 4550.8599,2612.627 c 20.9453,13.4648 31.0439,34.4101 43.636,53.3606 5.2364,7.9791 10.0987,16.2076 16.083,26.0569 -10.2233,0.6234 -18.8258,2.6182 -27.553,1.4961 -5.4857,-0.6234 -9.8493,-3.9896 -12.8414,-8.7272 -2.2442,-3.6156 -4.3636,-7.4805 -6.2338,-11.3454 -7.4804,-15.2102 -16.9557,-29.2984 -27.553,-42.5139 -7.8545,-9.8493 -17.7037,-14.7116 -30.1712,-14.4622 -4.3636,0.1247 -8.6025,0.1247 -12.9661,0 -4.2389,-0.1247 -6.109,1.7454 -5.9844,5.9843 0.1247,5.9844 0,11.9688 0,17.9531 0,13.9636 0.1247,27.9271 0,41.8906 0,9.8493 -0.2493,9.8493 -9.7245,10.8467 -3.9896,0.374 -7.9792,1.122 -11.8441,0.8727 -6.6077,-0.374 -9.8493,-3.8649 -9.4753,-10.348 3.2416,-54.4826 0.4987,-108.8406 1.3715,-163.3233 0.1246,-8.3532 0.748,-9.1012 9.1012,-9.2259 23.5634,-0.1247 47.1269,-0.1247 70.815,0.1247 8.6025,0.1246 17.205,1.4961 25.5582,3.6155 18.0778,4.7377 29.4232,16.3324 33.5374,34.4101 4.1143,17.8285 -0.2493,33.6621 -13.9635,46.2542 -6.7324,6.109 -14.3376,10.8467 -23.1894,13.0908 -2.4935,0.748 -5.1117,1.3714 -8.6026,3.9896 z"
     id="path89"
     inkscape:connector-curvature="0"
     style="fill:#4D6373;stroke-width:1.24674296" /><path
     d="m 4520.8134,2536.077 c 4.239,0.2493 11.5947,0.374 18.8259,0.8727 5.6103,0.374 11.2206,1.4961 16.0829,4.6129 8.7272,5.4857 12.4675,13.4649 11.7194,23.5635 -0.748,9.8492 -5.735,16.831 -14.7115,20.8206 -7.1065,3.1168 -14.8363,3.8649 -22.3167,4.2389 -11.2207,0.6234 -22.5661,0.4987 -33.9115,0.374 -7.3557,-0.1246 -8.6025,-1.2467 -8.6025,-8.8518 -0.1247,-12.3428 -0.2493,-24.5609 0,-36.9036 0.1247,-7.4805 1.2468,-8.4779 8.8519,-8.7272 7.1064,-0.1247 14.0882,0 24.0621,0 z"
     id="path91"
     inkscape:connector-curvature="0"
     style="fill:#FCFCFC;stroke-width:1.24674296" /></svg>