<?xml version="1.0" encoding="utf-8"?>
<!-- Generator: Adobe Illustrator 23.0.0, SVG Export Plug-In . SVG Version: 6.00 Build 0)  -->
<svg version="1.1" id="Capa_1" xmlns="http://www.w3.org/2000/svg" xmlns:xlink="http://www.w3.org/1999/xlink" x="0px" y="0px"
	 viewBox="0 0 512 254" style="enable-background:new 0 0 512 254;" xml:space="preserve">
<style type="text/css">
	.st0{fill:#4069A9;}
	.st1{fill:#D88D34;}
	.st2{fill:#6EA84E;}
</style>
<g>
	<g>
		<path class="st0" d="M474.4,70.3c0.2-0.5-0.4-0.8-0.2-1.4c2,3.2,2.7,6.8,3.6,10.3c-0.6,0-0.5-0.7-1-0.7l0,0c0.1-0.3,0-0.5-0.2-0.6
			l0,0c-0.7-2.1-1.2-4.4-2.2-6.4c-0.4-0.8-0.8-1.6-1.6-2.1c-0.5,0.4,0.1,1.3-0.8,1.3c0,1.3,1.5,1.9,1.3,3.3c-0.6-0.4-1-0.9-1.4-1.4
			c-1.7-2.2-3-4.7-5.1-6.7c-0.5-0.5-0.7-1.4-1.2-1.9c-0.7-0.8-1.6-1.4-2.6-1.6c0.1,0,0.2,0,0.3-0.1c-0.1-0.2-0.2-0.4-0.5-0.2
			c0.1,0.1,0.1,0.2,0.2,0.3c-0.8-0.2-1.5-0.8-2.4-1.2c0.2,0.6,0.4,1.1,0.6,1.8c-2-1.1-3.5-2.6-5-4.1c0.5-0.6,0.9,0.1,1.5-0.2
			c-1.5-1.2-2.2-3-3.7-4.2c-0.3,0.2,0.1,0.4-0.1,0.6c-0.4,0.1-0.8-0.2-1.2-0.4c-1.1-0.5-2-1.2-3.1-1.6c-1-0.3-1.8-1.1-2.1-2.3
			c1.1,0.4,1.6,1.6,2.8,1.9c-0.8-1.1-2-1.6-2.5-2.5c-0.7-1.7-2.3-2.5-3.2-3.9c-0.3-0.5-0.8-0.8-1.3-1c-1.2-0.6-2.4-1.4-3.5-2
			c-1.3-0.7-2.9-0.7-4.4-0.8c-0.4,0-0.8,0-1.1-0.1c1.7-0.7,3.7-0.5,5.5-1.3c-0.7-0.7-1.5-0.8-2.3-0.9c-2.3-0.5-4.6-1-6.9-1.2
			c-2-0.1-4,0.4-5.9-0.5c-0.3-0.2-0.8,0-1.3,0c0.8,0.6,1.5,0.8,2.4,1.2c-0.9,0-1.5-0.4-2.2-0.7s-1.6-0.4-2-0.8c-0.8-1-2.1-1-2.9-1.7
			c-1.1-1-4.9-1.6-6.2-0.9c-0.2,0.1-0.4,0.4-0.7,0.6c-0.9-0.4-1.9-0.2-2.8,0.1c-1.7,0.5-3.4,1.1-5.2,1.3c-0.4,0.1-0.8,0.1-1.4,0
			c1.1-0.4,2.2-0.3,3.5-0.9c-1.1-0.4-2,0.1-2.9-0.3c1.7-0.3,3.4-0.5,4.8-1.7c-1.3,0-2.6,0-3.8,0c-0.2-0.4,0.3-0.3,0.2-0.6
			c-1.7,0-3.5-0.4-5,0.1c-1.7,0.6-3.4,0.5-5.1,0.7c-5,0.5-10,1.1-15.1,1.2c-0.9,0-1.8,0.2-2.7,0.6c-1.8,0.9-3.9,1.1-5.8,1.8
			c-1.9,0.6-3.7,1.5-4.2,3.7c-0.5-0.7-0.3-1.8-1.5-2l0,0c0.1-0.9,0.7-1.5,1-2.3c0.2-0.1,0.4-0.2,0.3-0.6c-0.2,0-0.4,0.2-0.5,0.4
			c-1.3,1.2-2,2.8-2.6,4.4c-0.5,1.3-0.8,2.6-1.4,3.8c-0.5,0.9-0.9,1.9-1.2,3c0.5-0.2,0.7-0.8,1.3-0.6c0.2,1-0.3,1.9-0.9,2.6
			c-0.6,0.6-1.1,1.3-1.4,2.1c-1.7,4-4.3,7.4-7,10.9c-0.9,1.2-2.3,1.8-3.6,2.4c-0.4-0.2-0.2-0.5-0.4-0.7c-0.6-1-1.4-1-2-0.1
			c-1.1,1.8-1.3,3.9-1.4,5.9c-0.1,1.2-0.3,2.4-1,3.4c-0.9,1.4-1.1,3-2.1,4.3c-0.3,0.4,0,1,0.2,1.4c0.3,0.8,0.6,1.5,0.8,2.3
			c0.7,2.3-0.2,4.4-1.1,6.5c-0.4-0.3-0.2-0.7-0.5-1.1c-0.1,1.1-0.4,2.1-0.3,3.1c0.1,1.7-0.6,2.7-2,3.6c-2.8,1.8-5.5,3.7-8.2,5.6
			c-0.6,0.4-1.1,0.5-1.8,0.3c-4.6-1.4-8.9-3.4-12.5-6.8c-1.6-1.6-3.1-3.3-4.2-5.3c-0.3-0.4-0.6-0.9-0.6-1.4c0.9,0,1.1-0.2,0.9-1.3
			c-0.4-1.9-0.9-3.8-1.2-5.7c-0.4-2.7-0.6-5.4,0.7-8c0.1-0.2,0.1-0.3,0-0.5c-0.4-0.8-0.8-1.7-1-2.7c-0.9,1-2.6,1.4-1.7,3.2
			c0.4,0.1,0.5-0.4,1-0.3c0.3,0.9,0.2,2,0.1,3c-0.3-0.5-0.2-1.2-0.8-1.7c-0.7,0.8-0.5,2-1.3,2.7c-0.4-0.3-0.6-0.6-0.3-1.2
			c0.7-1.3,1-2.7,1.1-4.4c-1.4,0.7-2.2-0.1-3-0.8c-1.8-1.4-3.2-3.1-4.8-4.7c0-0.2,0-0.3,0-0.5c0.2-0.1,0.4-0.3,0.7-0.4
			c1.6,2.1,2.9,4.4,5.5,5.4c0.1,0,0.1,0.1,0.2,0.1c0-0.1-0.1-0.1-0.1-0.2c-0.4-0.7-0.8-1.3-1.2-2c-0.2-0.4-0.4-0.8,0.2-0.9
			c0.6-0.2,0.5-0.5,0.2-0.8c-1-1.4-1.9-2.8-3.4-3.8c-0.5-0.3-1.3-0.7-1-1.7c0.1-0.5-0.4-1-0.8-1.3s-0.7-0.6-1.1-0.8
			c-0.5-0.4-0.7-0.8-0.4-1.5c1.6,0.6,2.1,2.2,3.3,3.1c0.3-0.1,0.2-0.3,0.3-0.6c2.5,2.3,4.7,4.9,7.8,6.4c0.2-0.7-0.1-0.9-0.3-1.1
			c-1.2-1.4-2.6-2.5-4.2-3.3c-2-1.1-3.6-2.6-4.3-4.6c-0.6-1.9-1.8-2.8-3.3-3.6c-0.3-0.2-0.4-0.4-0.4-0.8c-0.1-1.5-0.5-1.9-2-2.3
			c-1.4-0.4-2.7-0.2-4.1,0l0.1,0.1c1.7,0.1,2.8,1,3.3,2.7s1.7,3.1,2.5,4.7l0,0c-0.6-0.3-0.8-0.9-1.2-1.4c-0.2-0.2-0.3-0.4-0.5-0.6
			c-1.1-1.5-2.1-3.1-4.3-3.2c-0.6,0-1.2-0.4-1.8-0.6c0.1-0.1,0.2-0.2,0.3-0.3c-3-0.7-5.8-2.2-9.3-1.7c0.9,0.5,1.6,0.5,2.4,0.4
			c-1.9,0.2-3.7,0.1-5.5-0.3c-2.9-0.7-5.7,0-8.5,0.5c-1.2,0.2-2.1-0.5-3.2-0.8c-0.3-0.1-0.1-0.4-0.1-0.6c-2.6-0.9-5.2-0.3-7.8,0
			c-1.1,0.1-1.5,0-2.4-0.7c1.9-0.3,3.9,0.2,5.7-0.5c-4.6-0.8-9.1-1.7-13.7-0.5c0,0.5,0.4,0.3,0.5,0.6c-0.1,0-0.1,0.1-0.2,0.1
			c-1,0.2-2.1-0.3-2.8,0.9c-0.2,0.4-1,0.2-1.1-0.6c0-0.1,0.1-0.1,0.1-0.2c-0.1,0-0.1,0-0.2,0.1c-0.5,0.1-0.8,0.7-1.3,0.9
			c-0.3,0.2-0.7,0.4-1.1,0.2c0.3-0.9,1.2-1.1,2-1.6c-2.2-0.6-3.3,0.1-6.5,4.1c-0.4,0-0.2-0.4-0.5-0.6c-0.7,0.9-1.5,1.8-1.7,3
			c0.3,0.4,0.9,0.3,1.1,0.8c1.3-1.7,2.2-3.8,4.5-4.4c0.2,0.5,0.1,0.7-0.3,1.1c-0.6,0.5-1.7,0.9-1,2.1c-0.9-0.2-1.5,0.4-2,0.9
			c-1.5,1.3-3,2.7-4.8,4c1.6-0.3,2.9-1.5,4.5-0.9c-0.8,1.6-2.1,2.7-3.6,3.6c-2.6,1.5-5.5,1.8-8.4,2c-0.2,0-0.4,0.1-0.4-0.3
			c0-0.3-0.3-0.3-0.4-0.2c-0.1,0-0.3,0.2-0.3,0.3c0,0.3,0.4,0.1,0.4,0.4c-0.3,0-0.5,0.1-0.6-0.3c-0.4-1.7-0.2-2.7,1.6-2.5
			c1.3,0.1,2.7-0.5,3.8-1.4c-1.4,0.2-2.6,0.5-4,0.3c1.9-0.7,3.9-0.8,5.3-2.3c0.2-0.2,0.2-0.5-0.1-0.8c-1.2,0.3-2.4,0.8-3.6,1
			c-1.9,0.3-3.5,0.9-4.5,2.6c-0.1,0.1-0.3,0.1-0.2,0.2c0.1,0.1,0.2,0,0.3-0.1c0.1,0,0.3,0,0.5,0c-0.5,0.6-1.1,1.2-0.7,2
			c-0.2,0.3-0.4-0.1-0.4,0c-0.5,0.6-0.3,1.4-0.6,2.1c-0.1,0.4,0.2,0.5,0.5,0.7c1.5,0.7,1.8,1.2,1.5,2.8c-0.1,0.5-0.2,1-0.4,1.5
			c-0.3,0.7-0.4,1.4,0.1,2.1c0.3,0.4,0,0.8-0.1,1.2c-1.4,4.2-3.1,8.3-4.8,12.3c-0.5,1.2-0.8,2.5-1.4,3.6c-2,3.4-3,7.3-4.5,10.9
			c-0.8,2.1-1.2,4.3-2,6.4c-0.5,1.3-1,2.6-2.2,3.4c-0.2,0.1-0.2,0.5-0.3,0.7c-0.2,0.4-0.2,0.9-0.6,1.3c-0.2-0.7,0.3-1.1,0.2-1.7
			c-0.6,0.3-1.4-0.1-1.4-0.8c-0.1-1.3,0.3-2.6,1-3.7c0-0.1,0.2-0.1,0.3-0.1s0.2,0,0.3,0c0.3,1.2-1,2.2-0.5,3.5
			c0.7-0.5,0.8-1.1,0.6-1.6c-0.5-1.1,0.2-1.8,0.8-2.4c0.3-0.3,0.5-0.6,0.7-1c0.5-1.5,1.2-3,1.4-4.6c0.1-0.6,0.3-1.1,0.8-1.5
			c0.4-0.1,0.4,0.4,0.7,0.4c0.3-0.3,0.6-0.7,0.3-1.1c-1-1.6-0.3-2.9,0.4-4.3c0.7-1.4,1.3-2.7,1.6-4.2c0.2-0.9,0.2-1.7-1-1.9
			c-0.5-0.1-0.7-0.6-0.7-1.1c-0.1-1.1,0.2-2.1,0.4-3.1c2.3-0.6,3-2.7,4.4-4.5c-0.4,2.5-1.3,4.7-1.7,6.9c-0.3,1.9-1,3.6-1.3,5.4
			c0,0.1,0,0.2,0.1,0.3c0.5,0.1,0.4-0.3,0.5-0.5c0.4-2.8,1.3-5.3,2.7-7.8c0.5-0.9,0.5-1.9,0.6-2.9c0.3-2.2,1-4.1,2-6.1
			c0.1-0.2,0.2-0.5,0.5-0.5c0.5,0,0.4-0.3,0.5-0.5c0.2-0.7,0.4-1.4,0.6-2.1c0.1-0.2,0.1-0.4,0-0.6c-1.6-2.9-2.9-5.9-4.6-8.7
			c0,0-0.1-0.1-0.2-0.2c-0.9,2.2-1.8,4.3-2.6,6.5c-2,5-4.1,10-6.4,14.9c-0.3,0.6-0.5,1.2-0.6,1.9c-0.1,1.2-0.8,2.3-1.6,3.2
			c-1.4,1.6-1.8,3.5-1.5,5.6c0.1,0.6,0.5,0.4,0.8,0.2c0.7-0.5,1-1.3,1.2-2.1c0.4-1.2,0.7-2.4,1.1-3.7c0.1-0.4,0.3-0.8,0.6-1.1h0.1
			c0,0.1,0,0.1,0.1,0.2c-0.1,0.1-0.2,0.2-0.1,0.3c0.1,0.1,0.2,0,0.2-0.1c0.4-0.5,0.9-1,1.3-1.6c0,0,0.1,0,0.1,0.1
			c-0.5,1.3-1,2.6-1.5,3.9c-0.9,2.5-2,4.9-2.8,7.4c-0.2,0.7-1.1,0.8-1,1.6c0.1,0.6,0,1.3,0,2c-0.1,0.5-0.2,0.9-0.5,1.4
			c0-2.6,0-5.2,0-8c-0.5,0.9-0.6,1.9-1.2,2.5c0.4-1.7,0.9-3.4,1.4-5.2c-0.5,0.3-0.6,0.8-0.8,1.1c-1.3,2.2-1.5,4.8-1.9,7.3
			c-0.2,1.2,0.1,1.8,1.5,3.5c0.5,0.1,0.7-0.4,1.1-0.7c0,0.3,0.1,0.5,0,0.6c-0.7,1-0.1,1.9,0.4,2.7c0.1,0.1,0,0.2,0,0.4
			c-1.5-0.9-2.8-2-3.4-3.8c-0.2,0.8,0.8,2.7,2.8,5.4c-0.6,0.1-1.1,0.2-1.7,0.2c-0.3-1.1-0.7-2.2-1.5-3.4c-0.5,1.3-0.7,2.4-1,3.5
			c0.6,0,1-0.1,1.1-0.6c0.4,0,0.6,0.2,0.9,0.4c-0.2,0.3-0.6,0-0.8,0.4c-0.1,0.4,0.1,0.7,0.5,1c-0.8,0.5-1.8,0.5-2.6,0.6
			c-0.8,0-1.3,0.3-1.7,1c-0.8,1.3-1.4,2.7-1.7,4.2c0.4-0.2,0.3-0.7,0.6-0.8c0.1,0.3,0,0.7-0.1,1.1c-1.5,0.1-3,0.3-4.5,0.4
			c-0.3,0-0.4-0.1-0.6-0.2c-1.2-1.2-2.3-2.3-3.5-3.5c-0.2-0.2-0.4-0.5-0.3-1c1.1,0.6,1.6,1.7,2.4,2.5l0.1,0.1v-0.1
			c-0.1,0-0.1,0-0.2,0c-0.3-1-0.9-1.9-1.5-2.7l-0.1-0.1c-0.2-1.3-0.2-1.3-2.5-0.8c-0.1,0.3-0.2,0.7-0.3,1c0,0-0.1,0-0.1,0.1
			c-0.6-0.3,0-0.8-0.4-1.3c-0.4,0-1,0.1-1.7,0.1c0.4,0.8,1.1,1.3,1.6,1.9c1.4,1.6,2.9,3.2,4.2,4.8c0.3,0.3,0.5,0.4,0.9,0.4
			c2.6-0.3,5.1-0.5,7.7-0.7c0.5,0,0.8-0.2,1-0.7s0.5-1,0.7-1.4c0.8-1.2,1.2-1.2,1.9,0c0.5-1.2,0.7-2.5,0.4-3.9
			c0.8,0.4,1.6-0.2,2.4-1.8c0,2.5,0,4.9,0,7.4c0,0.8,0.4,2-0.2,2.4c-0.6,0.4-1.6,0.3-2.5,0.4c-5.3,0.5-10.5,1-15.8,1.6
			c-0.9,0.1-1.6-0.1-2.3-0.7c-1.9-1.6-3.8-3.2-5.8-4.8c-1.9-1.5-2.9-3.6-4-5.7c-1-1.9-1.9-3.9-2.9-5.8c-0.4-0.9-0.9-1.7-1.6-2.5
			c0.5-0.1,0.6-0.5,0.5-0.9c-0.3-1.4-0.9-2.7-1.6-4c-0.3,0.2,0,0.6-0.3,0.7c-1-3.1-2-6.1-2.5-9.3c-0.3-2-1.1-3.8-2.3-5.5
			c0.4-0.3,0.6,0.2,1,0.2c-1.4-2.4-2.3-5-4-7.2l0,0c0.2,0,0.3,0.1,0.6,0.1c0-1.2-0.6-2.1-1.2-3.1c-0.5-0.9-1.1-1.9-1.6-2.8
			c0.1-0.3,0.4-0.1,0.6-0.4c-0.4-1.7-1.2-3.3-2.5-4.5c-0.4,0.1-0.3,0.4-0.4,0.6c-0.7-1.5-1.3-3-1.6-4.6c-0.7,0.2-1-0.3-1.4-1.7
			c0.3,0,0.3,0.3,0.4,0.5c0.1,0.1,0.3,0.3,0.5,0.5c0-1.1-0.7-2-0.3-3.1c1.8,0.7,3.8,3.3,3.8,5c0.1,1.6,0.8,3.1,1.5,4.6
			c1.1,2.3,2.4,4.5,3.3,6.9c0.1,0.3,0.3,0.6,0.6,0.8c1.1,0.7,1.5,1.8,1.8,2.9c-1.3-0.7-1.7-2.3-2.7-3.3c-0.8,1.3,1.4,6.8,3.1,8.1
			c0.1-0.6-0.3-1.1-0.4-1.6c-0.3-1.5-0.3-1.5,1.2-1.8c0.4-1-0.4-1.7-0.5-2.6c0.6,0.1,0.4,1,1.1,0.9l0,0c-0.3,0.5,0.2,0.7,0.3,1
			c0.5,1,1.3,2,1.3,3.4c-1-0.6-1.4-1.6-2.3-2.3c0.1,1.4,0.6,2.4,1,3.5c0.2,0.4,0.8,0.2,1.3,0.3c0.6,0.1,0.9,0.3,1.1,0.9
			c0.4,1.5,0.9,2.9,1,4.4c-0.6-1.4-1.1-3-2.5-4.1c0.5,2.1,0.9,4,1.4,6c0.5,2.1,1.5,4.1,1.7,6.3c0,0.3,0.3,0.5,0.4,0.8
			c2.7,4,6.1,7.4,9.6,10.8c0.7,0.7,1.3,1.4,2.2,2c0.2,0,0.2-0.3,0.3-0.4c0.3,0.2,0,0.5,0.3,0.7c0.8-1.5,1.3-3.2,2.3-4.6
			c-0.4-0.3-0.5,0.2-0.8,0.1c-0.2-0.2-0.1-0.5-0.1-0.9c-0.6,1.4-1.1,2.8-1.7,4.1c-0.1,0-0.1-0.1-0.2-0.1c0.2-0.8,0.4-1.6,0.6-2.4
			c0.4-2,0-4,0.4-6c0-0.3-0.1-0.5-0.4-0.5c-0.4-0.1-0.3,0.4-0.5,0.5c-0.9-0.9-1.5-2.2-1.8-3.3c-0.7-3.2-2.3-5.7-4.4-8.1
			c-0.8-0.9-1.4-1.9-1.7-3.1c-1.4-4.7-2.8-9.4-4.6-14c-0.2-0.4-0.1-0.7,0.1-1.1c0.6-1.2,0.8-2.4,0.4-3.6c0-0.1,0-0.3-0.1-0.4
			c-1.6-1.7-2.5-3.9-4.1-5.5c-0.1-0.1-0.2-0.2-0.6-0.5c0.4,1.5,0.8,2.6,1.8,3.5c1.5,1.3,1.6,1.5,0.9,3.4c-0.1,0.3-0.1,0.7-0.1,1.1
			c-0.7-1.1-4.2-9.4-4.3-10.7c0-1.3-0.1-2.6,0-3.9c0.1-2.2-0.6-4.1-1.9-5.9c-0.9-1.2-1.7-2.3-2.8-3.3c-0.4-0.4-0.5-0.9-0.8-1.3
			c-0.4-0.4-0.7-0.5-1.1-0.2c-0.7,0.5-1.4,0.9-2,1.4c-2.9,1.9-7.3,2-10.1,0c-0.8-0.6-1.4-1.3-1.9-2.2c-0.3-0.5-0.3-1,0.1-1.6
			c0.8,0.4,0.9,1.5,1.7,1.9c0.5-2.8-1.1-5.4-3.8-6.6c-1.9-0.8-3.8-1.1-5.8-1.6c-0.4-0.1-0.8-0.2-1.2-0.4c0.1-0.5,0.2-1,0.5-1.4
			c0.4,0,0.7,0,1.4-0.2c-1.6-0.8-3.2-0.7-4.5-1.9c1-0.3,2-0.2,3-0.4c-1-0.5-1.7-1.7-3.1-0.8c-0.4,0.2-0.7-0.2-0.9-0.4
			c-1.1-1.3-2.5-1.8-4.1-1.2c-0.3,0.1-0.4,0-0.6-0.2s-0.3-0.3-0.5-0.5c-2-2.7-5-2.5-7.9-2.6c-0.1,0-0.2,0-0.5,0.1
			c0.8,0.7,1.8,0.4,2.6,0.8c-1.5,0.3-3,1.2-4.7,0.7c-0.9-0.3-1.8-0.1-2.6,0.1c-2.5,0.4-5,0.4-7.3-0.8c-0.6-0.3-1.2-0.6-0.9-1.5
			c-1.4-0.4-2.8-0.1-4,0.5c-2.6,1.3-4.6,3.4-6.5,5.6c-1.6,1.9-3.2,3.7-5.3,5.1c-1.9,1.2-3.8,1.9-6.1,1.3c-2.1-0.5-3.3-2.2-4.4-3.9
			c-0.2-0.3-0.1-0.3,0.3-0.7c-0.7-0.8-1.6-0.8-2.4-0.5c-1.5,0.5-2.8,1.4-4.2,2.1c-1.5,0.9-3,1.7-4.5,2.6c-0.2,0.1-0.5,0.4-0.8,0.2
			c0-0.4,0.4-0.4,0.7-0.9c-3.5,2.3-7.4,3.4-10.7,5.5c-1.2,0.8-2.5,1.5-3.7,2.4c-1.3,1-2.9,1.4-4.3,2.3c-4.1,2.6-7.9,5.5-11.4,8.7
			c-2.2,2-3.3,4.7-4.2,7.5c-0.6,2.1-1.2,4.2-1.8,6.4c0,0.2,0,0.3-0.2,0.4l0,0c-0.1-1.1,0.2-2.3-0.6-3.6c-1.3,3.9-1.5,7.8-1.5,11.7
			c-0.3-0.3-0.1-0.7-0.2-1c-0.9,0-1,0.6-1.2,1.3c-0.7,2.8-0.8,5.6-0.6,8.4c0.2,3.5,0.3,7-0.4,10.4c-0.6-3.5-0.8-7-1.1-10.7
			c-0.4,0.8-0.7,1.5-1.1,2.3c-0.3-1.6-0.1-3-0.5-4.4c-0.8,1.7,0,3.5-0.7,5.4c-0.4-0.8-0.1-1.5-0.4-2.2c-0.7,1.6-0.2,3.2-0.3,4.7
			c-1-7.6,0.4-15.1,1.7-22.5c0.4,0.1,0.2,0.4,0.5,0.6c0.6-2.3,1.8-4.3,1.9-6.7c-0.8,0.9-0.8,2.2-1.5,3.3c-0.5-1-0.3-2,0.2-2.7
			c1.2-2,2-4.2,3.2-6.2c1.1-1.8,2.2-3.7,4.2-4.7c0.8-0.4,1.5-1.2,2.1-1.9c0.9-0.9,0.8-1-0.2-1.6c-0.1-0.3,0.1-0.4,0.3-0.6
			c1.3-1.1,2.6-2.2,4.3-2.4c0.7-0.1,1.3-0.5,1.8-0.9c3.7-3.5,7.7-6.6,12.2-9.3c0,0.6,0.4,0.5,0.8,0.5c1.6-0.4,2.9-1.3,4.2-2.2
			c2-1.2,3.8-2.7,6.2-3.3c0.8-0.2,1.4-0.9,2.1-1.4c2.5-1.7,5.1-3.2,8-4.1c3.4-1.1,6.5-0.5,9.1,2.1c0.7,0.7,1.2,0.7,1.8,0
			c0.7-0.9,1.5-1.7,2.3-2.6c-2-1.2-3.6-2.8-5.8-3.6c0.2,0,0.3,0,0.5,0c0.1,0.1,0.3,0.1,0.4,0.2c0.2,0.1,0.3,0.2,0.5,0
			c-0.1-0.1-0.2-0.1-0.3-0.2c-0.1-0.1-0.2-0.1-0.4-0.2c-3.1-1.7-6.3-1.7-9.5-0.3c0.2-1.1,0.9-1.1,1.7-1.3c2.2-0.5,4.4-0.5,6.5,0.3
			c2.4,0.9,4.4,2.3,6.3,4c0.2,0.2,0.3,0.3,0.6,0.5c0.5-0.6,1-1,1.8-0.9c0.4,0,0.6-0.3,0.8-0.5c2.4-2,4.7-4,7.7-5.1
			c1.3-0.5,2.8-1.1,4.1-0.7c1.8,0.7,3.9,0.7,5.6,1.9c0.5,0.3,1.1,0.5,1.7,0.4c2-0.1,3.9,0,5.8-0.8c3.9-1.5,7.7-0.9,11.7,0.4
			c3.9,1.2,7.2,3.4,10.7,5.3c2,1.1,4.1,2.1,6.2,2.9c-1.4-0.4-2.7-0.7-4.2-1.1c1.8,1.2,4.1,1.2,5.5,2.8c0,0.1-0.1,0.2-0.1,0.2
			c-0.9-0.5-1.7-1-2.8-1.6c0.6,1.1,0.9,2,2,2.5s2.2,1.2,3.2,2c1.1-0.9,2.1-2,3.8-2.3c-4.7-4.2-10.2-6.5-15.8-9c0.3-0.4,0-0.7,0-1.5
			c2.8,2.5,6.3,2.5,9.4,3.6c-3.6-2.4-7.4-4.4-11.7-5.7c0.3,0.7,1,0.8,1.2,1.3c-1.7,0.4-3-0.5-4.3-1.1c-1.6-0.8-3-1.8-4.6-2.4
			c-3.9-1.5-8.6-1.7-13-0.8c0-0.4,0.5-0.4,0.5-0.7c-0.4-0.6-1.3-0.3-1.8-0.9c0.4-0.5,1-0.6,1.6-0.7c3.9-0.8,7.8-0.9,11.6,0.1
			c2.5,0.6,4.8,1.9,6.9,3.2c3.8,2.3,8,3.8,12,5.8c3.7,1.9,7.6,3.7,10.3,7.1c0.4,0.5,0.7,0.6,1.3,0.4c3.8-1,7.5-0.5,10.8,1.3
			c3.5,1.9,6.3,4.7,8.3,8.3c5.1,9.2,8.8,19,12.6,28.7c1.5,3.9,2.8,7.8,4.1,11.7c0.1,0.4,0.2,0.8,0.7,1c0.9-2.1,2.2-4,3.5-5.8
			c0.9-1.3,1.9-2.6,2.7-4c0.2-0.4,0.3-0.7,0-1.1c-0.5-0.7-0.6-1.5-0.5-2.3c0.8,0.1,1.4,0.3,1.2,1.3c0.8-1.4,1.1-2.9,1.4-4.4
			c-0.2-0.2-0.4,0.1-0.7,0c-0.1-1.6,0.4-3.1,0.7-4.7c0.4,0.7,0.1,1.4,0.1,2.4c0.8-1.3,1.9-2.2,1.8-3.8c0.5,1.3,0.1,2.6,0,3.8
			c0,0.7-0.3,1.3-0.3,1.9c-0.1,1.1,0.3,2.2-0.6,3.3c0.7,0,1.3-0.6,1.7,0.2c-1.1,1.4-1.2,2.5-0.5,3.2c0.1-0.1,0.2-0.1,0.2-0.2
			c1.3-2.4,2.9-4.7,2.7-7.6c-0.2-3.3,0.3-6.4,1.9-9.2c0.1-0.1,0.1-0.3,0.1-0.5c0.2,0,0.3-0.2,0.3-0.5c-0.1,0.2-0.2,0.4-0.3,0.5
			c-1.3,1.6-1.8,3.6-2.3,5.5c-0.4,1.2-0.7,2.4-1.6,3.4c0.4-2.7-0.3-5.4,0.9-8c-0.6,0.1-0.5,0.6-1,0.7c0.8-1.3,1-2.9,2.6-3.7
			c1-0.5,1.8-1.4,2.6-2.2c2.7-2.7,5.8-4.7,9.4-6c-3,2.3-6.2,4.3-8.4,7.4c-0.1,0.1-0.1,0.2-0.2,0.4l0,0c0.1-0.1,0.1-0.3,0.2-0.4
			c0.5-0.1,0.8-0.5,1.2-0.8c3.1-2.6,6.7-4.1,10.8-4.1c1.3,0,2.5-0.2,3.4-1.1c0.5,1-0.3,2.3,0.9,3.1c1-1.5,2-3,3-4.5
			c0.1-0.1,0.2-0.2,0.1-0.3c0,0,0.1,0,0.1-0.1c0,0,0,0-0.1,0c0,0,0,0-0.1,0.1s-0.1,0.1-0.2,0.2c-0.1,0-0.3,0-0.6,0
			c0.8-1.3,1.5-2.6,2.7-3.3c2-1.2,3.8-2.5,5.8-3.7c0.8-0.5,1.6-1,2.6-1.2c1.9-0.4,3.8-0.7,5.7-0.9c1.8-0.2,3.6-0.4,5.4-0.6
			c0.7-0.1,1.1-0.6,1.7-0.8c1.4-0.5,2.7-1,4.1-1.5c-0.8-0.5-1.8-0.2-2.5-0.8c0.4-1.2,1.4-0.5,2.1-0.7c-1-0.9-6.2-0.9-8.7,0.1
			c0.9,0,1.9,0,2.6,0c-1.2,0-2.5,0.5-3.8,0.3c-1.5-0.2-2.7,0.3-3.9,0.7c-0.8,0.2-1.6,0.6-2.4,1.4c2-0.2,3.5-1.5,5.3-1.4
			c-0.3,0.4-0.7,0.5-1.1,0.6c-3.5,1.1-7.1,2.2-10.2,4.1c-1,0.6-2.1,1.1-3.2,1.5c-1.3,0.4-1.9,1.6-2.8,2.5c-0.5,0.5-0.9,1.1-1.4,1.7
			c0.2-2.7,2.3-3.9,3.9-5.6c-0.7,0.2-1.2,0.7-1.6,1.1c-0.5,0.4-0.9,0.9-1.3,1.3c-1.2,1.4-2.4,2.8-3.5,4.2c-0.2,0.3-0.4,0.6-0.4,1
			c-0.1,1.3-0.4,1.6-2.1,2.2c0.9-2.8,2.6-4.8,4.1-7.1c-0.6,0-0.9,0.6-1.6,0.7c1.9-2.3,3.9-4.3,6.3-6c0,0.2,0,0.3,0,0.6
			c0.6-0.4,1.1-0.7,1.6-1c2.1-1.4,4.4-2.2,7-2.3c2.7-0.1,5.4-0.8,8-1.7c3.5-1.2,7-1.3,10.6-0.9c0.7,0.1,1.5,0.1,2.3,0.4
			c-0.4,0.1-0.8,0.1-1.1,0.2c-0.1,0.4,0.3,0.8,0.1,1.2c2,0.6,3.9,0.4,5.9-0.1c0.7-0.2,1.4-0.2,1.5,0.8c-0.8,0.3-1.6,0-2.5,0.1
			c0.6,0.5,1.2,0.5,1.7,0.6c1.1,0.1,2.2,0,3.2,0.8c0.3,0.2,0.8,0.1,1.2,0.2c2.7,0.2,5.3,0,7.9-0.9c4-1.3,8.1-0.9,12.1,0
			c0.5,0.1,1,0.2,1.5,0.3c0.4,0.1,0.5,0.3,0.3,0.7c3.2,0.5,6.4,0.8,9.4,1.8c5.8,2,10.5,5.5,13.6,10.8c1.6,2.8,3.5,5.5,4,8.8
			c0,0.2,0.5,0.7-0.2,0.6c-0.8-0.7-1.6-1.3-2.7-1.2c-0.4-2.8-2-5.1-3-7.7c0.1,0.4,0.2,0.9,0.3,1.3c-1-1.5-1.9-3-3-4.4
			c-1.8-2.1-2.8-3-3.9-3.3c0.5,0.6,1.3,1.1,1.8,1.8c-0.2,0.2-0.3,0.3-0.4,0.1c-1.5-1.2-3-2.3-4.5-3.5c-2.2-1.6-4.6-1.9-7.1-1.4
			c-1.6,0.3-3.2,0.1-4.8-0.4c3-1.4,5.9-1.2,8.9-1c-4.2-0.5-8.3-1.6-12.7-1.7c0.4-0.2,0.6-0.2,0.8-0.4c-1.1-0.2-2-0.4-3-0.6
			c-0.9-0.2-1.9-0.6-2.7-0.4c-1.4,0.4-2.8,0.2-4.2,0.4c-0.5,0.1-1.2,0-1.8,0.5c4.7,0.9,9.5,0.7,14,2.1c-1.5,0-2.9,0.1-4.2,0.4
			c-1.2,0.2-2.2,0.8-3.4,0.9c-0.8,0.1-0.9,0.5-0.8,1c0.1,0.6,0.3,1.1,0.5,1.8c3.9-0.8,7.8,0.8,11.7,0.6c-1.1-1.1-2.6-1.1-3.9-1.6
			c1,0.2,2-0.4,3,0.4c0.5,0.4,1.3,0.3,2,0.5c2.7,0.7,5.3,1.5,7.6,3.1c-0.1,0.1-0.1,0.1-0.2,0.2c-0.7-0.1-1.5-0.4-2.5-0.4
			c1.8,0.9,3.3,2,4.5,3.3c0.6-0.8,1.2-0.9,1.9-0.3c0.4,0.4,0.8,0.8,1.1,1.3c2.1,3.5,4.1,7,4.9,11c0.1,0.8,0.3,1.5,1.3,1.4
			c0.2,0,0.5,0.2,0.7,0.3c1.4,0.8,2.7,1.8,4.2,2.5c0.2,0.1,0.3,0.2,0.3,0.4c0,0.7,0.4,1.1,0.8,1.5c1.2,1.5,2.3,3,3,4.8
			c0.1,0.4,0.4,0.7,0.8,0.7c0.5,0,0.6-0.4,0.7-0.8c0.2-0.8,0.1-1.6,0-2.3c-0.3-2.5-1.7-4.1-3.9-5.2c-0.4-0.2-0.7-0.3-1.2-0.1
			s-1.1,0.2-1.5-0.1c-1.5-1.2-3-2.5-4.3-3.9c0.5-0.2,0.7,0.2,1.2,0.1c-0.4-0.9-1.1-1.6-1.6-2.4c-0.5-0.7-1.4-1.3-1.1-2.5
			c0.8,0.4,1.2,1,1.6,1.5c0.7,0.8,1.1,1.8,2.1,2.3c0.1,0,0.1,0.1,0.2,0.1c0-0.1,0-0.2,0-0.2c-0.1-0.3-0.2-0.7-0.3-1.2
			c0.8,0.6,1.4,1,1.4,1.9c0.1,1.1,0.7,1.9,1.6,2.6c0.2-0.1,0.2-0.5,0.5-0.3c0.2,0.4,0.5,0.8,1,0.9c-0.2-0.5-0.4-0.9-0.8-1.1
			c-0.5-0.9-1.3-1.5-1.7-2.4c-0.1-0.3-0.3-0.5-0.1-0.8c0.3-0.3,0.6-0.2,0.9-0.1c0.4,0.6,0.9,1.2,1.2,1.9c1.1,2.3,2.8,4.1,4.5,6
			c1.2,1.3,2.3,2.8,3.3,4.6c0.5-1.1,0.5-1.9-0.1-2.8c-0.4-0.7-0.6-1.6-1.2-2.3c-0.9-1.2-1.7-2.3-2.5-3.5c1.6,1.2,2.8,2.9,3.9,4.7
			c1.1-2,2.2-3.8,3.6-5.4c2.1-2.6,4.5-4.8,7.5-6.3c1.2-0.6,2.3-1.2,2.6-2.8c0.6,0.8,0.8,2.1,2.2,1.3c0,0.8-0.5,1.3-0.9,1.8
			s-1.1,0.9-1,1.7c-0.8,0-0.7-0.7-0.9-1.1c-1.4-0.4-2.3,0.4-3.2,1c-0.4,0.3-0.8,0.6-1.2,0.9c-2.6,2-4.7,4.2-5.5,7.4
			c-0.3,1.2-0.6,2.4-1.2,3.4c-0.7,1.3-0.2,2.4,0.3,3.6c1.6-4.4,3.4-8.5,6.9-11.7c0.1,0.4-0.3,0.5-0.2,0.9c1.6-1.3,2.9-3.2,5.4-3
			c0-0.7-0.8-0.9-0.5-1.6c0.3-0.3,0.6-0.5,1.1-0.5c0.8,0.1,1.4-0.2,1.7-1c0.3-0.8,1-1.5,0.9-2.5c0-0.3,0.5-0.7,0.7-1
			c0.6-0.7,1.1-1.4,1.6-2c-0.1-0.4-0.6-0.2-0.8-0.6c0.1-0.6,0.5-1.1,0.9-1.7c0.6-0.8,1.1-1.6,1.4-2.6c0.2-0.6,0.1-0.9-0.5-1.1
			c-1.1,1.4-1.9,3.2-3.1,4.9c0-1.2-0.2-2.3,0.4-3.3c0.2,0,0.1,0.1,0.1,0.2c0,0.1,0,0.2,0,0.4c0.4-0.2,0.5-0.5,0.7-0.8
			c0.7-1,1.8-1.9,2.2-2.9c0.9-1.9,2.8-3.2,3.3-5.4c-1,0.4-1.5,1.2-2.1,1.8c-0.6,0.7-1.1,1.4-1.8,2.2c1.7-5.6,9.2-12.3,14.4-12.9
			c-0.2,0.4-0.6,0.6-0.9,0.8c-0.5,0.4-1.1,0.8-1,1.7c0,0.5-0.4,0.8-0.7,1.2c-1.1,1.2-2.4,2-3.6,3.1c-0.1,0.1-0.3,0.1-0.4,0.2
			c-0.5,0.3-0.9,0.6-1.4,0.9c-0.4-0.9-0.7,0-0.8,0.1c-1.8,1.8-2.9,4-3.9,6.3c-0.3,0.6,0.1,0.8,0.5,1.2c0.4-0.7,1.3-1,1.3-1.9
			c0-0.6,0.2-1.1,0.5-1.6c1-2,2.4-3.5,4-4.9c0.2,0,0.3-0.1,0.3-0.3c0.2,0,0.6-0.4,0.6,0.2c0,0.3,0.2,0.7,0.3,1.2
			c0.6-0.4,1.2-0.8,1.7-1.2c2.4-2,5.4-2.3,8.2-3.1c2-0.6,4.1-0.9,6.3-0.7c-0.6-0.8-1.3-0.8-2-0.6c-2.3,0.6-4.6,0.9-6.8,0.4
			c2.8-1.2,14.8-2.8,17.7-2.4c-3.2,0.4-6.1,0.9-9,1.5c0.3,0.4,1.3-0.1,1,0.9c2.3-0.2,4.5-0.4,6.7-0.7c0.4,0,1.3,0.1,0.8-1
			c2.4,0.4,4.7-0.5,7-1.1c-0.4-0.1-0.8-0.1-1.2-0.2c-0.5,0-0.9-0.1-1.6-0.1c0.8-0.6,1.6-0.7,2.4-0.9c1.2-0.3,2.2-0.8,3.2-1.4
			c1.1-0.7,1.4-0.6,2,0.6c3.1-0.1,6.1-0.8,9.1-1.5c3.8-0.9,7.6-1.7,11.6-2c1.7-0.1,3.4,0.5,5,1c2.4,0.9,4.6,2.2,7,2.9
			c0.7,0.2,1.4,0.4,2.1,0.6c0.4,0.1,0.8,0.2,1.1-0.3c0.2-0.3,0.4-0.3,0.7-0.2c0.8,0.2,1.5,0.5,2.4,1.1c-0.8,0-1.3-0.1-2.1-0.1
			c1,0.8,1.8,1.1,2.7,1.3c0.7,0.1,1.3,0.3,1.9,0.6c2.2,1.1,4.6,1.8,7.1,1.9c2.1,0.1,3.8,1,5.6,2c1.5,0.8,2.9,1.7,4.1,2.9
			c0.3,0.3,0.6,0.5,0.5,1c-0.5,0.1-0.7-0.3-1-0.5c-2.9-2.2-6-4-9.7-4.5c-0.4-0.1-0.9-0.1-1.3-0.1c-1,0-1.9,0-2.6-1.1
			c0,0,0.4,0.1,0.4-0.3c-2-0.3-4-0.4-5.7-1.7c0.9,1.1,2,1.6,3.1,2.3c-2.4-0.1-4.5-1.5-7-1.7c0.3,0.7,0.6,1,1.1,1.2
			c1.3,0.5,2.5,0.9,3.8,1.2c0.6,0.1,1.2,0.1,1.9,0c1.3-0.3,2.6,0.2,3.8,0.9c-1.7,0.3-3.5-0.4-5.3,0.1c0.7,0.8,1.6,1.2,2.4,1.1
			c1.5-0.2,2.8,0.1,4.1,0.6c1.8,0.6,3.7,0.9,5.6,1.2c3.4,0.5,5.9,2.2,7.6,5.1c0.3,0.6,0.7,0.8,1.2,0.4c0.3-0.2,0.6-0.4,0.9-0.6
			c0.3-0.2,0.5-0.5,0.8-0.7c1.3,1.2,1.8,2.6,1.4,3.6c-0.1,0-0.1,0-0.2,0c-1.1-0.7-1.9-1.9-3.5-1.5c-0.9,0.2-1-0.9-1.7-1.2
			c0,0.9-0.7,0.3-1.1,0.5c-0.3,1.1,0.1,2.1,1,2.6c0.2,0.1,0.4,0.3,0.5,0.2c0.6-0.8,1.1-0.1,1.2,0.3c0.4,1,1.2,1.6,1.9,2.3
			c1.4,1.4,2.5,3,4.2,4.1c1.4,0.9,3,1.3,4.2,2.4c-1.3-2.4-2.6-4.8-4.5-6.8c-0.7-0.7-1.4-0.1-2.1-0.4c0,0.6,0.7,0.6,0.8,1.1
			c-1.5-0.4-1.9-1.8-2.7-2.9l0,0c0.4-0.1,0.6,0.3,0.9,0.5c0.6,0.4,1.2,0.7,1.9,0.4c0.5-0.2,1,0,1.4,0.5c0.7,0.9,1.6,1.7,2.5,2.5
			c0.5,0.4,0.9,0.9,1,1.6c0.1,0.9,0.8,1.6,1.3,2.4c1.2,1.7,2.6,3.2,3.9,4.8c0.1,0.1,0.1,0.2,0.2,0.3c-0.4,0.3-0.7-0.3-1.1-0.1
			c0.5,1,1.3,1.8,2.1,2.4c2.3,1.4,4,3.5,6.4,4.8c1,0.5,1.7,1.5,2.4,2.5c-0.8,0.3-1.3-0.5-2-0.3c0.3,3.3,1.2,6.4,3.3,9.1
			c0.7,0.8,1.1,1.8,1.1,2.9c0,0.6,0.2,1.2,0.3,1.8c-0.6-0.3-0.8-0.8-0.9-1.2c-0.5-1.2-0.9-2.5-1.4-3.7c-0.2-0.5-0.4-0.9-0.7-1.3
			c-0.6-0.9-0.6-0.9-1.7-0.6c-0.9-1.5-1.9-2.9-3.2-4.1c-0.3,0.3,0.2,0.5,0.1,0.8c0,0.1-0.1,0.1-0.1,0c-1.2-1.7-2.9-2.9-4.5-4.2
			c-3.2-2.6-6.5-5-9.7-7.6c-3.1-2.5-6.6-4.4-9.6-7c-0.3-0.3-0.6-0.7-1.2-0.5c-0.3,0.1-0.6-0.3-0.7-0.6c-1.1-1.7-2.8-2.9-3.9-4.6
			c-0.2-0.4-0.6-0.6-1.2-0.4c0.9,1.3,1.4,2.9,2.7,3.7c2,1.4,3.1,3.5,5,5c0.1,0.1,0.2,0.3,0.3,0.3c1.4,0,2.3,0.9,3.3,1.6
			c1.1,0.8,1.9,2,2.9,3.1c0.1,0.1,0,0.2,0,0.5c-0.8-0.9-1.4-1.9-2.8-2.2c0.3,0.5,0.6,0.8,0.8,1.2c1.8,3.5,5.3,5.1,8.2,7.4
			c1.2,0.9,2.5,1.8,3.8,2.6c0.1,0.1,0.2,0.3,0.5,0.2c0-0.2-0.1-0.3-0.3-0.4c0-0.2-0.1-0.3-0.1-0.5l0,0c1.6,1.5,2.9,3.2,3.7,5.2
			c-1-1.1-1.7-2.4-2.9-3.3C470.4,65.7,472.1,68.2,474.4,70.3l0.1,0.1v-0.1H474.4z M328.4,88.5L328.4,88.5c-0.1,0.5-0.8,0.4-0.9,0.9
			c0.7,0.3,1.3,0.7,2,1c0.4-0.8,0.2-1.6,0.7-2.3c0.7,0.1,1.3,0.7,2.1,0.7c0.3-1,0.4-2,1-2.9c0.6-0.7,0-1.8,0.8-2.8
			c-0.7,0.4-1.4,0.7-1.3,0.9c0.2,0.7-0.4,0.8-0.7,1c-1.3,0.6-1.7,1.7-1.9,3c-0.6,0-1.1-1-1.8-0.4c-0.5,0.4-1.2,0.7-1.6,1.2
			C327.6,89.3,327.9,88.5,328.4,88.5z M80.1,24.4c-2.4-0.5-4.5,0.2-6.3,1.7c2.1-0.6,4.1-1.4,6.3-0.7c2,0.7,3.8,1.9,5.4,3.3
			c0.2-0.1-0.2-0.6,0.2-0.7c1.4-0.5,2-1.8,3-2.8c-1.5,0.1-2.6,0.4-2.5,2.1c-1-0.1-1-0.1-2.8-1.7c-2.3-2-5.3-2.6-7.7-1.4
			C77.2,24.1,78.7,23.8,80.1,24.4L80.1,24.4z M185,68.4c0.6,0.5,0.7,1.3,1.5,1.7c0,0.1,0,0.2,0.1,0.3c0-0.1,0-0.2-0.1-0.3
			c0.1-0.3-0.1-0.5-0.2-0.8c-1.3-4.2-3.4-8.1-5.2-12.2c-1.2-2.8-2.4-5.5-4.1-8c0.2-0.3,0.5-0.2,0.6-0.5c-0.8-0.8-1.5-1.6-1.7-2.9
			c-0.2-1.5-0.8-2.8-1.6-4c-0.4-0.7-0.8-1.4-0.8-2.2c0.3-0.3,0.7,0,0.9-0.2c-2.8-6.4-10.9-11.7-17-9.2c0.2,0.8,0.4,1.6,0.6,2.3
			c4.3-0.6,8.6,1.5,10.8,5.2c0.9,1.6,1.8,3.2,2.7,4.7c0.7,1.3,1.5,2.5,2.7,3.4c0.4,0.3,0.4,0.7,0.3,1.2c-1.1-1-1.6-2.3-2.6-3.3
			c-0.3,0.6,0.1,1,0,1.6c-1.9-2.1-2.5-5.1-4.8-7.1c0.1,0.8,0.8,1.2,0.5,1.7c-0.4,0.8,0,1.4,0.5,1.9c0.8,1,1.7,1.8,2.4,2.8
			c2.5,3.7,4.1,7.9,5.8,12.1c1.4,3.5,2.5,7.1,4.8,10.1c1,1.4,1.9,2.8,2.7,4.2c2.1,3.6,3.9,7.3,3.7,11.7c0,0.3,0.2,0.8-0.2,1
			s-0.6-0.3-0.9-0.6c0.1,1.7,0.8,3,2,4c-0.1-0.8-0.5-1.6-0.5-2.5c0.6,0.4,0.7,1,1.1,1.4c0.7-1,0.9-2.2,2-3c-0.4-0.1-0.6-0.1-1-0.2
			c0.9-0.2,0.4-0.6,0.3-0.8c-1.2-2.8-2.4-5.6-3.8-8.3c0.8,0,0.8-0.4,0.5-0.9s-0.6-1-0.9-1.5c-0.6-0.9-1.1-1.7-1.3-2.7
			C184.9,68.5,185,68.4,185,68.4z M327.1,89.4L327.1,89.4c-0.5-0.7-0.9-0.3-1.2,0.1c-0.1,0.4,0.4,0.3,0.3,0.7
			c-0.3,0.1-0.5,0.5-0.9,0.4l0,0c0.1-0.2,0.3-0.3,0.5-0.6c-1.2-0.1-1.7,1-2.8,1.1c1.3,0.8,2.4,1.5,3.5,2.2c-2.2,0.5-3.6-0.6-4.8-2.1
			c-0.3,0.2-0.6,0.3-0.9,0.5c-0.1-0.5,0.4-0.5,0.4-1c-0.7-0.4-1.4-0.2-2.2,0c0.1-0.3,0.1-0.6,0-0.9c0.6-0.8-0.1-1.3-0.4-1.9
			c-1.2-3-2.5-6-3.6-9.1c-0.1,0.5,0,1,0.1,1.4c0.3,1.1,0.7,2.3,1,3.4c0.1,0.5,0.3,1-0.3,1.3c1,1.7,1.9,3.4,3.1,5
			c-0.8-0.5-1.7-0.3-2.7-0.5c1,1.2,2.1,2.2,3.2,3.2c-0.1,0.1-0.1,0.1-0.2,0.2c-1.2-0.8-2.2-2.1-3.6-2.7c0.1,0.8,0.4,1.5,0.8,2
			c3,2.8,6.3,5.1,10.2,6.5c1,0.4,2.1,0.1,3.1,0.3c0.7,0.2,1.2,0,1.8-0.4c2.3-1.6,4.5-3.2,6.8-4.7c1-0.6,1.1-1.4,1.2-2.4
			c-0.5,0.2-0.6,0.6-0.6,0.9c0,0.7-0.5,1-1,1.4c-2.1,1.5-4.3,2.9-6.4,4.4c-0.4,0.2-0.7,0.5-1.2,0.3c-0.7-0.2-1.5-0.3-2.2-0.3
			c-1.4-0.1-2.7-0.5-3.8-1.3c0.9-0.1,1.6,0.7,2.6,0.7c-0.1-0.6-0.5-0.8-1-1.1c-1.5-1-3.1-1.9-4.6-2.9c-0.4-0.2-0.8-0.5-0.8-1
			c0.5-0.2,0.9,0,1.3,0.3c0.7,0.6,1.5,1.2,2.3,1.7c0.5,0.3,1,0.4,1.5,0.5c1.7,0.3,3.6-0.2,5.2,0.8c0.5,0.3,0.9,0.1,1.4-0.2
			c1.1-0.8,2.3-1.6,3.4-2.4c0.9-0.6,1.5-3.6,1-4.6c-0.1-0.2-0.3-0.4-0.5-0.4c-0.7-0.2-0.7-0.7-0.6-1.2c0.1-1.1,0.7-2,1.1-3
			c1.7-4.1,2.5-8.6,3.7-12.9c0.2-0.7,0.3-1.5,0.2-2.4c-0.7,1.1-0.8,2.3-1.5,3.3c-0.1-2.6,1.6-4.5,2.4-6.9c0.1,1-0.7,1.9-0.2,3
			c0.9-1.4,1.9-2.6,2.9-3.8c1.1-1.3,0.3-3,1.2-4.5c-1.8,0.6-2.8,1.9-4.5,2.6c0.7-1.6,1.7-2.6,2.8-3.6c1.8-1.5,4-2.7,5.4-4.7
			c0.3,0.4-0.2,0.8,0.2,1.2c0.6-0.3,1.1-0.8,1.6-1.1c0.7-0.5,1.4-1.3,1.3-2.2c-0.1-0.8,0.1-1.6,0.4-2.3c0.7-2,1.7-3.8,2.3-5.9
			c0.1-0.5,0.5-0.8,1.2-1c-0.4,0.8-0.6,1.4-0.9,2c1.9-2.1,3.2-4.6,4.4-7c-1.1-1.1,0.2-1.9,0.3-2.8c-0.4,0.1-0.6,0.5-0.9,0.7
			c-3.4,3.2-5.3,7.5-7.6,11.4c-1,1.7-1.7,3.5-2.6,5.2c-0.5,0.9-0.9,1.8-1.7,2.6c-0.7,0.7-1.4,1.1-2.4,0.6c-0.8-0.4-1.4-0.1-2.1,0.4
			c-0.9,0.8-1.7,1.8-2.5,2.6c-1.7,1.8-3,4.1-3.5,6.5c-0.4,1.6-0.4,3.3-0.5,5c0,0.7-0.3,1.5,0.5,2.1c0.1,0.1,0.1,0.5,0.1,0.8
			c-0.1,1.1-0.2,2.3-0.8,3.3c-0.5,0.8-0.9,1.7-1.3,2.5c0.5,0.2,0.9,0.3,1.1,0.4c0.5,1.3-0.6,1.5-1.2,2c0.1,0.3,0.2,0.6,0.4,0.8
			c0.5,0.5,0.7,0.5,0.5,1.2c-0.1,0.6,0.7,1,0.2,1.6c-0.4,0.5-0.5,1.2-0.5,1.8c-0.2,1.9-0.5,3.7-0.8,5.5c-0.2,1-1.1,1.2-1.8,1.7
			c-0.5,0.3-0.9-0.1-1.3-0.4c-0.5-0.3-0.4-1-1-1.4c0.8-0.1,1.6,0.5,2.4-0.2c-0.9-0.2-0.4-0.8-0.5-1.3c-0.6,0.4-1.2,0.8-1.7,1.3
			c-0.2,0.2-0.3,0.3-0.6,0.2c-0.8-0.4-1.6-0.9-2.3-1.3c0.3-0.4,0.7-0.1,1-0.4C327.8,89.8,327.4,89.6,327.1,89.4z M372.1,32.8
			c-0.8,0.5-1.1,1.2-1.9,1.1c-1.2-0.2-2.1,0.2-2.6,1.4c3.7-0.1,7-1.4,10.5-2.5c-0.9-0.1-1.9-0.2-2.8-0.3c2.9-0.2,5.8-0.3,9-0.8
			c-1.3-0.5-2.4-0.5-3.6-0.5c0.3-0.3,0.7-0.2,0.9-0.5c-0.1-0.3-0.5-0.2-0.8-0.5c0.4-0.1,0.8-0.2,1.2-0.2c3.5-0.5,7-0.4,10.5-0.4
			c0.6,0,1.1,0,1.3,0.7c0.1,0.4,0.5,0.5,0.9,0.5c0.7,0,1.3-0.3,1.9-0.8c0.5-0.4,1.1-0.7,1.8-0.6c0,0,0.1,0.1,0.2,0.2
			c-0.3,0.1-0.7,0-0.7,0.5c0.1,0.2,0.3,0.3,0.5,0.5c-0.2,0.5-0.6,0.4-0.9,0.6c0.8,0.8,2.4,1.1,3.4,0.5c1.2-0.8,2.5-0.9,3.9-0.8
			c0.8,0.1,1.6-0.1,2.4-0.5c0.2-0.2,0.5-0.4,0.8-0.2c0.5,0.2-0.2,0.6,0.1,0.8c2.4,0,4.4-1.3,4.4-3.1c-1.3-0.1-2.3,0.4-3.3,1
			s-1.9,1.2-3.4,1.3c1.9-1.1,3.7-2.1,5.5-3.1c-0.6,0-1-0.1-1.5-0.1c1.1-0.5,2.1-1,3.2-1.5c-2.4-0.3-4.7,0.6-6.8,0.5
			c-0.4-0.3,0-0.5-0.3-0.9c-3.6,1.2-7.1,2.4-10.9,2.7c0-0.5,0.4-0.4,0.5-0.7c-1.4,0.2-2.8,0.4-4.2,0.6c-1.9,0.3-3.9,0.1-5.8,0.6
			c-2.9,0.7-5.8,1.3-8.8,1.8c-3.1,0.5-6.3,0.8-9.3,1.9c-0.8,0.3-1.7,0.6-2.5,1.4C367.4,33,369.6,32.5,372.1,32.8z M296,43.4
			c-2-0.9-4-1.7-6.4-1.6c0,0.6,0.3,0.6,0.6,0.6c1.1,0,2.4-0.2,2.6,1.4c0,0.2,0.4,0.1,0.3,0.5c-1.4-0.1-2.8-0.2-4.4-0.4
			c0.8-0.7,0.2-1-0.3-1.3c-1.3-0.7-2.8-1.2-4.3-1.3c-2.1-0.1-4.1-0.5-6.2-0.3c0.1,0.5-0.3,1,0.4,1.3c0.4,0.1,0.9,0.2,1.3,0.3
			c-1.6,0.2-3.2,0.1-4.8-0.5c0.6-0.1,1.1-0.1,1.7-0.2c-2.4-1.1-4.7-2.4-7.3-0.9c0.3,0.1,0.6,0,0.9,0.3c-0.2,0.2-0.2,0.7-0.8,0.4
			c-0.9-0.4-1.8-0.1-2.7,0c0.5,0.6,1.3,0.6,1.7,1.2c-1.3,0.3-2.3-0.5-3.5-0.3c3.9,0.9,7.9,1.2,12.1,1.2c-0.4-0.5-0.9-0.4-1.1-0.9
			c1.7-0.1,3,0.2,4.4,1c1,0.6,2.2,0.9,3.3,1.1c1,0.2,2,0.1,2.9,0.1c2.5,0,5,0.9,7.5,0.5c0.2,0,0.5,0.2,0.7,0.4
			c1.1,0.8,2.2,1.6,3.5,1.7c1.2,0.1,2,0.8,2.7,1.6c0.6,0.7,1.2,1.5,1.9,2.3c0.2,0.3,0.3,0.6,0.9,0.7c-0.9-1.9-2.3-3.3-3.1-5.4
			c1,0.6,1.3,1.4,2,2c-0.1-0.6-0.1-0.9-0.2-1.3c0.8,0.2,0.8,0.2,1.4-0.8c-1.9-2.5-5.1-4.3-7.4-4.1c0.6,0.5,1.4,0.7,1.7,1.7
			c-0.8,0.4-1.5,0.3-2.2,0C295.4,44.3,295.8,43.8,296,43.4z M313.1,59.1c-0.3,1.5,0.2,2.7,0.8,3.8c1.6,3,2.5,6.3,2.7,9.7
			c0.1,1.3-0.2,2.5-0.1,3.8c0.2,2.8,1.6,5.2,3.3,7.3c0.4,0.5,0.8,0.3,1-0.3c0-0.1,0-0.2,0.1-0.3c0.3-1.2,0.5-2.5,0.5-3.7
			c0-0.6,0.5-1.1,0.1-1.8c-1-1.7-1.4-3.6-1.8-5.5c-0.5-2.8-1.1-5.6-2.8-7.9c-0.4-0.5-1.1-1-0.6-1.8c0.1-0.2-0.1-0.3-0.3-0.5
			C315.3,61.1,314.3,60.2,313.1,59.1z M210.8,73.4c-0.2,1.9-1.1,3.6-1.4,5.6c1.2-1,5.7-14.2,5.8-17.1c-2.6,3.7-2.8,8.1-5.2,11.8
			c0.1-0.9,0.6-1.5,0.4-2.3c-1.5,3.5-3.1,7-4.6,10.5c0.1,0,0.2,0.1,0.3,0.1c0.4-0.9,0.9-1.8,1.3-2.7c-0.1,1.2-0.3,2.2-0.6,3.3
			c-0.3,1.6-0.2,1.9,0.9,3c0.3-0.7,0.7-1.4,1-2.1C207.4,82.5,208.9,75.7,210.8,73.4z M261.9,36.2c-0.6-0.4-1.2-0.3-1.7-0.5
			c-1.1-0.2-2.1,0.5-3.3,0.3c-3-0.5-6-0.7-9-0.5c-1.9,0.1-3.8,0.4-5.6,1.1c3.3-0.1,6.6-0.2,9.7,1.7c-3,0.9-6.2,1.2-8.9,2.2
			C249.4,39.8,255.6,37.8,261.9,36.2z M198.5,68.7c-0.1,0.2-0.3,0.3-0.4,0.5c-2,2.9-3.3,6.2-4.6,9.4c-0.2,0.4,0,0.7,0,1.1
			c0.1,0.7,0.7,1.4,0.6,2.1c-0.2,0.9,0.2,1.5,0.7,2.2C195.3,78.6,197.6,73.9,198.5,68.7z M196.2,87.4c0.3-0.9,0.5-1.6,0.7-2.2
			c0.5-1.5,1.2-3,1.3-4.6c0.1-1.2,0.1-2.4,0.2-3.6c0.2-1.7,0.5-3.4,0.7-5.2c-1.2,2.1-2.3,4.2-2.1,6.7c0,0.4,0.1,0.8-0.3,1.2
			c-1.4,1.4-1.1,3.4-1.7,5c0,0.1,0,0.2,0.1,0.3C195.4,85.7,195.8,86.4,196.2,87.4z M236.6,47.1c-1.2,0.5-1.9,1.4-2,2.6
			c-0.1,1.2-0.7,2.1-1.4,2.9c-0.2,0.2-0.5,0.3-0.4,0.6c3.3-1.6,3.7-5.1,5.1-7.8c0.3-0.6,0.8-1.2,0.5-2c-1.4,0.4-3.6,2.8-3.6,3.8
			C235.3,47.1,235.7,46.2,236.6,47.1z M332.5,74.8c-0.7,1.2-0.6,3.2,0.1,4.1c1.7-1.1,1.7-1.1,2.2-3c0.1-0.3,0.2-0.6,0.2-1
			c0-0.5,0.7-1.3,0-1.6s-1.1,0.6-1.4,1.1c-0.2,0.3-0.4,0.7-0.6,1C332.8,75.2,332.7,75.1,332.5,74.8z M323.3,87.2
			c0.1-1.9,0.3-3.6,0.4-5.4c0-0.6-0.2-1.3-1.1-1.4c0.7,0.7-0.2,0.9-0.2,1.4c0,1,0,2.1-0.2,3C321.8,85.9,322.3,86.5,323.3,87.2z
			 M154,34.1c2.2-1,2.3-1.6,0.7-3.3c-0.6,0.4-1.3,0.5-1.9,1.1C153.2,32.6,153.6,33.3,154,34.1z M192.9,93.9c1.1-2.9,1-4.2-0.7-5.6
			c-0.3,0.9-0.4,1.8-0.3,2.8c0.3-0.3,0.3-0.8,0.8-0.8c0.2,0.7-0.5,1.1-0.6,1.7C192.7,92.4,192.8,93.1,192.9,93.9z M331.6,84.3
			c-0.1,0.3-0.6,0.3-0.5,0.9c1-1.2,2.1-2.1,3.2-2.8c-0.2-0.6-0.7-0.6-1.1-0.8c0.2-0.4,0.6-0.4,0.6-0.9c-0.7,0.1-1.1,0.7-1.8,1
			c0.3,0.2,0.6-0.2,0.8,0.1C331.1,83.4,331,83.6,331.6,84.3z M186.5,108.6c1.5-1.8,1.5-3.3,0.3-4.4c-0.4,1-0.9,2-0.9,3.3
			c0.5-0.3,0.3-0.8,0.9-1C186.7,107.1,186.6,107.7,186.5,108.6z M325.7,72.7c1-1.7,1-3.3,0.1-5C325.5,69.3,325.5,71,325.7,72.7z
			 M370.4,36.5c-0.7-0.3-1.5-0.5-2-1.1c-0.8,0.5-1.6,0.9-2.1,1.7c1-0.6,2-0.8,3,0.1C369.8,37.1,370.1,36.9,370.4,36.5z M328.4,63.9
			c-1.2,1.4-0.1,2.5-0.1,3.8C329.7,66.3,328.5,65.3,328.4,63.9z M323.3,88.1c-0.6-0.1-0.9,1-1.7,0.2c0.1,0.7-0.3,1.1-0.4,1.6
			c0.5-0.1,0.8-1,1.5-0.3C322.9,89,323.1,88.6,323.3,88.1z M199.7,108.4c0.8,0,1.6-0.1,2.4-0.3C200.8,106.7,200.3,106.8,199.7,108.4
			z M323.8,87.8c1.2-0.4,2.2-1.2,3-2.1C325.7,86.2,324.7,86.9,323.8,87.8z M194.2,88.3c0.2-0.9,0-1.6-0.9-1.9
			c-0.3,0.3-0.4,0.5-0.5,0.9C193.2,87.6,193.4,88.1,194.2,88.3z M151.4,30.1c1,0.5,1.5-0.6,2.3-0.9
			C152.7,28.8,152.1,29.6,151.4,30.1z M265.1,40.1c-1.1,0-1.9,0-2.8,0C262.9,40.8,264.2,40.9,265.1,40.1z M328.1,87.2
			c0-0.1-0.1-0.1-0.1-0.2c-0.9,0.6-1.9,1.3-2.8,1.9c0,0.1,0.1,0.1,0.1,0.2C326.2,88.5,327.1,87.8,328.1,87.2z M324.6,64.8
			c0.2,1.1,0.4,1.9,0.6,2.8C325.6,66.6,325.4,65.8,324.6,64.8z M217.3,56.9c-0.4,0.5-0.8,0.9-1,1.6C217,58.1,217.8,58,217.3,56.9z
			 M333.3,80c0.5,0.6,0.9,0.5,1.5-0.5C334.3,79.5,333.8,79.6,333.3,80z M246.6,26.1c0.3,0.2,0.5,0.2,0.8,0
			C247.1,25.8,246.9,26,246.6,26.1z M320.5,55.4c0.1-0.4-0.1-0.4-0.4-0.5C320.2,55.2,320.3,55.3,320.5,55.4z"/>
		<path class="st1" d="M136.1,31.1c-0.4,0.4-0.4,0.9-0.5,1.4c-1.1,2.2-1.8,4.6-2.7,6.9c-0.5,1.2-1,2.5-1.6,4
			c1.7-0.4,3.2-0.8,4.9-1.2c-1.8,4.3-3.6,8.5-5.3,12.6c0.8,0.3,1.1-0.1,1.3-0.6c1.1-2.4,2.2-4.8,3.3-7.3c0.3-0.7,0.7-1,1.4-1.2
			c2-0.4,4-1,6.3-1.6c-2.1,5.1-4.1,10.1-6.2,15.1c1.1,0.1,2-0.4,3-0.5c0.1,0.5-0.4,0.9-0.1,1.4c1.9-0.5,3.9-0.9,6.3-1.5
			c-1.7,2.7-1.2,5.6-1.8,8.4c0.9,0.1,1.6-0.2,2.3-0.4c1-0.2,1.9-0.4,2.9-0.7c0.8-0.3,1.2-0.1,1.3,0.8c0.1,0.7,0.3,1.5,0.4,2.2
			c0.1,0.8,0.4,1,1.1,0.8c1.3-0.4,2.7-0.7,4.1-1.1c0.2,0,0.4-0.1,0.6,0.1c-0.5,1.1-1.1,2.3-1.7,3.5c0.6,0.2,1.1-0.3,1.7-0.1
			c-0.9,3.1-1.9,6.1-2.9,9.4c1.3-0.3,2.3-0.6,3.5-0.9c-0.1,1.6-0.1,3.1-0.2,4.6c-0.2,2.4-0.8,4.8-1.4,7.2c-0.4,1.5,0.3,3,0.6,4.4
			c0.1,0.5,0.7,0.1,1,0.4c0.3,2.1,0.8,4.2,0.5,6.4c0,0.4-0.2,0.8,0.5,0.9c0.4,0.1,0.2,0.5,0.3,0.8c0,1.2,0,2.4,0,3.5
			c0.7,0.2,1.1-0.2,1.6-0.1c0.3,0.2,0.2,0.5,0.2,0.7c0,2.4,0,4.7,0,7.1c0,0.6-0.1,0.9-0.7,1c-1.9,0.4-3.8,0.9-5.7,1.4
			c-0.6,0.2-0.8,0-0.9-0.6c-0.4-2-0.8-4-1.4-6.1c-0.3,0.8-0.7,1.6-1,2.5c-0.2,0.5-0.5,0.8-1,1c-2,0.5-3.9,0.9-5.8,1.4
			c-0.7,0.2-0.8-0.1-0.8-0.7c-0.1-1.1-0.2-2.2-0.3-3.2c-0.4-0.3-0.7,0-1.2-0.2c0.7-2.6,1.8-5.1,2.8-7.9c-1.5,0.4-3,0.7-4.4,1
			c-0.3-0.5,0.3-0.9,0-1.3c-0.4,0.8-0.9,1.6-1.3,2.5c-0.2,0.5-0.5,0.8-1.1,0.9c-1.9,0.4-3.8,0.9-5.7,1.4c-0.7,0.2-0.8-0.1-0.7-0.7
			c0.5-2.4,1.8-4.3,2.8-6.5c0.1-0.2,0.3-0.4,0.2-0.9c-1.8,0.4-3.6,0.8-5.5,1.3c0.1-1.2,0.2-2.4,0.4-3.5c-0.4-0.3-0.9,0-1.3,0.1
			c-1.2,0.3-2.7,0.4-3.7,1.1c-0.9,0.7-1.2,2.1-1.5,3.3c-0.6,2-1.8,3.1-3.9,3.3c-1.4,0.1-2.9,0.7-4.5,1.1c1.3-3.3,2.5-6.4,3.8-9.8
			c-1.5,0.4-2.8,0.7-4.2,1c-0.1-0.8,0.4-1.4,0.3-2.1c-2.9-0.3-5.6,1-8.5,1.5c0.8-1.8,1.4-3.5,2.2-5.4c-1.3,0.4-2.3,0.5-3.3,1.1
			c-0.7,0.5-1.7,0.6-2.6,0.7c-0.7,0.1-1.1,0.5-1.3,1.2c-0.4,1.3-0.9,2.5-1.3,3.8c-0.2,0.5-0.4,0.8-1.1,0.9c-2.1,0.4-4.1,1-6.3,1.6
			c-0.2-1,0.5-1.8,0.4-2.8c-0.8,0.2-1.6,0.3-2.5,0.5c0.5-1.5,1-2.8,1.5-4.1c-0.5-0.3-0.6,0-0.7,0.3c-0.3,0.7-0.7,1.3-1,2.1
			c-0.3,0.9-0.8,1.3-1.7,1.5c-1.7,0.4-3.4,0.9-5.2,1.3c-0.2,0.1-0.5,0.2-0.8,0c-0.2-0.3,0.3-0.5-0.2-0.8c-2,0.5-4.1,1-6.5,1.6
			c1.5-4.1,2.8-8,4.3-12.1c-0.9,1.3-1.4,2.6-2,3.8c-0.2,0.5-0.5,0.7-1,0.8c-1.8,0.4-3.6,0.9-5.5,1.3c-0.8,0.2-1.3,0.5-1.5,1.3
			c-0.4,1.5-1.3,2.2-2.8,2.5c-1.7,0.3-3.4,0.8-5.4,1.3c1.3-3.7,2.9-7,4.3-10.5c-0.6,0.3-0.9,0.9-1.2,1.4c-1.8,2.6-3.5,5.2-5.3,7.8
			c-0.2,0.3-0.4,0.6-0.8,0.7c-2.2,0.5-4.4,1.1-6.9,1.7c2.5-6.5,5-12.9,7.5-19.3c-0.8,0-1.3,0.1-1.6,0.8c-1.5,3.2-3.1,6.4-4.7,9.6
			c-0.2,0.4-0.4,0.8-0.4,1.3c-0.3,2-1.3,3.8-1.5,5.9c0,0.3-0.1,0.6-0.6,0.7c-2,0.4-4,0.9-5.9,1.4c-0.5,0.1-0.9,0.2-1.3-0.2
			c-0.5-0.5-1.3-0.7-2-0.7c-0.9,0-1.3-0.5-1.5-1.3c-0.1-0.4-0.2-0.8-0.1-1.2c0.2-2.8-0.4-5.6-1-8.3c-2.2-10.7,0.1-20.2,7.7-28.3
			c4.6-4.9,10.3-8.2,16.5-10.8c3.7-1.5,7.3-3.2,11-4.8c2.6-1.1,5.3-1.4,8-2.2c0.4-0.1,0.6,0.2,0.7,0.5c0.2,1,0.5,2,0.7,3.1
			c0.8-0.1,1.2-0.7,1.6-1.1c2.5-2.1,5.4-3.3,8.5-3.9c2.9-0.6,5.7-1.7,8.7-1.6c0.5,0,0.7-0.4,0.9-0.7c0.7-1,1.4-2.1,2.1-3.1
			c0.2-0.3,0.4-0.4,0.7-0.5c3-0.8,5.8-1.9,8.9-2.5c0.4-0.1,0.8-0.2,1.4-0.4c-0.2,2.3-0.8,4.5-1.2,6.7c0.8,0.2,1.5-0.3,2.2-0.3
			c0.1,0.6-0.4,1-0.4,1.8c1.7-0.4,3.4-0.8,5.2-1.3c-0.5,1.6-0.9,3-1.4,4.6c1.2-0.1,2.2-0.3,2.5-1.6c0.4-1.3,1-2.5,1.5-3.8
			c0.3-0.7,0.5-1.5,1.4-1.8c0.4-0.1,0.5-0.7,0.7-1c0.8-1.7,1.6-3.3,2.3-5c0.2-0.6,0.6-0.7,1-0.9c1.3-0.3,2.6-0.7,3.9-1
			c0.4-0.1,0.9-0.2,1.3-0.3C135.3,31,135.7,30.5,136.1,31.1z M79.7,77.6c0.2,0,0.2-0.1,0.3-0.2c1.4-2.5,2.7-5,3.9-7.5
			c0.1-0.1,0.3-0.3-0.1-0.5c-0.2,0.4-0.4,0.7-0.6,1.1C82,72.8,80.7,75.1,79.7,77.6c-0.7,0.9-1.1,2-1.5,3
			C78.6,79.6,79.5,78.7,79.7,77.6z M65.2,55.5c0.8-0.4,1.5-0.7,2.3-1c0.3-0.1,0.5-0.3,0.6-0.6c0.4-1.9,1.8-2.4,3.4-2.6
			c0.4-0.1,0.7-0.2,1.1-0.2c1.9-0.5,1.9-0.5,2.2-2.5c0-0.1,0.3-0.1,0.1-0.3c-0.4,0.1-0.6,0.5-1,0.7c-1.8,0.5-3.4,1.5-5,2.3
			C67.1,52,65.7,53.3,65.2,55.5z M55.3,73c-1.1,0.1-2.2,0.2-3.3,0c-0.3,0-0.5,0-0.6,0.2c-0.6,1.3-1.2,2.6-1.7,4.2
			c1.5-0.4,2.8-0.7,4.2-1c0.2,0,0.4-0.1,0.4-0.3C54.7,75.1,55.2,74.1,55.3,73z M91.4,46.4c1.8-0.5,3.7-0.9,5.5-1.4
			c0.6-0.2,0.9-0.1,1.2,0.6c0.3,0.8,1.1,1,1.7,0.4c0.5-0.6,1-1.3,1.3-2.1c-1.6,0.2-3.1,0.3-4.5,0C94.2,43.5,92.9,45.2,91.4,46.4z
			 M71.3,68.7c-0.8,2-1.5,3.9-2.2,5.7c0.1,0,0.2,0.1,0.2,0.1c0.6-0.7,1.6-1.4,1.6-2.1C71,71.2,71.4,70,71.3,68.7z M82.8,52.2
			c-1.9,0.2-1.9,0.2-1.8,1.7C82.4,53.9,82.4,53.8,82.8,52.2z M50.4,64.8c-0.9,1.1-1.5,2.4-2.2,3.6C49.4,67.5,50,66.2,50.4,64.8z
			 M45.9,89.7c0.2-1.2,0.6-2.1,0.6-3.1c-1.2,0.1-1.2,0.1-1,1.2C45.6,88.3,45.7,88.8,45.9,89.7z M64.5,58.5c0.9-0.2,1.7-0.1,1.8-1.1
			C65.7,57.6,65.2,57.9,64.5,58.5z"/>
		<path class="st0" d="M446,102.4c-2.2,0.4-2.2,0.4-3.1-1.6c-1.1-2.3-2-4.7-2.7-7.2c-0.1-0.2,0-0.5-0.3-0.7c-0.4,0-0.3,0.3-0.3,0.5
			c-0.2,3.1-0.4,6.2-0.5,9.4c0,0.6-0.2,0.8-0.8,1c-1.9,0.4-3.8,0.9-5.8,1.4c-0.1-1.9-0.2-3.6-0.4-5.3c-0.6-0.5-1.4,0.7-1.9-0.5
			c-0.2,1.2-0.4,2.2-0.6,3.2c-0.1,0.3-0.1,0.6-0.5,0.7c-2,0.5-4.1,1-6.2,1.5c0.1-3.4,0.3-6.7,0.4-10.1c-0.5-0.1-0.8,0-0.9,0.5
			c-0.1,1.1-0.4,2.3-0.5,3.4c-0.1,0.6-0.3,0.8-0.8,0.9c-2,0.4-3.9,0.9-6,1.4c0-2,0-4,0.1-6c-1.6,0-1.8,0.1-2.2,1.5
			c-0.5,2-1.1,3.9-1.6,5.9c-0.1,0.6-0.4,0.8-1,0.9c-1.9,0.4-3.8,0.9-5.9,1.4c0.4-3.1,0.7-6,1-9c-1.8-0.1-2.6,0.3-3.1,1.8
			c-0.5,1.8-1.5,2.6-3.3,2.8c-1.4,0.2-2.8,0.6-4.4,1c0.3-3.8,0.6-7.5,1-11.2h-0.1c-0.4,1.7-1.8,1.9-3.2,2.2
			c-0.9,0.1-1.5,0.5-1.5,1.5c0,0.4-0.2,0.7-0.2,1.1c-0.1,0.5-0.3,0.7-0.8,0.8c-1.9,0.4-3.9,0.9-6,1.4c0.3-1.3,0.5-2.5,0.8-3.8
			c-1.4,0.3-2.6,0.6-4.1,0.9c0.9-4.1,1.8-8.1,2.7-12.2c-0.1,0-0.1,0-0.2-0.1c-0.5,1.1-1.1,2.3-1.6,3.4c-1.3,2.9-2.7,5.9-4,8.8
			c-0.3,0.6-0.6,0.8-1.2,1c-1.9,0.4-3.8,0.9-5.8,1.4c0.6-2.2,1.2-4.2,1.8-6.3c-1.1-0.1-2.1,0.5-3.2,0.5c0.9-3.6,1.8-7.2,2.7-10.8
			c-0.4,0-0.4,0.3-0.5,0.5c-0.9,2-1.8,4-2.8,6c-1.8,3.4-2.2,7.3-3.3,11c-0.3,1.2-0.8,1.8-2.1,2c-1.6,0.3-3.3,0.8-5,1.2
			c0.4-2.6,1.1-5.1,1.7-7.7c-1.4,0.3-2.7,0.7-4.1,1c-0.2,0-0.3,0.1-0.4,0.3c-0.2,0.4-0.5,0.8-0.6,1.2c-0.4,2.2-1.9,3.1-4,3.4
			c-1.2,0.1-2.4,0.5-3.6,0.8c0.1-0.9,0.5-1.7,0.7-2.5c3.1-8.5,5.3-17.3,7.9-26c0.2-0.6,0.4-1.1,1.1-1.2c0.6-0.1,0.6-0.6,0.7-1
			c0.7-2,1.4-4.1,2.1-6.2c0.1-0.4,0.3-0.8,0.8-0.9c0.6-0.1,0.5-0.6,0.5-0.9c0.3-2,0.5-3.9,0.7-5.9c0.1-0.7,0.3-1,1-1.2
			c1.7-0.3,3.3-0.8,5-1.2c0.3-0.1,0.5-0.2,0.9,0.1c-0.1,1.7-0.2,3.5-0.3,5.3c1.3,0,2.2-0.5,2.7-1.8c0.9-2.2,2.3-4.1,3.2-6.2
			c0.6-1.5,1.7-1.7,2.9-2c1.4-0.3,2.7-0.7,4.3-1c-0.6,2.4-1.1,4.6-1.7,7c0.8-0.2,1.5-0.4,2.2-0.5c0.5-0.1,0.5-0.4,0.6-0.8
			c0.7-1.9,1.4-3.8,2-5.7c0.2-0.6,0.4-0.9,1-1c1.9-0.4,3.8-0.9,5.6-1.4c0.3,0.4,0.1,0.7,0,1c-0.6,2-1.2,4-1.7,6.1
			c-0.4,1.4,0.1,2.9-0.7,4.3c0.5-0.4,0.6-0.6,1.8-0.7c1.9-0.2,2.8-1.1,3.1-3c0.2-1.6,0.7-3.2,1-4.8c0.1-0.5,0.3-0.7,0.7-0.8
			c2-0.5,3.9-1,6.1-1.5c-0.1,1.3-0.5,2.5-0.7,3.7c-0.1,0.8-0.6,1.6-0.4,2.3c0.4,1.9-0.3,3.6-0.4,5.4c-0.1,1.1-0.3,2.3-0.5,3.4
			c0.4,0,0.4-0.4,0.5-0.6c0.9-3,1.7-6,2.6-9c0.1-0.3,0.1-0.7,0.6-0.8c2-0.5,4.1-1,6.3-1.5c-0.3,1.6-0.6,3.1-0.9,4.7
			c1.4-0.3,2.8-0.6,4.3-1c-0.2,2.2-0.4,4.4-0.6,6.6c1.5-0.1,2.9-0.7,4.4-0.9c0.1,1.3-0.3,2.6-0.3,3.9c0.2-0.7,0.5-1.4,0.6-2.2
			c0.1-0.6,0.4-0.8,0.9-0.9c0.9-0.2,1.8-0.5,2.7-0.6c0.6-0.1,0.9-0.5,0.9-1c0.1-1.1,0.3-2.2,0.4-3.2c0-0.4,0.2-0.6,0.6-0.7
			c2-0.5,4-1,6.1-1.5c0.2,3.1-0.3,6.1-0.5,9.2c0.9-0.2,1.6-0.4,2.5-0.6c0-0.4,0.1-0.8,0.1-1.4c2.2-0.5,4.3-1.1,6.6-1.6
			c0.4,2.7,0.7,5.4,0.8,8.2c2.5-0.5,4.9-1.1,7.4-1.6c0,2.6,0,5.1,0,7.7c0.5,0.2,0.9-0.1,1.5-0.2c-0.2-1.1,0.5-1.4,1.3-1.6
			c1.8-0.4,3.5-0.8,5.3-1.3c0.5,1.7,0.9,3.4,1.4,5.1c1.6,5.3,4.1,10.2,6.8,15.1c2.8,5,5.6,10.1,7.2,15.7c0.9,3.3,1.4,6.7,1.5,10.1
			c0,0.7-0.2,1-0.9,1.1c-1.7,0.4-3.3,0.8-5,1.2c-0.6,0.1-1,0-1.3-0.5c-1.8-2.5-3.7-4.9-5.4-7.5c-0.3-0.5-0.6-0.7-1.2-0.4
			c-0.4,0.2-0.8,0.2-1.2,0.3c-0.7,0.2-1.4,0.4-1.7-0.6c-0.1-0.5-0.6-0.3-0.9-0.2c-1.4,0.4-2.9,0.7-4.4,1.1
			C447.3,106.7,446.7,104.5,446,102.4z"/>
		<path class="st2" d="M301.8,64.3c0,0.2,0,0.3,0,0.5c0,0.5,0.1,1,0.1,1.6c0,0.2,0,0.4,0.1,0.5c1.2,0.3,0.9,1.4,1.1,2.2
			c1,4.3,2.7,8.5,3.6,12.8c0.2,0.9,0.4,1.9,0.5,2.7c0.5,0.2,0.8-0.2,1.3,0c0.4,1.7,0.9,3.4,1.3,5.1c0.6,2.4,1.8,4.5,2.5,6.8
			c1,3.8,1.1,7.5-0.5,11.2c-0.2,0.5-0.5,1-0.5,1.5c-0.2,1.5-1.2,2-2.5,2.2c-1.2,0.2-2.4,0.6-3.5,0.9c-0.4,0.1-0.9,0.3-1,0.2
			c-1.1-0.9-2.2,0.1-3.4,0c-0.5-1.7-1-3.5-1.7-5.2s-2.2-2.6-3.4-3.8c-0.2-0.2-0.6-0.1-0.8,0c-1.9,0.5-3.8,0.9-5.8,1.4
			c0-0.3-0.1-0.5-0.1-0.9c-2,0.5-3.9,1-5.7,1.4c-0.3-0.3-0.3-0.5-0.3-0.7c-0.1-1.6-0.3-1.6-1.7-1.3c-0.6,0.1-1.1,0.4-1.7,0.4
			c-0.2-0.4-0.1-0.8-0.1-1.2s0-0.7,0-1.1c-0.6-0.3-0.8,0-0.8,0.5c0,1-0.1,2,0,3c0,0.7-0.1,1.1-1,1.2c-1,0.1-1.9,0.5-2.9,0.7
			c-0.9,0.2-1.8,0.5-2.9,0.7c-0.2-1.3-0.1-2.5-0.1-3.9c-1.7,0.4-3.2,0.8-4.8,1.2c-0.2-0.8-0.7-0.6-1.2-0.5c-0.4,0.1-0.8,0.2-1.2,0.3
			c-0.6,0.1-0.9,0.5-1,1.1c-0.1,1-0.7,1.4-1.6,1.6c-1.8,0.4-3.5,0.9-5.4,1.3c0.2-1.3,0.4-2.5,0.6-3.9c-1.1,0.4-2.4,0-2.9,1.4
			c0,0.1-0.2,0.2-0.4,0.3c-2.1,0.5-4.2,1.1-6.4,1.6c0.3-0.8,0.4-1.4,0.7-2.2c-1.7,0.4-3.2,0.8-4.6,1.2c-0.3,0.1-0.3,0.5-0.5,0.7
			c-0.8,2-1.7,4.1-2.5,6.1c-0.2,0.4-0.3,0.7-0.9,0.8c-2,0.5-3.9,1-6.1,1.5c0.2-1.7,1-3.1,1.3-4.6c-0.7-0.2-1.2,0.3-1.8,0.2
			c-0.3-0.4,0-0.8-0.3-1.3c-0.3,0-0.6,0.1-1,0.1c0.4-1,0.7-2,1-2.9s0.8-1.7,0.2-2.8c-0.2-0.4,0.3-1.1,0.1-1.8
			c-1.1,0.3-2.2,0.6-3.3,0.8c-0.4,0.1-0.4,0.5-0.5,0.8c-0.9,2.8-1.9,5.7-2.8,8.5c-0.1,0.3-0.1,0.7-0.6,0.8c-1.9,0.4-3.8,1.1-5.8,1.4
			c-0.2,0-0.3,0-0.6,0c1-3.2,2.1-6.4,2.9-9.9c-0.5,1.8-1.5,2.7-3.3,3c-1.5,0.2-2.9,0.7-4.6,1.1c0.5-1.1,0.9-2,1.3-2.8
			c4.4-9,7.7-18.4,10.7-28c0.3-0.9,0.7-1.3,1.5-1.3c1.1-0.1,1.7-0.6,2.2-1.6c1.2-2.8,2.9-5.3,4.9-7.4c0.7-0.8,0.9-1.5,1.1-2.4
			c0.7-2.4,2.5-3.8,4.6-4.8c0.7-0.3,1.5-0.4,2-0.8c1.1-0.9,2.6-1.1,3.9-1.8c0.7-0.5,1.7-0.6,2.6-0.8c1.3-0.3,2.6-0.6,3.9-0.9
			c0.2,0.4-0.2,0.6,0,0.8c1,0.3,2.2-0.8,3.4,0.3c0.7-0.2,1.6-0.4,2.6-0.6c0.1,0.7,0.5,0.8,1.1,0.6c3.1-0.8,6.2-1.5,9.3-2.2
			c0.3,0.3-0.1,0.6,0.1,0.9c0.7,0.1,1.3-0.4,2.1-0.3c0.1,1.5-0.3,2.9-0.3,4.5c0.6,0.1,1,0,1.2-0.6c0.4-0.9,0.8-1.8,1.3-2.6
			c0.6-0.8,1.3-1.6,1.3-2.7c0-0.1,0.2-0.2,0.4-0.3c2.1-0.5,4.1-1,6.3-1.6c0.1,1.9,0,3.6-0.1,5.4c1,0.2,1.8-0.4,2.8-0.5
			c0.3,0.8-0.2,1.5,0,2.4c1.1-0.3,2.1-0.5,3.2-0.8c0.3,0.7-0.1,1.4,0.1,2c0.3,0.2,0.6-0.3,0.9-0.1c1.2,1.8,0.6,3.7,0.7,5.6
			c0,0.5,0,1,0.1,1.5c0.2-0.5,0.5-0.7,1-0.8c1.3-0.3,2.6-0.6,4-1c0-0.5,0.1-0.9,0.1-1.5c2.1-0.5,4.2-1.1,6.2-1.6
			C301.7,63.6,301.6,64,301.8,64.3z"/>
		<path class="st0" d="M176,173.1c0.5-0.3,0.6-0.6,0.6-1c0.2-1.4,0.2-2.9,0.2-4.3c0-6.2,0-12.4-0.1-18.6c0-2.8-0.2-5.7-0.6-8.5
			c-0.2-1.5-0.9-2.7-2.2-3.6c-1.2-0.8-2.5-1.3-3.8-1.6c-0.7-0.2-1.4-0.4-2-0.8c-0.6-0.3-1-0.8-0.9-1.5s0.7-0.9,1.3-1
			c1.5-0.3,3.1-0.2,4.6-0.1c4.1,0.1,8.2,0,12.2-0.4c1-0.1,2.1-0.2,3.1,0.1c0.5,0.1,0.9,0.4,1.1,0.9c0.1,0.5-0.2,0.9-0.6,1.3
			c-0.5,0.4-1.1,0.6-1.7,0.8c-4.8,1.6-5.8,2.9-6.1,8.2c-0.5,11.8-0.9,23.6-0.8,35.5c0,4.4,0.3,8.9,0.5,13.3c0,0.5,0,1-0.3,1.4
			c-0.5,0.7-1.2,1.1-2.1,0.7c-1.6-0.6-2.8-1.7-3.9-3c-8.8-11.4-18.5-22-28.2-32.7c-3.7-4.1-7.3-8.1-10.9-12.3
			c-0.2-0.3-0.4-0.7-0.9-0.5s-0.4,0.6-0.5,1c-0.4,3.8-0.4,7.6-0.4,11.4c-0.1,7-0.2,14-0.1,20.9c0,1.9,0.1,3.9,0.5,5.8
			c0.4,1.6,1.3,2.7,2.7,3.5c1.2,0.7,2.6,1.1,3.9,1.6c0.8,0.3,1.8,0.6,1.7,1.7s-1.2,1.1-1.9,1.2c-1.6,0.2-3.2,0.1-4.7-0.1
			c-3.7-0.4-7.3-0.2-11,0c-5.1,0.3-10.3,0-15.4-0.2c-3.5-0.1-6.9,0.1-10.4,0.2c-0.9,0-1.8,0-2.6-0.2c-0.6-0.2-1.2-0.4-1.2-1.1
			c-0.1-0.8,0.5-1.1,1.1-1.4c0.4-0.2,0.9-0.3,1.4-0.5c0.2-0.1,0.4-0.1,0.7-0.2c2.8-0.8,3.5-2,2.9-4.8c-0.8-3.6-2.1-7-3.4-10.4
			c-0.2-0.7-0.5-1.4-0.7-2c-0.4-1.1-1.2-1.7-2.4-1.7c-5.1-0.1-10.1,0-15.2,0.2c-0.8,0-1.4,0.4-1.7,1.1c-1.6,4.2-3.4,8.3-4,12.8
			c-0.3,2.3,0.5,3.6,2.7,4.4c0.6,0.3,1.3,0.4,2,0.6c0.4,0.1,0.9,0.3,1.3,0.5c0.6,0.3,1.3,0.6,1.2,1.4c-0.1,0.8-0.8,1-1.5,1.1
			c-1.8,0.4-3.6,0.1-5.4,0c-4.4-0.2-8.8,0.2-13.1,0.3c-0.6,0-1.1,0-1.7-0.2c-0.5-0.1-0.9-0.4-1-0.9s0.2-0.9,0.6-1.2
			c0.4-0.3,0.8-0.5,1.2-0.6c0.4-0.2,0.7-0.3,1.1-0.4c3.1-0.7,5.1-2.6,6.6-5.3c1.9-3.5,3.4-7.1,4.8-10.8c4.4-11,8.6-22.1,13.2-33.1
			v-0.1c0.1-2.3,1.7-3.6,3-5.1c1-1.1,1.8-2.3,2.8-3.5c1.1-1.4,2.1-1.4,2.8,0.3c1.3,3.1,2.4,6.3,3.5,9.4c4.6,13,9.3,25.9,14.3,38.8
			c1,2.7,2.2,5.3,4.3,7.4c1.3,1.3,2.9,1.8,4.6,2.2c0.6,0.2,1.2-0.2,1.8-0.4c3.8-1.2,5.2-2.9,5.5-6.9c0.3-4.2,0.5-8.5,0.7-12.7
			c0.4-6.6,0.7-13.2,1-19.7c0.1-2.5,0-4.9,0.1-7.4c0.1-3.2-1.8-5.1-4.4-6.5c-1.1-0.6-2.4-0.9-3.7-1.2c-0.6-0.2-1.3-0.4-1.8-0.8
			c-0.7-0.6-0.7-1.2,0.1-1.7c0.7-0.5,1.5-0.5,2.3-0.5c3.7,0.1,7.4,0.2,11.1,0.3c0.8,0,1.5,0.1,2.3,0c1.5-0.1,2.6,0.6,3.5,1.6
			c5.2,6,10.3,12.1,15.7,17.8c4.1,4.3,8.1,8.6,12.2,12.9c2.6,2.7,5.2,5.5,7.8,8.2C175.7,172.9,175.8,173,176,173.1z M88,145.6
			c-0.6,0-0.7,0.4-0.8,0.7c-2.3,6.1-4.7,12.1-6.7,18.2c-0.3,1.1-0.1,1.4,1,1.4c4.1-0.1,8.2-0.1,12.3-0.2c1.2,0,1.4-0.2,1-1.4
			c-1.7-4.8-3.4-9.5-5.1-14.3C89.2,148.5,88.6,147,88,145.6z"/>
		<path class="st0" d="M321,193.2c-6.7-0.1-13.5-0.6-20.2-0.6c-0.8,0-1.6-0.1-2.4-0.6c-0.7-0.5-0.8-1.2-0.1-1.8
			c0.5-0.4,1.1-0.7,1.8-0.8c0.8-0.1,1.6-0.2,2.3-0.4c2.1-0.4,3.4-1.6,3.9-3.8c0.4-1.7,0.5-3.3,0.5-5c0.4-10,0.3-20.1,0.2-30.1
			c0-3.2-0.1-6.4-0.5-9.7c-0.4-3.2-1.5-4.5-4.7-5c-0.9-0.1-1.8-0.3-2.5-0.9c-0.8-0.6-0.8-1.4,0.1-1.9c0.8-0.5,1.8-0.5,2.7-0.5
			c4.8,0.1,9.7-0.1,14.5-0.3c4.8-0.2,9.5-0.5,14.3-0.3c8.7,0.4,16.6,2.9,23.1,8.9c5,4.6,8,10.3,8.8,17c1.5,12.2-3,22-12.7,29.4
			c-4.2,3.2-9.3,4.6-14.4,5.6C330.8,193.4,325.9,193.4,321,193.2z M318.6,160.6L318.6,160.6c0,4.4-0.1,8.9,0,13.3
			c0,3.2,0.2,6.3,0.4,9.5c0.1,1.8,0.8,3.4,2.3,4.4c2.2,1.4,4.5,2.4,7.2,2.2c6.9-0.7,12.7-3.8,16.4-9.7c6.2-10,7.1-20.6,2.4-31.5
			c-1.9-4.4-4.7-8-9-10.3c-3.9-2.2-8.2-3.3-12.6-3.5c-1.9-0.1-3.7,0-5.5,0.7c-0.8,0.3-1.3,0.8-1.3,1.8c-0.1,2.5-0.3,4.9-0.3,7.4
			C318.6,150.1,318.6,155.4,318.6,160.6z"/>
		<path class="st0" d="M383.6,174.1c0.1,3.6,0.1,7.1,0.4,10.7c0.2,2.1,1.1,3.7,3.2,4.3c0.9,0.3,1.8,0.5,2.6,0.8
			c0.8,0.3,1.7,0.6,1.6,1.6s-1,1.2-1.8,1.3c-2.1,0.3-4.2,0-6.3-0.1c-4.7-0.4-9.5-0.3-14.2,0c-1.2,0.1-2.4,0.2-3.6-0.1
			c-0.6-0.2-1.2-0.4-1.3-1.2c-0.1-0.8,0.5-1,1-1.3c1.1-0.4,2.2-0.8,3.2-1.2c2.4-0.9,3.5-2.5,3.7-5c0.7-10.3,0.6-20.6,0.5-30.9
			c0-4.1-0.1-8.2-0.4-12.3c-0.2-2.7-1.1-3.9-3.6-4.8c-1.1-0.4-2.3-0.5-3.3-1.1c-0.5-0.3-1.1-0.6-1-1.4c0.1-0.7,0.7-0.9,1.3-1.1
			c0.5-0.2,1-0.2,1.6-0.2c5.1,0,10.3,0,15.4-0.3c3.7-0.2,7.4-0.3,11.1-0.1c3.9,0.2,7.6,0.8,11.2,2.6c7.2,3.6,11,15.6,2.8,23.3
			c-1.6,1.5-3.3,2.6-5.3,3.5c-0.8,0.4-1,0.9-0.6,1.6c4.3,8,8.9,15.8,14.7,22.7c1.8,2.2,4.2,3.5,7,4.1c0.5,0.1,1.1,0.2,1.6,0.5
			c1,0.6,1.1,1.3,0.1,2.1c-0.4,0.3-0.9,0.5-1.4,0.6c-4.8,0.9-9.6,1-14.2-0.9c-2.6-1-4.7-2.8-6.3-5.1c-4-5.7-7.5-11.7-11.1-17.6
			c-0.6-0.9-1.2-1.8-1.8-2.7c-1.3-2.1-3.4-2.6-5.7-2.7c-0.9,0-1.3,0.5-1.3,1.5C383.6,168.3,383.6,171.2,383.6,174.1z M383.6,147.9
			c0,4.6,0,7.9,0,11.1c0,1.5,0.6,2,2.1,1.9c2.5-0.1,4.9-0.5,7.3-1.2c1.6-0.4,2.9-1.3,4-2.5c4-4.6,4.5-10.6,1.5-16.1
			c-2.3-4.3-6.9-7.1-12.1-6c-1.7,0.4-2.4,1.3-2.5,2.9C383.7,141.9,383.7,145.6,383.6,147.9z"/>
		<path class="st0" d="M420.5,162.2c-0.3-13.7,8.5-24.1,18.9-28.5c4.5-1.9,9.2-3.1,14.2-3c8.2,0.2,15.7,2.4,22,7.9
			c7.9,7,11.3,15.8,10.5,26.3c-0.5,6-2.3,11.5-5.9,16.3c-4.4,6.1-10.4,9.9-17.6,11.7c-10.7,2.7-20.7,1.3-29.7-5.2
			c-7.3-5.2-11.1-12.6-12.2-21.4C420.6,164.9,420.6,163.5,420.5,162.2z M451.1,189.7c4.2,1.3,8.3,1.3,12.2-1c3.3-1.9,5.3-5,6.8-8.4
			c3-7,3.8-14.3,2.6-21.7c-1-6.1-3-11.7-6.8-16.6c-3.4-4.4-7.9-6.9-13.3-7.7c-5.8-0.9-12.5,3.3-15.3,8.7c-2.2,4.2-3.2,8.7-3.6,13.4
			c-0.6,7.2,0.6,14,3.7,20.5c2.1,4.3,4.9,8,8.9,10.7c0.3,0.2,0.5,0.4,0.9,0.3c1.9-0.3,3.8-0.3,5.5-1.3c0.4-0.2,0.9-0.2,1.3-0.3
			c2.2-0.2,4.4-0.4,6.6-0.4c0.6,0,1.2-0.2,1.5,0.7c-0.2,0.3-0.5,0.6-0.7,0.9c0-0.1-0.1-0.2-0.1-0.2
			C457.8,187.7,454.5,189,451.1,189.7z"/>
		<path class="st0" d="M220.1,144.4c-0.1,9.6-0.3,18.5-0.1,27.4c0.1,4.1,0,8.2,0.3,12.3c0.2,2.4,1.3,4.1,3.7,4.8
			c0.7,0.2,1.5,0.5,2.3,0.7c0.5,0.2,1.1,0.3,1.6,0.6c0.5,0.3,0.9,0.8,0.9,1.4c-0.1,0.6-0.6,0.8-1.1,1c-1.3,0.5-2.7,0.3-4.1,0.2
			c-4-0.2-8-0.6-12-0.4c-2.8,0.1-5.7,0.3-8.5,0.3c-0.8,0-1.7-0.1-2.4-0.5c-0.9-0.5-1-1.3-0.2-1.9c0.4-0.4,0.9-0.6,1.5-0.8
			c0.4-0.1,0.8-0.2,1.2-0.4c3.5-0.9,4.8-2.6,5.1-6.1c0.4-5.8,0.6-11.6,0.6-17.4c0-6.6,0-13.2-0.1-19.8c0-2.2,0-4.3-0.3-6.5
			c-0.3-2.1-1.4-3.3-3.4-3.8c-0.7-0.2-1.4-0.3-2.1-0.4c-0.6-0.1-1.2-0.2-1.8-0.6c-0.9-0.6-0.9-1.4,0-2c0.7-0.4,1.4-0.5,2.2-0.5
			c6.4,0.1,12.7-0.6,19-0.8c5.4-0.1,10.8,0.1,15.8,2.3c6.1,2.7,9.4,7.6,10.2,14.1c0.6,4.8-0.4,9.3-3.3,13.3
			c-4,5.5-12.1,8.4-18.6,6.8c-0.7-0.2-1.3-0.5-1.9-0.9c-0.5-0.3-0.8-0.8-0.6-1.3c0.1-0.6,0.7-0.8,1.2-0.9c0.2,0,0.3,0,0.5,0
			c4,0.2,6.6-1.9,8.5-5.1c4-6.5,3.1-15.9-2.2-21.5c-2.2-2.3-4.9-3.6-8.2-3.6c-2.1,0-2.9,0.7-3.3,2.8
			C219.9,140.1,220.2,142.7,220.1,144.4z"/>
		<path class="st0" d="M269.9,132.1c5.7,0,11.4,0,17.1,0c1.4,0,2.9-0.2,4.3-0.4c1.1-0.1,1.7,0.3,1.7,1.5c0.1,3.3,0.1,6.7,0.1,10
			c0,0.7-0.2,1.4-0.6,2c-0.6,0.8-1.3,0.9-1.9,0.1c-0.6-0.6-0.8-1.4-1-2.2c-0.6-2.2-1.4-4.3-3.4-5.7c-1.1-0.8-2.5-1.1-3.8-1.2
			c-3.7-0.4-7.5-0.5-11.2-0.4c-1.1,0-1.6,0.5-1.7,1.5c-0.2,1.6-0.3,3.1-0.3,4.7c-0.1,5.5-0.3,11.1-0.2,16.6c0,1.3,0.2,1.5,1.6,1.5
			c3.3,0,6.5-0.1,9.8,0c2.6,0,4.3-1,5.1-3.5c0.3-0.9,0.7-1.9,1.3-2.7c0.3-0.5,0.7-0.9,1.4-0.8c0.6,0.1,0.7,0.7,0.8,1.2
			c0.3,1.6,0,3.2-0.2,4.7c-0.2,3-0.1,5.9,0.2,8.9c0.1,0.9,0.2,1.8-0.1,2.7c-0.4,1.1-1.2,1.3-2.1,0.4c-0.4-0.5-0.6-1.1-0.9-1.6
			c-0.3-0.7-0.5-1.4-0.8-2.1c-0.7-1.6-2-2.5-3.7-2.7c-3.6-0.5-7.2-0.5-10.8-0.4c-0.8,0-1.4,0.7-1.6,1.6c-0.3,2.3-0.2,4.6-0.2,6.9
			c0,4,0,8,0.3,11.9c0,0.8,0.1,1.5,0.5,2.2c0.5,0.9,1.2,1.6,2.3,1.7c4.7,0.6,9.5,0.8,14.2,0.1c4.1-0.7,6.8-3.5,8.9-6.9
			c0.7-1.1,1.2-2.3,2.1-3.2c0.4-0.4,0.8-0.8,1.4-0.6c0.6,0.2,0.6,0.8,0.6,1.3c0,0.8,0,1.6-0.2,2.3c-0.8,3-1.8,6.1-2.9,9
			c-0.7,1.8-1.5,2.3-3.4,2.3c-5.5-0.1-11-0.2-16.5-0.2c-6-0.1-12-0.3-18-0.1c-2.6,0.1-5.2,0.5-7.8,0.4c-0.7,0-1.4,0-2-0.3
			c-1-0.4-1.1-1.2-0.3-1.9c0.7-0.6,1.6-0.8,2.5-1.1c5-1.2,5.9-2.2,6.3-7.4c0.8-10.6,0.8-21.1,0.8-31.7c0-3.3,0.1-6.7-0.1-10
			c-0.3-3.5-1.6-4.9-5.1-5.5c-0.7-0.1-1.5-0.3-2.2-0.6c-0.5-0.2-0.7-0.5-0.8-1.1c0-0.5,0.3-0.8,0.7-1c0.8-0.4,1.6-0.5,2.5-0.5
			C258.2,132,264,132.3,269.9,132.1z"/>
		<path class="st0" d="M39.1,194.2c-4.3-0.1-8.5-0.7-12.5-2.2c-1.9-0.7-3.1-2-3.6-4c-0.6-2.8-1.2-5.5-1.4-8.4
			c-0.1-0.8,0-1.4,0.5-2.1c0.8-1.1,1.3-1.1,2.2-0.1c1.1,1.4,1.9,2.9,2.7,4.5c1.4,2.8,3.4,5.1,6.2,6.7c3.8,2.2,7.8,2.9,11.8,0.6
			c5.4-3,6.6-9.4,2.8-14.3c-2.4-3.1-5.5-5.2-8.7-7.4c-3.9-2.6-7.7-5.2-10.7-8.8c-8.4-10.1-3.2-24.8,9.7-27.5
			c5.3-1.1,10.6-0.7,15.9,0.3c0.8,0.1,1.5,0.3,2.3,0.5c1.4,0.3,2.2,1.1,2.3,2.4c0.2,2.6,0.6,5.2,0.8,7.8c0.1,0.8,0.1,1.7-0.2,2.5
			c-0.2,0.6-0.5,0.8-1.1,0.6c-1.3-0.4-2-1.3-2.4-2.5c-0.8-2.4-2-4.5-3.8-6.3c-4.4-4.1-12.5-4.1-16.1,2.2c-2.2,3.7-1.5,8.3,1.6,11.6
			c2.3,2.4,5.1,4.2,7.9,6c3.6,2.3,7.3,4.6,10.4,7.7c3.3,3.4,5.4,7.2,5.5,12.1c0,5.7-2.5,10.2-7,13.6c-3.6,2.7-7.9,3.8-12.4,4.2
			C40.8,194.1,39.9,194.2,39.1,194.2z"/>
		<path class="st0" d="M395.8,202.1c1.1,0.5,1.5,1.4,1.3,2.5c-0.1,0.3-0.1,0.6-0.4,0.8c-1.6,1-2.1,2.6-2.7,4.3
			c-0.5,1.3-1,2.6-1.7,3.9c-0.3,0.6-0.3,1.1-0.2,1.7c0.6,2.5,1.8,3.4,4.4,3.5c-0.2-1.8,0.7-3.2,1.5-4.6c1.7-2.9,3.4-5.9,5.7-8.4
			c0.4-0.5,0.3-2.9,0-3.4c-0.3-0.4-0.6-0.4-1-0.2c-0.9,0.3-1.7,0.6-2.6,0.9c-0.7,0.2-0.8,0.2-1.2-0.6c0.8-0.5,1.4-1.1,2-1.8
			c0.5-0.6,0.7-1.2,0.5-2c-0.1-0.3-0.1-0.6-0.2-1c-0.1-0.7-0.6-1.5,0.6-1.8c1.4-0.4,2.8-0.2,3.1,0.8c0.6,2,1.7,3.6,2.9,5.3
			c0.9,1.3,0.6,3-0.2,4.1c-1.1,1.6-1.8,3.4-3,4.9c-0.9,1.2-1.7,2.5-2.7,3.9c0.8-0.1,1.4-0.1,2-0.2c0.3,0,0.6-0.1,0.6-0.4
			c0.2-1.5,1.8-1.7,2.6-2.6c0.3-0.3,0.6,0,0.9,0.3c-0.7,1.2-2.1,1.7-2.6,3.3c0.9-0.2,1.7-0.1,2.1-1c0.3-0.5,0.8-0.8,1.3-1.1
			c1.4-0.9,2.9-1.7,4.5-2.3c0.7-0.3,1.5-0.6,1.9-1.3c0.2-0.4,0.7-0.1,1-0.3c1.2-0.8,2.5-1.4,3.5-2.6c1.3-1.6,2.7-2.9,4.1-4.3
			c0.5,0,0.7,0.4,1.1,0.5c0.5-1.8,1.9-2.9,3.4-3.8c0.9-0.5,1.3-1.4,1.7-2.4c0.3-0.7,0.5-1.3,1-1.9c0.6-0.8,1.5-1,2.4-0.7
			c1.4,0.6,1.6,0.9,1,2.4c-0.3,0.7-0.5,1.5-1.3,1.7c-0.4,0.1-0.3,0.5-0.4,0.8c-0.3,1-0.6,1.9-1.1,2.8c-0.6,1.1-1.2,2.1-1.8,3.1
			c-0.8-0.6-0.9-0.5-1.1,0.4c0.1,0.2,0.3,0.1,0.4,0s0.3-0.1,0.5-0.3c-0.9,1.5-1,3.1-1.3,4.6c-0.1,0.6-0.4,1-0.8,1.5
			c-0.4,0.4-0.8,0.4-1.3,0.3s-0.4-0.5-0.5-0.8c-0.2-0.7,0-1.4,0.1-2.1c0.2-1.4,0.5-2.7,1.4-3.9c-0.9-0.7-2.2-0.3-2.6,0.8
			c-0.4,1.2-1.3,1.8-2.4,2.1c-0.6,0.2-0.8,0.4-1,1c-0.5,1.9-1.9,3.4-3.3,4.7c-0.9,0.9-1.1,2.1-1,3.3c0.2,1.6,1.6,2.5,3.2,2.2
			c3.4-0.8,6.3-2.5,9.3-4.2c2.4-1.4,4.8-2.9,7.1-4.4c0.4-0.2,0.7-0.4,1.2-0.5c-0.4-0.8,0.5-1,0.7-1.5c1.2-2.1,2.6-4,4.1-5.9
			c0.3-0.4,0.6-0.7,1-1.1c1.1-1,1.7-1.1,3-0.3c0.3,0.2,0.4,0.5,0.3,0.7c-0.2,1.1-0.2,2.2-1.2,3c-1.4,1.1-2.7,2.2-3.9,3.5
			c-1.9,1.9-2.4,4.5-3.5,6.7c-0.1,0.2-0.1,0.5-0.1,0.7c-0.2,2.1,0.4,2.6,2.4,2.1c1.7-0.4,3.4-0.9,4.9-1.8c1.2-0.7,2.4-1.3,3.6-2
			c0.4-0.2,0.3-0.6,0.5-1c0.8,0.3,1.4-0.1,1.9-0.6c1.4-1.3,3.2-2,4.9-2.9c0.4-0.2,0.7-0.2,1.2,0c0.2,0.8-0.3,1.5-0.8,2
			c-2.1,2.1-4.4,4-7.4,4.6c-0.2,0-0.4,0.1-0.5,0.2c-2.7,2.7-6,4-9.8,4.6c-1.6,0.3-2.7-0.3-3.6-1.5c-1-1.3-1.6-2.7-0.8-4.4
			c0.4-0.8,0.9-1.5,1.1-2.3c-0.6-0.2-1,0.1-1.1,0.6c-0.3,1.1-1.2,1.7-2,2.1c-3,1.3-5.8,3.1-8.7,4.6c-1,0.5-2,0.9-2.9,1.4
			c-0.8,0.4-1.5,0.6-2.3,0.1c-0.2-0.1-0.4-0.2-0.6-0.1c-2.1,0.7-3.4-0.7-4.4-2.1c-1.2-1.6-0.9-3.5,0.2-5.2c0.1-0.2,0.3-0.4,0.4-0.7
			c-0.4,0-0.7,0.2-0.9,0.3c-1.7,0.9-3.3,2-4.7,3.3c-1.4,1.2-3,2-4.4,3.1c-1.5,1.2-3.3,1.6-5.1,1.9c-0.3,0-0.6,0-0.8-0.2
			c-0.6-0.5-1.3-0.4-2.1-0.4c-1.1,0.1-2.3,0.5-3.3-0.3c-2.4,0.3-2.8-1.9-3.9-3.2c-0.3-0.3-0.1-0.8-0.1-1.2c-0.1-0.9,0.2-1.8-0.3-2.8
			c-0.7,1.6-2.2,2.1-3.3,3c-0.6,0.5-1.3,1.1-1.8,1.7c-1.2,1.7-3,2.5-4.8,3.4c-1.1,0.6-2.3-0.1-3.2-0.7c-0.8-0.4-0.9-1.3-0.6-2.2
			c0.4-1.6,1.4-2.7,2.5-3.8c0.5-0.5,1-0.8,1.5-1.4c1.1-1.5,2-3.3,3.7-4.3c-0.2-1.3,1.9-1.3,1.4-2.7c0.4-0.2,0.8,0,1.2-0.4
			c-0.3-1,0.5-1.4,1.1-1.9c0.4-0.3,0.7-0.7,1-1.1c0.2-0.2,0.2-0.5,0.5-0.4c1,0.3,1.1-0.5,1.5-1c0.7-1,1.4-1.9,2.5-2.5
			c1.3-0.6,2.5-0.6,3.6,0.3C396.5,199.9,396.6,201,395.8,202.1z M389.2,210.8c-0.6-0.5-0.4-0.8,0-1.3c0.9-1.3,2-2.4,2.5-3.9
			c0.2-0.7,0.2-1.3-0.2-1.8c-0.5-0.6-0.8,0.3-1.2,0.4c-1.8,0.4-2.5,2.1-3.8,3.1c-2.3,1.9-3.5,4.8-6,6.5c-0.1,0.1-0.1,0.2-0.1,0.3
			c0,0.7-0.4,1.2-0.7,1.7c-0.3,0.5-0.7,0.9-0.6,1.5c0.6,0.1,1.1-0.2,1.5-0.4c2.5-1.3,4.4-3.2,6.3-5.2c0.2-0.2,0.2-0.6,0.5-0.4
			C388.2,211.7,388.6,211.2,389.2,210.8z"/>
		<path class="st0" d="M361.2,237.5c0.6,0.4,0.6,0.7,0.4,1c-0.8,1-1.5,2.1-2.2,3.2c-0.2,0.3-0.5,0.5-0.9,0.6c-1,0.2-1.8,0.8-1.8,1.9
			c0,0.4-0.3,0.6-0.6,0.7c-0.9,0.6-1.8,1.2-2.5,2.1c-0.2,0.3-0.7,0.3-0.9,0.2c-0.6-0.3-1,0-1.3,0.4c-1.3,1.5-2.9,2-4.9,2
			c-1.8,0-3.4-0.2-5.1-0.7c-2.1-0.6-3.5-2.1-5.3-2.9c0-0.4,0.3-0.8,0-1.1c-1.3-1.1-2.3-2.5-3.1-4.3c0.2-0.4,0.5-1,0.8-1.7
			c0.4-1-0.5-1.2-1.1-1.5c0.6-1,0.6-1.3,0-2c0.7-1,1.1-2,0.5-3.3c-0.3-0.6-0.1-1.2,0-1.9c0.2-1.3,0.9-2.5,1.2-3.7
			c0.5-2,2.3-3,3.2-4.6c0.7-1.3,0.8-1.2,2.4-0.5c-0.4,0.8-0.9,1.6-1.3,2.4c-1.7,2.9-3.2,5.7-3.3,9.4c-0.1,5,1.1,9.2,5.1,12.2
			c2,1.5,4.3,2,6.9,1.2c3.2-1,5.9-2.7,8.3-4.9c1.3-1.2,2.9-2.2,3.7-3.9c0.6-1.1,1.3-2,2.5-2.7c-0.9-0.5-0.6-1-0.2-1.4
			c0.5-0.5,1.1-0.9,1.4-1.8c0.2-0.5,0.7-1.1,1.1-1.7c0.3-0.5,0.7-1,0.1-1.6c0.7-0.7,1.7-1,2.3-1.6c0-0.5-0.5-0.5-0.7-0.9
			c1.2-1.5,1.3-3.6,2.2-5.3c0.3-0.5,0.5-1.1,0.8-1.6c0.5-1,0.6-2.1,0.2-3.3c-0.7,0.6-1.5,1.2-2.2,1.9c-2.4,2.2-5.2,3.9-8.3,5.1
			c-0.7,0.3-1.4,0.4-2.1,0.4c-1,0-1.8-0.2-2-1.3c0-0.2-0.2-0.4-0.3-0.6c-0.9-1.1-1-2-0.1-3.1c0.8-1.1,1.5-2.2,2.2-3.4
			c0.6-1.1,1.9-1.9,3-2.7c0.7-0.5,1.5-0.9,1.8-1.7c0.2-0.5,0.7-0.3,1.1-0.4c0.1-0.5-0.3-0.3-0.6-0.6c2.9-1.7,5.6-3.7,8.1-6.1
			c0.8,0.4,1.2-0.1,1.3-0.9c0.1-0.4,0.3-0.6,0.5-0.8c1.3-1,2.6-2.1,4.2-2.8c1.4-0.6,2.7-1.3,4.1-2c0.9-0.6,2-0.3,3,0.5
			c0.8,0.7,0.5,1.5,0.3,2.3c-0.5,1.4-1.1,2.6-2.4,3.5c-1.3,1-2.3,2.2-3.2,3.7c-0.5,0.9-0.8,1.7-1.1,2.6c-0.1,0.2-0.2,0.4-0.4,0.5
			c-1,0.6-1.3,1.6-1.5,2.6c-0.7,2.8-2.1,5.3-3.4,7.7c-0.3,0.6-0.6,1.2-0.5,1.9c0,0.8-0.1,1.6-0.9,2.2c-0.6,0.4-0.5,1.2-0.8,1.9
			c-0.8,2.3-1.7,4.6-3.1,6.7c-0.7,1.2-1.3,2.4-2.2,3.4C362.7,236.7,362.4,237.4,361.2,237.5z M357.6,219.1c0.9,0.2,1.7-0.1,2.4-0.4
			c3.2-1.3,5.7-3.5,8.6-5.2c0.1-0.1,0.2-0.2,0.3-0.3c0.4-1.1,1.3-1.7,2-2.5c0.8-1,1.3-2.1,1.5-3.3c0.1-0.7,0.3-1.3,0.7-1.9
			c0.4-0.4,0.7-0.8,0.6-1.5c-0.6,0.4-1.1-0.2-1.7-0.2c0,1.3-0.9,1.9-1.8,2.4c-0.4,0.3-0.9,0.4-0.6,1.1c-1.7-0.3-3,0.4-3.8,1.6
			c-1.9,2.7-4.7,4.6-6.8,7.1C358.1,217,357.7,217.9,357.6,219.1z"/>
		<path class="st0" d="M237.8,216c-0.9,0.8-1.7,1.7-2.6,2.4c-2.8,2.1-5.6,4.3-9.2,4.9c-1.5,0.2-2.1-0.1-2.7-1.5
			c-0.1-0.1-0.1-0.2-0.2-0.3c-1-1.3-1-2.1,0-3.4c0.8-0.9,1.4-2,2-3.1c0.6-1.3,2-2,3.1-2.9c0.7-0.5,1.4-1,1.8-1.7
			c0.3-0.5,0.6-0.4,1-0.3c0.3-0.5-0.2-0.4-0.4-0.7c2.9-1.7,5.5-3.7,8-6.1c0.8,0.6,1.1-0.1,1.3-0.9c0.1-0.4,0.3-0.6,0.6-0.9
			c1.6-1.4,3.4-2.6,5.4-3.4c1-0.4,1.9-1,2.8-1.5c0.9-0.5,2.1-0.2,3,0.6c0.7,0.7,0.5,1.5,0.2,2.3c-0.4,1.6-1.4,2.8-2.7,3.7
			c-1.2,0.9-2,2.1-2.8,3.4c-0.6,0.8-0.9,1.7-1.1,2.6c0,0.1-0.1,0.2-0.1,0.3c-1.6,0.9-1.6,2.6-2.2,4.1c-0.8,2.3-1.9,4.5-3.1,6.6
			c-0.3,0.5-0.5,1-0.5,1.7c0,0.9-0.1,1.7-1,2.3c-0.5,0.3-0.5,1.1-0.7,1.7c-0.8,2.4-1.8,4.7-3.1,6.9c-0.7,1.2-1.3,2.4-2.3,3.4
			c-0.4,0.4-0.5,1.1-1.2,1.2c-0.2,0-0.7,0.2-0.1,0.6c0.2,0.1-0.1,0.3-0.2,0.5c-0.5,0.8-1.1,1.6-1.6,2.4c-0.5,0.7-0.9,1.5-2,1.7
			c-0.7,0.1-1.4,0.7-1.3,1.6c0,0.4-0.3,0.6-0.5,0.8c-0.9,0.6-1.9,1.2-2.6,2.1c-0.2,0.3-0.7,0.3-0.9,0.2c-0.6-0.3-1,0-1.3,0.4
			c-1.3,1.5-2.9,2-4.9,2c-1.8,0-3.4-0.2-5.1-0.7c-1.9-0.6-3.3-1.8-5-2.7c-0.1-0.1-0.3-0.3-0.3-0.3c0.4-1.1-0.6-1.5-1.2-2
			c-0.9-0.8-1.1-2-1.9-2.8c-0.2-0.2,0-0.4,0.1-0.6c0.2-0.4,0.4-0.7,0.5-1.1c0.4-1,0.2-1.3-1-1.9c0.4-0.6,0.9-1.3,0-1.9
			c0.6-1.1,0.9-2.1,0.6-3.4c-0.5-1.8,0.1-3.6,1-5.2c0.2-0.3,0.5-0.5,0.2-1c-0.2-0.2,0.1-0.4,0.2-0.6c1.3-1,2.1-2.4,3-3.7
			c0.7-1.1,1.4-0.5,2.2-0.2c-1.4,2.4-2.7,4.8-4,7.1c-0.3,0.4-0.4,0.9-0.4,1.4c0.1,1.5-0.1,3-0.3,4.4c-0.5,4.4,2.2,9.6,6,11.7
			c1.9,1,3.9,1.3,6.1,0.6c2.8-0.9,5.4-2.3,7.6-4.3c1.6-1.5,3.7-2.7,4.6-4.8c0.5-1.1,1.4-1.7,2.3-2.4c-0.9-0.8-0.3-1.3,0.3-1.7
			c0.5-0.3,0.6-0.8,0.9-1.3c0.3-0.5,0.7-1,1.1-1.6c0.3-0.6,0.6-1.2,0.3-1.9c0.7-0.6,1.6-0.9,2.2-1.5c0-0.5-0.5-0.6-0.7-1
			c1.2-1.5,1.3-3.5,2.1-5.2c0.4-0.9,1.1-1.7,1.2-2.8C238.1,217.5,238.2,216.8,237.8,216z M238.5,207.3c-1.7-0.3-2.9,0.5-3.8,1.6
			c-1.3,1.6-2.6,3.1-4.2,4.4c-1.1,0.9-1.9,2.2-3,3.1c-0.9,0.8-0.7,1.8-0.9,2.8c1.4-0.1,2.6-0.5,3.7-1.1c2.6-1.3,4.8-3.1,7.2-4.6
			c0.1-0.1,0.3-0.2,0.3-0.3c0.3-1,1.1-1.6,1.8-2.2c1-0.9,1.4-2.2,1.7-3.5c0.2-0.9,0.3-1.7,1-2.3c0.4-0.3,0.5-0.7,0.3-1.3
			c-0.6,0.8-0.9-0.3-1.5,0c0,1.1-0.8,1.7-1.7,2.2C238.9,206.3,238.4,206.6,238.5,207.3z"/>
		<path class="st0" d="M270.8,214.7c0.6-0.1,1.1-0.1,1.5-0.2c0.6-0.1,1.1-0.2,1.1-0.9c0-0.3,0.3-0.4,0.5-0.6
			c0.6-0.5,1.2-0.9,1.8-1.4c0.4-0.4,0.7-0.3,1.1,0.2c-0.8,1-2,1.8-2.7,3.2c1-0.1,1.7-0.2,2.3-1c0.8-1.2,2.3-1.6,3.5-2.4
			c1.4-0.9,3.3-0.9,4.4-2.5c1.7-0.2,2.8-1.4,4.1-2.3c0.5-0.3,0.9-0.7,1.4-1.1c0.2,0.2,0.5,0.4,0.8,0.6c-0.6,1.1-1.4,1.9-2.4,2.7
			c-2.9,2.3-6,4.2-9,6.4c-0.3,0.2-0.6,0.3-0.9,0.5c-0.4,0.2-0.9,0.3-0.8,0.9c0,0.2-0.2,0.3-0.3,0.3c-1.5,0.8-2.9,1.7-4.3,2.6
			s-2.9,1.2-4.5,1.4c-0.2,0-0.6,0-0.8-0.2c-0.7-0.7-1.6-0.4-2.4-0.4c-1,0.1-2,0.4-2.9-0.4c-2,0.4-2.6-1.4-3.6-2.5
			c-0.7-0.8-0.5-1.6-0.6-2.5c0-0.6,0.2-1.3-0.3-2c-0.6,1.6-2.2,2-3.2,2.9c-0.8,0.8-1.8,1.5-2.5,2.4c-1.1,1.4-2.8,2.2-4.3,2.8
			c-1,0.4-2.3-0.1-3.2-0.9c-0.8-0.7-0.7-1.6-0.3-2.5c0.8-1.9,2-3.4,3.9-4.3c-0.2-0.7,2.4-4,3.9-4.9c-0.4-0.4-0.2-0.6,0.2-0.9
			c0.6-0.4,1.3-0.8,1-1.7c0.4,0,0.7-0.1,1.1-0.1c-0.2-1.9,1.9-2.2,2.6-3.6c1.6,0.2,1.7-1.4,2.4-2.1c1.2-1.2,2.4-2.1,4.2-1.7
			c1.6,0.3,2.6,2,1.4,3.4c0.9,0.6,1.6,1.3,1.3,2.5c-0.1,0.4-0.1,0.8-0.4,0.9c-1.6,0.9-2.1,2.5-2.6,4.1c-0.5,1.4-1.1,2.8-1.8,4.1
			c-0.3,0.5-0.3,1-0.1,1.5c0.1,0.2,0.1,0.4,0.2,0.7c0.9,2.3,1.6,2.8,4.1,2.9c0.2-3.2,2.2-5.6,3.7-8.1c1-1.8,2.2-3.4,3.6-4.9
			c0.5-0.5,0.4-2.8,0-3.4c-0.3-0.4-0.6-0.4-1-0.3c-0.9,0.3-1.7,0.6-2.6,0.9c-0.4,0.1-0.8,0.2-1.1-0.3c-0.3-0.5,0.2-0.6,0.5-0.8
			c0.7-0.5,1.2-1.3,1.8-2c0.4-0.6,0-1.1,0-1.7c0-0.2-0.1-0.4-0.1-0.6c-0.3-1.6-0.3-1.6,0.9-1.9c1.4-0.4,2.6,0.1,2.9,1.1
			c0.5,1.7,1.3,3.2,2.5,4.5c1.1,1.2,0.8,4-0.3,5.1c-0.5,0.4-0.6,1-0.9,1.5c-1,2-2.5,3.8-3.7,5.7
			C271.3,213.9,271.1,214.3,270.8,214.7z M258.3,210.8c-0.7-0.5-0.4-0.8-0.1-1.3c0.9-1.2,1.9-2.4,2.5-3.8c0.3-0.7,0.2-1.4-0.2-1.9
			c-0.4-0.5-0.7,0.3-1.1,0.4c-1.9,0.7-2.9,2.4-4.3,3.7c-2,1.8-3.2,4.5-5.5,6c-0.1,0.1-0.2,0.2-0.2,0.3c0.1,0.8-0.4,1.3-0.8,1.8
			c-0.3,0.4-0.6,0.9-0.3,1.5c3.4-1.2,5.7-3.7,8.2-6.3C257.1,211.9,257.6,211.2,258.3,210.8z"/>
		<path class="st0" d="M296.9,200.8c-1.9-0.1-3.5,0.3-5.2,0.2c-2-0.1-3.6,0.9-5.3,1.8c-0.2,0.1-0.3,0.2-0.5,0.3
			c0.6,0.7,1.3,1.3,0.6,2.2c-0.3,0.4-0.6,0.6-1.1,0.5c-1.9-0.5-3.5-1.5-4.7-3.1c-0.3-0.4-0.3-0.8-0.2-1.3c0.4-1,2.1-2,3.2-1.9
			c0.3,0,0.5,0,0.8-0.1c2.5-1.2,5.2-1.2,7.9-1.2c0.9,0,1.7,0.1,2.6-0.3s1.9-0.4,2.9-0.3c1.2,0.2,2.2-0.1,3.2-0.6
			c1.5-0.7,2.5-0.4,3.6,0.9c0.2,0.3,0.2,0.5,0.1,0.8c-0.2,0.7-0.6,1.3-1.2,1.8c-0.9,0.8-1.9,1.4-3,1.7c-1.7,0.6-3,1.8-4.1,3.1
			c-1.2,1.4-2.3,2.9-4,3.8c-0.4,0.2-0.3,0.7-0.5,1c-0.8,1.4-1.7,2.7-2.9,3.8c-0.4,0.4-0.7,0.8-0.5,1.4c0.8,0.6,1.5,0.3,2.1-0.2
			c0.4-0.3,0.8-0.6,1.3-0.3c0.1,0,0.2,0,0.3-0.1c1.2-1.2,3-1.1,4.5-1.8c2.1-1,4.4-1.5,6.7-2.1c0.4-0.1,0.8-0.2,1.2-0.4
			c0.7-0.3,1.3-1,2.1-0.1c0.1,0.1,0.4,0,0.5-0.1c0.2,0.5,0,0.7-0.4,0.9c-1,0.5-2.2,0.7-2.9,1.7c-0.1,0.2-0.4,0.2-0.5,0.1
			c-0.7-0.2-1.3,0.1-1.9,0.5c-0.9,0.5-1.6,1.2-2.8,0.7c-0.4-0.2-0.9,0-0.9,0.7s-0.7,0.9-1.2,0.6c-0.9-0.5-1.5,0-2.1,0.5s-1,1.3-2,1
			c-0.3-0.1-0.6,0.3-0.9,0.5c-0.6,0.5-1.3,1.1-2.1,1.2c-0.2,0-0.5,0.2-0.6,0.4c-0.6,1.2-1.7,1.6-2.8,2c-1.1,0.4-1.8,1.1-2.1,2.2
			c-0.3,1-1.1,1.1-1.8,1c-0.9-0.2-1.5-0.8-2.1-1.6c-0.3-0.3-0.1-0.6,0.1-0.9c0.3-0.4,0.7-0.9,1.1-1.3c0.6-0.7,1.4-1.2,1.4-2.3V218
			c2.2-2.1,3.2-5.1,5.4-7.1c0.9-0.8,1.6-1.7,2.1-2.8c0.6-1.4,1.7-2.4,2.8-3.4c1-0.9,2.1-1.8,3-2.9
			C296.3,201.7,296.6,201.4,296.9,200.8z"/>
		<path class="st0" d="M477.3,220c0.1,0.5-0.3,0.5-0.6,0.5c-1.2,0-2.5,0.6-3.7-0.3c-2.4,0.3-2.8-1.9-3.9-3.1
			c-0.3-0.3-0.1-0.7-0.1-1.1c0-0.9,0-1.8-0.2-2.8c-0.7,1.5-2.2,2-3.3,2.9c-0.5,0.4-1.1,0.9-1.5,1.5c-1.3,1.7-3.1,2.7-4.9,3.7
			c-0.3,0.2-0.6,0.3-1,0.1c-0.4-0.1-0.8-0.2-1.2-0.3c-1.5-0.4-2.2-1.3-1.7-2.8c0.7-2,2-3.5,3.9-4.6c0-0.8,2.5-3.9,4-4.9
			c-0.4-0.5-0.1-0.7,0.3-0.9c0.6-0.4,1.2-0.8,0.9-1.7c0.7,0,1.4-0.1,1.2-1.1c-0.1-0.3,0.2-0.4,0.4-0.6c0.7-0.5,1.4-1,1.8-1.8
			c0.1-0.2,0.2-0.3,0.4-0.3c0.9,0.3,1.1-0.4,1.4-0.9c0.5-0.8,1.2-1.6,2-2.2c0.9-0.7,2-0.9,3.1-0.6c1.7,0.4,2.3,1.9,1.4,3.4
			c0.5,0.6,1.3,0.8,1.3,1.9c0,1.3-0.8,1.8-1.6,2.4c-0.5,0.4-0.8,0.9-1,1.6c-0.5,1.7-1.1,3.4-2,4.9c-0.7,1.2-0.6,2.3,0,3.5
			c0.7,1.3,1.5,2.3,3.1,2.3c0.7,0,1.2,0,1.7-0.5c0.6-0.6,1.1-1.4,2.2-1.5c0.4,0,0.8-0.6,1.2-1c0.8-0.7,1.5-1.3,2.7-1.3
			c0.6,0,1-0.2,1-0.9c0-0.4,0.3-0.5,0.5-0.7c0.6-0.4,1.2-0.8,1.7-1.3c0.5-0.4,0.8-0.4,1.3,0.3c-0.7,0.6-1.6,1.1-2,1.8
			c-0.6,1.4-1.9,1.7-2.9,2.5c-1.1,1-2.1,2.1-3.6,2.4c-0.5,0.1-0.8,0.7-1,1.2c-0.3,0-0.6,0-0.9,0c-0.1-0.1-0.1-0.1-0.2,0
			C477.2,219.9,477.2,220,477.3,220z M471.3,203.7c-0.8,0.3-1.8,0.6-2.3,1.2c-1.1,1.4-2.7,2.3-3.8,3.7c-1.5,1.9-2.7,4-4.8,5.3
			c-0.1,0.1-0.2,0.2-0.2,0.3c0.1,0.8-0.5,1.3-0.9,1.9c-0.2,0.4-0.6,0.8-0.3,1.5c3.4-1.2,5.7-3.8,8.2-6.2c0.7,0.4,1.2-0.1,1.8-0.6
			c-0.6-0.4-0.4-0.7-0.1-1.1c0.8-1,1.6-2,2.2-3.1C471.7,205.6,471.9,204.8,471.3,203.7z"/>
		<path class="st0" d="M336.8,211.9c-0.7,0.7-1.4,1.3-2.1,1.9c-0.3,0.2-0.6,0.5-0.6,0.9c0,0.5-0.3,0.5-0.6,0.7
			c-1.2,0.6-2.4,1.1-3,2.4c-0.2,0.4-0.6,0.3-1,0.4c-0.9,0.3-1.8,0.5-2.2,1.5v0.1c-0.9,0-1.4,1-2.3,0.9s-1.8,0.4-2.7-0.2
			c-0.2-0.1-0.4-0.3-0.5-0.2c-1.3,0.3-1.8-0.5-2.5-1.3c-1-1.2-1.6-2.5-1.4-4.1c0.1-0.5,0.1-1-0.3-1.6c-0.7,1.6-2.3,2-3.3,3
			c-0.6,0.6-1.5,1.1-2,1.9c-1.2,1.7-3,2.5-4.7,3.3c-1,0.5-2.3-0.2-3.2-0.8c-0.8-0.5-0.7-1.4-0.5-2.3c0.5-1.6,1.5-2.8,2.8-3.9
			c0.5-0.4,0.9-0.8,1.3-1.4c1-1.5,1.9-3.1,3.5-4.1c-0.1-1.3,1.9-1.3,1.4-2.7c0.4-0.1,0.8-0.2,1.2-0.2c-0.3-1.1,0.4-1.6,1.2-2.1
			c0.4-0.3,0.7-0.7,1-1.1c0.1-0.2,0.3-0.5,0.5-0.4c0.9,0.3,1-0.4,1.4-0.9c0.5-0.8,1.2-1.6,2-2.2c1.3-1,3-1,4.1-0.2
			c1,0.7,1.1,1.8,0.4,2.8c0,0.3,0.2,0.4,0.4,0.5c1.1,0.9,1.2,2.4,0.1,3.2c-1.5,1-1.8,2.5-2.3,3.9s-1.1,2.7-1.8,4
			c-0.2,0.5-0.3,0.9-0.2,1.4c0.2,0.8,0.6,1.6,1.1,2.3c1.2,1.7,3.2,1.9,4.7,0.4c0.5-0.5,0.8-1.1,1.7-0.9c0.2,0,0.5-0.3,0.7-0.5
			c1-0.9,2-2,3.6-1.8c0.3,0,0.6-0.1,0.6-0.4c0.3-1.5,1.8-1.7,2.6-2.6C336.1,211.1,336.4,211.5,336.8,211.9z M318.2,210.8
			c-1-0.5-0.4-0.9-0.1-1.3c0.9-1.3,2.1-2.5,2.6-4.1c0.2-0.6,0.1-1.2-0.2-1.6c-0.4-0.5-0.7,0.2-1.1,0.4c-1.9,1-3.3,2.6-4.8,4.1
			c-0.5,0.5-0.9,1.1-1.4,1.7c-1.2,1.3-2,2.9-3.7,3.8c-0.2,0.1-0.2,0.2-0.2,0.4c0,0.6-0.4,1.1-0.7,1.6c-0.3,0.5-0.7,0.9-0.6,1.8
			c3.5-1.2,5.8-3.8,8.3-6.2C316.9,211.9,317.3,211.2,318.2,210.8z"/>
		<path class="st0" d="M181.3,102.9c-0.3,0.4-0.9-0.6-1.2,0.1c-0.5-1.3-1.4-2.4-2.1-3.7c-1-1.7-2.2-3.3-3.4-4.9
			c-1.1-1.4-1.8-3.1-2.5-4.8c0-0.1-0.1-0.2-0.1-0.3c0.6-1.3-0.1-2.7,0.2-4c0.1-0.4,0.1-0.8,0-1.1c-0.8-3.1-1.8-6.2-3.2-9.1
			c-0.7-1.4-1.2-3-2.8-3.7c-0.5-0.2-0.7-0.9-0.8-1.5c0.5-0.2,0.9-0.4,1.5-0.6c-1.1-1.9-2-3.8-2.9-5.9c0.7-0.3,1.1,0.2,1.3,0.7
			c1,1.5,1.5,3.2,2.1,4.9c0.9,2.5,1.6,5.1,2.9,7.5c0.1,0.2,0.2,0.4,0.3,0.5c0.6,0.7,0.8,1.4,0.8,2.4s0.1,2.1,1.3,2.8
			c0.8,0.4,1,1.5,1.2,2.4c0.7,3.3,1.8,6.4,3.5,9.3c0.1,0.1,0.1,0.2,0.2,0.5c-0.8-0.4-0.9-1.2-1.6-1.5
			C177.8,96.2,180.3,99.1,181.3,102.9z"/>
		<path class="st0" d="M490.2,88.8c-0.1,3.7-0.7,7.3-2.2,10.7c-0.2,0.5-0.5,0.9-1.1,1.2c-0.3-2.2,0.4-4.3,0.1-6.7
			c-0.4,1.3-0.6,2.4-0.8,3.5c-0.6,0.2-1.2-0.5-1.7,0.2c-0.3-1.4-0.2-2.7,0.3-4c0.8-2.1,0.9-4.3,0.9-6.4c0-1.4-0.8-2.6-1-3.9
			c-0.2-1.2-0.6-2.4-0.8-3.5c-0.1-0.2-0.2-0.5,0.2-0.8c1.1,1.4,0.9,3.3,1.9,5c0.1-1-0.5-1.8,0-3c0.5,1.2,1.2,2,1.3,3.1
			c0.1,0.5,0,1.1,0,1.6c0,1-0.2,2.1,0,3.1c0.1,1,0.6,1.9,1,3c0.7-0.7,0.5-1.7,1-2.4C489.9,90,489.9,89.1,490.2,88.8L490.2,88.8z"/>
		<path class="st0" d="M483.3,73.5c0.6,0.8,0.6,1.9,1.5,2.7c0.1-3.1-1.2-5.6-1.9-8.3c1.2,2,2.1,4,2.4,6.3c0.1,0.9,0.2,1.8,1.4,2.1
			c-0.6-3.8-2.3-7.2-4.1-10.5c0.1-0.1,0.1-0.1,0.2-0.2c3,3.2,4.9,7,6.2,11.1c0.5,1.6,0.9,3.2,1.3,4.8c0.1,0.6,0.2,1.2-0.1,1.7
			c-1.6-1.1-1.3-3.2-2.4-4.5c0,1.4,0.7,2.6,0.9,4.1c-0.8-0.5-1.5-0.7-1.6-1.8c-0.1-1.3-0.4-2.6-0.9-3.8c-0.2-0.4-0.3-1-0.9-1.2
			c0,1,0.5,1.9,0.3,3c-0.6-0.7-0.9-1.4-1.1-2.1C484.1,75.7,483.1,74.8,483.3,73.5L483.3,73.5z"/>
		<path class="st0" d="M151.1,50.1c0.8,0.1,1.1,0.8,1.6,1.1c0.4,0.2,0.8,0.4,1.2,0.2c0.4-0.3-0.1-0.6,0-1c0.5-0.4,0.8,0.2,1.2,0.3
			c0.7-0.5,1.2-1.1,0.9-1.9c-0.2-0.7-0.6-1.3-0.7-2c3.1,3.4,4.2,7.9,6.2,11.9l0,0c-1.2-1-2.4-2-3.3-3.1c-0.2-0.3-0.3-0.7-1-0.5
			c-0.4,0.2-1.5-1.4-1.3-2c0.4,0,0.5,0.5,0.8,0.6c0.1,0.1,0.1,0.2,0.3,0.1c0,0,0-0.2-0.1-0.3c-0.2-0.8-0.7-1.4-1.3-2.1
			c-0.4-0.5-0.7-0.5-1.1,0c0,0.4,0.4,0.8,0.3,1.5c-0.3-0.5-0.6-0.9-0.9-1.3c-0.6,0.4-0.2,0.8-0.5,1.1C152.2,52,151.7,51,151.1,50.1
			L151.1,50.1z"/>
		<path class="st0" d="M484,99.5c-0.2,1.2,0,2.1,0.9,3c0.8,0.8,0.4,1.9,0.4,3c-0.2-0.1-0.2-0.5-0.6-0.4c-0.2,2.9,0.2,5.7,1.3,8.5
			c-0.8-0.3-0.9-0.5-1.3-2.2c-0.2-0.9-0.2-1.8-0.8-2.7c-0.1,1,0.2,1.7,0.2,2.8c-0.8-1.5-1.1-3-1.5-4.5c0.3,0.1,0.5,0.5,0.8,0.1
			c0.4-0.5,0.2-2-0.3-2.2c-0.5-0.3-0.5-0.7-0.6-1.1C481.9,102,483.5,101,484,99.5z"/>
		<path class="st0" d="M95.3,11.5c0.7-0.5,1.4-0.5,1.8-1c-0.1-0.6-0.7-0.3-0.9-0.8c3-1,6.1-2.1,9.2-0.9c2.5,1,5,2.1,7.4,3.5
			c-1,0-3.6-0.6-4.1-1.2c-1-1.2-2.4-1.3-3.8-1.4c-2.8-0.2-5.5,0.1-8.1,1.3C96.4,11.2,95.9,11.3,95.3,11.5z"/>
		<path class="st0" d="M303.8,63.9c-0.9-1.1-2.5-1.1-3.4-2.2c-1.2-1.4-2.3-2.9-3.2-4.6c-0.1-0.2-0.2-0.3-0.1-0.6
			c0.4-0.1,0.7,0.3,1,0.5C300.1,59.2,301.8,61.7,303.8,63.9z"/>
		<path class="st0" d="M473.9,77.6c0.9,0.2,1.2,0.9,1.5,1.5c0.3,0.7,0.6,1.5,0.9,2.3c0.2,0.5,0.5,1,1.2,0.5c0.2,1.5,0.4,3,0,4.4
			C476.8,83.2,474.5,80.8,473.9,77.6z"/>
		<path class="st0" d="M373.1,19.6c-2.8-0.2-5,1.7-7.7,2.2c0-0.7,0.5-0.8,0.8-0.9c1.2-0.5,2.5-0.7,3.5-1.5
			C371.1,18.4,372,19.1,373.1,19.6z"/>
		<path class="st0" d="M29.8,79.7c0.1,2.5-0.4,4.8-0.6,7.3c-0.2-1-0.1-1.7-0.1-2.4c0-0.8,0.1-1.6,0.3-2.3
			C29.5,81.4,29.7,80.6,29.8,79.7z"/>
		<path class="st0" d="M254.1,47.2c-0.8-0.4-1.7,0.3-2.5-0.4c1.4-0.1,2.5-0.1,3.9,0.2c-0.9,0.9-1.9,1-3.2,0.9
			C253,47.6,253.5,47.4,254.1,47.2z"/>
		<path class="st0" d="M179.8,94.9c-0.9-1.2-1.7-2.6-2-4.2C178.7,92.1,179.3,93.5,179.8,94.9z"/>
		<path class="st0" d="M476.1,66.4c-0.1-0.2-0.2-0.5-0.3-0.7c0.9,0.5,1.3,1.5,1.9,2.5c-1.1,0.1-1.4-0.9-2-1.2
			C475.6,66.4,476,66.6,476.1,66.4z"/>
		<path class="st0" d="M68,19.6c-1.9,0.9-3.8,1.8-5.7,2.7C64.2,21.3,66,20.2,68,19.6L68,19.6z"/>
		<path class="st0" d="M478.7,68.6c1,0.8,1.2,2.2,2,3.2C479.8,70.9,479.2,69.8,478.7,68.6z"/>
		<path class="st0" d="M141.9,35.5c1-0.2,1.5,0.4,2.2,0.6c0,0.4,0,0.7,0,1.1C143.4,36.6,142.7,36.1,141.9,35.5z"/>
		<path class="st0" d="M223.7,36.9c-0.6,1-1.1,1.9-1.7,2.9c-0.1-0.1-0.2-0.1-0.3-0.2C222.2,38.6,222.6,37.5,223.7,36.9z"/>
		<path class="st0" d="M476.7,78.4c-0.1,0.7,0.4,1.3,0.4,2l0,0c-0.6-1-1-2.1-1.9-3c0.7-0.4,0.7,0.7,1.3,0.5l0,0
			C476.2,78.1,476.4,78.3,476.7,78.4L476.7,78.4z"/>
		<path class="st0" d="M396.5,38.3c1.1-0.2,2.2-0.5,3.6-0.8C398.8,38.6,397.6,38.3,396.5,38.3z"/>
		<path class="st0" d="M363.3,44.3c0.3-0.7,0.6-1.3,0.9-1.9C364.8,43,364.4,44,363.3,44.3z"/>
		<path class="st0" d="M265.3,25.1c-0.9,0.1-1.6,0.2-2.2,0.3c-0.2-0.3,0.1-0.5,0.1-0.7C263.8,24.8,264.5,24.8,265.3,25.1z"/>
		<path class="st0" d="M480,72.7c-1.1-0.4-0.9-1.4-1.2-2.4C479.4,71.2,479.6,71.9,480,72.7z"/>
		<path class="st0" d="M94.9,11.6c-0.8,0.7-1.8,0.8-2.8,1.7C93.3,12.6,94.1,12.1,94.9,11.6z"/>
		<path class="st0" d="M440,22.6c-1,0.3-1.6,0.1-2.3-0.3C438.4,22.2,439.1,22.1,440,22.6z"/>
		<path class="st0" d="M343.1,42.9c0.5-0.7,1-1.3,1.4-1.9C344.7,42,343.9,42.4,343.1,42.9z"/>
		<path class="st0" d="M68,19.7c0.7-0.6,1.7-0.7,2.5-1.1C69.7,18.9,68.9,19.3,68,19.7C68,19.6,68,19.7,68,19.7z"/>
		<path class="st0" d="M134.9,31.1c-0.4,0.1-0.9,0.2-1.3,0.3c-0.3-0.2-0.5-0.5-1-0.8C133.5,30.7,134.2,30.9,134.9,31.1z"/>
		<path class="st0" d="M167.3,75.2c-0.1-1-1-1.6-1.1-2.6c0.4,0.6,0.7,1.3,1.1,1.9C167.5,74.8,167.4,75,167.3,75.2L167.3,75.2z"/>
		<path class="st0" d="M473.4,78.2c-0.4-0.7-0.7-1.4-1.1-2.1C472.9,76.7,473.4,77.4,473.4,78.2z"/>
		<path class="st0" d="M173.4,96c-0.4-0.6-0.8-1.1-1-1.6C172.8,94.8,173.1,95.3,173.4,96z"/>
		<path class="st0" d="M161.8,59.1c0.2,0.3,0.4,0.5,0.6,0.8l-0.1,0.1c-0.2-0.2-0.4-0.5-0.5-0.7C161.7,59.2,161.8,59.2,161.8,59.1z"
			/>
		<path class="st0" d="M174.3,97.3c-0.3-0.4-0.5-0.7-0.7-1C174,96.5,173.9,96.9,174.3,97.3z"/>
		<path class="st0" d="M299.4,57c0.4,0.4,0.8,0.8,1,1.4l0,0C300,58,299.5,57.6,299.4,57L299.4,57z"/>
		<path class="st0" d="M189.5,109.7c-0.6,0.3-1.3,0.2-2.3,0.1c0.9-0.2,1.5-0.3,2.1-0.3C189.4,109.6,189.5,109.6,189.5,109.7z"/>
		<path class="st0" d="M477.2,80.3c0,0.2,0.1,0.5,0.1,0.7c0,0,0,0-0.1,0C477.2,80.8,477.2,80.6,477.2,80.3L477.2,80.3z"/>
		<path class="st0" d="M482.6,65.8c-0.1-0.2-0.2-0.3-0.3-0.4l0.1-0.1c0.1,0.1,0.3,0.3,0.4,0.4C482.7,65.7,482.7,65.7,482.6,65.8z"/>
		<path class="st0" d="M31.9,67.3c0,0.2,0,0.4,0,0.6C31.6,67.6,31.7,67.5,31.9,67.3L31.9,67.3z"/>
		<path class="st0" d="M483.3,73.4c0-0.1-0.1-0.2-0.1-0.3C483.2,73.3,483.2,73.4,483.3,73.4C483.3,73.5,483.3,73.4,483.3,73.4z"/>
		<path class="st0" d="M468.1,61.2C468,61.1,467.9,61.1,468.1,61.2C467.9,61.1,468,61.1,468.1,61.2L468.1,61.2z"/>
		<path class="st0" d="M151.1,50.1C151,50.1,151,50,151.1,50.1C151.1,50,151.1,50.1,151.1,50.1L151.1,50.1z"/>
		<path class="st0" d="M490.2,88.8L490.2,88.8L490.2,88.8z"/>
		<path class="st0" d="M300.3,58.4C300.4,58.4,300.4,58.5,300.3,58.4C300.4,58.5,300.4,58.4,300.3,58.4
			C300.4,58.4,300.3,58.4,300.3,58.4z"/>
		<path class="st0" d="M161.2,73.6L161.2,73.6L161.2,73.6z"/>
		<path class="st0" d="M161.4,58.6L161.4,58.6L161.4,58.6z"/>
		<polygon class="st0" points="365,40 365,40 365.1,40 		"/>
		<path class="st0" d="M456.8,37.5C456.7,37.4,456.7,37.4,456.8,37.5c-0.1-0.1,0-0.1,0-0.1C456.7,37.4,456.7,37.4,456.8,37.5
			C456.7,37.5,456.8,37.5,456.8,37.5z"/>
		<path class="st0" d="M335.7,78.8c-0.2-1.1,0.2-1.9,0.4-2.9C336.7,76.8,336.6,77.7,335.7,78.8z"/>
		<path class="st0" d="M340.1,65.1c0-0.8,0.5-1.4,1.1-1.9C341,64,340.7,64.6,340.1,65.1L340.1,65.1z"/>
		<path class="st0" d="M325.3,90.6c-0.1,0.4-0.5,0.5-0.8,0.7C324.6,90.9,324.9,90.8,325.3,90.6L325.3,90.6z"/>
		<path class="st0" d="M319.4,92.5c0.4,0.2,0.7,0.5,1,0.9c-0.6-0.1-0.9-0.5-1.2-0.8C319.3,92.6,319.4,92.6,319.4,92.5z"/>
		<path class="st0" d="M327.1,89.4c-0.1,0.2-0.3,0.3-0.5,0.4C326.6,89.5,326.8,89.4,327.1,89.4L327.1,89.4z"/>
		<path class="st0" d="M340.1,65.1C340.1,65.2,340.1,65.3,340.1,65.1C340,65.2,340.1,65.2,340.1,65.1L340.1,65.1z"/>
		<path class="st0" d="M184.9,68.5c-0.1-0.1-0.2-0.2-0.1-0.4c0.1,0.1,0.1,0.2,0.2,0.2C185,68.4,184.9,68.5,184.9,68.5z"/>
		<path class="st0" d="M314.1,45.9c-0.5,0.2-0.8,0-1.3-0.3c0.5-0.5,0.4-1,0.2-1.7C313.7,44.5,314.1,45.1,314.1,45.9z"/>
		<path class="st0" d="M302.9,37.7c0.2,0,0.4,0.1,0.5,0.3c-0.3,0.2-0.5,0-0.7-0.1C302.8,37.8,302.8,37.8,302.9,37.7z"/>
		<path class="st0" d="M404.4,27.9c1.3-0.1,2.5-0.2,3.7-0.5C407,28.1,405.9,28.9,404.4,27.9z"/>
		<path class="st0" d="M374.5,33.2c-0.7,0.1-1.3,0.5-2,0.3C373,33,373.2,33,374.5,33.2z"/>
		<path class="st0" d="M295.7,45.2c1.2-0.2,2.1,0.4,3.1,1c0,0.1-0.1,0.2-0.1,0.2C297.7,46,296.7,45.6,295.7,45.2z"/>
		<path class="st0" d="M317.8,75.2c-0.1-1.3-0.2-2.4,0-3.7C318.8,72.8,318.2,73.9,317.8,75.2z"/>
		<path class="st0" d="M317,66.5c-0.5-0.6-1.1-1.1-1.4-1.9C316.2,65.1,316.8,65.6,317,66.5L317,66.5z"/>
		<path class="st0" d="M317.2,66.9c-0.1-0.1-0.1-0.3-0.2-0.4l0,0C317.2,66.6,317.1,66.8,317.2,66.9L317.2,66.9z"/>
		<path class="st0" d="M317.2,66.9L317.2,66.9L317.2,66.9z"/>
		<path class="st0" d="M334.6,52.5c-0.3,1.1-1.3,1.8-1.7,2.8C333.2,54.2,333.8,53.3,334.6,52.5L334.6,52.5z"/>
		<path class="st0" d="M334.6,52.5c0.3-0.5,0.6-0.9,1.1-1.1C335.4,51.8,335.2,52.4,334.6,52.5L334.6,52.5z"/>
		<path class="st0" d="M80.1,24.4L80.1,24.4C80.2,24.4,80.2,24.4,80.1,24.4L80.1,24.4L80.1,24.4z"/>
		<path class="st0" d="M328.4,88.5c0.1-0.2,0.3-0.3,0.6-0.4C328.9,88.4,328.7,88.5,328.4,88.5C328.4,88.4,328.4,88.5,328.4,88.5z"/>
	</g>
</g>
</svg>
