<?xml version="1.0" encoding="utf-8"?>
<!-- Generator: Adobe Illustrator 23.0.0, SVG Export Plug-In . SVG Version: 6.00 Build 0)  -->
<svg version="1.1"
	 id="svg14460" inkscape:version="0.92.0 r15299" sodipodi:docname="soriana.svg" xmlns:cc="http://creativecommons.org/ns#" xmlns:dc="http://purl.org/dc/elements/1.1/" xmlns:inkscape="http://www.inkscape.org/namespaces/inkscape" xmlns:rdf="http://www.w3.org/1999/02/22-rdf-syntax-ns#" xmlns:sodipodi="http://sodipodi.sourceforge.net/DTD/sodipodi-0.dtd" xmlns:svg="http://www.w3.org/2000/svg"
	 xmlns="http://www.w3.org/2000/svg" xmlns:xlink="http://www.w3.org/1999/xlink" x="0px" y="0px" viewBox="0 0 115 96.6"
	 style="enable-background:new 0 0 115 96.6;" xml:space="preserve">
<style type="text/css">
	.st0{fill:#DD1F26;}
	.st1{fill:#BCC032;}
</style>
<g id="layer1" transform="translate(-68.091778,-218.0622)" inkscape:groupmode="layer" inkscape:label="Layer 1">
	<g id="g14551" transform="translate(0.264583,-0.26457657)">
		<path id="path14126" inkscape:connector-curvature="0" class="st0" d="M142,229.4c-2.8,0-6.7,1.2-9.6,5.1
			c-0.5,0.7-0.9,1.6-1.2,2.5c-0.9,3-0.3,6.3,1.7,8.9c1.5,2,3.3,3.4,5,4.7c0.8,0.6,2.5,2.2,3.1,2.9c0.8,1,1.5,1.6,2.2,3.9
			c0.4,1.4,0.5,3.1,0.3,4.2c5.2-5.2,10.8-11.9,10.8-19.2C154.1,234,148.1,229.4,142,229.4"/>
		<path id="path14130" inkscape:connector-curvature="0" class="st1" d="M131.2,257.5c-2.1-2.9-4.6-4.7-6.7-6.6
			c-0.9-0.8-1.9-1.4-2.6-2.2c-3.5-3.5-5.1-7.8-4.3-13c0.6-4.1,2.7-6.9,5.1-8.9c-2.9-2.2-6.4-3.3-10.4-3.3c-9.8,0-17.9,7.9-17.7,17.7
			c0.4,17.6,22.3,32.6,31.3,35.7c4.8-2.5,7.4-7.2,7.4-11.9C133.5,261.5,132,258.7,131.2,257.5"/>
		<path id="path14134" inkscape:connector-curvature="0" class="st0" d="M75.8,303c1.2,0.9,3.7,2,5.4,2c1.3,0,2.5-0.5,2.5-1.9
			c0-1.4-1.8-1.9-3.6-2.6c-2.1-0.8-4.2-2.1-4.2-5.4c0-4.4,3.3-6.8,8.1-6.8c3.1,0,6,1.6,7.4,3.2l-3.1,3.3c-1.4-1.2-3-2.1-4.5-2.1
			c-1.2,0-2.2,0.5-2.2,1.6c0,1.5,1.3,1.9,3.6,2.8c2.2,0.9,4.4,2.2,4.4,5.4c0,4.3-3.5,7.1-8.5,7.1c-3.5,0-6.5-1.5-7.7-2.4L75.8,303z"
			/>
		<path id="path14138" inkscape:connector-curvature="0" class="st0" d="M100.7,301.6c0.2-1,0.2-1.9,0.2-2.6c0-1.5-0.5-2.4-1.5-2.4
			c-1.4,0-2.4,1.4-2.9,4c-0.2,1-0.3,2-0.3,2.8c0,1.4,0.4,2.5,1.5,2.5C99.3,305.9,100.2,304.6,100.7,301.6 M100.3,292.9
			c2.2,0,6,0.8,6,6c0,0.7,0,1.5-0.2,2.3c-1,6-4.8,8.5-9.2,8.5c-3.8,0-6-2.2-6-6.2c0-0.7,0-1.6,0.2-2.5
			C92.3,294.5,96.7,292.9,100.3,292.9"/>
		<path id="path14142" inkscape:connector-curvature="0" class="st0" d="M112.3,309.2h-5.2l2.3-12.8l0.1-3h4.1l0.1,2.2
			c1.1-1.9,2.7-2.7,4-2.7c0.9,0,1.9,0.2,2.5,0.6l-1.5,4.3c-0.6-0.3-1.3-0.6-2.1-0.6c-1.3,0-2.4,0.8-2.7,2.3L112.3,309.2z"/>
		<path id="path14146" inkscape:connector-curvature="0" class="st0" d="M119.2,309.2l2.8-15.8h5.2l-2.8,15.8H119.2z"/>
		<path id="path14158" inkscape:connector-curvature="0" class="st0" d="M125.8,286.6c1.5,0,2.3,1,2.3,2.2c0,1.6-1.4,2.9-3.2,2.9
			c-1.5,0-2.3-0.9-2.3-2.1C122.6,288,123.9,286.6,125.8,286.6"/>
		<path id="path14162" inkscape:connector-curvature="0" class="st0" d="M138.2,296.8c-0.3-0.2-0.8-0.2-1.4-0.2
			c-2.8,0-3.8,4.2-3.8,6.8c0,1.5,0.3,2.7,1.8,2.7c1.1,0,1.8-0.7,2.1-1.8L138.2,296.8z M141.7,305.8l-0.2,3.3h-4.4v-1.4l-0.2,0
			c-1.1,1.3-2.5,1.9-4.3,1.9c-3.3,0-4.8-2.4-4.8-5.8c0-6.3,3.5-11,10-11c1.3,0,3.6,0.3,5.9,1.2L141.7,305.8z"/>
		<path id="path14166" inkscape:connector-curvature="0" class="st0" d="M144.3,309.2l2.2-12.6l0.2-3.2h4.3l0.1,1.7
			c1.2-1.3,2.8-2.2,4.9-2.2c2.6,0,4.1,1.2,4.1,3.8c0,0.5-0.1,1.1-0.2,1.7l-1.9,10.7h-5.2l1.6-9.2c0.1-0.5,0.2-1.2,0.2-1.8
			c0-0.6-0.2-1.3-1.2-1.3c-1.3,0-2.1,1-2.3,2.3l-1.8,10H144.3z"/>
		<path id="path14170" inkscape:connector-curvature="0" class="st0" d="M171.7,296.8c-0.3-0.2-0.8-0.2-1.4-0.2
			c-2.8,0-3.8,4.2-3.8,6.8c0,1.5,0.3,2.7,1.8,2.7c1.1,0,1.8-0.7,2.1-1.8L171.7,296.8z M175.2,305.8l-0.2,3.3h-4.4v-1.4l-0.2,0
			c-1.1,1.3-2.5,1.9-4.3,1.9c-3.3,0-4.8-2.4-4.8-5.8c0-6.3,3.5-11,10-11c1.3,0,3.6,0.3,5.9,1.2L175.2,305.8z"/>
	</g>
</g>
</svg>
