<?xml version="1.0" encoding="utf-8"?>
<!-- Generator: Adobe Illustrator 23.0.0, SVG Export Plug-In . SVG Version: 6.00 Build 0)  -->
<svg version="1.1" id="Capa_1" xmlns="http://www.w3.org/2000/svg" xmlns:xlink="http://www.w3.org/1999/xlink" x="0px" y="0px"
	 viewBox="0 0 512 512" style="enable-background:new 0 0 512 512;" xml:space="preserve">
<style type="text/css">
	.st0{fill:none;stroke:#141B39;stroke-width:0.1454;stroke-miterlimit:3.8637;}
	.st1{fill:none;stroke:#141B39;stroke-width:0.1454;stroke-miterlimit:3.8637;}
	.st2{fill:#141B39;stroke:#141B39;stroke-width:0.6331;stroke-linecap:round;stroke-miterlimit:3.8637;}
	.st3{clip-path:url(#SVGID_2_);fill:#141B39;}
	.st4{clip-path:url(#SVGID_5_);}
	.st5{clip-path:url(#SVGID_6_);fill:#141B39;}
	.st6{clip-path:url(#SVGID_6_);fill:#141B39;}
	.st7{clip-path:url(#SVGID_6_);fill:#141B39;}
	.st8{clip-path:url(#SVGID_6_);fill:#141B39;}
	.st9{clip-path:url(#SVGID_6_);fill:#141B39;}
	.st10{clip-path:url(#SVGID_6_);fill:#141B39;}
	.st11{clip-path:url(#SVGID_6_);fill:#141B39;}
	.st12{clip-path:url(#SVGID_6_);fill:#141B39;}
	.st13{clip-path:url(#SVGID_6_);fill:#141B39;}
	.st14{clip-path:url(#SVGID_6_);fill:#141B39;}
	.st15{clip-path:url(#SVGID_6_);fill:#141B39;}
	.st16{clip-path:url(#SVGID_6_);fill:#141B39;}
	.st17{clip-path:url(#SVGID_6_);fill:#141B39;}
	.st18{clip-path:url(#SVGID_6_);fill:#141B39;}
	.st19{clip-path:url(#SVGID_6_);fill:#141B39;}
	.st20{clip-path:url(#SVGID_6_);fill:#141B39;}
	.st21{clip-path:url(#SVGID_6_);fill:#141B39;}
	.st22{clip-path:url(#SVGID_6_);fill:#141B39;}
	.st23{clip-path:url(#SVGID_6_);fill:#141B39;}
	.st24{clip-path:url(#SVGID_6_);fill:#141B39;}
	.st25{clip-path:url(#SVGID_6_);fill:#141B39;}
	.st26{clip-path:url(#SVGID_6_);fill:#141B39;}
	.st27{clip-path:url(#SVGID_6_);fill:#141B39;}
	.st28{clip-path:url(#SVGID_6_);fill:#141B39;}
	.st29{clip-path:url(#SVGID_6_);fill:#141B39;}
	.st30{clip-path:url(#SVGID_6_);fill:#141B39;}
	.st31{clip-path:url(#SVGID_6_);fill:#141B39;}
	.st32{clip-path:url(#SVGID_6_);fill:#141B39;}
	.st33{clip-path:url(#SVGID_6_);fill:#141B39;}
	.st34{clip-path:url(#SVGID_6_);fill:#141B39;}
	.st35{clip-path:url(#SVGID_9_);}
	.st36{clip-path:url(#SVGID_10_);fill:#fcfcfc;}
	.st37{clip-path:url(#SVGID_10_);fill:#fcfcfc;}
	.st38{clip-path:url(#SVGID_10_);fill:#fcfcfc;}
	.st39{clip-path:url(#SVGID_10_);fill:#fcfcfc;}
	.st40{clip-path:url(#SVGID_10_);fill:#fcfcfc;}
	.st41{clip-path:url(#SVGID_10_);fill:#fcfcfc;}
	.st42{clip-path:url(#SVGID_10_);fill:#fcfcfc;}
	.st43{clip-path:url(#SVGID_10_);fill:#fcfcfc;}
	.st44{clip-path:url(#SVGID_10_);fill:#fcfcfc;}
	.st45{clip-path:url(#SVGID_10_);fill:#fcfcfc;}
	.st46{clip-path:url(#SVGID_10_);fill:#fcfcfc;}
	.st47{clip-path:url(#SVGID_10_);fill:#fcfcfc;}
	.st48{clip-path:url(#SVGID_10_);fill:#fcfcfc;}
	.st49{clip-path:url(#SVGID_10_);fill:#fcfcfc;}
	.st50{clip-path:url(#SVGID_10_);fill:#fcfcfc;}
	.st51{clip-path:url(#SVGID_10_);fill:#fcfcfc;}
	.st52{clip-path:url(#SVGID_10_);fill:#fcfcfc;}
	.st53{clip-path:url(#SVGID_10_);fill:#fcfcfc;}
	.st54{clip-path:url(#SVGID_10_);fill:#fcfcfc;}
	.st55{clip-path:url(#SVGID_10_);fill:#fcfcfc;}
	.st56{clip-path:url(#SVGID_10_);fill:#fcfcfc;}
	.st57{clip-path:url(#SVGID_10_);fill:#fcfcfc;}
	.st58{clip-path:url(#SVGID_10_);fill:#fcfcfc;}
	.st59{clip-path:url(#SVGID_10_);fill:#fcfcfc;}
	.st60{clip-path:url(#SVGID_10_);fill:#fcfcfc;}
	.st61{clip-path:url(#SVGID_10_);fill:#fcfcfc;}
	.st62{fill:none;stroke:#141B39;stroke-width:0.6331;stroke-linecap:round;stroke-miterlimit:3.8637;}
	.st63{clip-path:url(#SVGID_12_);fill:none;stroke:#141B39;stroke-width:0.1823;stroke-miterlimit:3.8637;}
	.st64{fill:#A03A38;stroke:#141B39;stroke-width:0.6702;stroke-miterlimit:3.8637;}
	.st65{fill:#565FA1;stroke:#141B39;stroke-width:0.6702;stroke-miterlimit:3.8637;}
	.st66{clip-path:url(#SVGID_14_);fill:#7C7C80;}
	.st67{clip-path:url(#SVGID_14_);fill:#BABAC0;}
	.st68{clip-path:url(#SVGID_17_);}
	.st69{clip-path:url(#SVGID_18_);fill:#7C7C80;}
	.st70{clip-path:url(#SVGID_18_);fill:#8D8B90;}
	.st71{clip-path:url(#SVGID_18_);fill:#9B9A9F;}
	.st72{clip-path:url(#SVGID_18_);fill:#AAAAAF;}
	.st73{clip-path:url(#SVGID_18_);fill:#BABAC0;}
	.st74{clip-path:url(#SVGID_21_);}
	.st75{clip-path:url(#SVGID_22_);fill:#141B39;}
	.st76{clip-path:url(#SVGID_22_);fill:#ADA9AA;}
	.st77{clip-path:url(#SVGID_22_);fill:#C1BDB7;}
	.st78{clip-path:url(#SVGID_22_);fill:#D5D0C0;}
	.st79{clip-path:url(#SVGID_22_);fill:#EAE2C7;}
	.st80{clip-path:url(#SVGID_25_);}
	.st81{clip-path:url(#SVGID_26_);fill:#EAE2C7;}
	.st82{clip-path:url(#SVGID_26_);fill:#D7D0C1;}
	.st83{clip-path:url(#SVGID_26_);fill:#C4BEB8;}
	.st84{clip-path:url(#SVGID_26_);fill:#B1ABAD;}
	.st85{clip-path:url(#SVGID_29_);}
	.st86{clip-path:url(#SVGID_30_);fill:#7C7C80;}
	.st87{clip-path:url(#SVGID_30_);fill:#818084;}
	.st88{clip-path:url(#SVGID_30_);fill:#858488;}
	.st89{clip-path:url(#SVGID_30_);fill:#89888D;}
	.st90{clip-path:url(#SVGID_30_);fill:#8E8C91;}
	.st91{clip-path:url(#SVGID_30_);fill:#929095;}
	.st92{clip-path:url(#SVGID_30_);fill:#959499;}
	.st93{clip-path:url(#SVGID_30_);fill:#99989D;}
	.st94{clip-path:url(#SVGID_30_);fill:#9D9CA1;}
	.st95{clip-path:url(#SVGID_30_);fill:#A1A0A5;}
	.st96{clip-path:url(#SVGID_30_);fill:#A5A4AA;}
	.st97{clip-path:url(#SVGID_30_);fill:#A9A9AE;}
	.st98{clip-path:url(#SVGID_30_);fill:#AEADB2;}
	.st99{clip-path:url(#SVGID_30_);fill:#B2B1B7;}
	.st100{clip-path:url(#SVGID_30_);fill:#B6B6BB;}
	.st101{clip-path:url(#SVGID_30_);fill:#BABAC0;}
	.st102{fill:none;stroke:#141B39;stroke-width:0.2453;stroke-linecap:round;stroke-miterlimit:3.8637;}
	.st103{fill:none;stroke:#141B39;stroke-width:0.2453;stroke-miterlimit:3.8637;}
	.st104{clip-path:url(#SVGID_32_);fill:#7C7C80;}
	.st105{clip-path:url(#SVGID_32_);fill:#BABAC0;}
	.st106{clip-path:url(#SVGID_35_);}
	.st107{clip-path:url(#SVGID_36_);fill:#7C7C80;}
	.st108{clip-path:url(#SVGID_36_);fill:#818085;}
	.st109{clip-path:url(#SVGID_36_);fill:#868489;}
	.st110{clip-path:url(#SVGID_36_);fill:#8A898D;}
	.st111{clip-path:url(#SVGID_36_);fill:#8F8D92;}
	.st112{clip-path:url(#SVGID_36_);fill:#939196;}
	.st113{clip-path:url(#SVGID_36_);fill:#97969B;}
	.st114{clip-path:url(#SVGID_36_);fill:#9B9A9F;}
	.st115{clip-path:url(#SVGID_36_);fill:#A09EA3;}
	.st116{clip-path:url(#SVGID_36_);fill:#A4A3A8;}
	.st117{clip-path:url(#SVGID_36_);fill:#A8A7AD;}
	.st118{clip-path:url(#SVGID_36_);fill:#ADACB1;}
	.st119{clip-path:url(#SVGID_36_);fill:#B1B1B6;}
	.st120{clip-path:url(#SVGID_36_);fill:#B6B6BB;}
	.st121{clip-path:url(#SVGID_36_);fill:#BABAC0;}
	.st122{stroke:#141B39;stroke-width:0.1454;stroke-miterlimit:3.8637;}
	.st123{fill:#F9EEC8;stroke:#141B39;stroke-width:0.1017;stroke-miterlimit:3.8637;}
	.st124{fill:#F9EEC8;}
	.st125{fill:none;stroke:#141B39;stroke-width:0.1017;stroke-miterlimit:3.8637;}
	.st126{fill:none;stroke:#141B39;stroke-width:0.1823;stroke-miterlimit:3.8637;}
	.st127{fill:#F9EEC8;stroke:#141B39;stroke-width:0.1458;stroke-miterlimit:3.8637;}
	.st128{fill:#AA9847;stroke:#776908;stroke-width:0.2332;stroke-miterlimit:3.8637;}
	.st129{fill:none;stroke:#776908;stroke-width:0.2332;stroke-miterlimit:3.8637;}
	.st130{fill:#776908;}
	.st131{fill:none;stroke:#141B39;stroke-width:0.3355;stroke-linecap:round;stroke-miterlimit:3.8637;}
	.st132{fill:none;stroke:#141B39;stroke-width:0.2516;stroke-linecap:round;stroke-miterlimit:3.8637;}
	.st133{fill:none;stroke:#776908;stroke-width:0.1677;stroke-miterlimit:3.8637;}
	.st134{fill:none;stroke:#141B39;stroke-width:0.2332;stroke-miterlimit:3.8637;}
	.st135{clip-path:url(#SVGID_38_);fill:#8A7A29;}
	.st136{clip-path:url(#SVGID_38_);fill:#8F7E2F;}
	.st137{clip-path:url(#SVGID_38_);fill:#948335;}
	.st138{clip-path:url(#SVGID_38_);fill:#99883C;}
	.st139{clip-path:url(#SVGID_38_);fill:#9F8D42;}
	.st140{clip-path:url(#SVGID_38_);fill:#A49249;}
	.st141{clip-path:url(#SVGID_38_);fill:#AA9850;}
	.st142{clip-path:url(#SVGID_38_);fill:#AF9E57;}
	.st143{clip-path:url(#SVGID_38_);fill:#B5A35E;}
	.st144{clip-path:url(#SVGID_38_);fill:#BAA965;}
	.st145{clip-path:url(#SVGID_38_);fill:#C0B06D;}
	.st146{clip-path:url(#SVGID_38_);fill:#C6B675;}
	.st147{clip-path:url(#SVGID_38_);fill:#CCBC7D;}
	.st148{clip-path:url(#SVGID_38_);fill:#D2C285;}
	.st149{clip-path:url(#SVGID_38_);fill:#D8C98E;}
	.st150{clip-path:url(#SVGID_38_);fill:#DECF97;}
	.st151{clip-path:url(#SVGID_38_);fill:#E4D6A1;}
	.st152{clip-path:url(#SVGID_38_);fill:#EADCAB;}
	.st153{clip-path:url(#SVGID_38_);fill:#EFE2B5;}
	.st154{clip-path:url(#SVGID_38_);fill:#F5E9BF;}
	.st155{fill:none;stroke:#776908;stroke-width:0.2186;stroke-miterlimit:3.8637;}
	.st156{clip-path:url(#SVGID_40_);fill:#F9EDC8;}
	.st157{clip-path:url(#SVGID_40_);fill:#E8DAA5;}
	.st158{clip-path:url(#SVGID_40_);fill:#D4C484;}
	.st159{clip-path:url(#SVGID_40_);fill:#C1AF67;}
	.st160{clip-path:url(#SVGID_40_);fill:#AE9C4D;}
	.st161{clip-path:url(#SVGID_42_);fill:#F9EDC8;}
	.st162{clip-path:url(#SVGID_42_);fill:#E8DAA5;}
	.st163{clip-path:url(#SVGID_42_);fill:#D4C484;}
	.st164{clip-path:url(#SVGID_42_);fill:#C1AF67;}
	.st165{clip-path:url(#SVGID_42_);fill:#AE9C4D;}
	.st166{clip-path:url(#SVGID_44_);fill:#AE9C4D;}
	.st167{clip-path:url(#SVGID_44_);fill:#B2A052;}
	.st168{clip-path:url(#SVGID_44_);fill:#B6A358;}
	.st169{clip-path:url(#SVGID_44_);fill:#B9A75D;}
	.st170{clip-path:url(#SVGID_44_);fill:#BDAB62;}
	.st171{clip-path:url(#SVGID_44_);fill:#C1AF67;}
	.st172{clip-path:url(#SVGID_44_);fill:#C5B46D;}
	.st173{clip-path:url(#SVGID_44_);fill:#C9B872;}
	.st174{clip-path:url(#SVGID_44_);fill:#CDBC78;}
	.st175{clip-path:url(#SVGID_44_);fill:#D0C07E;}
	.st176{clip-path:url(#SVGID_44_);fill:#D4C484;}
	.st177{clip-path:url(#SVGID_44_);fill:#D8C98A;}
	.st178{clip-path:url(#SVGID_44_);fill:#DCCD90;}
	.st179{clip-path:url(#SVGID_44_);fill:#E0D197;}
	.st180{clip-path:url(#SVGID_44_);fill:#E4D69E;}
	.st181{clip-path:url(#SVGID_44_);fill:#E8DAA5;}
	.st182{clip-path:url(#SVGID_44_);fill:#ECDEAC;}
	.st183{clip-path:url(#SVGID_44_);fill:#EFE2B3;}
	.st184{clip-path:url(#SVGID_44_);fill:#F3E6BB;}
	.st185{clip-path:url(#SVGID_44_);fill:#F7EAC2;}
	.st186{clip-path:url(#SVGID_46_);fill:#F9E333;}
	.st187{clip-path:url(#SVGID_49_);}
	.st188{clip-path:url(#SVGID_50_);fill:#F9E333;}
	.st189{clip-path:url(#SVGID_50_);fill:#E6BC37;}
	.st190{clip-path:url(#SVGID_50_);fill:#D49335;}
	.st191{clip-path:url(#SVGID_50_);fill:#C56E32;}
	.st192{fill:none;stroke:#9A999E;stroke-width:7.290000e-02;stroke-miterlimit:3.8637;}
	.st193{clip-path:url(#SVGID_52_);fill:#F9E333;}
	.st194{clip-path:url(#SVGID_55_);}
	.st195{clip-path:url(#SVGID_56_);fill:#F9E333;}
	.st196{clip-path:url(#SVGID_56_);fill:#E6BC37;}
	.st197{clip-path:url(#SVGID_56_);fill:#D49335;}
	.st198{clip-path:url(#SVGID_56_);fill:#C56E32;}
	.st199{clip-path:url(#SVGID_58_);fill:#F9E333;}
	.st200{clip-path:url(#SVGID_58_);fill:#B5402D;}
	.st201{clip-path:url(#SVGID_61_);}
	.st202{clip-path:url(#SVGID_62_);fill:#F9E333;}
	.st203{clip-path:url(#SVGID_62_);fill:#E6BC37;}
	.st204{clip-path:url(#SVGID_62_);fill:#D49335;}
	.st205{clip-path:url(#SVGID_62_);fill:#C56E32;}
	.st206{clip-path:url(#SVGID_62_);fill:#B5402D;}
	.st207{clip-path:url(#SVGID_64_);fill:#F9E333;}
	.st208{clip-path:url(#SVGID_67_);}
	.st209{clip-path:url(#SVGID_68_);fill:#F9E333;}
	.st210{clip-path:url(#SVGID_68_);fill:#E6BC37;}
	.st211{clip-path:url(#SVGID_68_);fill:#D49335;}
	.st212{clip-path:url(#SVGID_68_);fill:#C56E32;}
	.st213{clip-path:url(#SVGID_70_);fill:#F9E333;}
	.st214{clip-path:url(#SVGID_73_);}
	.st215{clip-path:url(#SVGID_74_);fill:#F9E333;}
	.st216{clip-path:url(#SVGID_74_);fill:#E6BC37;}
	.st217{clip-path:url(#SVGID_74_);fill:#D49335;}
	.st218{clip-path:url(#SVGID_74_);fill:#C56E32;}
	.st219{clip-path:url(#SVGID_74_);fill:#B5402D;}
	.st220{clip-path:url(#SVGID_76_);fill:#F9E333;}
	.st221{clip-path:url(#SVGID_79_);}
	.st222{clip-path:url(#SVGID_80_);fill:#F9E333;}
	.st223{clip-path:url(#SVGID_80_);fill:#E6BC37;}
	.st224{clip-path:url(#SVGID_80_);fill:#D49335;}
	.st225{clip-path:url(#SVGID_80_);fill:#C56E32;}
	.st226{clip-path:url(#SVGID_82_);fill:#F9E333;}
	.st227{clip-path:url(#SVGID_85_);}
	.st228{clip-path:url(#SVGID_86_);fill:#F9E333;}
	.st229{clip-path:url(#SVGID_86_);fill:#E6BC37;}
	.st230{clip-path:url(#SVGID_86_);fill:#D49335;}
	.st231{clip-path:url(#SVGID_86_);fill:#C56E32;}
	.st232{clip-path:url(#SVGID_86_);fill:#B5402D;}
	.st233{clip-path:url(#SVGID_88_);fill:#F9E333;}
	.st234{clip-path:url(#SVGID_91_);}
	.st235{clip-path:url(#SVGID_92_);fill:#F9E333;}
	.st236{clip-path:url(#SVGID_92_);fill:#E6BC37;}
	.st237{fill:none;stroke:#FFFFFF;stroke-width:0.3645;stroke-miterlimit:3.8637;}
	.st238{fill:none;}
</style>
<g>
	<path class="st0" d="M162.2,403.7c22,13.9,47.3,23.1,74.5,26.1l-3.8,38.2c-33.4-3.6-64.6-14.9-91.6-32.1L162.2,403.7L162.2,403.7
		L162.2,403.7z"/>
	<path class="st1" d="M80.5,255.4c0-96.9,78.6-175.5,175.5-175.5c96.9,0,175.5,78.6,175.5,175.5c0,96.9-78.6,175.5-175.5,175.5
		C159.1,430.9,80.5,352.3,80.5,255.4L80.5,255.4L80.5,255.4z"/>
	<path class="st2" d="M42.1,255.4c0-118.1,95.7-213.8,213.9-213.8c118.1,0,213.9,95.7,213.9,213.8c0,118.1-95.7,213.8-213.9,213.8
		C137.9,469.2,42.1,373.5,42.1,255.4L42.1,255.4z"/>
	<g>
		<defs>
			<path id="SVGID_1_" d="M80.5,255.4c0-96.9,78.6-175.5,175.5-175.5c96.9,0,175.5,78.6,175.5,175.5c0,96.9-78.6,175.5-175.5,175.5
				C159.1,430.9,80.5,352.3,80.5,255.4L80.5,255.4z"/>
		</defs>
		<clipPath id="SVGID_2_">
			<use xlink:href="#SVGID_1_"  style="overflow:visible;"/>
		</clipPath>
		<polygon class="st3" points="431.5,79.9 431.5,96.8 80.5,96.8 80.5,79.9 431.5,79.9 		"/>
	</g>
	<g>
		<defs>
			<polygon id="SVGID_3_" points="431.5,92.5 431.5,276.7 80.5,276.7 80.5,92.5 431.5,92.5 			"/>
		</defs>
		<defs>
			<path id="SVGID_4_" d="M80.5,255.4c0-96.9,78.6-175.5,175.5-175.5c96.9,0,175.5,78.6,175.5,175.5c0,96.9-78.6,175.5-175.5,175.5
				C159.1,430.9,80.5,352.3,80.5,255.4L80.5,255.4z"/>
		</defs>
		<clipPath id="SVGID_5_">
			<use xlink:href="#SVGID_3_"  style="overflow:visible;"/>
		</clipPath>
		<clipPath id="SVGID_6_" class="st4">
			<use xlink:href="#SVGID_4_"  style="overflow:visible;"/>
		</clipPath>
		<rect x="80.5" y="92.8" class="st5" width="350.6" height="5.8"/>
		<rect x="80.5" y="98.9" class="st6" width="350.6" height="5.8"/>
		<rect x="80.5" y="105.1" class="st7" width="350.6" height="5.8"/>
		<rect x="80.5" y="111.2" class="st8" width="350.6" height="5.8"/>
		<rect x="80.5" y="117.4" class="st9" width="350.6" height="5.8"/>
		<rect x="80.5" y="123.5" class="st10" width="350.6" height="5.8"/>
		<rect x="80.5" y="129.7" class="st11" width="350.6" height="5.8"/>
		<rect x="80.5" y="135.8" class="st12" width="350.6" height="5.8"/>
		<rect x="80.5" y="141.9" class="st13" width="350.6" height="5.8"/>
		<rect x="80.5" y="148.1" class="st14" width="350.6" height="5.8"/>
		<rect x="80.5" y="154.2" class="st15" width="350.6" height="5.8"/>
		<rect x="80.5" y="160.4" class="st16" width="350.6" height="5.8"/>
		<rect x="80.5" y="166.5" class="st17" width="350.6" height="5.8"/>
		<rect x="80.5" y="172.7" class="st18" width="350.6" height="5.8"/>
		<rect x="80.5" y="178.8" class="st19" width="350.6" height="5.8"/>
		<rect x="80.5" y="184.9" class="st20" width="350.6" height="5.8"/>
		<rect x="80.5" y="191.1" class="st21" width="350.6" height="5.8"/>
		<rect x="80.5" y="197.2" class="st22" width="350.6" height="5.8"/>
		<rect x="80.5" y="203.4" class="st23" width="350.6" height="5.8"/>
		<rect x="80.5" y="209.5" class="st24" width="350.6" height="5.8"/>
		<rect x="80.5" y="215.6" class="st25" width="350.6" height="5.8"/>
		<rect x="80.5" y="221.8" class="st26" width="350.6" height="5.8"/>
		<rect x="80.5" y="227.9" class="st27" width="350.6" height="5.8"/>
		<rect x="80.5" y="234.1" class="st28" width="350.6" height="5.8"/>
		<rect x="80.5" y="240.2" class="st29" width="350.6" height="5.8"/>
		<rect x="80.5" y="246.4" class="st30" width="350.6" height="5.8"/>
		<rect x="80.5" y="252.5" class="st31" width="350.6" height="5.8"/>
		<rect x="80.5" y="258.6" class="st32" width="350.6" height="5.8"/>
		<rect x="80.5" y="264.8" class="st33" width="350.6" height="5.8"/>
		<rect x="80.5" y="270.9" class="st34" width="350.6" height="5.8"/>
	</g>
	<g>
		<defs>
			<polygon id="SVGID_7_" points="431.5,276.7 431.5,453.8 80.5,453.8 80.5,276.7 431.5,276.7 			"/>
		</defs>
		<defs>
			<path id="SVGID_8_" d="M80.5,255.4c0-96.9,78.6-175.5,175.5-175.5c96.9,0,175.5,78.6,175.5,175.5c0,96.9-78.6,175.5-175.5,175.5
				C159.1,430.9,80.5,352.3,80.5,255.4L80.5,255.4z"/>
		</defs>
		<clipPath id="SVGID_9_">
			<use xlink:href="#SVGID_7_"  style="overflow:visible;"/>
		</clipPath>
		<clipPath id="SVGID_10_" class="st35">
			<use xlink:href="#SVGID_8_"  style="overflow:visible;"/>
		</clipPath>
		<rect x="80.5" y="277" class="st36" width="350.6" height="5.8"/>
		<rect x="80.5" y="283.1" class="st37" width="350.6" height="5.8"/>
		<rect x="80.5" y="289.2" class="st38" width="350.6" height="5.8"/>
		<rect x="80.5" y="295.4" class="st39" width="350.6" height="5.8"/>
		<rect x="80.5" y="301.5" class="st40" width="350.6" height="5.8"/>
		<rect x="80.5" y="307.6" class="st41" width="350.6" height="5.8"/>
		<rect x="80.5" y="313.7" class="st42" width="350.6" height="5.8"/>
		<rect x="80.5" y="319.8" class="st43" width="350.6" height="5.8"/>
		<rect x="80.5" y="325.9" class="st44" width="350.6" height="5.8"/>
		<rect x="80.5" y="332" class="st45" width="350.6" height="5.8"/>
		<rect x="80.5" y="338.1" class="st46" width="350.6" height="5.8"/>
		<rect x="80.5" y="344.2" class="st47" width="350.6" height="5.8"/>
		<rect x="80.5" y="350.3" class="st48" width="350.6" height="5.8"/>
		<rect x="80.5" y="356.4" class="st49" width="350.6" height="5.8"/>
		<rect x="80.5" y="362.5" class="st50" width="350.6" height="5.8"/>
		<rect x="80.5" y="368.6" class="st51" width="350.6" height="5.8"/>
		<rect x="80.5" y="374.7" class="st52" width="350.6" height="5.8"/>
		<rect x="80.5" y="380.8" class="st53" width="350.6" height="5.8"/>
		<rect x="80.5" y="386.9" class="st54" width="350.6" height="5.8"/>
		<rect x="80.5" y="393" class="st55" width="350.6" height="5.8"/>
		<rect x="80.5" y="399.1" class="st56" width="350.6" height="5.8"/>
		<rect x="80.5" y="405.2" class="st57" width="350.6" height="5.8"/>
		<rect x="80.5" y="411.3" class="st58" width="350.6" height="5.8"/>
		<rect x="80.5" y="417.5" class="st59" width="350.6" height="5.8"/>
		<rect x="80.5" y="423.6" class="st60" width="350.6" height="5.8"/>
		<rect x="80.5" y="429.7" class="st61" width="350.6" height="5.8"/>
	</g>
	<path class="st62" d="M80.5,255.4c0-96.9,78.6-175.5,175.5-175.5c96.9,0,175.5,78.6,175.5,175.5c0,96.9-78.6,175.5-175.5,175.5
		C159.1,430.9,80.5,352.3,80.5,255.4L80.5,255.4z"/>
	<g>
		<defs>
			<path id="SVGID_11_" d="M80.5,255.4c0-96.9,78.6-175.5,175.5-175.5c96.9,0,175.5,78.6,175.5,175.5c0,96.9-78.6,175.5-175.5,175.5
				C159.1,430.9,80.5,352.3,80.5,255.4L80.5,255.4L80.5,255.4z"/>
		</defs>
		<clipPath id="SVGID_12_">
			<use xlink:href="#SVGID_11_"  style="overflow:visible;"/>
		</clipPath>
		<path class="st63" d="M258.7,59.6v373.2 M264.8,59.6v373.2 M271,59.6v373.2 M277.1,59.6v373.2 M283.3,59.6v373.2 M289.4,59.6
			v373.2 M295.6,59.6v373.2 M301.7,59.6v373.2 M307.8,59.6v373.2 M314,59.6v373.2 M320.1,59.6v373.2 M326.3,59.6v373.2 M332.4,59.6
			v373.2 M338.6,59.6v373.2 M344.7,59.6v373.2 M350.9,59.6v373.2 M357,59.6v373.2 M363.2,59.6v373.2 M369.3,59.6v373.2 M375.4,59.6
			v373.2 M381.6,59.6v373.2 M387.7,59.6v373.2 M393.9,59.6v373.2 M400,59.6v373.2 M406.2,59.6v373.2 M412.3,59.6v373.2 M418.5,59.6
			v373.2 M424.6,59.6v373.2 M86.4,59.6v373.2 M92.5,59.6v373.2 M98.6,59.6v373.2 M104.8,59.6v373.2 M110.9,59.6v373.2 M117.1,59.6
			v373.2 M123.2,59.6v373.2 M129.4,59.6v373.2 M135.5,59.6v373.2 M141.7,59.6v373.2 M147.8,59.6v373.2 M154,59.6v373.2 M160.1,59.6
			v373.2 M166.3,59.6v373.2 M172.4,59.6v373.2 M178.5,59.6v373.2 M184.7,59.6v373.2 M190.8,59.6v373.2 M197,59.6v373.2 M203.1,59.6
			v373.2 M209.3,59.6v373.2 M215.4,59.6v373.2 M221.6,59.6v373.2 M227.7,59.6v373.2 M233.9,59.6v373.2 M240,59.6v373.2 M246.1,59.6
			v373.2 M252.3,59.6v373.2"/>
	</g>
	<path class="st64" d="M141.5,125.8h229v200.5c0.6,40.1-29.6,51.7-29.6,51.7l-84.3,48.8l-88.9-51.1c-26.7-15.7-26.2-50-26.2-50
		V125.8L141.5,125.8z"/>
	<path class="st65" d="M173.4,171.1l170,0.2l-0.3,153.2c0,17.4-12.8,25.6-12.8,25.6l-72.6,41.3l-69.2-40.7
		c-16.9-10.5-15.1-26.2-15.1-26.2V171.1L173.4,171.1z"/>
	<g>
		<defs>
			<polygon id="SVGID_13_" points="249.9,433.9 262.2,433.9 271.6,443 271.6,455.6 262.9,464.7 249.2,464.7 240.4,456.2 240.4,443 
				249.9,433.9 			"/>
		</defs>
		<clipPath id="SVGID_14_">
			<use xlink:href="#SVGID_13_"  style="overflow:visible;"/>
		</clipPath>
		<polygon class="st66" points="253.9,472.4 249.5,467.2 274.2,446.2 278.6,451.4 253.9,472.4 		"/>
		<polygon class="st67" points="238.6,454.3 233.2,448 257.9,427 263.3,433.3 238.6,454.3 		"/>
	</g>
	<g>
		<defs>
			<polygon id="SVGID_15_" points="252.3,470.5 235.7,451 260.5,430 277,449.5 252.3,470.5 			"/>
		</defs>
		<defs>
			<polygon id="SVGID_16_" points="249.9,433.9 262.2,433.9 271.6,443 271.6,455.6 262.9,464.7 249.2,464.7 240.4,456.2 240.4,443 
				249.9,433.9 			"/>
		</defs>
		<clipPath id="SVGID_17_">
			<use xlink:href="#SVGID_15_"  style="overflow:visible;"/>
		</clipPath>
		<clipPath id="SVGID_18_" class="st68">
			<use xlink:href="#SVGID_16_"  style="overflow:visible;"/>
		</clipPath>
		
			<rect x="246.7" y="455.7" transform="matrix(0.766 -0.6428 0.6428 0.766 -232.961 276.2488)" class="st69" width="32.6" height="4.9"/>
		
			<rect x="243.3" y="451.7" transform="matrix(0.766 -0.6428 0.6428 0.766 -231.1873 273.1636)" class="st70" width="32.6" height="4.9"/>
		
			<rect x="240" y="447.8" transform="matrix(0.7661 -0.6427 0.6427 0.7661 -229.4111 270.0759)" class="st71" width="32.6" height="4.9"/>
		
			<rect x="236.7" y="443.8" transform="matrix(0.766 -0.6428 0.6428 0.766 -227.6754 267.0924)" class="st72" width="32.6" height="4.9"/>
		
			<rect x="233.4" y="439.9" transform="matrix(0.766 -0.6428 0.6428 0.766 -225.9122 264.0394)" class="st73" width="32.6" height="4.9"/>
	</g>
	<g>
		<defs>
			<polygon id="SVGID_19_" points="257,467.8 240.9,449.8 257.6,434.8 273.7,452.8 257,467.8 			"/>
		</defs>
		<defs>
			<polygon id="SVGID_20_" points="251.7,438.4 260.4,438.4 266.9,444.9 266.9,453.8 260.8,460.1 251.3,460.1 245.1,454.2 
				245.1,444.9 251.7,438.4 251.7,438.4 			"/>
		</defs>
		<clipPath id="SVGID_21_">
			<use xlink:href="#SVGID_19_"  style="overflow:visible;"/>
		</clipPath>
		<clipPath id="SVGID_22_" class="st74">
			<use xlink:href="#SVGID_20_"  style="overflow:visible;"/>
		</clipPath>
		
			<rect x="252.8" y="455.9" transform="matrix(0.7431 -0.6692 0.6692 0.7431 -239.0469 294.4862)" class="st75" width="22.4" height="5.3"/>
		
			<rect x="249.6" y="452.3" transform="matrix(0.7432 -0.6691 0.6691 0.7432 -237.4528 291.3356)" class="st76" width="22.4" height="5.3"/>
		
			<rect x="246.3" y="448.7" transform="matrix(0.7432 -0.6691 0.6691 0.7432 -235.8593 288.1945)" class="st77" width="22.4" height="5.3"/>
		
			<rect x="243.1" y="445.1" transform="matrix(0.7432 -0.6691 0.6691 0.7432 -234.2926 285.1305)" class="st78" width="22.4" height="5.3"/>
		
			<rect x="239.8" y="441.5" transform="matrix(0.7432 -0.6691 0.6691 0.7432 -232.7175 282.0441)" class="st79" width="22.4" height="5.3"/>
	</g>
	<g>
		<defs>
			<polygon id="SVGID_23_" points="240.9,449.8 225.4,432.5 242.2,417.5 257.6,434.8 240.9,449.8 			"/>
		</defs>
		<defs>
			<polygon id="SVGID_24_" points="251.7,438.4 260.4,438.4 266.9,444.9 266.9,453.8 260.8,460.1 251.3,460.1 245.1,454.2 
				245.1,444.9 251.7,438.4 251.7,438.4 			"/>
		</defs>
		<clipPath id="SVGID_25_">
			<use xlink:href="#SVGID_23_"  style="overflow:visible;"/>
		</clipPath>
		<clipPath id="SVGID_26_" class="st80">
			<use xlink:href="#SVGID_24_"  style="overflow:visible;"/>
		</clipPath>
		
			<rect x="236.9" y="438.1" transform="matrix(0.7432 -0.6691 0.6691 0.7432 -231.18 279.171)" class="st81" width="22.4" height="5.3"/>
		
			<rect x="233.7" y="434.6" transform="matrix(0.7432 -0.6691 0.6691 0.7432 -229.6657 276.1984)" class="st82" width="22.4" height="5.3"/>
		
			<rect x="230.6" y="431.1" transform="matrix(0.7432 -0.6691 0.6691 0.7432 -228.1472 273.2165)" class="st83" width="22.4" height="5.3"/>
		
			<rect x="227.5" y="427.7" transform="matrix(0.7432 -0.669 0.669 0.7432 -226.6202 270.2086)" class="st84" width="22.4" height="5.3"/>
	</g>
	<g>
		<defs>
			<polygon id="SVGID_27_" points="139,403.7 236.7,403.7 236.7,468 139,468 139,403.7 			"/>
		</defs>
		<defs>
			<path id="SVGID_28_" d="M162.2,403.7c22,13.9,47.3,23.1,74.5,26.1l-3.8,38.2c-33.4-3.6-64.6-14.9-91.6-32.1L162.2,403.7
				L162.2,403.7z"/>
		</defs>
		<clipPath id="SVGID_29_">
			<use xlink:href="#SVGID_27_"  style="overflow:visible;"/>
		</clipPath>
		<clipPath id="SVGID_30_" class="st85">
			<use xlink:href="#SVGID_28_"  style="overflow:visible;"/>
		</clipPath>
		<rect x="230.6" y="403.7" class="st86" width="5.8" height="64"/>
		<rect x="224.5" y="403.7" class="st87" width="5.8" height="64"/>
		<rect x="218.4" y="403.7" class="st88" width="5.8" height="64"/>
		<rect x="212.3" y="403.7" class="st89" width="5.8" height="64"/>
		<rect x="206.2" y="403.7" class="st90" width="5.8" height="64"/>
		<rect x="200.1" y="403.7" class="st91" width="5.8" height="64"/>
		<rect x="194" y="403.7" class="st92" width="5.8" height="64"/>
		<rect x="187.9" y="403.7" class="st93" width="5.8" height="64"/>
		<rect x="181.8" y="403.7" class="st94" width="5.8" height="64"/>
		<rect x="175.7" y="403.7" class="st95" width="5.8" height="64"/>
		<rect x="169.5" y="403.7" class="st96" width="5.8" height="64"/>
		<rect x="163.4" y="403.7" class="st97" width="5.8" height="64"/>
		<rect x="157.3" y="403.7" class="st98" width="5.8" height="64"/>
		<rect x="151.2" y="403.7" class="st99" width="5.8" height="64"/>
		<rect x="145.1" y="403.7" class="st100" width="5.8" height="64"/>
		<rect x="139" y="403.7" class="st101" width="5.8" height="64"/>
	</g>
	<path class="st102" d="M162.2,403.7c22,13.9,47.3,23.1,74.5,26.1l-3.8,38.2c-33.4-3.6-64.6-14.9-91.6-32.1L162.2,403.7L162.2,403.7
		z"/>
	<path class="st103" d="M171.5,408.6L152,442.5 M180.5,412.7L163,448.6 M189.2,417.2l-13.9,36.5 M199.1,420.7l-12.6,36.6
		 M207.7,423.9L197,461 M217.2,425.8l-8.5,37.3 M227.1,428.6l-5.8,37.7"/>
	<g>
		<defs>
			<path id="SVGID_31_" d="M369.9,436.4c-27,17-58,28.2-91.3,31.7l-3.8-38.2c27.1-2.9,52.4-12,74.3-25.8L369.9,436.4L369.9,436.4z"
				/>
		</defs>
		<clipPath id="SVGID_32_">
			<use xlink:href="#SVGID_31_"  style="overflow:visible;"/>
		</clipPath>
		<polygon class="st104" points="274.8,404.1 281.6,404.1 281.6,468 274.8,468 274.8,404.1 		"/>
		<polygon class="st105" points="362,404.1 369.9,404.1 369.9,468 362,468 362,404.1 		"/>
	</g>
	<g>
		<defs>
			<polygon id="SVGID_33_" points="277.2,404.1 366.3,404.1 366.3,468 277.2,468 277.2,404.1 			"/>
		</defs>
		<defs>
			<path id="SVGID_34_" d="M369.9,436.4c-27,17-58,28.2-91.3,31.7l-3.8-38.2c27.1-2.9,52.4-12,74.3-25.8L369.9,436.4L369.9,436.4z"
				/>
		</defs>
		<clipPath id="SVGID_35_">
			<use xlink:href="#SVGID_33_"  style="overflow:visible;"/>
		</clipPath>
		<clipPath id="SVGID_36_" class="st106">
			<use xlink:href="#SVGID_34_"  style="overflow:visible;"/>
		</clipPath>
		<rect x="277.4" y="404" class="st107" width="5.8" height="64"/>
		<rect x="283.3" y="404" class="st108" width="5.8" height="64"/>
		<rect x="289.3" y="404" class="st109" width="5.8" height="64"/>
		<rect x="295.2" y="404" class="st110" width="5.8" height="64"/>
		<rect x="301.1" y="404" class="st111" width="5.8" height="64"/>
		<rect x="307.1" y="404" class="st112" width="5.8" height="64"/>
		<rect x="313" y="404" class="st113" width="5.8" height="64"/>
		<rect x="318.9" y="404" class="st114" width="5.8" height="64"/>
		<rect x="324.9" y="404" class="st115" width="5.8" height="64"/>
		<rect x="330.8" y="404" class="st116" width="5.8" height="64"/>
		<rect x="336.8" y="404" class="st117" width="5.8" height="64"/>
		<rect x="342.7" y="404" class="st118" width="5.8" height="64"/>
		<rect x="348.6" y="404" class="st119" width="5.8" height="64"/>
		<rect x="354.6" y="404" class="st120" width="5.8" height="64"/>
		<rect x="360.5" y="404" class="st121" width="5.8" height="64"/>
	</g>
	<path class="st102" d="M369.9,436.4c-27,17-58,28.2-91.3,31.7l-3.8-38.2c27.1-2.9,52.4-12,74.3-25.8L369.9,436.4L369.9,436.4z"/>
	<path class="st103" d="M340,408.6l19.5,33.9 M331,412.7l17.4,35.9 M322.3,417.2l13.9,36.5 M312.4,420.7l12.6,36.6 M303.7,423.9
		l10.7,37 M294.3,425.8l8.5,37.3 M284.4,428.6l5.8,37.7"/>
	<path class="st122" d="M370.7,100.2l4.2,3.3c2.2,2,5,0.2,5,0.2l-3.6,4.8c0,0,0.7-3.7-1.3-5.1C373.2,101.8,370.7,100.2,370.7,100.2
		L370.7,100.2z"/>
	<path class="st122" d="M86.8,374.5l5.5,6.8l0.6-0.5c-1-1.3-1.8-2.5-0.6-3.5c0.6-0.5,2.3-0.9,2.5-1l14.8-3.9l-5.9,13.1
		c-0.9,2-1.6,3.6-2.1,3.9c-0.9,0.8-1.5,0.2-3.1-1.6l-0.6,0.5l7.1,8.8l0.6-0.4c-1.2-1.6-1.3-2.5,0.3-6l9.6-21.3l-0.4-0.5l-22.5,6.1
		c-3,0.8-3.8,0.7-5.2-0.8L86.8,374.5L86.8,374.5z"/>
	<path class="st122" d="M69.2,344.2l4.8,8.7l0.6-0.4c-1.2-2.6-1.5-3.8,2.3-5.9l11.1-6.2l0,0.1L80,363.7l3.5,6.4l0.6-0.3
		c-0.8-1.5-1-2.2-0.2-4.6l14.7-8.1c3.6-2,4.5-1.5,6.3,1.3l0.6-0.4l-4.8-8.7l-0.6,0.4c1.4,2.8,1.1,4-2.3,5.9l-13,7.2l0-0.1l9.1-26.5
		l-0.4-0.6L76.1,345c-3.9,2.2-4.7,1-6.2-1.2L69.2,344.2L69.2,344.2z"/>
	<path class="st122" d="M91.1,331.1l-4.7-11.7l-0.7,0.3c1.1,3,1.1,4-1.6,5.1l-15.6,6.3c-2.8,1.1-3.5,0.3-4.7-2.6l-0.7,0.3l4.7,11.7
		l0.7-0.3c-1.2-3.3-1-4.1,1.6-5.1l15.6-6.3c2.5-1,3.3-0.8,4.7,2.5L91.1,331.1L91.1,331.1z"/>
	<path class="st122" d="M53.5,297.3l2.3,8.4l0.7-0.2c-0.3-1.6-0.6-3,0.9-3.4c0.8-0.2,2.5,0.1,2.7,0.1l15.1,2.4l-10.7,9.5
		c-1.6,1.4-2.9,2.6-3.5,2.7c-1.2,0.3-1.5-0.4-2.2-2.7l-0.7,0.2l2.9,10.9l0.7-0.2c-0.4-2-0.2-2.8,2.7-5.4l17.4-15.5l-0.2-0.6l-23-3.6
		c-3.1-0.5-3.8-0.9-4.4-2.9L53.5,297.3L53.5,297.3z"/>
	<path class="st122" d="M68.3,265.7l0.1,1.2c4,1.5,5.4,3.5,5.9,8.7c0.7,6.3,0.6,6.3-0.9,6.5l-9.4,1l-0.6-6.5c-0.3-3.5,0.1-4.2,3.1-5
		l-0.1-1l-8.8,0.9l0.1,1c2.7,0.2,3.7,0.5,4.1,4.3l0.7,6.5l-8.4,0.9c-1.3,0.1-1.3-0.4-1.4-1.3l-0.6-5.7c-0.5-4.7,0-5.9,3.3-6.8
		l-0.1-1.1L50,270l2.4,22.5l0.7-0.1c-0.1-2.7,0-3.7,3-4l16.8-1.8c2.9-0.3,3.4,0.6,3.8,3.3l0.7-0.1L74.9,267L68.3,265.7L68.3,265.7z"
		/>
	<path d="M74.7,237H74c-0.1,1.7-0.8,2.8-1.8,3.7l-9.6,8.8c-0.4-2.2-1.3-7.7-6.4-7.7c-5.8,0-6.6,7-6.6,10.8v11.7h0.7
		c0.3-3,0.6-3.6,3.4-3.6h16.4c2.9,0,3.6,0.2,3.8,3.6h0.7v-11.8H74c-0.2,3.4-0.9,3.8-3.4,3.8h-7.5l-0.1-2.4l11.7-10.1V237L74.7,237z
		 M52.4,256.3c-1.1,0-1.4-0.4-1.4-2.6c0-1.7,0.1-7.3,5.2-7.3c5.4,0,5.5,6.4,5.5,10H52.4L52.4,256.3z"/>
	<path class="st0" d="M74.7,237H74c-0.1,1.7-0.8,2.8-1.8,3.7l-9.6,8.8c-0.4-2.2-1.3-7.7-6.4-7.7c-5.8,0-6.6,7-6.6,10.8v11.7h0.7
		c0.3-3,0.6-3.6,3.4-3.6h16.4c2.9,0,3.6,0.2,3.8,3.6h0.7v-11.8H74c-0.2,3.4-0.9,3.8-3.4,3.8h-7.5l-0.1-2.4l11.7-10.1V237L74.7,237z
		 M52.4,256.3c-1.1,0-1.4-0.4-1.4-2.6c0-1.7,0.1-7.3,5.2-7.3c5.4,0,5.5,6.4,5.5,10H52.4L52.4,256.3z"/>
	<path class="st122" d="M52.9,214.4l-0.1,0.9c0.4,0.2,1.2,0.5,1,1.7c-0.2,1.1-1.8,3.1-2.2,5.6c-0.6,3.8,0.9,7.9,5.2,8.6
		c3.7,0.6,5.8-1.8,8.4-5.4c4.2-5.7,5.6-6.1,7.7-5.8c2,0.3,3.9,2.3,3.4,5.7c-0.9,5.7-6.1,7-8,7.6l-0.2,1h8.2l0.1-0.9
		c-0.6-0.1-1.2-0.6-1-1.5c0.2-1.3,1.8-3.1,2.3-6.3c1-6-2.2-9.4-5.4-9.9c-7.7-1.2-10.7,12.7-16.3,11.8c-2.3-0.4-3.2-2.7-2.8-4.8
		c0.7-4.4,4.5-6.6,7.7-6.8l0.2-1.1L52.9,214.4L52.9,214.4z"/>
	<path class="st122" d="M79.5,213.7l3.3-12.2l-0.7-0.2c-0.9,3-1.5,3.9-4.4,3.1L61.3,200c-2.9-0.8-2.9-1.9-2.2-4.9l-0.7-0.2
		l-3.3,12.2l0.7,0.2c1.1-3.4,1.7-3.8,4.4-3.1l16.3,4.4c2.6,0.7,3.1,1.4,2.2,4.9L79.5,213.7L79.5,213.7z"/>
	<path d="M81.7,169.4c-7.9-3.2-14.3,1.5-18.1,11L59.3,191l0.7,0.3c1.4-3,2-3.2,4.6-2.2l15.6,6.3c2.5,1,2.8,1.7,1.8,4.8l0.7,0.3
		l4.5-11.2C92,177.2,86.4,171.3,81.7,169.4L81.7,169.4z M85.3,190.1c-0.8,1.9-1.2,2.3-2.4,1.8L65,184.6c-0.7-0.3-1.4-0.6-0.6-2.4
		c2-5,3.9-6.8,6.1-8.1c3.3-1.8,6.5-1.6,9.5-0.4C90.2,177.8,86.3,187.5,85.3,190.1L85.3,190.1z"/>
	<path class="st0" d="M81.7,169.4c-7.9-3.2-14.3,1.5-18.1,11L59.3,191l0.7,0.3c1.4-3,2-3.2,4.6-2.2l15.6,6.3c2.5,1,2.8,1.7,1.8,4.8
		l0.7,0.3l4.5-11.2C92,177.2,86.4,171.3,81.7,169.4L81.7,169.4z M85.3,190.1c-0.8,1.9-1.2,2.3-2.4,1.8L65,184.6
		c-0.7-0.3-1.4-0.6-0.6-2.4c2-5,3.9-6.8,6.1-8.1c3.3-1.8,6.5-1.6,9.5-0.4C90.2,177.8,86.3,187.5,85.3,190.1L85.3,190.1z"/>
	<path d="M109,147.2c-1.1,1.5-1.8,1.8-4.8,1.5l-23.9-2.5l-0.5,0.7l11.1,17.4c1,1.6,2.6,4.2,2.9,5.5c0.2,1-0.1,1.7-0.4,2.3l0.6,0.4
		l4.5-7.1l-0.6-0.4c-0.5,0.8-1.5,2.5-2.9,1.6c-0.4-0.2-0.7-0.6-1-1.1l-2.7-4l5.9-9.5l4,0.5c0.6,0.1,1.9,0.3,2.5,0.6
		c1.2,0.7,0.5,2-0.4,3.3l0.6,0.4l5.8-9.2L109,147.2L109,147.2z M90.3,160.1l-6.3-9.7l11.5,1.4L90.3,160.1L90.3,160.1z"/>
	<path class="st0" d="M109,147.2c-1.1,1.5-1.8,1.8-4.8,1.5l-23.9-2.5l-0.5,0.7l11.1,17.4c1,1.6,2.6,4.2,2.9,5.5
		c0.2,1-0.1,1.7-0.4,2.3l0.6,0.4l4.5-7.1l-0.6-0.4c-0.5,0.8-1.5,2.5-2.9,1.6c-0.4-0.2-0.7-0.6-1-1.1l-2.7-4l5.9-9.5l4,0.5
		c0.6,0.1,1.9,0.3,2.5,0.6c1.2,0.7,0.5,2-0.4,3.3l0.6,0.4l5.8-9.2L109,147.2L109,147.2z M90.3,160.1l-6.3-9.7l11.5,1.4L90.3,160.1
		L90.3,160.1z"/>
	<path d="M119.4,117.2c-6.4-5.6-14-3.2-20.7,4.5l-7.5,8.7l0.5,0.5c2.3-2.3,2.9-2.4,5-0.6l12.7,11.1c2,1.7,2.1,2.5,0.1,5.1l0.5,0.5
		l7.9-9.1C126.6,127.9,123.2,120.5,119.4,117.2L119.4,117.2z M116,137.9c-1.3,1.5-1.9,1.7-2.9,0.9l-14.6-12.7
		c-0.6-0.5-1.1-1,0.2-2.5c3.5-4,5.9-5.2,8.4-5.6c3.7-0.7,6.7,0.6,9.1,2.7C124.7,128,117.8,135.9,116,137.9L116,137.9z"/>
	<path class="st0" d="M119.4,117.2c-6.4-5.6-14-3.2-20.7,4.5l-7.5,8.7l0.5,0.5c2.3-2.3,2.9-2.4,5-0.6l12.7,11.1
		c2,1.7,2.1,2.5,0.1,5.1l0.5,0.5l7.9-9.1C126.6,127.9,123.2,120.5,119.4,117.2L119.4,117.2z M116,137.9c-1.3,1.5-1.9,1.7-2.9,0.9
		l-14.6-12.7c-0.6-0.5-1.1-1,0.2-2.5c3.5-4,5.9-5.2,8.4-5.6c3.7-0.7,6.7,0.6,9.1,2.7C124.7,128,117.8,135.9,116,137.9L116,137.9z"/>
	<path d="M158.1,100.9c-1.5,1.1-2.3,1.1-5-0.2l-21.6-10.5l-0.7,0.5l4.5,20.1c0.4,1.8,1.1,4.8,0.9,6.2c-0.2,1-0.7,1.5-1.2,2l0.4,0.6
		l6.6-5.2l-0.4-0.6c-0.7,0.5-2.3,1.8-3.3,0.5c-0.3-0.3-0.5-0.8-0.6-1.4l-1.2-4.7l8.8-6.9l3.6,1.8c0.5,0.3,1.7,0.9,2.1,1.4
		c0.9,1.1-0.2,2-1.5,3l0.4,0.6l8.6-6.7L158.1,100.9L158.1,100.9z M136.1,106.6l-2.6-11.2l10.3,5.2L136.1,106.6L136.1,106.6z"/>
	<path class="st0" d="M158.1,100.9c-1.5,1.1-2.3,1.1-5-0.2l-21.6-10.5l-0.7,0.5l4.5,20.1c0.4,1.8,1.1,4.8,0.9,6.2
		c-0.2,1-0.7,1.5-1.2,2l0.4,0.6l6.6-5.2l-0.4-0.6c-0.7,0.5-2.3,1.8-3.3,0.5c-0.3-0.3-0.5-0.8-0.6-1.4l-1.2-4.7l8.8-6.9l3.6,1.8
		c0.5,0.3,1.7,0.9,2.1,1.4c0.9,1.1-0.2,2-1.5,3l0.4,0.6l8.6-6.7L158.1,100.9L158.1,100.9z M136.1,106.6l-2.6-11.2l10.3,5.2
		L136.1,106.6L136.1,106.6z"/>
	<path class="st122" d="M164.4,69.6l-7.5,4.5l0.4,0.6c1.4-0.8,2.8-1.4,3.6-0.1c0.4,0.7,0.6,2.4,0.7,2.7l1.8,15.2l-12.1-7.7
		c-1.8-1.2-3.3-2.1-3.6-2.6c-0.6-1,0-1.5,2-2.8l-0.4-0.6l-9.7,5.8l0.4,0.6c1.8-1,2.6-1,5.9,1.1l19.7,12.5l0.6-0.3l-2.9-23.1
		c-0.4-3.1-0.2-3.9,1.5-5L164.4,69.6L164.4,69.6z"/>
	<path class="st122" d="M195.7,83.5c-3.4,1.2-4.1,0.7-5-1.7l-7-18.1l2.1-0.8c4.4-1.7,5.7-1.5,8.1,2.1l1-0.4l-2.6-5.9l-22.4,8.6
		l2.1,6.1l0.9-0.4c-0.6-4.2,0.2-5.3,4.6-7l2.1-0.8l6.8,17.7c1,2.6,1.2,3.5-2.4,5l0.3,0.7l11.6-4.5L195.7,83.5L195.7,83.5z"/>
	<path d="M226.6,63.4c-1.8-8.5-9.5-11.4-16.3-10c-6.8,1.5-12.7,7.2-10.9,15.7c1.7,7.9,8.8,11.5,16.3,9.9
		C223.2,77.5,228.3,71.4,226.6,63.4L226.6,63.4z M215.4,77.8c-4.6,1-9.6-1.4-11.3-9.6c-1.8-8.5,2.2-12.5,6.4-13.4
		c4.2-0.9,9.5,1.1,11.3,9.6C223.6,72.6,220,76.8,215.4,77.8L215.4,77.8z"/>
	<path class="st0" d="M226.6,63.4c-1.8-8.5-9.5-11.4-16.3-10c-6.8,1.5-12.7,7.2-10.9,15.7c1.7,7.9,8.8,11.5,16.3,9.9
		C223.2,77.5,228.3,71.4,226.6,63.4L226.6,63.4z M215.4,77.8c-4.6,1-9.6-1.4-11.3-9.6c-1.8-8.5,2.2-12.5,6.4-13.4
		c4.2-0.9,9.5,1.1,11.3,9.6C223.6,72.6,220,76.8,215.4,77.8L215.4,77.8z"/>
	<path class="st122" d="M258.3,48.3l-10,0.7l0,0.7c2.9,0,4.1,0.2,4.4,4.6l0.9,12.7l-0.1,0l-17.5-17.1l-7.3,0.5l0.1,0.7
		c1.7-0.1,2.4,0,4.3,1.8l1.2,16.7c0.3,4.1-0.6,4.7-3.8,5.1l0.1,0.7l10-0.7l-0.1-0.7c-3.1,0.1-4.1-0.7-4.3-4.6l-1-14.8l0.1,0
		l20.1,19.5l0.7-0.1l-1.4-19.9c-0.3-4.4,1-4.7,3.7-5.1L258.3,48.3L258.3,48.3z"/>
	<path d="M278.7,49.6c-6.9-0.8-14.3,2.7-15.4,11.4c-1,8,4.6,13.7,12.2,14.7c7.6,0.9,14.4-3.2,15.4-11.3
		C291.9,55.7,285.6,50.5,278.7,49.6L278.7,49.6z M286.1,63.7c-1,8.3-5.7,11.1-10.4,10.5c-4.7-0.6-8.6-4.5-7.6-12.8
		c1.1-8.6,6.1-11.1,10.4-10.5C282.8,51.5,287.1,55.1,286.1,63.7L286.1,63.7z"/>
	<path class="st0" d="M278.7,49.6c-6.9-0.8-14.3,2.7-15.4,11.4c-1,8,4.6,13.7,12.2,14.7c7.6,0.9,14.4-3.2,15.4-11.3
		C291.9,55.7,285.6,50.5,278.7,49.6L278.7,49.6z M286.1,63.7c-1,8.3-5.7,11.1-10.4,10.5c-4.7-0.6-8.6-4.5-7.6-12.8
		c1.1-8.6,6.1-11.1,10.4-10.5C282.8,51.5,287.1,55.1,286.1,63.7L286.1,63.7z"/>
	<path class="st122" d="M332.9,63l-8.1-2.5l-14.6,15.6l-3.8-21.2l-8.1-2.5l-0.2,0.7c3,1.1,3.7,1.6,2.9,4.5l-4.5,14.8
		c-1.2,3.9-2.2,4.2-5.4,3.4l-0.2,0.7l9.6,2.9l0.2-0.7c-2.9-1-3.5-2.1-2.4-5.8l4.4-14.5l0.1,0l4.1,22.9l0.6,0.2L324.1,64l0.1,0
		l-5,16.3c-0.9,3-1.6,3.4-4.8,2.5l-0.2,0.7l11.4,3.5l0.2-0.7c-2.6-0.9-3.4-1.6-2.5-4.4l4.9-16.1c0.9-2.9,1.9-2.8,4.5-2.2L332.9,63
		L332.9,63z"/>
	<path d="M351.2,96.1l0.8-24l-0.7-0.4L334.6,84c-1.5,1.1-4,2.9-5.3,3.3c-1,0.3-1.7,0-2.3-0.3l-0.3,0.6l7.4,4l0.3-0.6
		c-0.8-0.4-2.6-1.4-1.8-2.8c0.2-0.4,0.6-0.8,1-1.1l3.8-3l9.8,5.2l-0.2,4c0,0.6-0.1,2-0.4,2.5c-0.7,1.2-1.9,0.6-3.3-0.1l-0.3,0.6
		l9.6,5.1l0.3-0.6C351.4,99.8,351.1,99.2,351.2,96.1L351.2,96.1z M347.5,87.6l-8.7-4.6l9.2-6.9L347.5,87.6L347.5,87.6z"/>
	<path class="st0" d="M351.2,96.1l0.8-24l-0.7-0.4L334.6,84c-1.5,1.1-4,2.9-5.3,3.3c-1,0.3-1.7,0-2.3-0.3l-0.3,0.6l7.4,4l0.3-0.6
		c-0.8-0.4-2.6-1.4-1.8-2.8c0.2-0.4,0.6-0.8,1-1.1l3.8-3l9.8,5.2l-0.2,4c0,0.6-0.1,2-0.4,2.5c-0.7,1.2-1.9,0.6-3.3-0.1l-0.3,0.6
		l9.6,5.1l0.3-0.6C351.4,99.8,351.1,99.2,351.2,96.1L351.2,96.1z M347.5,87.6l-8.7-4.6l9.2-6.9L347.5,87.6L347.5,87.6z"/>
	<path d="M384.1,93.5l-8.9-7.2l-0.4,0.6c2.4,2.2,2.5,2.8,0.8,5l-10.6,13.1c-1.7,2.1-2.5,2.2-5.1,0.3l-0.5,0.6l9.4,7.6
		c10.1,8.2,17.4,4.5,20.6,0.6C394.6,107.4,392,99.9,384.1,93.5L384.1,93.5z M385.7,111.1c-7,8.6-15.1,2-17.2,0.3
		c-1.6-1.3-1.8-1.8-1-2.8l12.1-15c0.5-0.6,0.9-1.2,2.5,0.1c4.2,3.4,5.4,5.7,5.9,8.2C388.8,105.6,387.7,108.6,385.7,111.1
		L385.7,111.1z"/>
	<path class="st0" d="M384.1,93.5l-8.9-7.2l-0.4,0.6c2.4,2.2,2.5,2.8,0.8,5l-10.6,13.1c-1.7,2.1-2.5,2.2-5.1,0.3l-0.5,0.6l9.4,7.6
		c10.1,8.2,17.4,4.5,20.6,0.6C394.6,107.4,392,99.9,384.1,93.5L384.1,93.5z M385.7,111.1c-7,8.6-15.1,2-17.2,0.3
		c-1.6-1.3-1.8-1.8-1-2.8l12.1-15c0.5-0.6,0.9-1.2,2.5,0.1c4.2,3.4,5.4,5.7,5.9,8.2C388.8,105.6,387.7,108.6,385.7,111.1
		L385.7,111.1z"/>
	<path class="st122" d="M428.1,140.8l-6-8l-0.6,0.4c1.6,2.4,2.1,3.6-1.4,6.2l-10.1,7.6l-0.1-0.1l4.8-24l-4.4-5.8l-0.6,0.4
		c1,1.4,1.3,2,0.8,4.6l-13.4,10.1c-3.3,2.5-4.3,2.1-6.4-0.4l-0.6,0.4l6,8l0.6-0.4c-1.8-2.5-1.6-3.8,1.5-6.1l11.8-8.9l0.1,0.1
		l-5.4,27.5l0.4,0.6l16-12c3.6-2.7,4.5-1.7,6.3,0.3L428.1,140.8L428.1,140.8z"/>
	<path class="st122" d="M444.5,170.7l-4-7.8l-0.6,0.3c0.7,1.5,1.2,2.9-0.1,3.6c-0.7,0.4-2.5,0.4-2.7,0.5l-15.3,0.8l8.5-11.6
		c1.3-1.8,2.3-3.1,2.8-3.4c1.1-0.6,1.5,0.1,2.7,2.2l0.6-0.3l-5.1-10.1l-0.6,0.3c0.8,1.8,0.8,2.7-1.5,5.8l-13.8,18.8l0.3,0.6
		l23.3-1.3c3.2-0.2,3.9,0.1,4.9,1.9L444.5,170.7L444.5,170.7z"/>
	<path class="st122" d="M437,204.4l-0.4-1.1c-4.2-0.5-6-2.2-7.7-7.2c-2.1-6-2-6-0.6-6.5l8.9-3.1l2.1,6.2c1.1,3.4,0.8,4.1-1.9,5.6
		l0.3,0.9l8.3-2.9l-0.3-0.9c-2.7,0.4-3.7,0.3-4.9-3.2l-2.1-6.2l8-2.7c1.2-0.4,1.4,0.1,1.7,0.9l1.9,5.4c1.5,4.5,1.3,5.7-1.7,7.4
		l0.3,1l5.1-1.9l-7.4-21.4l-0.7,0.2c0.7,2.6,0.8,3.6-2,4.6l-16,5.5c-2.8,0.9-3.4,0.1-4.4-2.4l-0.7,0.2l7.5,21.7L437,204.4L437,204.4
		z"/>
	<path class="st122" d="M461.4,231.3l-1.5-8.6l-0.7,0.1c0.2,1.6,0.4,3.1-1.2,3.4c-0.8,0.1-2.5-0.3-2.7-0.3l-14.8-3.7l11.5-8.6
		c1.7-1.3,3.1-2.3,3.7-2.4c1.2-0.2,1.4,0.6,1.9,2.9l0.7-0.1l-2-11.1l-0.7,0.1c0.3,2,0,2.8-3.1,5.1l-18.7,13.9l0.1,0.6l22.6,5.6
		c3.1,0.8,3.7,1.2,4.2,3.2L461.4,231.3L461.4,231.3z"/>
	<path d="M449.8,237.6c-8.1,0-13.1,6.2-13.1,13.9c0,7.7,5,13.9,13.1,13.9c8.7,0,13.1-6.9,13.1-13.9
		C463,244.6,458.5,237.6,449.8,237.6L449.8,237.6z M449.8,260.6c-8.4,0-11.7-4.3-11.7-9.1c0-4.7,3.4-9.1,11.7-9.1
		c8.7,0,11.7,4.7,11.7,9.1C461.6,255.9,458.5,260.6,449.8,260.6L449.8,260.6z"/>
	<path class="st0" d="M449.8,237.6c-8.1,0-13.1,6.2-13.1,13.9c0,7.7,5,13.9,13.1,13.9c8.7,0,13.1-6.9,13.1-13.9
		C463,244.6,458.5,237.6,449.8,237.6L449.8,237.6z M449.8,260.6c-8.4,0-11.7-4.3-11.7-9.1c0-4.7,3.4-9.1,11.7-9.1
		c8.7,0,11.7,4.7,11.7,9.1C461.6,255.9,458.5,260.6,449.8,260.6L449.8,260.6z"/>
	<path class="st122" d="M458.9,293.7l2.1-11.8l-0.7-0.1c-0.6,2.6-1.1,3.6-4,3l-16.6-2.9c-2.9-0.5-3-1.5-2.7-4.2l-0.7-0.1l-4,22.5
		l6.2,3.2l0.2-1c-4.5-3.3-4.2-6-3.1-12.2c0.6-3.5,0.8-4.2,2.3-4l17.7,3.1c3,0.5,3,1.6,2.7,4.5L458.9,293.7L458.9,293.7z"/>
	<path class="st122" d="M429.5,328.1l0.4-1.1c-3-3-3.4-5.4-1.7-10.4c2.1-6,2.1-6,3.6-5.5l8.9,3.1l-2.2,6.2c-1.2,3.3-1.9,3.8-4.9,3.2
		l-0.3,0.9l8.3,2.9l0.3-0.9c-2.4-1.3-3.1-2-1.9-5.6l2.1-6.2l8,2.7c1.2,0.4,1.1,0.9,0.8,1.7l-1.9,5.4c-1.5,4.5-2.5,5.3-5.9,4.8
		l-0.3,1l5.2,1.6l7.4-21.4l-0.7-0.2c-1.1,2.5-1.6,3.4-4.4,2.4l-15.9-5.5c-2.8-1-2.8-2-2-4.6l-0.7-0.2l-7.5,21.7L429.5,328.1
		L429.5,328.1z"/>
	<path d="M433.9,333.1c-7.2-3.7-14.5-0.4-18,6.5c-3.5,6.9-1.9,14.7,5.3,18.3c7.8,4,14.9-0.2,18-6.4
		C442.5,345.3,441.7,337.1,433.9,333.1L433.9,333.1z M438.1,350.9c-2,3.9-6.9,6.7-14.6,2.7c-7.4-3.8-8.5-9.2-6.3-13.4
		c2.1-4.2,7.1-6.5,14.6-2.7C439.5,341.4,440.1,347,438.1,350.9L438.1,350.9z"/>
	<path class="st0" d="M433.9,333.1c-7.2-3.7-14.5-0.4-18,6.5c-3.5,6.9-1.9,14.7,5.3,18.3c7.8,4,14.9-0.2,18-6.4
		C442.5,345.3,441.7,337.1,433.9,333.1L433.9,333.1z M438.1,350.9c-2,3.9-6.9,6.7-14.6,2.7c-7.4-3.8-8.5-9.2-6.3-13.4
		c2.1-4.2,7.1-6.5,14.6-2.7C439.5,341.4,440.1,347,438.1,350.9L438.1,350.9z"/>
	<path class="st122" d="M411.4,392.1l6-8l-0.6-0.4c-1.9,2.2-2.9,3-6.3,0.3l-10.1-7.6l0.1-0.1l24.4-2l4.4-5.8l-0.6-0.4
		c-1,1.4-1.6,1.8-4.2,2L411.1,360c-3.3-2.5-3.2-3.5-1.4-6.2l-0.6-0.4l-6,8l0.6,0.4c2-2.4,3.2-2.6,6.3-0.3l11.8,8.9l-0.1,0.1
		l-27.9,2.4l-0.4,0.6l16,12c3.5,2.7,2.9,3.9,1.4,6.2L411.4,392.1L411.4,392.1z"/>
	<polygon class="st123" points="172.7,118.2 167.7,118.3 167.8,116.4 256.6,92.7 344.3,115.3 344.9,118.2 341.4,118.2 341.4,169.6 
		172.7,169.6 172.7,118.2 	"/>
	<polygon class="st123" points="344.3,115.3 344.9,118.2 167.7,118.3 167.8,116.4 256.6,92.7 344.3,115.3 	"/>
	<path class="st124" d="M170,127.5h12c0,0,0.5,3.1-2,3.1c-2.4,0-7.3,0.2-7.3,0.2C169.3,130.9,170,127.5,170,127.5L170,127.5z"/>
	<path class="st125" d="M170,127.5h12c0,0,0.5,3.1-2,3.1c-2.4,0-7.3,0.2-7.3,0.2C169.3,130.9,170,127.5,170,127.5L170,127.5z"/>
	<path class="st126" d="M179.9,130.5l2.9,39.4 M177.4,130.7l1.7,30.8 M175.7,130.7l0.8,21.4 M174.1,130.7V142"/>
	<path class="st124" d="M343.1,127.5h-12c0,0-0.5,3.1,2,3.1c2.4,0,7.3,0.2,7.3,0.2C343.8,130.9,343.1,127.5,343.1,127.5L343.1,127.5
		z"/>
	<path class="st125" d="M343.1,127.5h-12c0,0-0.5,3.1,2,3.1c2.4,0,7.3,0.2,7.3,0.2C343.8,130.9,343.1,127.5,343.1,127.5L343.1,127.5
		z"/>
	<path class="st126" d="M333.2,130.5l-2.9,39.4 M335.6,130.7l-0.7,13.1 M337.4,130.7l-0.8,21.4 M339,130.7v33.9"/>
	<polygon points="256,96.3 331.3,115.9 182.2,116 256,96.3 	"/>
	<polygon class="st0" points="256,96.3 331.3,115.9 182.2,116 256,96.3 	"/>
	<path class="st124" d="M195.4,116c0-0.4,0.2-0.8,0.2-1.2c0.8-0.2,1.4-0.2,2.2-0.2l1.7-2c0.5,0,0.8,0,1.3,0c0.2,0.8,0.7,1.7,1.5,1.5
		c0.9,0,0.8-1.2,1.4-2.1c0.2-0.6,0.9-0.7,1.5-0.7c0.1,0.5,0.9,0.5,1.4,0.5c0.5,1.6-1.3,2.6-1.3,4.2H195.4L195.4,116z"/>
	<path class="st124" d="M210.8,110.2c0-0.5-0.7-0.6-1.2-0.6c0,0.8-0.4,1.9-1.2,1.9c0,0.3-0.1,0.8,0.2,0.9c0,0.5,0,1.2-0.5,1.4
		c0,0.6-0.1,1.2,0.1,1.7h3.5c0.7-0.7,0.1-1.2,0.1-1.9c-1-0.5,0.1-1.9-0.2-2.9c-0.5,0-1-0.6-1-1L210.8,110.2L210.8,110.2z"/>
	<path class="st124" d="M214.9,109.5c-0.5,0-0.9,0.2-1.4,0.2c-0.1,0.7-0.7,1-1,1.7c-0.7,1.2-0.2,2.6,0.9,2.9c0,1.5,2.6,0.9,4.1,0.9
		c0.1-0.3,0.4-0.6,0.6-0.9c0.3,0,0.8-0.2,1.2-0.2c0-1.3,0-2.2,0-3.5c-1.3-0.3-0.2-2.9-1.5-3.3c-0.2,1.2-1.3,1.7-1.3,2.9
		c0,0.5,0.6,0.8,0.8,1c0.3,0.8,0.2,2-0.6,2.3c-0.5,0.2-1.2,0.1-1.4-0.1c-0.6-0.2-0.1-0.9-0.1-1.5c0-0.9,0-1.6,0-2.6h-1H214.9
		L214.9,109.5z"/>
	<path class="st124" d="M224.6,107.1c-1.5,0.3-1.9,2.1-3.4,2.1c0,0.1-0.5,0.3-0.6,0.3c-0.8,1.3-0.6,2.1-0.2,3.4c0,1.2,0.1,2.8,1.3,3
		c0-0.8,0.3-1.4,0.6-2.2c0.2,0,0.5,0.1,0.7,0.1c0.9,1.5,2.3,1.6,3.8,1.6c1.2,0.3,1.9,0.1,3,0.1c1.9,0.6,3.4-0.3,5-0.6
		c0-0.9,0.2-0.9,0.8-1.5c0.2,0.5,0.7,0.7,1.2,0.7c0.3-1,0.6-1.9,0.6-2.9c-0.2,0-0.5-0.2-0.6-0.5l-2.8-1.9c0.6-1.2,1.3-1.5,2-2.7
		c0.2-0.6-0.5-1.2-0.6-1.7c-0.8,0-1.3,0-2.1,0c-0.6,0.9-0.6,1.7-0.6,2.7c-0.5,1.5-1.4,2.2-1.4,3.7h-0.9c-0.3-0.8,0.1-1.5,0.9-2
		c0.5-0.5,0.3-1.5,0.3-2.3c-0.2,0-0.6-0.1-0.8-0.1c-0.7,0.7-1,2-2.1,2c-0.1,0.4-0.7,0.7-0.7,1c-0.1,0.6,0.3,1.3,0.9,1.4
		c0,0.7-0.4,1.3-0.4,2c-0.8,0.2-2,0.5-2.2-0.3c-0.6-1.2,0.2-1.9,0.2-3c-1.2-0.3-1.5-1.5-1.7-2.7
		C224.9,106.8,224.7,107.1,224.6,107.1L224.6,107.1z"/>
	<path class="st124" d="M245.1,115.2c-0.1-0.3-0.3-0.6-0.3-0.9c-0.3-0.1-0.5-0.8-0.5-1.2c-0.3,0-0.6-0.5-0.6-0.8l-3.3-2.7v3.3
		c-0.9,0-2.1,0.7-2.6-0.2c-0.5-0.5-0.2-1.5,0-2.3c0-1.4,1.4-2.4,2.8-2.4l2-1.7c1,0,1.6-1.2,2.7-1.4c0-1.2,0.2-2.4,0.9-3.1
		c0.9-0.9,2.6-0.7,4.1-0.7c0.2,0.7,0.2,1.4,0.9,1.7c0,0.3,0.1,1,0.5,1.2c0,0.6-0.2,1.2-0.8,1.3c0,0.8,0.7,1.4,1.5,1.7
		c0,0.8-0.1,1.3-0.1,2.1c-0.7,0.1-1.6-0.2-1.7-0.9c-0.6-0.1-1-0.7-1-1.3c-0.3,0-0.6,0.5-0.9,0.6c0,0.7,0.2,1.2,0,1.9
		c-0.3,1.2-1.7,0.9-2.9,1.5c0,1,0.5,2.4,1.5,2.4c0.1,0.3,0.2,0.8,0.5,1c-0.2,0.2-0.1,0.9-0.5,1c-0.9,0.6-1.9,0-2.4-0.6L245.1,115.2
		L245.1,115.2z"/>
	<path class="st124" d="M259,101.2c0-0.3-0.1-0.6-0.1-0.9c-0.1,0-0.5-0.3-0.5-0.5c-0.3,0.1-0.8,0.3-1.2,0.3
		c-0.5,1.4-0.7,3.1-2.1,3.1c-0.3,0.6-0.7,0.9-0.8,1.5c-0.2,0.7-0.5,1.5,0.2,1.9c0,1.2,0.6,1.9,0.6,3c-0.6,1.7-2.8,4.6-0.3,5.5
		c0.6,0.3,1.2,0.3,1.7,0.3c1,0,1.9,0.3,2.9,0c2.7,0,4-3.6,3.4-6c-0.5-0.1-0.8-0.5-1-0.9c-1.2,0-1.9-0.3-3-0.7
		c-0.6,0-0.9-0.1-1.5-0.5c0.8-1.7,2.7-1.3,4.4-1.9c0.9-0.5,1.4-1.3,1.2-2.2c0-0.2-0.6-0.5-0.6-0.7h-1.2c-0.3,0.6-0.9,0.7-1.5,0.7
		c-0.5,0.7-1.7,0-1.7-0.7c0.5-0.2,0.6-0.7,1-0.8C258.9,101.7,259,101.4,259,101.2L259,101.2z"/>
	<path class="st124" d="M279.7,103.6c-1.7,0-2.8-0.7-4.5,0.1c0,0.7,0.2,1.4,0.9,1.6c0,0.9-0.9,1.5-0.9,2.4c-0.3,0.1-0.7,0.1-1,0.1
		c-1,1.6-2,2.8-2,5.1c1.2,0,2.1-0.9,2.4-2.1c0.6,0,0.9-0.1,1.5-0.1c0.1,0.6,0.7,1.3,1.3,1.3c0.6,1.2,2,0.3,3.1,0.3
		c-0.1,0.8-0.6,2-1.4,2c-0.2,1.2,1.7,0.9,2.9,0.9c0.5-0.9,0.5-1.7,0.7-2.7c1.2,0,1.5-1.4,1.7-2.6c-0.8-0.2-1.4-0.7-2.2-0.9
		c-0.9-0.2-2,0.2-2.4-0.7c-0.5-0.5-0.2-1.4,0-2.2c0.2-0.9,0-1.5,0-2.4c-0.1,0-0.5-0.3-0.5-0.5L279.7,103.6L279.7,103.6z"/>
	<path class="st124" d="M287.4,114.8c-0.1-0.7-0.1-1.2-0.6-1.9c-0.2,0.2-0.6,0.5-0.7,0.8c-0.6,0-1.3,0.1-1.6-0.2
		c-0.3-0.1-0.2-0.6-0.2-0.9c0-0.5,0.6-0.7,0.8-1.2c-0.5-1-0.7-1.9-0.7-2.9c0.2-0.1,0.5-0.3,0.6-0.6h0.8c0.2,0.7,0.1,1.5,0.8,1.7
		c0,0.8,1,1.5,1.9,1c1.2-0.6,0.2-1.9,0.6-3c0.2-0.8,1.5-0.7,2.3-0.3c0,1.6-0.7,2.7-0.7,4.3c0,0.7,0.5,1,0.9,1.7h1.4
		c0.7-2.1,0.5-4.4,2.6-4.9c0,0.1,0.3,0.3,0.3,0.3c0.7,2.3-1,4.2,1.2,4.9c0,0.6,0,1,0,1.6c-2,0-3.1-0.1-5.1-0.1
		c-1.4,0-2.9,0.9-3.6-0.5C288,114.8,287.7,114.7,287.4,114.8L287.4,114.8z"/>
	<path class="st124" d="M302.8,110.9c-0.3-0.5-0.8-0.7-1.4-0.8c-0.6,1.3-1.6,2-2.9,2c-0.1,0.8-1.2,1.7-0.7,2.2
		c0.2,0.8,1.5,0.7,2.3,0.7c0.6,0.9,2.1,0.7,2.7-0.2c0.3-1.2,0.1-2.1,0.1-3.3c-0.3-0.1-0.5-0.5-0.6-0.8L302.8,110.9L302.8,110.9z"/>
	<path class="st124" d="M307.5,110.7c-0.9,0.2-1.5,1.3-1.5,2.2c-0.5,0.2-1.2,0.5-1.2,0.9c-0.2,0.9,1.3,1.5,2.2,1.5
		c0.2-0.6,0.8-0.6,1.2-1.2c0.6,0,1-0.3,1.6-0.3c0,0.2,0.3,0.5,0.6,0.5c0.5,1.4,2.3,1.6,3.7,0.9c0-0.3,0-0.7,0-1
		c-0.3-0.1-0.6-0.2-0.8-0.6c-1,0-1.9-0.8-2.6-1.5c-0.3-0.3-1.2-0.6-1.3-1.2C308.8,110.9,308.2,110.5,307.5,110.7L307.5,110.7z"/>
	<path class="st124" d="M269.4,103.2c0-0.7-0.1-1.2-0.1-1.9c-0.5-0.1-0.7-0.5-0.9-0.9c-0.7,0.2-0.6,1-0.9,1.7
		c-0.7,1-1.5,1.2-2.6,1.2c-0.5,0.8-1.3,1.2-0.9,2c0,1,1.6,0.5,2.7,0.8c0,0.8-0.3,1.3-0.6,2.1c-1.3,0.2-1.7,1.2-2.3,2.4
		c-0.3,1.3-0.8,2.6,0,3.4c0.5,1.4,4.9,0.5,5.7,0.2c0-1,0.1-1.9,0.1-2.9c0.7-0.3,0.2-1.2,0.2-1.9c-0.5-1.4-1.2-2.4-0.2-3.8
		c0.9,0,2.1-0.5,2.1-1.4c-0.8,0-1.4-0.3-2.2-0.3v-1.3V103.2L269.4,103.2z"/>
	<polygon class="st124" points="167.2,118.8 345.5,118.8 345.5,123.8 167.2,123.8 167.2,118.8 	"/>
	<polygon class="st127" points="167.2,118.8 345.5,118.8 345.5,123.8 167.2,123.8 167.2,118.8 	"/>
	<polygon class="st125" points="167.2,118.8 345.5,118.8 345.5,123.8 167.2,123.8 167.2,118.8 	"/>
	<polygon class="st124" points="167.4,123.9 182.9,123.9 182.9,127.5 167.4,127.5 167.4,123.9 	"/>
	<polygon class="st124" points="167.4,123.9 182.9,123.9 182.9,127.5 167.4,127.5 167.4,123.9 	"/>
	<polygon class="st125" points="167.4,123.9 182.9,123.9 182.9,127.5 167.4,127.5 167.4,123.9 	"/>
	<polygon class="st125" points="167.4,123.9 182.9,123.9 182.9,127.5 167.4,127.5 167.4,123.9 	"/>
	<polygon class="st124" points="328.8,123.9 344.3,123.9 344.3,127.5 328.8,127.5 328.8,123.9 	"/>
	<polygon class="st124" points="328.8,123.9 344.3,123.9 344.3,127.5 328.8,127.5 328.8,123.9 	"/>
	<polygon class="st125" points="328.8,123.9 344.3,123.9 344.3,127.5 328.8,127.5 328.8,123.9 	"/>
	<polygon class="st125" points="328.8,123.9 344.3,123.9 344.3,127.5 328.8,127.5 328.8,123.9 	"/>
	<path class="st128" d="M240.2,234.5c-4,2.3-0.5,4.1-0.3,4.1c4.8-0.1-8.1,0-14.4,2.2c-3.3,1.1-0.6,1.8-0.6,1.8l5,0.1
		c10,1,14.3,10.1,15.1,16.9c0.2,0.8,3.4,67.2,3.4,67.2c0,2.6-2.9,4.2-0.2,4.9c5.6,1.4,5.4,7.4,2.4,8.2c-1,0.2-0.6,1.7-0.2,1.7
		c0.7,0,6.9,0,6.9,0s6.4,0,7.1,0c0.3,0,0.8-1.5-0.2-1.7c-3-0.8-3.2-6.9,2.4-8.2c2.6-0.7-0.2-2.3-0.2-4.9c0,0,3.2-66.4,3.4-67.2
		c0.8-6.9,5.2-15.9,15.1-16.9l5-0.1c0,0,2.7-0.7-0.6-1.8c-6.3-2.2-19.2-2.3-14.4-2.2c0.1,0,3.7-1.8-0.3-4.1H240.2L240.2,234.5z"/>
	<line class="st129" x1="226.2" y1="242.6" x2="287.7" y2="242.6"/>
	<path class="st130" d="M250.9,329.8c0-17.1-0.9-31.6-0.9-49.6c-2.2-27.2-1.5-28-9.3-34c-0.9-0.7,6-0.5,6-0.5
		c2.7,0.8,5.8,20.2,5.8,34.5c0,18,0.1,32.5,0.1,49.6C252.5,330.9,250.9,330.9,250.9,329.8L250.9,329.8z"/>
	<path class="st130" d="M256.5,328.9c0,0,0-23.5,0-37.4c0-14.5,0.8-42.5-4.8-45.3c-1-0.5,10.6,0,10.6,0c-5,4.5-4.1,30.5-4.1,45.3
		c0,14.1,0,37.8,0,37.8C257,329.1,256.3,329.9,256.5,328.9L256.5,328.9z"/>
	<path class="st130" d="M263.8,329.8c0-17.1,0.9-31.6,0.9-49.6c2.2-27.2,0.7-28,8.5-34c0.9-0.7-6-0.5-6-0.5c-2.7,0.8-5,20.2-5,34.5
		c0,18-0.1,32.5-0.1,49.6C262.1,330.9,263.8,330.9,263.8,329.8L263.8,329.8z"/>
	<path class="st131" d="M244.4,255.8h26.4 M245.4,263.7H269 M245.3,259.5h24.5"/>
	<path class="st132" d="M248.8,329.2h16.9 M249.5,325h16.3 M249.1,324.1l17.3-11.5 M265.9,323.8l-17.8-11.3 M248.1,312.5l19.6-13.5
		 M266.5,312.5l-19.5-14 M247.2,297.1l21.5-14.2 M267.8,297.4l-21.5-15"/>
	<polygon class="st124" points="246.1,236.2 254.1,236.2 254.1,238.5 246.1,238.5 246.1,236.2 	"/>
	<polygon class="st124" points="243,239.5 252.6,239.5 250.9,241.8 234.2,241.8 243,239.5 	"/>
	<line class="st133" x1="240.2" y1="234.5" x2="274.5" y2="234.5"/>
	<line class="st132" x1="248.1" y1="330.9" x2="266.4" y2="330.9"/>
	<line class="st134" x1="239.3" y1="238.7" x2="273.2" y2="238.7"/>
	<g>
		<defs>
			<path id="SVGID_37_" d="M265.6,349.9c0,4.6-3.7,8.3-8.3,8.3c-4.6,0-8.3-3.7-8.3-8.3c0-4.6,3.7-8.3,8.3-8.3
				C261.9,341.6,265.6,345.3,265.6,349.9L265.6,349.9z"/>
		</defs>
		<clipPath id="SVGID_38_">
			<use xlink:href="#SVGID_37_"  style="overflow:visible;"/>
		</clipPath>
		<polygon class="st135" points="249,341.6 265.6,341.6 265.6,358.2 249,358.2 249,341.6 		"/>
		<path class="st136" d="M249.4,349.9c0-4.3,3.5-7.9,7.9-7.9c4.3,0,7.9,3.5,7.9,7.9c0,4.4-3.5,7.9-7.9,7.9
			C253,357.8,249.4,354.2,249.4,349.9L249.4,349.9z"/>
		<path class="st137" d="M249.9,349.9c0-4.1,3.3-7.5,7.5-7.5c4.1,0,7.5,3.3,7.5,7.5c0,4.1-3.3,7.5-7.5,7.5
			C253.2,357.3,249.9,354,249.9,349.9L249.9,349.9z"/>
		<path class="st138" d="M250.3,349.9c0-3.9,3.2-7,7-7c3.9,0,7,3.1,7,7c0,3.9-3.2,7-7,7C253.4,356.9,250.3,353.8,250.3,349.9
			L250.3,349.9z"/>
		<path class="st139" d="M250.7,349.9c0-3.7,3-6.6,6.6-6.6c3.7,0,6.6,3,6.6,6.6c0,3.7-3,6.6-6.6,6.6
			C253.7,356.5,250.7,353.6,250.7,349.9L250.7,349.9z"/>
		<path class="st140" d="M251.1,349.9c0-3.4,2.8-6.2,6.2-6.2c3.4,0,6.2,2.8,6.2,6.2c0,3.4-2.8,6.2-6.2,6.2
			C253.9,356.1,251.1,353.3,251.1,349.9L251.1,349.9z"/>
		<path class="st141" d="M251.5,349.9c0-3.2,2.6-5.8,5.8-5.8c3.2,0,5.8,2.6,5.8,5.8c0,3.2-2.6,5.8-5.8,5.8
			C254.1,355.7,251.5,353.1,251.5,349.9L251.5,349.9z"/>
		<path class="st142" d="M251.9,349.9c0-3,2.4-5.4,5.4-5.4c3,0,5.4,2.4,5.4,5.4c0,3-2.4,5.4-5.4,5.4
			C254.3,355.3,251.9,352.9,251.9,349.9L251.9,349.9z"/>
		<path class="st143" d="M252.3,349.9c0-2.7,2.2-5,5-5c2.7,0,5,2.2,5,5c0,2.7-2.2,5-5,5C254.6,354.9,252.3,352.6,252.3,349.9
			L252.3,349.9z"/>
		<path class="st144" d="M252.8,349.9c0-2.5,2-4.6,4.6-4.6c2.5,0,4.6,2,4.6,4.6c0,2.5-2,4.6-4.6,4.6
			C254.8,354.4,252.8,352.4,252.8,349.9L252.8,349.9z"/>
		<path class="st145" d="M253.2,349.9c0-2.3,1.9-4.1,4.1-4.1c2.3,0,4.1,1.9,4.1,4.1c0,2.3-1.9,4.1-4.1,4.1
			C255,354,253.2,352.2,253.2,349.9L253.2,349.9z"/>
		<path class="st146" d="M253.6,349.9c0-2.1,1.7-3.7,3.7-3.7c2.1,0,3.7,1.7,3.7,3.7c0,2.1-1.7,3.7-3.7,3.7
			C255.3,353.6,253.6,351.9,253.6,349.9L253.6,349.9z"/>
		<path class="st147" d="M254,349.9c0-1.8,1.5-3.3,3.3-3.3c1.8,0,3.3,1.5,3.3,3.3c0,1.8-1.5,3.3-3.3,3.3
			C255.5,353.2,254,351.7,254,349.9L254,349.9z"/>
		<path class="st148" d="M254.4,349.9c0-1.6,1.3-2.9,2.9-2.9c1.6,0,2.9,1.3,2.9,2.9c0,1.6-1.3,2.9-2.9,2.9
			C255.7,352.8,254.4,351.5,254.4,349.9L254.4,349.9z"/>
		<path class="st149" d="M254.8,349.9c0-1.4,1.1-2.5,2.5-2.5c1.4,0,2.5,1.1,2.5,2.5c0,1.4-1.1,2.5-2.5,2.5
			C255.9,352.4,254.8,351.3,254.8,349.9L254.8,349.9z"/>
		<path class="st150" d="M255.2,349.9c0-1.1,0.9-2.1,2.1-2.1c1.1,0,2.1,0.9,2.1,2.1c0,1.1-0.9,2.1-2.1,2.1
			C256.2,352,255.2,351,255.2,349.9L255.2,349.9z"/>
		<path class="st151" d="M255.7,349.9c0-0.9,0.7-1.7,1.7-1.7c0.9,0,1.7,0.7,1.7,1.7c0,0.9-0.7,1.7-1.7,1.7
			C256.4,351.5,255.7,350.8,255.7,349.9L255.7,349.9z"/>
		<path class="st152" d="M256.1,349.9c0-0.7,0.6-1.2,1.2-1.2c0.7,0,1.2,0.6,1.2,1.2c0,0.7-0.6,1.2-1.2,1.2
			C256.6,351.1,256.1,350.6,256.1,349.9L256.1,349.9z"/>
		<path class="st153" d="M256.5,349.9c0-0.5,0.4-0.8,0.8-0.8c0.5,0,0.8,0.4,0.8,0.8c0,0.5-0.4,0.8-0.8,0.8
			C256.9,350.7,256.5,350.4,256.5,349.9L256.5,349.9z"/>
		<path class="st154" d="M256.9,349.9c0-0.2,0.2-0.4,0.4-0.4c0.2,0,0.4,0.2,0.4,0.4c0,0.2-0.2,0.4-0.4,0.4
			C257.1,350.3,256.9,350.1,256.9,349.9L256.9,349.9z"/>
	</g>
	<path class="st155" d="M265.6,349.9c0,4.6-3.7,8.3-8.3,8.3c-4.6,0-8.3-3.7-8.3-8.3c0-4.6,3.7-8.3,8.3-8.3
		C261.9,341.6,265.6,345.3,265.6,349.9L265.6,349.9z"/>
	<g>
		<defs>
			<path id="SVGID_39_" d="M252.2,339.5c0,0,3.3-3.1-1-7.2c0,0,8.8,0.8,11.2,7.2H252.2L252.2,339.5z"/>
		</defs>
		<clipPath id="SVGID_40_">
			<use xlink:href="#SVGID_39_"  style="overflow:visible;"/>
		</clipPath>
		<rect x="250.7" y="338.1" class="st156" width="11.6" height="1.5"/>
		<rect x="250.7" y="336.7" class="st157" width="11.6" height="1.5"/>
		<rect x="250.7" y="335.3" class="st158" width="11.6" height="1.5"/>
		<rect x="250.7" y="333.8" class="st159" width="11.6" height="1.5"/>
		<rect x="250.7" y="332.4" class="st160" width="11.6" height="1.5"/>
	</g>
	<line class="st132" x1="251" y1="340.5" x2="263.8" y2="340.5"/>
	<g>
		<defs>
			<polygon id="SVGID_41_" points="258.8,235.1 271.5,235.1 271.5,237.9 258.8,237.9 258.8,235.1 			"/>
		</defs>
		<clipPath id="SVGID_42_">
			<use xlink:href="#SVGID_41_"  style="overflow:visible;"/>
		</clipPath>
		<rect x="268.9" y="235.2" class="st161" width="2.9" height="2.9"/>
		<rect x="266.4" y="235.2" class="st162" width="2.9" height="2.9"/>
		<rect x="263.8" y="235.2" class="st163" width="2.9" height="2.9"/>
		<rect x="261.3" y="235.2" class="st164" width="2.9" height="2.9"/>
		<rect x="258.8" y="235.2" class="st165" width="2.9" height="2.9"/>
	</g>
	<g>
		<defs>
			<polygon id="SVGID_43_" points="261.5,239.6 263.1,241.9 283.7,241.9 275,239.6 261.5,239.6 			"/>
		</defs>
		<clipPath id="SVGID_44_">
			<use xlink:href="#SVGID_43_"  style="overflow:visible;"/>
		</clipPath>
		<polygon class="st166" points="261.5,239.6 283.7,239.6 283.7,241.9 261.5,241.9 261.5,239.6 		"/>
		<path class="st167" d="M265.1,240.7c0-4.1,3.4-7.5,7.5-7.5c4.1,0,7.5,3.4,7.5,7.5c0,4.1-3.4,7.5-7.5,7.5
			C268.4,248.3,265.1,244.9,265.1,240.7L265.1,240.7z"/>
		<path class="st168" d="M265.5,240.7c0-3.9,3.2-7.1,7.1-7.1c3.9,0,7.1,3.2,7.1,7.1c0,3.9-3.2,7.1-7.1,7.1
			C268.7,247.9,265.5,244.7,265.5,240.7L265.5,240.7z"/>
		<path class="st169" d="M265.9,240.7c0-3.7,3-6.7,6.7-6.7c3.7,0,6.7,3,6.7,6.7c0,3.7-3,6.7-6.7,6.7
			C268.9,247.5,265.9,244.5,265.9,240.7L265.9,240.7z"/>
		<path class="st170" d="M266.3,240.7c0-3.5,2.8-6.3,6.3-6.3c3.5,0,6.3,2.8,6.3,6.3c0,3.5-2.8,6.3-6.3,6.3
			C269.1,247.1,266.3,244.2,266.3,240.7L266.3,240.7z"/>
		<path class="st171" d="M266.7,240.7c0-3.3,2.7-5.9,5.9-5.9c3.3,0,5.9,2.7,5.9,5.9c0,3.3-2.7,5.9-5.9,5.9
			C269.3,246.7,266.7,244,266.7,240.7L266.7,240.7z"/>
		<path class="st172" d="M267,240.7c0-3.1,2.5-5.5,5.5-5.5c3.1,0,5.5,2.5,5.5,5.5c0,3.1-2.5,5.5-5.5,5.5
			C269.5,246.3,267,243.8,267,240.7L267,240.7z"/>
		<path class="st173" d="M267.4,240.7c0-2.8,2.3-5.1,5.1-5.1c2.8,0,5.1,2.3,5.1,5.1c0,2.8-2.3,5.1-5.1,5.1
			C269.7,245.9,267.4,243.6,267.4,240.7L267.4,240.7z"/>
		<path class="st174" d="M267.8,240.7c0-2.6,2.1-4.7,4.7-4.7c2.6,0,4.7,2.1,4.7,4.7c0,2.6-2.1,4.7-4.7,4.7
			C270,245.5,267.8,243.4,267.8,240.7L267.8,240.7z"/>
		<path class="st175" d="M268.2,240.7c0-2.4,1.9-4.4,4.3-4.4c2.4,0,4.4,1.9,4.4,4.4c0,2.4-1.9,4.3-4.4,4.3
			C270.2,245.1,268.2,243.1,268.2,240.7L268.2,240.7z"/>
		<path class="st176" d="M268.6,240.7c0-2.2,1.8-4,4-4c2.2,0,4,1.8,4,4c0,2.2-1.8,4-4,4C270.4,244.7,268.6,242.9,268.6,240.7
			L268.6,240.7z"/>
		<path class="st177" d="M269,240.7c0-2,1.6-3.6,3.6-3.6c2,0,3.6,1.6,3.6,3.6c0,2-1.6,3.6-3.6,3.6C270.6,244.3,269,242.7,269,240.7
			L269,240.7z"/>
		<path class="st178" d="M269.4,240.7c0-1.7,1.4-3.2,3.2-3.2c1.7,0,3.2,1.4,3.2,3.2c0,1.7-1.4,3.2-3.2,3.2
			C270.8,243.9,269.4,242.5,269.4,240.7L269.4,240.7z"/>
		<path class="st179" d="M269.8,240.7c0-1.5,1.2-2.8,2.8-2.8c1.5,0,2.8,1.2,2.8,2.8c0,1.5-1.2,2.8-2.8,2.8
			C271.1,243.5,269.8,242.3,269.8,240.7L269.8,240.7z"/>
		<path class="st180" d="M270.2,240.7c0-1.3,1.1-2.4,2.4-2.4c1.3,0,2.4,1.1,2.4,2.4c0,1.3-1.1,2.4-2.4,2.4
			C271.3,243.1,270.2,242.1,270.2,240.7L270.2,240.7z"/>
		<path class="st181" d="M270.6,240.7c0-1.1,0.9-2,2-2c1.1,0,2,0.9,2,2c0,1.1-0.9,2-2,2C271.5,242.7,270.6,241.8,270.6,240.7
			L270.6,240.7z"/>
		<path class="st182" d="M271,240.7c0-0.9,0.7-1.6,1.6-1.6c0.9,0,1.6,0.7,1.6,1.6c0,0.9-0.7,1.6-1.6,1.6
			C271.7,242.3,271,241.6,271,240.7L271,240.7z"/>
		<path class="st183" d="M271.4,240.7c0-0.7,0.5-1.2,1.2-1.2c0.7,0,1.2,0.5,1.2,1.2c0,0.7-0.5,1.2-1.2,1.2
			C271.9,241.9,271.4,241.4,271.4,240.7L271.4,240.7z"/>
		<path class="st184" d="M271.8,240.7c0-0.4,0.4-0.8,0.8-0.8c0.4,0,0.8,0.4,0.8,0.8c0,0.4-0.4,0.8-0.8,0.8
			C272.1,241.5,271.8,241.2,271.8,240.7L271.8,240.7z"/>
		<path class="st185" d="M272.2,240.7c0-0.2,0.2-0.4,0.4-0.4c0.2,0,0.4,0.2,0.4,0.4c0,0.2-0.2,0.4-0.4,0.4
			C272.4,241.1,272.2,241,272.2,240.7L272.2,240.7z"/>
	</g>
	<g>
		<defs>
			<path id="SVGID_45_" d="M261.8,186.2c0,0-2,6.3,1.3,12.6c0.7,1.3,9.4,12.5,9.6,12.8c0.3,0.4,8.6,12,1.1,22h-8.2
				c0,0,6.4-5.7-3.7-18.3C251.9,202.8,255.1,191.4,261.8,186.2L261.8,186.2z"/>
		</defs>
		<clipPath id="SVGID_46_">
			<use xlink:href="#SVGID_45_"  style="overflow:visible;"/>
		</clipPath>
		<polygon class="st186" points="255.6,186.2 261.9,186.2 261.9,233.6 255.6,233.6 255.6,186.2 		"/>
	</g>
	<g>
		<defs>
			<polygon id="SVGID_47_" points="257.6,186.2 287.2,186.2 287.2,233.6 257.6,233.6 257.6,186.2 			"/>
		</defs>
		<defs>
			<path id="SVGID_48_" d="M261.8,186.2c0,0-2,6.3,1.3,12.6c0.7,1.3,9.4,12.5,9.6,12.8c0.3,0.4,8.6,12,1.1,22h-8.2
				c0,0,6.4-5.7-3.7-18.3C251.9,202.8,255.1,191.4,261.8,186.2L261.8,186.2z"/>
		</defs>
		<clipPath id="SVGID_49_">
			<use xlink:href="#SVGID_47_"  style="overflow:visible;"/>
		</clipPath>
		<clipPath id="SVGID_50_" class="st187">
			<use xlink:href="#SVGID_48_"  style="overflow:visible;"/>
		</clipPath>
		<rect x="257.6" y="185.6" class="st188" width="5.8" height="48"/>
		<rect x="263.6" y="185.6" class="st189" width="5.8" height="48"/>
		<rect x="269.5" y="185.6" class="st190" width="5.8" height="48"/>
		<rect x="275.4" y="185.6" class="st191" width="5.8" height="48"/>
	</g>
	<path class="st192" d="M261.8,186.2c0,0-2,6.3,1.3,12.6c0.7,1.3,9.4,12.5,9.6,12.8c0.3,0.4,8.6,12,1.1,22h-8.2
		c0,0,6.4-5.7-3.7-18.3C251.9,202.8,255.1,191.4,261.8,186.2L261.8,186.2z"/>
	<g>
		<defs>
			<path id="SVGID_51_" d="M263.6,183c0,0-1.5,2.9-3.2,5.6c-0.4,0.7-5,5.9-3.7,9c1.3,3.1,11.4,12.6,11.9,12.8c0,0-1.3,0.9-1.5,5.5
				l-0.3,6.3c0,0-3.2-4.3-4.3-5.9c0,0-15.2-11.9-9.3-23.2c0.7-1,2-4.6,3.6-6.3c1.7-1.7,4-3.8,4.5-4.4
				C261.8,182,262.6,180.7,263.6,183L263.6,183z"/>
		</defs>
		<clipPath id="SVGID_52_">
			<use xlink:href="#SVGID_51_"  style="overflow:visible;"/>
		</clipPath>
		<polygon class="st193" points="251.9,181.7 259,181.7 259,222.3 251.9,222.3 251.9,181.7 		"/>
	</g>
	<g>
		<defs>
			<polygon id="SVGID_53_" points="254.7,181.7 276.7,181.7 276.7,222.3 254.7,222.3 254.7,181.7 			"/>
		</defs>
		<defs>
			<path id="SVGID_54_" d="M263.6,183c0,0-1.5,2.9-3.2,5.6c-0.4,0.7-5,5.9-3.7,9c1.3,3.1,11.4,12.6,11.9,12.8c0,0-1.3,0.9-1.5,5.5
				l-0.3,6.3c0,0-3.2-4.3-4.3-5.9c0,0-15.2-11.9-9.3-23.2c0.7-1,2-4.6,3.6-6.3c1.7-1.7,4-3.8,4.5-4.4
				C261.8,182,262.6,180.7,263.6,183L263.6,183z"/>
		</defs>
		<clipPath id="SVGID_55_">
			<use xlink:href="#SVGID_53_"  style="overflow:visible;"/>
		</clipPath>
		<clipPath id="SVGID_56_" class="st194">
			<use xlink:href="#SVGID_54_"  style="overflow:visible;"/>
		</clipPath>
		<rect x="254.7" y="181.5" class="st195" width="4.4" height="40.7"/>
		<rect x="259.1" y="181.5" class="st196" width="4.4" height="40.7"/>
		<rect x="263.5" y="181.5" class="st197" width="4.4" height="40.7"/>
		<rect x="267.9" y="181.5" class="st198" width="4.4" height="40.7"/>
	</g>
	<path class="st192" d="M263.6,183c0,0-1.5,2.9-3.2,5.6c-0.4,0.7-5,5.9-3.7,9c1.3,3.1,11.4,12.6,11.9,12.8c0,0-1.3,0.9-1.5,5.5
		l-0.3,6.3c0,0-3.2-4.3-4.3-5.9c0,0-15.2-11.9-9.3-23.2c0.7-1,2-4.6,3.6-6.3c1.7-1.7,4-3.8,4.5-4.4C261.8,182,262.6,180.7,263.6,183
		L263.6,183z"/>
	<g>
		<defs>
			<path id="SVGID_57_" d="M274.8,234c0,0,5.5-6.3,2.5-11.7c0,0-6.4-9.3-3.7-10c2.8-0.7,5.9,2.4,6,3.6c0,0,3.1-2.5-1.4-5.8
				c-4.5-3.3-10-1.9-10.9,2.9c-0.9,4.7-1.5,17.2,3.3,21H274.8L274.8,234z"/>
		</defs>
		<clipPath id="SVGID_58_">
			<use xlink:href="#SVGID_57_"  style="overflow:visible;"/>
		</clipPath>
		<polygon class="st199" points="266.7,208.3 272,208.3 272,234 266.7,234 266.7,208.3 		"/>
		<polygon class="st200" points="273.8,208.3 280.7,208.3 280.7,234 273.8,234 273.8,208.3 		"/>
	</g>
	<g>
		<defs>
			<polygon id="SVGID_59_" points="267.7,208.3 278.1,208.3 278.1,234 267.7,234 267.7,208.3 			"/>
		</defs>
		<defs>
			<path id="SVGID_60_" d="M274.8,234c0,0,5.5-6.3,2.5-11.7c0,0-6.4-9.3-3.7-10c2.8-0.7,5.9,2.4,6,3.6c0,0,3.1-2.5-1.4-5.8
				c-4.5-3.3-10-1.9-10.9,2.9c-0.9,4.7-1.5,17.2,3.3,21H274.8L274.8,234z"/>
		</defs>
		<clipPath id="SVGID_61_">
			<use xlink:href="#SVGID_59_"  style="overflow:visible;"/>
		</clipPath>
		<clipPath id="SVGID_62_" class="st201">
			<use xlink:href="#SVGID_60_"  style="overflow:visible;"/>
		</clipPath>
		<rect x="268.3" y="207.7" class="st202" width="1.5" height="26.2"/>
		<rect x="270.4" y="207.7" class="st203" width="1.5" height="26.2"/>
		<rect x="272.5" y="207.7" class="st204" width="1.5" height="26.2"/>
		<rect x="274.6" y="207.7" class="st205" width="1.5" height="26.2"/>
		<rect x="276.6" y="207.7" class="st206" width="1.5" height="26.2"/>
	</g>
	<path class="st192" d="M274.8,234c0,0,5.5-6.3,2.5-11.7c0,0-6.4-9.3-3.7-10c2.8-0.7,5.9,2.4,6,3.6c0,0,3.1-2.5-1.4-5.8
		c-4.5-3.3-10-1.9-10.9,2.9c-0.9,4.7-1.5,17.2,3.3,21H274.8L274.8,234z"/>
	<g>
		<defs>
			<path id="SVGID_63_" d="M241.6,233.9c0,0-6.1-4.2-1.6-12.5c1.3-2.4-0.7-8.4-3-7.2c-2.3,1.2-2,6.4-2,6.4s-3-2.8-1.3-7.5
				c1.7-4.7,5.3-5.8,8.2-4c2.9,1.8,4.7,8.1,5.2,9.3c1.2,3.1,1.4,15.5,1.4,15.5H241.6L241.6,233.9z"/>
		</defs>
		<clipPath id="SVGID_64_">
			<use xlink:href="#SVGID_63_"  style="overflow:visible;"/>
		</clipPath>
		<polygon class="st207" points="233.1,208.3 239.4,208.3 239.4,233.9 233.1,233.9 233.1,208.3 		"/>
	</g>
	<g>
		<defs>
			<polygon id="SVGID_65_" points="235.1,208.3 256.3,208.3 256.3,233.9 235.1,233.9 235.1,208.3 			"/>
		</defs>
		<defs>
			<path id="SVGID_66_" d="M241.6,233.9c0,0-6.1-4.2-1.6-12.5c1.3-2.4-0.7-8.4-3-7.2c-2.3,1.2-2,6.4-2,6.4s-3-2.8-1.3-7.5
				c1.7-4.7,5.3-5.8,8.2-4c2.9,1.8,4.7,8.1,5.2,9.3c1.2,3.1,1.4,15.5,1.4,15.5H241.6L241.6,233.9z"/>
		</defs>
		<clipPath id="SVGID_67_">
			<use xlink:href="#SVGID_65_"  style="overflow:visible;"/>
		</clipPath>
		<clipPath id="SVGID_68_" class="st208">
			<use xlink:href="#SVGID_66_"  style="overflow:visible;"/>
		</clipPath>
		<rect x="234.9" y="207.7" class="st209" width="4.4" height="26.2"/>
		<rect x="239.2" y="207.7" class="st210" width="4.4" height="26.2"/>
		<rect x="243.4" y="207.7" class="st211" width="4.4" height="26.2"/>
		<rect x="247.7" y="207.7" class="st212" width="4.4" height="26.2"/>
	</g>
	<path class="st192" d="M241.6,233.9c0,0-6.1-4.2-1.6-12.5c1.3-2.4-0.7-8.4-3-7.2c-2.3,1.2-2,6.4-2,6.4s-3-2.8-1.3-7.5
		c1.7-4.7,5.3-5.8,8.2-4c2.9,1.8,4.7,8.1,5.2,9.3c1.2,3.1,1.4,15.5,1.4,15.5H241.6L241.6,233.9z"/>
	<g>
		<defs>
			<path id="SVGID_69_" d="M245.2,197.1c0,0,5.3,1,3,10.4c-2.3,9.4-4.9,9.6-4.7,17.2c0.2,7.6,2.7,9.4,2.7,9.4h13.8
				c0,0,4.9-5.1,3.9-13c-1-7.9-6.4-10.2-6.7-11c-0.3-0.8-5.2-12.6-11.9-15.7c-1-0.4-3,1.7-0.5,2.6L245.2,197.1L245.2,197.1z"/>
		</defs>
		<clipPath id="SVGID_70_">
			<use xlink:href="#SVGID_69_"  style="overflow:visible;"/>
		</clipPath>
		<polygon class="st213" points="243.5,194.4 251.5,194.4 251.5,234.1 243.5,234.1 243.5,194.4 		"/>
	</g>
	<g>
		<defs>
			<polygon id="SVGID_71_" points="247.1,194.4 266.9,194.4 266.9,234.1 247.1,234.1 247.1,194.4 			"/>
		</defs>
		<defs>
			<path id="SVGID_72_" d="M245.2,197.1c0,0,5.3,1,3,10.4c-2.3,9.4-4.9,9.6-4.7,17.2c0.2,7.6,2.7,9.4,2.7,9.4h13.8
				c0,0,4.9-5.1,3.9-13c-1-7.9-6.4-10.2-6.7-11c-0.3-0.8-5.2-12.6-11.9-15.7c-1-0.4-3,1.7-0.5,2.6L245.2,197.1L245.2,197.1z"/>
		</defs>
		<clipPath id="SVGID_73_">
			<use xlink:href="#SVGID_71_"  style="overflow:visible;"/>
		</clipPath>
		<clipPath id="SVGID_74_" class="st214">
			<use xlink:href="#SVGID_72_"  style="overflow:visible;"/>
		</clipPath>
		<rect x="246.7" y="194.8" class="st215" width="4.4" height="39.3"/>
		<rect x="250.7" y="194.8" class="st216" width="4.4" height="39.3"/>
		<rect x="254.6" y="194.8" class="st217" width="4.4" height="39.3"/>
		<rect x="258.6" y="194.8" class="st218" width="4.4" height="39.3"/>
		<rect x="262.5" y="194.8" class="st219" width="4.4" height="39.3"/>
	</g>
	<path class="st192" d="M245.2,197.1c0,0,5.3,1,3,10.4c-2.3,9.4-4.9,9.6-4.7,17.2c0.2,7.6,2.7,9.4,2.7,9.4h13.8c0,0,4.9-5.1,3.9-13
		c-1-7.9-6.4-10.2-6.7-11c-0.3-0.8-5.2-12.6-11.9-15.7c-1-0.4-3,1.7-0.5,2.6L245.2,197.1L245.2,197.1z"/>
	<g>
		<defs>
			<path id="SVGID_75_" d="M255.4,233.7c0,0,3.9-5.2,4.3-6.9c0.4-1.7,1.4-10.3-2.5-10.6c-3.9-0.3-4.8,9.4-4,12
				C254,230.9,254.6,232.8,255.4,233.7L255.4,233.7z"/>
		</defs>
		<clipPath id="SVGID_76_">
			<use xlink:href="#SVGID_75_"  style="overflow:visible;"/>
		</clipPath>
		<polygon class="st220" points="252.9,216.2 258.1,216.2 258.1,233.7 252.9,233.7 252.9,216.2 		"/>
	</g>
	<g>
		<defs>
			<polygon id="SVGID_77_" points="253.8,216.2 263.1,216.2 263.1,233.7 253.8,233.7 253.8,216.2 			"/>
		</defs>
		<defs>
			<path id="SVGID_78_" d="M255.4,233.7c0,0,3.9-5.2,4.3-6.9c0.4-1.7,1.4-10.3-2.5-10.6c-3.9-0.3-4.8,9.4-4,12
				C254,230.9,254.6,232.8,255.4,233.7L255.4,233.7z"/>
		</defs>
		<clipPath id="SVGID_79_">
			<use xlink:href="#SVGID_77_"  style="overflow:visible;"/>
		</clipPath>
		<clipPath id="SVGID_80_" class="st221">
			<use xlink:href="#SVGID_78_"  style="overflow:visible;"/>
		</clipPath>
		<rect x="254.2" y="216.3" class="st222" width="1.5" height="17.5"/>
		<rect x="256.1" y="216.3" class="st223" width="1.5" height="17.5"/>
		<rect x="257.9" y="216.3" class="st224" width="1.5" height="17.5"/>
		<rect x="259.8" y="216.3" class="st225" width="1.5" height="17.5"/>
	</g>
	<path class="st192" d="M255.4,233.7c0,0,3.9-5.2,4.3-6.9c0.4-1.7,1.4-10.3-2.5-10.6c-3.9-0.3-4.8,9.4-4,12
		C254,230.9,254.6,232.8,255.4,233.7L255.4,233.7z"/>
	<g>
		<defs>
			<path id="SVGID_81_" d="M251.9,233.7c0,0-3.6-3.3-0.7-10.9c2.9-7.7,2.5-14.8-0.2-18.1c0,0,1.2,9.8-0.4,13.5
				c-1.6,3.7-6.1,8.3-2.2,15.5H251.9L251.9,233.7z"/>
		</defs>
		<clipPath id="SVGID_82_">
			<use xlink:href="#SVGID_81_"  style="overflow:visible;"/>
		</clipPath>
		<polygon class="st226" points="262.8,210.5 258.2,220.2 246.3,214.6 250.9,204.9 262.8,210.5 		"/>
	</g>
	<g>
		<defs>
			<polygon id="SVGID_83_" points="260.1,216.3 247.5,243 235.6,237.4 248.2,210.7 260.1,216.3 			"/>
		</defs>
		<defs>
			<path id="SVGID_84_" d="M251.9,233.7c0,0-3.6-3.3-0.7-10.9c2.9-7.7,2.5-14.8-0.2-18.1c0,0,1.2,9.8-0.4,13.5
				c-1.6,3.7-6.1,8.3-2.2,15.5H251.9L251.9,233.7z"/>
		</defs>
		<clipPath id="SVGID_85_">
			<use xlink:href="#SVGID_83_"  style="overflow:visible;"/>
		</clipPath>
		<clipPath id="SVGID_86_" class="st227">
			<use xlink:href="#SVGID_84_"  style="overflow:visible;"/>
		</clipPath>
		
			<rect x="249.8" y="209.4" transform="matrix(0.4227 -0.9063 0.9063 0.4227 -49.7985 353.8318)" class="st228" width="6.1" height="13.2"/>
		
			<rect x="247.3" y="214.8" transform="matrix(0.4227 -0.9063 0.9063 0.4227 -56.1006 354.6636)" class="st229" width="6.1" height="13.2"/>
		
			<rect x="244.8" y="220.1" transform="matrix(0.4227 -0.9063 0.9063 0.4227 -62.395 355.5086)" class="st230" width="6.1" height="13.2"/>
		
			<rect x="242.3" y="225.5" transform="matrix(0.4225 -0.9063 0.9063 0.4225 -68.6832 356.3749)" class="st231" width="6.1" height="13.2"/>
		
			<rect x="239.8" y="230.9" transform="matrix(0.4227 -0.9063 0.9063 0.4227 -75.006 357.1518)" class="st232" width="6.1" height="13.2"/>
	</g>
	<path class="st192" d="M251.9,233.7c0,0-3.6-3.3-0.7-10.9c2.9-7.7,2.5-14.8-0.2-18.1c0,0,1.2,9.8-0.4,13.5
		c-1.6,3.7-6.1,8.3-2.2,15.5H251.9L251.9,233.7z"/>
	<g>
		<defs>
			<path id="SVGID_87_" d="M266.3,234c0,0,4.2-6.6-0.2-13.3l-3.6-4.3c0,0,4.7,10.2-2.7,17.6L266.3,234L266.3,234z"/>
		</defs>
		<clipPath id="SVGID_88_">
			<use xlink:href="#SVGID_87_"  style="overflow:visible;"/>
		</clipPath>
		<polygon class="st233" points="262.3,216.6 268.5,218.8 262.7,235.2 256.4,233 262.3,216.6 		"/>
	</g>
	<g>
		<defs>
			<polygon id="SVGID_89_" points="264.5,217.3 290.7,226.7 284.8,243.1 258.6,233.8 264.5,217.3 			"/>
		</defs>
		<defs>
			<path id="SVGID_90_" d="M266.3,234c0,0,4.2-6.6-0.2-13.3l-3.6-4.3c0,0,4.7,10.2-2.7,17.6L266.3,234L266.3,234z"/>
		</defs>
		<clipPath id="SVGID_91_">
			<use xlink:href="#SVGID_89_"  style="overflow:visible;"/>
		</clipPath>
		<clipPath id="SVGID_92_" class="st234">
			<use xlink:href="#SVGID_90_"  style="overflow:visible;"/>
		</clipPath>
		
			<rect x="255.3" y="223.7" transform="matrix(0.342 -0.9397 0.9397 0.342 -38.5936 397.3649)" class="st235" width="18.3" height="5.1"/>
		
			<rect x="260.6" y="225.6" transform="matrix(0.342 -0.9397 0.9397 0.342 -36.9323 403.5623)" class="st236" width="18.3" height="5.1"/>
	</g>
	<path class="st192" d="M266.3,234c0,0,4.2-6.6-0.2-13.3l-3.6-4.3c0,0,4.7,10.2-2.7,17.6L266.3,234L266.3,234z"/>
	<path class="st237" d="M249.6,199c-1.4-1.8-4.6-7.3-6.7-8.5c-8-4.6-11.8,0-13.7,7.9c-3.1,12.9,0.8,32.9,0.8,40.7 M230.1,236.1
		c4.7,28.4,17.9,58.7,41.8,82.5c5.3,5,12,0,12.1-5.2c0.7-27-1.4-47.3-7.8-66 M280.8,244.9c14,16,30.9,44.9,34.4,58.3
		c2.2,8.4-2.9,13.2-11.5,9.7c-50.5-20.2-85.3-50.8-104.8-105.4c-2.9-8,5.7-12.6,11.5-10.3c7.3,2.9,13.7,5.2,25.5,12 M238.1,236.3
		c-14.1,1.9-25.2,5.5-41.4,11.9c-9.2,3.7-8.1,12.4-0.8,15.5c42.4,18.2,82.1,19.9,126.6-1c6.5-3.2,4-11.1-0.7-13.2
		c-15.8-6.8-31.1-11-44.7-13.3 M269.4,278.8c20.3-19.1,35.1-39.8,46.3-71.2c2.9-8-5.7-12.6-11.5-10.3
		c-56.5,22.6-82,52.6-104.8,105.9c-3.4,8,2.9,13.2,11.5,9.7c11.4-4.6,25.8-10.7,35.5-17.5"/>
	<path d="M196.5,127.9c0,0,3.8,0,4.4,0c0.6,0,0.6,0.3-0.3,0.9c-0.8,0.6-0.7,0.2-0.7,0.2v15.1c0.2,2.1,1.5,0.7,2.6,0.1
		c0.7-0.3,1.2-1,1.9-2.3c0.9-1.5,1.2,0.2,1.2,0.2l-0.8,3.8c-0.7,1.5-0.6,0.2-1.6,0.2c-1,0-5.8,0-5.8,0c-1-0.1-1.4,0-0.5-1.2
		c0.5-0.6,0.6-1.6,0.6-1.6v-14.6c-0.1-1-0.7,0.5-0.8-0.3C196.4,127.7,196.5,127.9,196.5,127.9L196.5,127.9z"/>
	<path d="M207.6,127.8h4.4c1.6-0.6,2-0.5,2.2,0.6c0.1,0.5,0.8,2.1,1.4,3.1c0.7,1.4-1.2,0.7-1.3,0.5c-1.6-2.6-4.5-3.6-4.4-1.5
		c0,0-0.1,3.9,0.1,4.4c1,1.9,2.2-1.9,2.8-0.1c0.1,0.3,0.6,1.2,1.2,3.1c0.1,0.5-0.8,0.8-0.9,0.6c-1.2-1.9-2.9-2.7-2.9-0.6v5.2
		c0.2,2.1,1,1.7,2.1,1.2c0.7-0.3,1.6-1.3,2.3-2.6c0.9-1.5,1.2,0.2,1.2,0.2l-0.8,3.8c-0.7,1.5-0.6,0.2-1.6,0.2c-1,0-5.8,0-5.8,0
		c-1-0.1-1.4,0-0.5-1.2c0.5-0.6,0.6-1.6,0.6-1.6v-13.7c-0.1-1-0.7-0.3-0.8-1.2C206.7,127.5,207.6,127.8,207.6,127.8L207.6,127.8z"/>
	<path d="M229.3,127.9h4.4c1.6-0.6,2-0.5,2.2,0.6c0.1,0.5,0.8,2.1,1.4,3.1c0.7,1.4-1.2,0.7-1.3,0.5c-1.6-2.6-4.5-3.6-4.4-1.5
		c0,0-0.1,4,0.1,4.4c1.1,1.9,2.2-1.9,2.8-0.1c0.1,0.3,0.6,1.2,1.2,3.1c0.1,0.5-0.8,0.8-0.9,0.6c-1.2-1.9-2.9-2.7-2.9-0.6v5.2
		c0.2,2.1,1,1.7,2.1,1.2c0.7-0.3,1.6-1.3,2.3-2.6c0.9-1.5,1.2,0.2,1.2,0.2l-0.8,3.8c-0.7,1.5-0.6,0.2-1.6,0.2c-1,0-5.8,0-5.8,0
		c-1-0.1-1.4,0-0.5-1.2c0.5-0.6,0.6-1.6,0.6-1.6v-13.7c-0.1-1-0.7-0.3-0.8-1.2C228.3,127.7,229.3,127.9,229.3,127.9L229.3,127.9z"/>
	<path d="M188.7,127.7h1.2c0.7,0.1,0.6,1.2,0.6,1.2l3,16c0.2,1.2,0.9,0.3,0.9,0.3v0.8h-3.8c-1.3,0,0.3-1,0.3-1l-2.2-12.5l-1.2,9.1
		h2.8l0.2,1.2h-3.1l-0.3,2.1c-0.1,0.8,0.5,0.6,0.5,0.6v0.7h-2.3c-0.7,0-1.2-0.6-0.3-0.7c0.8-0.1,0.8-1.3,0.8-1.3l2.3-15.5
		C188.1,127.7,188.7,127.7,188.7,127.7L188.7,127.7z"/>
	<path d="M220.5,130.1c-0.2,0-0.1,14.6-0.1,14.6c1.2,0.7,0.2,1.4,0.2,1.4H218c-1-0.1-1-0.8,0.1-1.4v-15.1c-0.1-1-0.7-0.3-0.8-1.2
		c-0.1-0.8,0.8-0.6,0.8-0.6s2.2,0,2.4,0c2.9-0.1,5.5,2.3,5.6,6.4c0,3.5-2.1,4.6-2.1,4.6l1.6,5.9c1.7,1.3-0.1,1.3-0.1,1.3h-2.7
		c-0.8,0-0.7-1.4,0.2-1.4c0.3,0-1.2-4.6-1.2-4.6c-0.5-1.3-1.5-0.9-1.5-0.9s0-1.3,0-1.4c2.4,0.6,1.9,0.2,2.7-1.5
		c0.5-1,0.2-3.8-0.2-5.8C222,127.5,220.5,130.1,220.5,130.1L220.5,130.1z"/>
	<path d="M256.4,127.8c0,0,3.8,0,4.4,0s0.6,0.3-0.3,0.9c-0.8,0.6-0.7,0.2-0.7,0.2V144c0.2,2.1,1.5,0.7,2.6,0.1
		c0.7-0.3,1.2-1,1.9-2.3c0.9-1.5,1.2,0.2,1.2,0.2l-0.8,3.8c-0.7,1.5-0.6,0.2-1.6,0.2c-1,0-5.8,0-5.8,0c-1-0.1-1.4,0-0.5-1.2
		c0.5-0.6,0.6-1.6,0.6-1.6v-14.6c-0.1-1-0.7,0.5-0.8-0.3C256.3,127.5,256.4,127.8,256.4,127.8L256.4,127.8z"/>
	<path d="M308.6,127.8h1.2c0.7,0.1,0.6,1.2,0.6,1.2l3,16c0.2,1.2,0.9,0.4,0.9,0.4v0.8h-3.8c-1.3,0,0.3-1,0.3-1l-2.2-12.5l-1.2,9.1
		h2.8l0.2,1.2h-3.1l-0.3,2.1c-0.1,0.8,0.5,0.6,0.5,0.6v0.7h-2.3c-0.7,0-1.2-0.6-0.3-0.7c0.8-0.1,0.8-1.3,0.8-1.3l2.3-15.5
		C308,127.8,308.6,127.8,308.6,127.8L308.6,127.8z"/>
	<path d="M270,127.5h1.2c0.7,0.1,0.6,1.2,0.6,1.2l3,16c0.2,1.2,0.9,0.3,0.9,0.3v0.8h-3.8c-1.3,0,0.3-1,0.3-1l-2.2-12.6l-1.2,9.1h2.8
		l0.2,1.2h-3.1l-0.3,2.1c-0.1,0.8,0.5,0.6,0.5,0.6v0.7h-2.3c-0.7,0-1.2-0.6-0.3-0.7c0.8-0.1,0.8-1.3,0.8-1.3l2.3-15.5
		C269.5,127.5,270,127.5,270,127.5L270,127.5z"/>
	<path d="M247.5,127.9h4.4c1.6-0.6,2-0.5,2.2,0.6c0.1,0.5,0.8,2.1,1.4,3.1c0.7,1.4-1.2,0.7-1.3,0.5c-1.6-2.6-4.5-3.6-4.4-1.5
		c0,0-0.1,4,0.1,4.4c1,1.9,2.2-1.9,2.8-0.1c0.1,0.3,0.6,1.2,1.2,3.1c0.1,0.5-0.8,0.8-0.9,0.6c-1.2-1.9-3.1-2.9-3.1-0.9v7.2
		c1.2,0.7,0.2,1.3,0.2,1.3h-2.7c-1-0.1-0.8-0.7,0.1-1.2v-15.3c-0.1-1-0.7-0.3-0.8-1.2C246.6,127.7,247.5,127.9,247.5,127.9
		L247.5,127.9z"/>
	<path d="M277.7,144.6l0-15.1c0-1.2,0.3-1,0.3-1c-0.6,0-1.7-0.7-1.7-0.7h4.1c0.7,0-0.5,0.9-0.3,1.7c0.1,0.8,2.9,7.2,2.9,7.2l1.9-7.2
		c0.1-0.9-0.9-1.7,0.1-1.7c1,0,2.1,0,2.1,0c0.9,0.6-0.5,1.2-0.2,2c0,0.3,1.5,14.9,1.5,14.9c0.5,0.8,0,0.6,0.6,0.6
		c0.6,0-0.1,0.8-0.1,0.8l-3.3-0.1c-1.3,0-0.5-0.8-0.1-0.9c0.7-0.2,0.1-1.3,0.1-1.3l-1-8.6l-1.9,8.1c-0.6,1.2-0.7,0-0.7,0l-3.2-8.2
		l0.3,9.6c0.2,0.7,0.8,0.8,0.8,0.8l-0.1,0.6l-2.3-0.1c-0.8,0-0.6-0.2,0-0.7C277.9,144.8,277.7,144.6,277.7,144.6L277.7,144.6z"/>
	<path d="M291.5,144.8l0-15.1c0-1.2,0.3-1,0.3-1c-0.6,0-1.7-0.7-1.7-0.7h4.1c0.7,0-0.5,0.9-0.3,1.7c0.1,0.8,2.9,7.2,2.9,7.2l1.9-7.2
		c0.1-0.9-0.9-1.7,0.1-1.7c1,0,2.1,0,2.1,0c0.9,0.6-0.5,1.2-0.2,2c0,0.3,1.5,14.9,1.5,14.9c0.5,0.8,0,0.6,0.6,0.6
		c0.6,0-0.1,0.8-0.1,0.8l-3.3-0.1c-1.3,0-0.5-0.8-0.1-0.9c0.7-0.2,0.1-1.3,0.1-1.3l-1-8.6l-1.9,8.1c-0.6,1.2-0.7,0-0.7,0l-3.2-8.2
		l0.3,9.6c0.2,0.7,0.8,0.8,0.8,0.8l-0.1,0.6l-2.3-0.1c-0.8,0-0.6-0.2,0-0.7C291.8,144.9,291.5,144.8,291.5,144.8L291.5,144.8z"/>
	<path d="M316.8,144.9l0-15.1c0-1.2-1.4-1-1.4-1c-0.6,0,1.7-0.7,1.7-0.7h2.4c0.7,0-0.5,0.9-0.3,1.7c0.1,0.8,2.9,7.2,2.9,7.2l1.9-7.2
		c0.1-0.9-0.9-1.7,0.1-1.7c1,0,2.1,0,2.1,0c0.9,0.6-0.5,1.2-0.2,2c0,0.3,1.5,14.9,1.5,14.9c0.5,0.8,0,0.6,0.6,0.6
		c0.6,0-0.1,0.8-0.1,0.8l-3.3-0.1c-1.3,0-0.5-0.8-0.1-0.9c0.7-0.2,0.1-1.3,0.1-1.3l-1-8.6l-1.9,8.1c-0.6,1.2-0.7,0-0.7,0l-3.2-8.3
		l0.3,9.6c0.2,0.7,0.8,0.8,0.8,0.8l-0.1,0.6l-2.3-0.1c-0.8,0-0.6-0.2,0-0.7C317,145,316.8,144.9,316.8,144.9L316.8,144.9z"/>
	<path d="M224.8,148.5h4.4c1.6-0.6,2-0.5,2.2,0.6c0.1,0.5,0.8,2.1,1.4,3.1c0.7,1.4-1.2,0.7-1.3,0.5c-1.6-2.6-4.5-3.6-4.4-1.5
		c0,0-0.1,4,0.1,4.4c1,1.9,2.2-1.9,2.8-0.1c0.1,0.3,0.6,1.2,1.2,3.1c0.1,0.5-0.8,0.8-0.9,0.6c-1.2-1.9-2.9-2.7-2.9-0.6v5.2
		c0.2,2.1,1,1.7,2.1,1.2c0.7-0.3,1.6-1.3,2.3-2.6c0.9-1.5,2.3-0.9,2.3-0.9l-2,5c-0.7,1.5-0.6,0.2-1.6,0.2c-1,0-5.8,0-5.8,0
		c-1-0.1-1.4,0-0.5-1.2c0.5-0.6,0.6-1.6,0.6-1.6v-13.7c-0.1-1-0.7-0.3-0.8-1.2C223.9,148.2,224.8,148.5,224.8,148.5L224.8,148.5z"/>
	<path d="M265.6,148.6h1.2c0.7,0.1,0.6,1.2,0.6,1.2l3,16c0.2,1.2,0.9,0.3,0.9,0.3v0.8h-3.8c-1.3,0,0.3-1,0.3-1l-2.2-12.5l-1.2,9.1
		h2.8l0.2,1.2h-3.1l-0.3,2.1c-0.1,0.8,0.5,0.6,0.5,0.6v0.7h-2.3c-0.7,0-1.2-0.6-0.4-0.7c0.8-0.1,0.8-1.3,0.8-1.3l2.3-15.5
		C265,148.6,265.6,148.6,265.6,148.6L265.6,148.6z"/>
	<path d="M282.7,148.6c0,0,2.2,0,2.4,0c0.9,0.1,0.9,0.9,0,1.3c-0.2,0-0.1,15.7-0.1,15.7c1.2,0.7,0.2,1.3,0.2,1.3h-2.7
		c-1-0.1-1-0.8,0.1-1.4v-15.1c-0.1-1-0.7-0.3-0.8-1.2C281.8,148.4,282.7,148.6,282.7,148.6L282.7,148.6z"/>
	<path d="M247.3,148.7c0,0,2.2,0,2.4,0c0.9,0.1,0.9,0.9,0,1.3c-0.2,0-0.2,15.6-0.2,15.6c1.2,0.7,0.3,1.4,0.3,1.4h-2.7
		c-1-0.1-1-0.8,0.1-1.4v-15.1c-0.1-1-0.7-0.3-0.8-1.2C246.3,148.5,247.3,148.7,247.3,148.7L247.3,148.7z"/>
	<path d="M219.3,167.1h-1.2c-0.7-0.1-0.6-1.2-0.6-1.2l-3-16c-0.2-1.2-0.9-0.3-0.9-0.3v-0.8h3.8c1.3,0-0.3,1-0.3,1l2.2,12.6l1.6-12.3
		c0.1-0.8-0.5-0.6-0.5-0.6v-0.7h2.3c0.7,0,1.2,0.6,0.3,0.7c-0.8,0.1-0.8,1.3-0.8,1.3l-2.3,15.5C219.8,167.1,219.3,167.1,219.3,167.1
		L219.3,167.1z"/>
	<path d="M258.9,148.6c1.6-0.6,2-0.5,2.2,0.6c0.1,0.5,0.5,1.4,0.8,3c0.2,1.5-1.2,0.7-1.2,0.6c-1.3-2.8-2.6-3.6-2.6-1.5v14.3
		c1.2,0.7,0.2,1.3,0.2,1.3h-2.7c-1-0.1-0.8-0.7,0.1-1.2c0,0,0-12.1,0-14.3c-0.5-2.3-1-1.9-2.7,1.4c0,0-1.7,1-1.3-0.5
		c0.6-1.7,0.9-2.7,1-3.1c0.2-1,0.6-1.2,2.2-0.6H258.9L258.9,148.6z"/>
	<path d="M277.5,148.7c1.6-0.6,2-0.5,2.2,0.6c0.1,0.5,0.5,1.4,0.8,3c0.2,1.5-1.2,0.7-1.2,0.6c-1.3-2.8-2.6-3.6-2.6-1.5v14.3
		c1.2,0.7,0.2,1.3,0.2,1.3h-2.7c-1-0.1-0.8-0.7,0.1-1.2c0,0,0-12.1,0-14.3c-0.5-2.3-1-1.9-2.7,1.4c0,0-1.7,1-1.3-0.5
		c0.6-1.7,0.9-2.7,1-3.1c0.2-1,0.6-1.2,2.2-0.6H277.5L277.5,148.7z"/>
	<path d="M238.9,151c-0.2,0-0.1,14.6-0.1,14.6c1.2,0.7,0.2,1.4,0.2,1.4h-2.7c-1-0.1-1-0.8,0.1-1.4v-15.1c-0.1-1-0.7-0.3-0.8-1.2
		c-0.1-0.8,0.8-0.6,0.8-0.6s2.2,0,2.4,0c2.9-0.1,5.5,2.3,5.6,6.4c0,3.5-2.1,4.6-2.1,4.6l1.6,5.9c1.7,1.3-0.1,1.3-0.1,1.3h-2.7
		c-0.8,0-0.7-1.4,0.2-1.4c0.3,0-1.2-4.6-1.2-4.6c-0.5-1.3-1.5-0.9-1.5-0.9s0-1.3,0-1.4c2.4,0.6,1.9,0.2,2.7-1.5
		c0.5-1,0.2-3.8-0.2-5.8C240.4,148.5,238.9,151,238.9,151L238.9,151z"/>
	<path d="M292.6,163.6c-0.1,1.6-1.7,1.7-2.8,1.2c-0.7-0.3-0.9-1.7-1.3-2.9c-0.5-1.7-1.2,0.2-1.2,0.2l0.5,4.2
		c0.7,1.5,0.6,0.2,1.6,0.2c1.1,0,0.4,0.7,2.4,0.6c2.1-0.1,3.8-2.7,3.8-5.6c0.1-3.1-1-4.4-2.4-5.7c-1.4-1.3-2.6-2.4-2.6-4.1
		c-0.1-2.4,1-2.7,2.2-0.7c1.2,2,2.1,2.1,1.9,1.2c-0.2-0.9-0.5-2.2-0.8-3.2c-0.3-1-0.5,0-1.5,0c-1,0-1.6-0.5-2.3,0
		c-1.3,0.9-1.7,1.5-1.7,3.6c0,2.1,0.5,3.4,2.3,5.1C291.9,158.7,292.8,159.5,292.6,163.6L292.6,163.6z"/>
</g>
<rect x="-6.3" y="21.2" class="st238" width="524.6" height="469.6"/>
</svg>
